M48
; DRILL file {KiCad 7.0.8} date Thu Apr 11 13:26:55 2024
; FORMAT={-:-/ absolute / metric / decimal}
; #@! TF.CreationDate,2024-04-11T13:26:55+03:00
; #@! TF.GenerationSoftware,Kicad,Pcbnew,7.0.8
; #@! TF.FileFunction,MixedPlating,1,4
FMAT,2
METRIC
; #@! TA.AperFunction,Plated,PTH,ViaDrill
T1C0.150
; #@! TA.AperFunction,Plated,PTH,ComponentDrill
T2C0.400
; #@! TA.AperFunction,Plated,PTH,ComponentDrill
T3C0.600
; #@! TA.AperFunction,Plated,PTH,ComponentDrill
T4C0.900
; #@! TA.AperFunction,Plated,PTH,ComponentDrill
T5C2.200
; #@! TA.AperFunction,NonPlated,NPTH,ComponentDrill
T6C0.650
%
G90
G05
T1
X152.51Y-88.77
X153.34Y-85.28
X154.02Y-100.94
X154.12Y-88.41
X154.19Y-90.47
X156.02Y-84.29
X156.02Y-91.58
X156.05Y-79.57
X156.06Y-90.58
X157.87Y-104.24
X158.16Y-87.66
X158.58Y-88.16
X158.8Y-95.58
X160.01Y-80.16
X160.27Y-84.16
X160.858Y-102.628
X161.15Y-92.97
X161.18Y-86.33
X161.25Y-101.47
X161.86Y-101.57
X162.21Y-98.4
X162.58Y-97.84
X163.37Y-93.65
X163.39Y-92.94
X163.5Y-89.67
X163.53Y-90.8
X163.57Y-79.77
X163.61Y-88.45
X163.69Y-101.7
X163.71Y-82.06
X163.936Y-91.091
X163.99Y-92.709
X164.04Y-101.3
X164.87Y-98.89
X165.0Y-101.73
X165.1Y-103.09
X165.29Y-100.5
X165.65Y-88.97
X165.88Y-95.88
X166.33Y-95.79
X167.46Y-95.34
X167.52Y-86.46
X167.97Y-88.5
X167.98Y-100.5
X168.09Y-91.04
X168.54Y-99.28
X168.57Y-86.74
X168.8Y-90.77
X169.45Y-101.0
X169.585Y-90.81
X169.64Y-97.33
X169.81Y-86.83
X169.97Y-90.68
X170.02Y-95.84
X170.04Y-97.43
X170.3Y-94.39
X170.45Y-90.84
X170.51Y-97.59
X170.71Y-100.0
X170.72Y-95.12
X170.855Y-90.895
X171.11Y-101.6
X171.23Y-96.74
X171.72Y-99.97
X171.76Y-102.97
X171.78Y-88.31
X172.39Y-93.05
X172.57Y-92.09
X172.65Y-88.74
X172.98Y-99.37
X173.32Y-90.52
X173.43Y-98.6
X173.66Y-99.66
X173.78Y-99.009
X174.78Y-91.27
X175.15Y-98.389
X175.19Y-90.1
X175.37Y-85.36
X175.6Y-92.92
X176.08Y-92.25
X176.12Y-101.92
X177.03Y-102.52
X177.244Y-98.841
X177.948Y-96.331
X178.77Y-88.34
X178.8Y-98.61
X178.99Y-85.39
X179.0Y-96.299
X179.65Y-79.46
X179.99Y-89.81
X180.38Y-96.331
X180.39Y-92.31
X180.848Y-90.678
X181.102Y-93.4
X181.11Y-95.86
X181.12Y-90.02
X181.71Y-85.8
X182.09Y-88.15
X183.14Y-94.78
X183.388Y-102.87
X183.99Y-81.51
X184.28Y-100.12
X184.31Y-98.67
X184.912Y-90.424
X184.912Y-91.186
X184.912Y-91.948
X185.42Y-91.186
X185.42Y-91.694
X185.674Y-90.424
X185.928Y-91.186
X186.0Y-86.68
X186.18Y-94.81
X186.23Y-86.23
X186.69Y-90.17
X186.69Y-90.678
X186.69Y-91.186
X186.91Y-87.75
X187.0Y-94.16
X187.0Y-96.33
X187.5Y-84.68
X187.52Y-98.92
X188.28Y-85.19
X189.38Y-91.77
X190.18Y-94.71
X190.46Y-89.75
X190.5Y-90.23
X190.61Y-91.61
X190.72Y-92.03
X191.98Y-94.03
X192.68Y-92.74
X192.76Y-95.96
X193.31Y-91.18
X195.08Y-97.3
X196.47Y-99.29
X198.5Y-99.01
X199.159Y-98.979
X199.22Y-96.99
X203.73Y-90.95
X203.91Y-89.49
X203.93Y-87.98
X204.03Y-93.07
X204.68Y-92.36
X204.77Y-95.4
T2
X207.27Y-79.6
X207.38Y-103.49
X207.753Y-78.433
X207.753Y-80.767
X207.863Y-102.323
X207.863Y-104.657
X208.92Y-77.95
X208.92Y-81.25
X209.03Y-101.84
X209.03Y-105.14
X210.087Y-78.433
X210.087Y-80.767
X210.197Y-102.323
X210.197Y-104.657
X210.57Y-79.6
X210.68Y-103.49
T5
X208.92Y-79.6
X209.03Y-103.49
T6
X155.865Y-88.45
X155.865Y-94.23
T3
G00X152.585Y-87.02
M15
G01X151.785Y-87.02
M16
G05
G00X152.585Y-95.66
M15
G01X151.785Y-95.66
M16
G05
G00X156.915Y-87.02
M15
G01X155.815Y-87.02
M16
G05
G00X156.915Y-95.66
M15
G01X155.815Y-95.66
M16
G05
T4
G00X201.86Y-84.75
M15
G01X203.66Y-84.75
M16
G05
G00X201.86Y-99.25
M15
G01X203.66Y-99.25
M16
G05
G00X208.32Y-84.75
M15
G01X209.12Y-84.75
M16
G05
G00X208.32Y-99.25
M15
G01X209.12Y-99.25
M16
G05
T0
M30
