%TF.GenerationSoftware,KiCad,Pcbnew,7.0.8*%
%TF.CreationDate,2024-04-11T13:26:55+03:00*%
%TF.ProjectId,rp2040DVI,72703230-3430-4445-9649-2e6b69636164,rev?*%
%TF.SameCoordinates,Original*%
%TF.FileFunction,Copper,L3,Inr*%
%TF.FilePolarity,Positive*%
%FSLAX46Y46*%
G04 Gerber Fmt 4.6, Leading zero omitted, Abs format (unit mm)*
G04 Created by KiCad (PCBNEW 7.0.8) date 2024-04-11 13:26:55*
%MOMM*%
%LPD*%
G01*
G04 APERTURE LIST*
%TA.AperFunction,ComponentPad*%
%ADD10C,0.700000*%
%TD*%
%TA.AperFunction,ComponentPad*%
%ADD11C,4.400000*%
%TD*%
%TA.AperFunction,ComponentPad*%
%ADD12O,3.300000X1.500000*%
%TD*%
%TA.AperFunction,ComponentPad*%
%ADD13O,2.300000X1.500000*%
%TD*%
%TA.AperFunction,ComponentPad*%
%ADD14O,2.100000X1.000000*%
%TD*%
%TA.AperFunction,ComponentPad*%
%ADD15O,1.800000X1.000000*%
%TD*%
%TA.AperFunction,ViaPad*%
%ADD16C,0.300000*%
%TD*%
%TA.AperFunction,ViaPad*%
%ADD17C,0.150000*%
%TD*%
%TA.AperFunction,Conductor*%
%ADD18C,0.120000*%
%TD*%
%TA.AperFunction,Conductor*%
%ADD19C,0.300000*%
%TD*%
%ADD20C,0.150000*%
%ADD21C,0.149999*%
%ADD22C,0.350000*%
%ADD23O,2.700000X0.900000*%
%ADD24O,1.700000X0.900000*%
%ADD25O,1.700000X0.600000*%
%ADD26O,1.400000X0.600000*%
G04 APERTURE END LIST*
D10*
%TO.N,GND*%
%TO.C,H2*%
X207380000Y-103490000D03*
X207863274Y-102323274D03*
X207863274Y-104656726D03*
X209030000Y-101840000D03*
D11*
X209030000Y-103490000D03*
D10*
X209030000Y-105140000D03*
X210196726Y-102323274D03*
X210196726Y-104656726D03*
X210680000Y-103490000D03*
%TD*%
D12*
%TO.N,GND*%
%TO.C,J1*%
X202760000Y-84750000D03*
X202760000Y-99250000D03*
D13*
X208720000Y-84750000D03*
X208720000Y-99250000D03*
%TD*%
D10*
%TO.N,GND*%
%TO.C,H1*%
X207270000Y-79600000D03*
X207753274Y-78433274D03*
X207753274Y-80766726D03*
X208920000Y-77950000D03*
D11*
X208920000Y-79600000D03*
D10*
X208920000Y-81250000D03*
X210086726Y-78433274D03*
X210086726Y-80766726D03*
X210570000Y-79600000D03*
%TD*%
D14*
%TO.N,GND*%
%TO.C,J2*%
X156365000Y-87020000D03*
D15*
X152185000Y-87020000D03*
D14*
X156365000Y-95660000D03*
D15*
X152185000Y-95660000D03*
%TD*%
D16*
%TO.N,+3V3*%
X180848000Y-90678000D03*
X184310000Y-98670000D03*
X189380000Y-91770000D03*
X173320000Y-90520000D03*
X178800000Y-98610000D03*
X165650000Y-88970000D03*
D17*
X169450000Y-101000000D03*
D16*
X163710000Y-82060000D03*
X173430000Y-98600000D03*
X181102000Y-93400500D03*
X192760000Y-95960000D03*
X179000000Y-96299500D03*
X163936113Y-91090817D03*
X163990000Y-92709500D03*
X156050000Y-79570000D03*
X175150000Y-98389500D03*
X161150000Y-92970000D03*
X182090000Y-88150000D03*
X187520000Y-98920000D03*
X172650000Y-88740000D03*
D17*
X167980000Y-100500000D03*
D16*
X167520000Y-86460000D03*
X165290000Y-100500000D03*
X172390000Y-93050000D03*
X177243650Y-98840962D03*
X167970000Y-88500000D03*
X180380000Y-96330500D03*
%TO.N,GND*%
X170710000Y-100000000D03*
X204680000Y-92360000D03*
X173660000Y-99660000D03*
X154120000Y-88410000D03*
X183140000Y-94780000D03*
X184912000Y-91948000D03*
X185420000Y-91186000D03*
X187500000Y-84680000D03*
X190180000Y-94710000D03*
X186180000Y-94810000D03*
X163500000Y-89670000D03*
X168540000Y-99280000D03*
X176120000Y-101920000D03*
X174780000Y-91270000D03*
X183388000Y-102870000D03*
X184912000Y-90424000D03*
X163530000Y-90800000D03*
D17*
X163570000Y-79770000D03*
D16*
X152510000Y-88770000D03*
X186690000Y-91186000D03*
X163370000Y-93650000D03*
X158800000Y-95580000D03*
X154020000Y-100940000D03*
X203930000Y-87980000D03*
X177948018Y-96330500D03*
X191980000Y-94030000D03*
X185674000Y-90424000D03*
X186690000Y-90170000D03*
X163390000Y-92940000D03*
X171110000Y-101600000D03*
X181120000Y-90020000D03*
X186690000Y-90678000D03*
X171760000Y-102970000D03*
X188280000Y-85190000D03*
X168570000Y-86740000D03*
X169810000Y-86830000D03*
X185928000Y-91186000D03*
X177030000Y-102520000D03*
X175599500Y-92920000D03*
D17*
X160010000Y-80160000D03*
D16*
X157870000Y-104240000D03*
X163610000Y-88450000D03*
X176080000Y-92250000D03*
X171720000Y-99970000D03*
X158160000Y-87660000D03*
X204770000Y-95400000D03*
X179650000Y-79460000D03*
X181710000Y-85800000D03*
X175370000Y-85360000D03*
X167460000Y-95340000D03*
X158580000Y-88160000D03*
X153340000Y-85280000D03*
X185420000Y-91694000D03*
X178990000Y-85390000D03*
X203730000Y-90950000D03*
D17*
X160270000Y-84160000D03*
D16*
X178770000Y-88340500D03*
X184912000Y-91186000D03*
X203910000Y-89490000D03*
X183990000Y-81510000D03*
%TO.N,+5V*%
X156020000Y-84290000D03*
X154190000Y-90470000D03*
X161180000Y-86330000D03*
X196470000Y-99290000D03*
D17*
%TO.N,Net-(J1-CK-)*%
X199220000Y-96990000D03*
X204030000Y-93070000D03*
D16*
%TO.N,/SCL*%
X198500000Y-99010500D03*
X184280000Y-100120000D03*
%TO.N,/SDA*%
X199158861Y-98978540D03*
X173780315Y-99009500D03*
D17*
%TO.N,/USB_D-*%
X156060000Y-90580000D03*
X156020000Y-91580000D03*
%TO.N,/SD_DAT2*%
X180390000Y-92310000D03*
X169585000Y-90810000D03*
%TO.N,/GPIO22*%
X168800000Y-90770000D03*
X181110000Y-95860000D03*
%TO.N,/GPIO18*%
X170450000Y-90840000D03*
X179990000Y-89810000D03*
%TO.N,/GPIO5*%
X170020000Y-95840000D03*
%TO.N,/GPIO19*%
X175190000Y-90100000D03*
%TO.N,/SD_DAT1*%
X172570000Y-92090000D03*
X169970000Y-90680000D03*
%TO.N,/QSPI_SS*%
X161860000Y-101570000D03*
X164870000Y-98890000D03*
%TO.N,/DVI_D2+*%
X170300000Y-94390000D03*
X190460000Y-89750000D03*
%TO.N,/DVI_D2-*%
X190500000Y-90230000D03*
X170720000Y-95120000D03*
%TO.N,/DVI_D1+*%
X170855000Y-90895000D03*
X186910000Y-87750000D03*
%TO.N,/DVI_D1-*%
X193310000Y-91180000D03*
X171780000Y-88310000D03*
%TO.N,/DVI_D0+*%
X190610000Y-91610000D03*
X171230000Y-96740000D03*
%TO.N,/DVI_D0-*%
X190720000Y-92030000D03*
X170510000Y-97590000D03*
%TO.N,/DVI_CK+*%
X170040000Y-97430000D03*
X192680000Y-92740000D03*
%TO.N,/DVI_CK-*%
X195080000Y-97300000D03*
X169640000Y-97330000D03*
%TO.N,/QSPI_SD1*%
X161250000Y-101470000D03*
X162580000Y-97840000D03*
%TO.N,/QSPI_SD2*%
X162210000Y-98400000D03*
X160858406Y-102628406D03*
%TO.N,/QSPI_SCLK*%
X164040000Y-101300000D03*
X165100000Y-103090000D03*
%TO.N,/QSPI_SD3*%
X165000000Y-101730000D03*
X163690000Y-101700000D03*
%TO.N,/INT1*%
X168090000Y-91040000D03*
X172980000Y-99370000D03*
%TO.N,/BOOT*%
X187000000Y-96330000D03*
X187000000Y-94160000D03*
%TO.N,/C3_RXD*%
X165880000Y-95880000D03*
X186230000Y-86230000D03*
%TO.N,/C3_TXD*%
X166330000Y-95790000D03*
X186000000Y-86680000D03*
%TD*%
D18*
%TO.N,+3V3*%
X166120000Y-88500000D02*
X167970000Y-88500000D01*
D19*
X182000000Y-88150000D02*
X182090000Y-88150000D01*
X181117107Y-89310000D02*
X180840000Y-89310000D01*
D18*
X179000000Y-96299500D02*
X179000000Y-98410000D01*
D19*
X161150000Y-92970000D02*
X161150000Y-92610000D01*
X189380000Y-91770000D02*
X189380000Y-92580000D01*
D18*
X178569038Y-98840962D02*
X178800000Y-98610000D01*
X163936113Y-92655613D02*
X163990000Y-92709500D01*
D19*
X161150000Y-92610000D02*
X161670000Y-92090000D01*
D18*
X163990000Y-92709500D02*
X163990000Y-93609828D01*
D19*
X189800000Y-98920000D02*
X192760000Y-95960000D01*
X161150000Y-95670000D02*
X164395000Y-98915000D01*
D18*
X173320000Y-92120000D02*
X173320000Y-90520000D01*
X177243650Y-98840962D02*
X176792188Y-98389500D01*
X176792188Y-98389500D02*
X175150000Y-98389500D01*
X173430000Y-98600000D02*
X174939500Y-98600000D01*
D19*
X181620000Y-90227107D02*
X181620000Y-89812893D01*
X162947107Y-92090000D02*
X163941202Y-91095905D01*
D18*
X168210000Y-88740000D02*
X172650000Y-88740000D01*
X167970000Y-86910000D02*
X167520000Y-86460000D01*
D19*
X187520000Y-98920000D02*
X189800000Y-98920000D01*
X161150000Y-92970000D02*
X161150000Y-95670000D01*
D18*
X167970000Y-88500000D02*
X167970000Y-86910000D01*
X174939500Y-98600000D02*
X175150000Y-98389500D01*
D19*
X161670000Y-92090000D02*
X162947107Y-92090000D01*
X184310000Y-98670000D02*
X187270000Y-98670000D01*
X181169107Y-90678000D02*
X180848000Y-90678000D01*
D18*
X177243650Y-98840962D02*
X178569038Y-98840962D01*
D19*
X164260000Y-82060000D02*
X163710000Y-82060000D01*
X180840000Y-89310000D02*
X182000000Y-88150000D01*
X189380000Y-92580000D02*
X192760000Y-95960000D01*
D18*
X167970000Y-88500000D02*
X168210000Y-88740000D01*
D19*
X167980000Y-100500000D02*
X168950000Y-100500000D01*
X164760000Y-79090000D02*
X164760000Y-81560000D01*
X156050000Y-78920000D02*
X156420000Y-78550000D01*
X164395000Y-98915000D02*
X164395000Y-99605000D01*
X179031000Y-96330500D02*
X179000000Y-96299500D01*
D18*
X179000000Y-98410000D02*
X178800000Y-98610000D01*
D19*
X181102000Y-90932000D02*
X180848000Y-90678000D01*
X164395000Y-99605000D02*
X165290000Y-100500000D01*
D18*
X163990000Y-93609828D02*
X163539828Y-94060000D01*
D19*
X181102000Y-93400500D02*
X181102000Y-90932000D01*
X164760000Y-81560000D02*
X164260000Y-82060000D01*
D18*
X165650000Y-88970000D02*
X166120000Y-88500000D01*
D19*
X164220000Y-78550000D02*
X164760000Y-79090000D01*
X187270000Y-98670000D02*
X187520000Y-98920000D01*
D18*
X163936113Y-91090817D02*
X163936113Y-92655613D01*
D19*
X156050000Y-79570000D02*
X156050000Y-78920000D01*
X181620000Y-89812893D02*
X181117107Y-89310000D01*
X181620000Y-90227107D02*
X181169107Y-90678000D01*
X156420000Y-78550000D02*
X164220000Y-78550000D01*
D18*
X172390000Y-93050000D02*
X173320000Y-92120000D01*
X162240000Y-94060000D02*
X161150000Y-92970000D01*
X163539828Y-94060000D02*
X162240000Y-94060000D01*
D19*
X168950000Y-100500000D02*
X169450000Y-101000000D01*
X180380000Y-96330500D02*
X179031000Y-96330500D01*
%TO.N,+5V*%
X161180000Y-86330000D02*
X161550000Y-85960000D01*
X155870000Y-85450000D02*
X158060000Y-85450000D01*
X155870000Y-84440000D02*
X155870000Y-85450000D01*
X153620000Y-86690000D02*
X155870000Y-84440000D01*
X196470000Y-89820000D02*
X196470000Y-99290000D01*
X189640000Y-82990000D02*
X196470000Y-89820000D01*
X158060000Y-85450000D02*
X159180000Y-86570000D01*
X167140000Y-82990000D02*
X189640000Y-82990000D01*
X159420000Y-86330000D02*
X161180000Y-86330000D01*
X156020000Y-84290000D02*
X155870000Y-84440000D01*
X161550000Y-85960000D02*
X164170000Y-85960000D01*
X159180000Y-86570000D02*
X159420000Y-86330000D01*
X164170000Y-85960000D02*
X167140000Y-82990000D01*
X153620000Y-89900000D02*
X153620000Y-86690000D01*
X154190000Y-90470000D02*
X153620000Y-89900000D01*
D18*
%TO.N,/SD_DAT2*%
X180119473Y-89395000D02*
X170710527Y-89395000D01*
X180390000Y-89665527D02*
X180119473Y-89395000D01*
X169580000Y-90800000D02*
X169590000Y-90810000D01*
X169580000Y-90525527D02*
X169580000Y-90800000D01*
X180390000Y-92310000D02*
X180390000Y-89665527D01*
X170710527Y-89395000D02*
X169580000Y-90525527D01*
%TO.N,/GPIO22*%
X181080000Y-95890000D02*
X173760000Y-95890000D01*
X168800000Y-90930000D02*
X168800000Y-90770000D01*
X173760000Y-95890000D02*
X168800000Y-90930000D01*
X181110000Y-95860000D02*
X181080000Y-95890000D01*
%TO.N,/GPIO18*%
X171955000Y-89715000D02*
X171160000Y-90510000D01*
X170695527Y-90510000D02*
X170450000Y-90755527D01*
X171160000Y-90510000D02*
X170695527Y-90510000D01*
X179990000Y-89810000D02*
X179895000Y-89715000D01*
X179895000Y-89715000D02*
X171955000Y-89715000D01*
X170450000Y-90755527D02*
X170450000Y-90840000D01*
%TO.N,/SD_DAT1*%
X170412548Y-92090000D02*
X169976274Y-91653726D01*
X169976274Y-91653726D02*
X169970000Y-91647452D01*
X169970000Y-91647452D02*
X169970000Y-90680000D01*
X172570000Y-92090000D02*
X170412548Y-92090000D01*
%TD*%
%TA.AperFunction,Conductor*%
%TO.N,GND*%
G36*
X163661261Y-91940824D02*
G01*
X163675613Y-91975472D01*
X163675613Y-92542711D01*
X163670273Y-92564955D01*
X163652501Y-92599836D01*
X163652500Y-92599837D01*
X163652500Y-92599839D01*
X163646852Y-92635500D01*
X163635131Y-92709500D01*
X163652500Y-92819161D01*
X163702903Y-92918084D01*
X163702905Y-92918087D01*
X163715148Y-92930330D01*
X163729500Y-92964978D01*
X163729500Y-93481630D01*
X163715148Y-93516278D01*
X163446278Y-93785148D01*
X163411630Y-93799500D01*
X162368199Y-93799500D01*
X162333551Y-93785148D01*
X161514852Y-92966449D01*
X161500500Y-92931801D01*
X161500500Y-92775478D01*
X161514852Y-92740830D01*
X161800830Y-92454852D01*
X161835478Y-92440500D01*
X162905674Y-92440500D01*
X162915729Y-92441543D01*
X162919673Y-92442369D01*
X162932422Y-92445043D01*
X162967358Y-92440688D01*
X162970391Y-92440500D01*
X162976144Y-92440500D01*
X162976147Y-92440500D01*
X162997647Y-92436912D01*
X163048500Y-92430573D01*
X163048747Y-92430452D01*
X163062212Y-92426137D01*
X163062488Y-92426092D01*
X163107551Y-92401704D01*
X163153591Y-92379198D01*
X163153787Y-92379001D01*
X163165121Y-92370549D01*
X163165365Y-92370418D01*
X163200064Y-92332724D01*
X163395874Y-92136914D01*
X163591965Y-91940824D01*
X163626613Y-91926472D01*
X163661261Y-91940824D01*
G37*
%TD.AperFunction*%
%TA.AperFunction,Conductor*%
G36*
X180710916Y-89641055D02*
G01*
X180745291Y-89648263D01*
X180748207Y-89649066D01*
X180781512Y-89660500D01*
X180798567Y-89660500D01*
X180808622Y-89661543D01*
X180812566Y-89662369D01*
X180825315Y-89665043D01*
X180860251Y-89660688D01*
X180863284Y-89660500D01*
X180951629Y-89660500D01*
X180986277Y-89674852D01*
X181255148Y-89943723D01*
X181269500Y-89978371D01*
X181269500Y-90061629D01*
X181255148Y-90096277D01*
X181038277Y-90313148D01*
X181003629Y-90327500D01*
X180906203Y-90327500D01*
X180892229Y-90325464D01*
X180891954Y-90325383D01*
X180891950Y-90325383D01*
X180891947Y-90325382D01*
X180873248Y-90326156D01*
X180863560Y-90325595D01*
X180848000Y-90323131D01*
X180847999Y-90323131D01*
X180822910Y-90327104D01*
X180821107Y-90327321D01*
X180818961Y-90327499D01*
X180813268Y-90328449D01*
X180810251Y-90328761D01*
X180775081Y-90330216D01*
X180775072Y-90330218D01*
X180760738Y-90335811D01*
X180750600Y-90338557D01*
X180744056Y-90339594D01*
X180737780Y-90340588D01*
X180733206Y-90341706D01*
X180732615Y-90341909D01*
X180722818Y-90347211D01*
X180685515Y-90351077D01*
X180656404Y-90327433D01*
X180650500Y-90304115D01*
X180650500Y-89696005D01*
X180651439Y-89686459D01*
X180652831Y-89679460D01*
X180673662Y-89648279D01*
X180710443Y-89640958D01*
X180710916Y-89641055D01*
G37*
%TD.AperFunction*%
%TA.AperFunction,Conductor*%
G36*
X209211595Y-76620532D02*
G01*
X209521487Y-76636971D01*
X209524196Y-76637268D01*
X209829574Y-76688249D01*
X209832243Y-76688850D01*
X210129978Y-76773773D01*
X210132562Y-76774670D01*
X210418877Y-76892455D01*
X210421334Y-76893630D01*
X210592803Y-76987906D01*
X210692636Y-77042797D01*
X210694972Y-77044258D01*
X210947804Y-77222905D01*
X210949960Y-77224617D01*
X211181163Y-77430511D01*
X211183094Y-77432435D01*
X211389744Y-77662973D01*
X211391463Y-77665123D01*
X211570941Y-77917387D01*
X211572399Y-77919702D01*
X211719103Y-78184481D01*
X211722439Y-78190501D01*
X211723636Y-78192983D01*
X211842346Y-78478902D01*
X211843258Y-78481502D01*
X211929138Y-78778927D01*
X211929752Y-78781613D01*
X211981723Y-79086801D01*
X211982032Y-79089539D01*
X211999461Y-79399060D01*
X211999499Y-79400449D01*
X211988106Y-103214170D01*
X211987922Y-103216558D01*
X211988081Y-103265925D01*
X211988047Y-103267302D01*
X211971612Y-103577164D01*
X211971312Y-103579903D01*
X211920334Y-103885256D01*
X211919729Y-103887944D01*
X211834814Y-104185659D01*
X211833914Y-104188253D01*
X211741299Y-104413385D01*
X211716135Y-104474556D01*
X211714946Y-104477041D01*
X211565787Y-104748326D01*
X211564326Y-104750662D01*
X211385679Y-105003494D01*
X211383965Y-105005652D01*
X211178081Y-105236844D01*
X211176138Y-105238793D01*
X211076967Y-105327688D01*
X210945610Y-105445433D01*
X210943459Y-105447153D01*
X210691207Y-105626623D01*
X210688875Y-105628091D01*
X210418086Y-105778125D01*
X210415605Y-105779322D01*
X210129680Y-105898032D01*
X210127081Y-105898944D01*
X209829656Y-105984824D01*
X209826970Y-105985438D01*
X209521780Y-106037407D01*
X209519043Y-106037716D01*
X209209364Y-106055151D01*
X209208001Y-106055189D01*
X209207528Y-106055190D01*
X209159114Y-106055190D01*
X209158980Y-106055200D01*
X152765666Y-106068048D01*
X152763717Y-106067898D01*
X152717696Y-106068048D01*
X152714090Y-106068059D01*
X152712735Y-106068026D01*
X152593888Y-106061728D01*
X152402860Y-106051604D01*
X152400121Y-106051304D01*
X152225986Y-106022240D01*
X152094755Y-106000338D01*
X152092076Y-105999734D01*
X151794364Y-105914828D01*
X151791761Y-105913925D01*
X151505444Y-105796150D01*
X151502959Y-105794960D01*
X151501812Y-105794329D01*
X151231679Y-105645812D01*
X151229349Y-105644355D01*
X150976496Y-105465699D01*
X150974343Y-105463988D01*
X150743139Y-105258096D01*
X150741208Y-105256172D01*
X150534551Y-105025625D01*
X150532840Y-105023485D01*
X150353359Y-104771214D01*
X150351906Y-104768908D01*
X150201862Y-104498090D01*
X150200666Y-104495612D01*
X150191924Y-104474556D01*
X150081958Y-104209680D01*
X150081053Y-104207102D01*
X149995175Y-103909652D01*
X149994563Y-103906979D01*
X149942600Y-103601776D01*
X149942292Y-103599040D01*
X149924895Y-103289835D01*
X149924856Y-103288458D01*
X149924856Y-103265653D01*
X149924857Y-103240970D01*
X149924856Y-103240967D01*
X149924856Y-103237074D01*
X149924849Y-103236986D01*
X149924831Y-103090000D01*
X164769479Y-103090000D01*
X164789412Y-103203047D01*
X164839127Y-103289155D01*
X164846806Y-103302455D01*
X164934739Y-103376240D01*
X165042606Y-103415500D01*
X165042607Y-103415500D01*
X165157393Y-103415500D01*
X165157394Y-103415500D01*
X165265261Y-103376240D01*
X165353194Y-103302455D01*
X165410588Y-103203045D01*
X165430521Y-103090000D01*
X165410588Y-102976955D01*
X165410587Y-102976953D01*
X165410587Y-102976952D01*
X165353195Y-102877547D01*
X165353194Y-102877545D01*
X165309472Y-102840858D01*
X165265261Y-102803760D01*
X165157394Y-102764500D01*
X165042606Y-102764500D01*
X164934737Y-102803760D01*
X164846808Y-102877541D01*
X164846804Y-102877546D01*
X164789412Y-102976952D01*
X164769479Y-103090000D01*
X149924831Y-103090000D01*
X149924774Y-102628406D01*
X160527885Y-102628406D01*
X160547818Y-102741453D01*
X160605210Y-102840858D01*
X160605212Y-102840861D01*
X160693145Y-102914646D01*
X160801012Y-102953906D01*
X160801013Y-102953906D01*
X160915799Y-102953906D01*
X160915800Y-102953906D01*
X161023667Y-102914646D01*
X161111600Y-102840861D01*
X161168994Y-102741451D01*
X161188927Y-102628406D01*
X161168994Y-102515361D01*
X161168993Y-102515359D01*
X161168993Y-102515358D01*
X161111601Y-102415953D01*
X161111600Y-102415951D01*
X161023667Y-102342166D01*
X160915800Y-102302906D01*
X160801012Y-102302906D01*
X160693143Y-102342166D01*
X160605214Y-102415947D01*
X160605210Y-102415952D01*
X160547818Y-102515358D01*
X160527885Y-102628406D01*
X149924774Y-102628406D01*
X149924632Y-101470000D01*
X160919479Y-101470000D01*
X160939412Y-101583047D01*
X160975986Y-101646394D01*
X160996806Y-101682455D01*
X161084739Y-101756240D01*
X161192606Y-101795500D01*
X161192607Y-101795500D01*
X161307393Y-101795500D01*
X161307394Y-101795500D01*
X161415261Y-101756240D01*
X161489367Y-101694056D01*
X161525131Y-101682780D01*
X161558397Y-101700097D01*
X161563296Y-101707094D01*
X161606804Y-101782452D01*
X161606806Y-101782455D01*
X161694739Y-101856240D01*
X161802606Y-101895500D01*
X161802607Y-101895500D01*
X161917393Y-101895500D01*
X161917394Y-101895500D01*
X162025261Y-101856240D01*
X162113194Y-101782455D01*
X162160799Y-101700000D01*
X163359479Y-101700000D01*
X163379412Y-101813047D01*
X163404350Y-101856240D01*
X163436806Y-101912455D01*
X163524739Y-101986240D01*
X163632606Y-102025500D01*
X163632607Y-102025500D01*
X163747393Y-102025500D01*
X163747394Y-102025500D01*
X163855261Y-101986240D01*
X163943194Y-101912455D01*
X164000588Y-101813045D01*
X164015231Y-101730000D01*
X164669479Y-101730000D01*
X164689412Y-101843047D01*
X164746804Y-101942452D01*
X164746806Y-101942455D01*
X164834739Y-102016240D01*
X164942606Y-102055500D01*
X164942607Y-102055500D01*
X165057393Y-102055500D01*
X165057394Y-102055500D01*
X165165261Y-102016240D01*
X165253194Y-101942455D01*
X165302970Y-101856240D01*
X165310587Y-101843047D01*
X165310587Y-101843046D01*
X165310588Y-101843045D01*
X165330521Y-101730000D01*
X165310588Y-101616955D01*
X165310587Y-101616953D01*
X165310587Y-101616952D01*
X165253195Y-101517547D01*
X165253194Y-101517545D01*
X165247124Y-101512452D01*
X165165261Y-101443760D01*
X165057394Y-101404500D01*
X164942606Y-101404500D01*
X164834737Y-101443760D01*
X164746808Y-101517541D01*
X164746804Y-101517546D01*
X164689412Y-101616952D01*
X164669479Y-101730000D01*
X164015231Y-101730000D01*
X164020521Y-101700000D01*
X164017532Y-101683047D01*
X164017525Y-101683008D01*
X164025643Y-101646394D01*
X164057273Y-101626244D01*
X164065781Y-101625500D01*
X164097393Y-101625500D01*
X164097394Y-101625500D01*
X164205261Y-101586240D01*
X164293194Y-101512455D01*
X164350588Y-101413045D01*
X164370521Y-101300000D01*
X164350588Y-101186955D01*
X164350587Y-101186953D01*
X164350587Y-101186952D01*
X164293195Y-101087547D01*
X164293194Y-101087545D01*
X164205261Y-101013760D01*
X164097394Y-100974500D01*
X163982606Y-100974500D01*
X163874737Y-101013760D01*
X163786808Y-101087541D01*
X163786804Y-101087546D01*
X163729412Y-101186952D01*
X163709479Y-101300000D01*
X163712475Y-101316992D01*
X163704357Y-101353606D01*
X163672727Y-101373756D01*
X163664219Y-101374500D01*
X163632606Y-101374500D01*
X163524737Y-101413760D01*
X163436808Y-101487541D01*
X163436804Y-101487546D01*
X163379412Y-101586952D01*
X163359479Y-101700000D01*
X162160799Y-101700000D01*
X162170588Y-101683045D01*
X162190521Y-101570000D01*
X162170588Y-101456955D01*
X162170587Y-101456953D01*
X162170587Y-101456952D01*
X162113195Y-101357547D01*
X162113193Y-101357544D01*
X162025261Y-101283760D01*
X161982999Y-101268378D01*
X161917394Y-101244500D01*
X161802606Y-101244500D01*
X161694739Y-101283760D01*
X161620635Y-101345941D01*
X161584867Y-101357219D01*
X161551602Y-101339902D01*
X161546703Y-101332905D01*
X161503195Y-101257547D01*
X161503194Y-101257545D01*
X161415261Y-101183760D01*
X161307394Y-101144500D01*
X161192606Y-101144500D01*
X161084737Y-101183760D01*
X160996808Y-101257541D01*
X160996804Y-101257546D01*
X160939412Y-101356952D01*
X160919479Y-101470000D01*
X149924632Y-101470000D01*
X149923920Y-95655315D01*
X160794957Y-95655315D01*
X160799137Y-95688844D01*
X160799312Y-95690249D01*
X160799500Y-95693282D01*
X160799500Y-95699040D01*
X160803087Y-95720540D01*
X160809427Y-95771393D01*
X160809427Y-95771394D01*
X160809428Y-95771396D01*
X160809553Y-95771652D01*
X160813859Y-95785093D01*
X160813905Y-95785371D01*
X160813907Y-95785377D01*
X160813908Y-95785381D01*
X160813909Y-95785382D01*
X160838295Y-95830444D01*
X160860802Y-95876484D01*
X160861002Y-95876684D01*
X160869445Y-95888006D01*
X160869582Y-95888258D01*
X160907275Y-95922957D01*
X161679670Y-96695352D01*
X162450778Y-97466460D01*
X162465130Y-97501108D01*
X162450778Y-97535756D01*
X162432891Y-97547152D01*
X162414743Y-97553758D01*
X162414736Y-97553762D01*
X162326808Y-97627541D01*
X162326804Y-97627546D01*
X162269412Y-97726952D01*
X162249479Y-97840000D01*
X162269412Y-97953047D01*
X162297098Y-98001000D01*
X162301993Y-98038182D01*
X162279163Y-98067935D01*
X162254663Y-98074500D01*
X162152606Y-98074500D01*
X162044737Y-98113760D01*
X161956808Y-98187541D01*
X161956804Y-98187546D01*
X161899412Y-98286952D01*
X161879479Y-98400000D01*
X161899412Y-98513047D01*
X161956804Y-98612452D01*
X161956806Y-98612455D01*
X162044739Y-98686240D01*
X162152606Y-98725500D01*
X162152607Y-98725500D01*
X162267393Y-98725500D01*
X162267394Y-98725500D01*
X162375261Y-98686240D01*
X162463194Y-98612455D01*
X162520588Y-98513045D01*
X162540521Y-98400000D01*
X162520588Y-98286955D01*
X162520587Y-98286953D01*
X162520587Y-98286952D01*
X162492902Y-98239000D01*
X162488007Y-98201818D01*
X162510837Y-98172065D01*
X162535337Y-98165500D01*
X162637393Y-98165500D01*
X162637394Y-98165500D01*
X162745261Y-98126240D01*
X162833194Y-98052455D01*
X162875780Y-97978692D01*
X162905533Y-97955863D01*
X162942715Y-97960758D01*
X162952863Y-97968545D01*
X164030148Y-99045830D01*
X164044500Y-99080478D01*
X164044500Y-99563567D01*
X164043457Y-99573622D01*
X164039957Y-99590314D01*
X164044312Y-99625249D01*
X164044500Y-99628282D01*
X164044500Y-99634040D01*
X164048087Y-99655540D01*
X164054427Y-99706393D01*
X164054427Y-99706394D01*
X164054428Y-99706396D01*
X164054553Y-99706652D01*
X164058859Y-99720093D01*
X164058905Y-99720371D01*
X164058907Y-99720377D01*
X164058908Y-99720381D01*
X164058909Y-99720382D01*
X164083295Y-99765444D01*
X164105802Y-99811484D01*
X164106002Y-99811684D01*
X164114445Y-99823006D01*
X164114582Y-99823258D01*
X164152275Y-99857957D01*
X165002905Y-100708587D01*
X165081413Y-100787095D01*
X165081415Y-100787096D01*
X165081418Y-100787098D01*
X165104347Y-100798781D01*
X165110570Y-100802558D01*
X165133933Y-100819239D01*
X165133934Y-100819240D01*
X165155075Y-100825534D01*
X165163326Y-100828831D01*
X165180339Y-100837500D01*
X165210634Y-100842297D01*
X165213785Y-100843011D01*
X165246046Y-100852617D01*
X165264757Y-100851842D01*
X165274436Y-100852403D01*
X165290000Y-100854869D01*
X165323388Y-100849579D01*
X165326183Y-100849301D01*
X165362922Y-100847783D01*
X165377258Y-100842188D01*
X165387394Y-100839442D01*
X165399661Y-100837500D01*
X165432561Y-100820736D01*
X165434729Y-100819763D01*
X165471897Y-100805261D01*
X165481085Y-100797478D01*
X165490504Y-100791212D01*
X165498587Y-100787095D01*
X165526886Y-100758794D01*
X165528356Y-100757441D01*
X165561158Y-100729660D01*
X165565605Y-100722195D01*
X165573052Y-100712629D01*
X165577095Y-100708587D01*
X165596680Y-100670146D01*
X165597437Y-100668772D01*
X165621037Y-100629171D01*
X165622129Y-100623956D01*
X165626432Y-100611757D01*
X165627498Y-100609664D01*
X165627500Y-100609661D01*
X165634734Y-100563980D01*
X165634944Y-100562839D01*
X165641968Y-100529344D01*
X167625868Y-100529344D01*
X167634494Y-100563408D01*
X167654584Y-100642742D01*
X167672505Y-100670172D01*
X167718563Y-100740669D01*
X167801551Y-100805261D01*
X167810873Y-100812516D01*
X167810876Y-100812518D01*
X167863673Y-100830643D01*
X167921512Y-100850500D01*
X168784522Y-100850500D01*
X168819170Y-100864852D01*
X169222693Y-101268374D01*
X169222697Y-101268378D01*
X169293931Y-101319238D01*
X169293934Y-101319240D01*
X169406046Y-101352617D01*
X169522923Y-101347784D01*
X169631897Y-101305262D01*
X169721159Y-101229660D01*
X169781037Y-101129171D01*
X169805043Y-101014685D01*
X169790573Y-100898607D01*
X169739198Y-100793516D01*
X169227136Y-100281454D01*
X169220762Y-100273605D01*
X169211438Y-100259333D01*
X169211437Y-100259331D01*
X169211435Y-100259329D01*
X169211433Y-100259327D01*
X169183657Y-100237709D01*
X169181386Y-100235704D01*
X169177307Y-100231625D01*
X169159561Y-100218955D01*
X169119126Y-100187483D01*
X169119124Y-100187482D01*
X169118852Y-100187389D01*
X169106302Y-100180928D01*
X169106069Y-100180761D01*
X169106067Y-100180760D01*
X169056954Y-100166138D01*
X169050458Y-100163908D01*
X169008488Y-100149500D01*
X169008487Y-100149500D01*
X169008205Y-100149500D01*
X168994221Y-100147462D01*
X168993954Y-100147382D01*
X168942769Y-100149500D01*
X167950960Y-100149500D01*
X167864619Y-100163908D01*
X167864618Y-100163908D01*
X167864615Y-100163909D01*
X167761746Y-100219579D01*
X167761741Y-100219583D01*
X167682516Y-100305643D01*
X167635527Y-100412765D01*
X167625868Y-100529342D01*
X167625868Y-100529344D01*
X165641968Y-100529344D01*
X165645042Y-100514685D01*
X165644799Y-100512737D01*
X165644947Y-100503859D01*
X165644869Y-100503859D01*
X165644869Y-100500003D01*
X165644869Y-100500000D01*
X165637088Y-100450874D01*
X165630573Y-100398607D01*
X165630173Y-100397789D01*
X165628885Y-100394605D01*
X165627499Y-100390337D01*
X165603604Y-100343441D01*
X165579198Y-100293516D01*
X165405682Y-100120000D01*
X183925131Y-100120000D01*
X183942500Y-100229661D01*
X183981214Y-100305643D01*
X183992905Y-100328587D01*
X184071413Y-100407095D01*
X184170339Y-100457500D01*
X184280000Y-100474869D01*
X184389661Y-100457500D01*
X184488587Y-100407095D01*
X184567095Y-100328587D01*
X184617500Y-100229661D01*
X184634869Y-100120000D01*
X184617500Y-100010339D01*
X184567095Y-99911413D01*
X184488587Y-99832905D01*
X184488584Y-99832903D01*
X184389661Y-99782500D01*
X184280000Y-99765131D01*
X184170338Y-99782500D01*
X184071415Y-99832903D01*
X184071412Y-99832905D01*
X183992905Y-99911412D01*
X183992903Y-99911415D01*
X183942500Y-100010338D01*
X183925131Y-100120000D01*
X165405682Y-100120000D01*
X164759852Y-99474170D01*
X164745500Y-99439522D01*
X164745500Y-99370000D01*
X172649479Y-99370000D01*
X172669412Y-99483047D01*
X172725652Y-99580456D01*
X172726806Y-99582455D01*
X172814739Y-99656240D01*
X172922606Y-99695500D01*
X172922607Y-99695500D01*
X173037393Y-99695500D01*
X173037394Y-99695500D01*
X173145261Y-99656240D01*
X173233194Y-99582455D01*
X173290588Y-99483045D01*
X173310521Y-99370000D01*
X173290588Y-99256955D01*
X173290587Y-99256953D01*
X173290587Y-99256952D01*
X173233195Y-99157547D01*
X173233194Y-99157545D01*
X173210548Y-99138543D01*
X173145261Y-99083760D01*
X173080480Y-99060182D01*
X173037394Y-99044500D01*
X172922606Y-99044500D01*
X172814737Y-99083760D01*
X172726808Y-99157541D01*
X172726804Y-99157546D01*
X172669412Y-99256952D01*
X172649479Y-99370000D01*
X164745500Y-99370000D01*
X164745500Y-99261054D01*
X164759852Y-99226406D01*
X164794500Y-99212054D01*
X164811261Y-99215010D01*
X164812606Y-99215500D01*
X164812607Y-99215500D01*
X164927393Y-99215500D01*
X164927394Y-99215500D01*
X165035261Y-99176240D01*
X165123194Y-99102455D01*
X165178016Y-99007500D01*
X165180587Y-99003047D01*
X165180587Y-99003046D01*
X165180588Y-99003045D01*
X165200521Y-98890000D01*
X165180588Y-98776955D01*
X165180587Y-98776953D01*
X165180587Y-98776952D01*
X165123195Y-98677547D01*
X165123193Y-98677544D01*
X165035261Y-98603760D01*
X164977585Y-98582768D01*
X164927394Y-98564500D01*
X164812606Y-98564500D01*
X164704742Y-98603759D01*
X164704740Y-98603760D01*
X164671004Y-98632067D01*
X164635236Y-98643343D01*
X164604860Y-98629178D01*
X163305682Y-97330000D01*
X169309479Y-97330000D01*
X169329412Y-97443047D01*
X169382938Y-97535756D01*
X169386806Y-97542455D01*
X169474739Y-97616240D01*
X169582606Y-97655500D01*
X169582607Y-97655500D01*
X169697393Y-97655500D01*
X169697394Y-97655500D01*
X169744014Y-97638531D01*
X169781480Y-97640167D01*
X169792269Y-97647040D01*
X169859014Y-97703045D01*
X169874739Y-97716240D01*
X169982606Y-97755500D01*
X169982607Y-97755500D01*
X170097393Y-97755500D01*
X170097394Y-97755500D01*
X170168087Y-97729770D01*
X170205552Y-97731406D01*
X170227279Y-97751315D01*
X170256804Y-97802453D01*
X170256806Y-97802456D01*
X170301550Y-97840000D01*
X170344739Y-97876240D01*
X170452606Y-97915500D01*
X170452607Y-97915500D01*
X170567393Y-97915500D01*
X170567394Y-97915500D01*
X170675261Y-97876240D01*
X170763194Y-97802455D01*
X170812970Y-97716240D01*
X170820587Y-97703047D01*
X170820587Y-97703046D01*
X170820588Y-97703045D01*
X170840521Y-97590000D01*
X170820588Y-97476955D01*
X170820587Y-97476953D01*
X170820587Y-97476952D01*
X170763195Y-97377547D01*
X170763193Y-97377544D01*
X170675261Y-97303760D01*
X170633592Y-97288594D01*
X170567394Y-97264500D01*
X170452606Y-97264500D01*
X170381913Y-97290230D01*
X170344446Y-97288594D01*
X170322720Y-97268687D01*
X170293194Y-97217545D01*
X170205261Y-97143760D01*
X170097394Y-97104500D01*
X169982606Y-97104500D01*
X169935983Y-97121468D01*
X169898516Y-97119832D01*
X169887730Y-97112960D01*
X169805261Y-97043760D01*
X169697394Y-97004500D01*
X169582606Y-97004500D01*
X169474737Y-97043760D01*
X169386808Y-97117541D01*
X169386804Y-97117546D01*
X169329412Y-97216952D01*
X169309479Y-97330000D01*
X163305682Y-97330000D01*
X162715682Y-96740000D01*
X170899479Y-96740000D01*
X170919412Y-96853047D01*
X170976804Y-96952452D01*
X170976806Y-96952455D01*
X171064739Y-97026240D01*
X171172606Y-97065500D01*
X171172607Y-97065500D01*
X171287393Y-97065500D01*
X171287394Y-97065500D01*
X171395261Y-97026240D01*
X171483194Y-96952455D01*
X171540588Y-96853045D01*
X171560521Y-96740000D01*
X171540588Y-96626955D01*
X171540587Y-96626953D01*
X171540587Y-96626952D01*
X171491802Y-96542455D01*
X171483194Y-96527545D01*
X171479989Y-96524856D01*
X171395261Y-96453760D01*
X171365821Y-96443045D01*
X171287394Y-96414500D01*
X171172606Y-96414500D01*
X171064737Y-96453760D01*
X170976810Y-96527540D01*
X170976804Y-96527546D01*
X170919412Y-96626952D01*
X170899479Y-96740000D01*
X162715682Y-96740000D01*
X161855682Y-95880000D01*
X165549479Y-95880000D01*
X165569412Y-95993047D01*
X165624910Y-96089171D01*
X165626806Y-96092455D01*
X165714739Y-96166240D01*
X165822606Y-96205500D01*
X165822607Y-96205500D01*
X165937393Y-96205500D01*
X165937394Y-96205500D01*
X166045261Y-96166240D01*
X166133194Y-96092455D01*
X166133195Y-96092452D01*
X166134543Y-96091322D01*
X166170310Y-96080044D01*
X166182797Y-96082812D01*
X166272606Y-96115500D01*
X166272607Y-96115500D01*
X166387393Y-96115500D01*
X166387394Y-96115500D01*
X166495261Y-96076240D01*
X166583194Y-96002455D01*
X166640588Y-95903045D01*
X166651705Y-95840000D01*
X169689479Y-95840000D01*
X169709412Y-95953047D01*
X169759249Y-96039366D01*
X169766806Y-96052455D01*
X169854739Y-96126240D01*
X169962606Y-96165500D01*
X169962607Y-96165500D01*
X170077393Y-96165500D01*
X170077394Y-96165500D01*
X170185261Y-96126240D01*
X170273194Y-96052455D01*
X170330588Y-95953045D01*
X170350521Y-95840000D01*
X170330588Y-95726955D01*
X170330587Y-95726953D01*
X170330587Y-95726952D01*
X170273195Y-95627547D01*
X170273194Y-95627545D01*
X170213605Y-95577544D01*
X170185261Y-95553760D01*
X170132344Y-95534500D01*
X170077394Y-95514500D01*
X169962606Y-95514500D01*
X169854737Y-95553760D01*
X169766808Y-95627541D01*
X169766804Y-95627546D01*
X169709412Y-95726952D01*
X169689479Y-95840000D01*
X166651705Y-95840000D01*
X166660521Y-95790000D01*
X166640588Y-95676955D01*
X166640587Y-95676953D01*
X166640587Y-95676952D01*
X166588760Y-95587186D01*
X166583194Y-95577545D01*
X166495261Y-95503760D01*
X166387394Y-95464500D01*
X166272606Y-95464500D01*
X166164737Y-95503760D01*
X166075455Y-95578677D01*
X166039688Y-95589955D01*
X166027201Y-95587186D01*
X165937394Y-95554500D01*
X165822606Y-95554500D01*
X165714737Y-95593760D01*
X165626808Y-95667541D01*
X165626804Y-95667546D01*
X165569412Y-95766952D01*
X165549479Y-95880000D01*
X161855682Y-95880000D01*
X161514852Y-95539170D01*
X161500500Y-95504522D01*
X161500500Y-95120000D01*
X170389479Y-95120000D01*
X170409412Y-95233047D01*
X170466804Y-95332452D01*
X170466806Y-95332455D01*
X170554739Y-95406240D01*
X170662606Y-95445500D01*
X170662607Y-95445500D01*
X170777393Y-95445500D01*
X170777394Y-95445500D01*
X170885261Y-95406240D01*
X170973194Y-95332455D01*
X171030588Y-95233045D01*
X171050521Y-95120000D01*
X171030588Y-95006955D01*
X171030587Y-95006953D01*
X171030587Y-95006952D01*
X170973195Y-94907547D01*
X170973194Y-94907545D01*
X170885261Y-94833760D01*
X170777394Y-94794500D01*
X170662606Y-94794500D01*
X170554737Y-94833760D01*
X170466808Y-94907541D01*
X170466804Y-94907546D01*
X170409412Y-95006952D01*
X170389479Y-95120000D01*
X161500500Y-95120000D01*
X161500500Y-94390000D01*
X169969479Y-94390000D01*
X169989412Y-94503047D01*
X170046804Y-94602452D01*
X170046806Y-94602455D01*
X170134739Y-94676240D01*
X170242606Y-94715500D01*
X170242607Y-94715500D01*
X170357393Y-94715500D01*
X170357394Y-94715500D01*
X170465261Y-94676240D01*
X170553194Y-94602455D01*
X170610588Y-94503045D01*
X170630521Y-94390000D01*
X170610588Y-94276955D01*
X170610587Y-94276953D01*
X170610587Y-94276952D01*
X170553195Y-94177547D01*
X170553194Y-94177545D01*
X170465261Y-94103760D01*
X170357394Y-94064500D01*
X170242606Y-94064500D01*
X170134737Y-94103760D01*
X170046808Y-94177541D01*
X170046804Y-94177546D01*
X169989412Y-94276952D01*
X169969479Y-94390000D01*
X161500500Y-94390000D01*
X161500500Y-93807198D01*
X161514852Y-93772550D01*
X161549500Y-93758198D01*
X161584148Y-93772550D01*
X162034243Y-94222646D01*
X162040337Y-94230071D01*
X162052189Y-94247810D01*
X162095809Y-94276955D01*
X162138358Y-94305385D01*
X162154090Y-94308514D01*
X162214343Y-94320500D01*
X162239999Y-94325604D01*
X162240000Y-94325604D01*
X162240001Y-94325604D01*
X162260923Y-94321442D01*
X162270483Y-94320500D01*
X163509349Y-94320500D01*
X163518909Y-94321442D01*
X163539827Y-94325603D01*
X163539828Y-94325603D01*
X163539831Y-94325603D01*
X163641467Y-94305386D01*
X163641467Y-94305385D01*
X163641470Y-94305385D01*
X163727638Y-94247810D01*
X163739493Y-94230066D01*
X163745583Y-94222646D01*
X164152647Y-93815581D01*
X164160066Y-93809493D01*
X164177810Y-93797638D01*
X164235385Y-93711470D01*
X164250500Y-93635482D01*
X164251217Y-93631878D01*
X164255603Y-93609829D01*
X164255455Y-93609087D01*
X164251440Y-93588903D01*
X164250500Y-93579345D01*
X164250500Y-92964978D01*
X164264852Y-92930330D01*
X164277095Y-92918087D01*
X164327500Y-92819161D01*
X164344869Y-92709500D01*
X164327500Y-92599839D01*
X164277095Y-92500913D01*
X164210965Y-92434783D01*
X164196613Y-92400135D01*
X164196613Y-91356472D01*
X164209366Y-91325683D01*
X164208270Y-91324755D01*
X164209568Y-91323220D01*
X164209578Y-91323211D01*
X164260442Y-91251971D01*
X164293819Y-91139858D01*
X164293649Y-91135758D01*
X164293256Y-91126240D01*
X164289690Y-91040000D01*
X167759479Y-91040000D01*
X167779412Y-91153047D01*
X167836804Y-91252452D01*
X167836806Y-91252455D01*
X167924739Y-91326240D01*
X168032606Y-91365500D01*
X168032607Y-91365500D01*
X168147393Y-91365500D01*
X168147394Y-91365500D01*
X168255261Y-91326240D01*
X168343194Y-91252455D01*
X168400588Y-91153045D01*
X168420521Y-91040000D01*
X168400588Y-90926955D01*
X168400587Y-90926953D01*
X168400587Y-90926952D01*
X168343195Y-90827547D01*
X168343194Y-90827545D01*
X168336397Y-90821842D01*
X168255261Y-90753760D01*
X168229396Y-90744346D01*
X168147394Y-90714500D01*
X168032606Y-90714500D01*
X167924737Y-90753760D01*
X167836808Y-90827541D01*
X167836804Y-90827546D01*
X167779412Y-90926952D01*
X167759479Y-91040000D01*
X164289690Y-91040000D01*
X164288986Y-91022982D01*
X164276178Y-90990159D01*
X164274384Y-90983531D01*
X164273613Y-90981162D01*
X164273613Y-90981156D01*
X164270114Y-90974290D01*
X164269122Y-90972076D01*
X164267354Y-90967546D01*
X164246464Y-90914008D01*
X164232414Y-90897420D01*
X164226144Y-90887994D01*
X164223207Y-90882229D01*
X164214791Y-90873813D01*
X164200006Y-90859028D01*
X164198646Y-90857550D01*
X164173234Y-90827547D01*
X164170862Y-90824746D01*
X164167287Y-90822616D01*
X164163394Y-90820296D01*
X164153829Y-90812851D01*
X164144703Y-90803725D01*
X164144701Y-90803723D01*
X164144700Y-90803722D01*
X164144698Y-90803721D01*
X164144697Y-90803720D01*
X164082482Y-90772020D01*
X164081066Y-90771238D01*
X164070374Y-90764868D01*
X164066589Y-90763391D01*
X164066691Y-90763128D01*
X164061292Y-90761223D01*
X164053187Y-90757094D01*
X164045774Y-90753317D01*
X163936113Y-90735948D01*
X163826451Y-90753317D01*
X163727528Y-90803720D01*
X163727524Y-90803723D01*
X163649021Y-90882225D01*
X163649015Y-90882232D01*
X163641965Y-90896069D01*
X163632955Y-90908469D01*
X162816277Y-91725148D01*
X162781629Y-91739500D01*
X161711433Y-91739500D01*
X161701378Y-91738457D01*
X161684685Y-91734957D01*
X161649749Y-91739312D01*
X161646716Y-91739500D01*
X161640960Y-91739500D01*
X161619459Y-91743087D01*
X161568607Y-91749427D01*
X161568605Y-91749427D01*
X161568604Y-91749428D01*
X161568345Y-91749555D01*
X161554906Y-91753860D01*
X161554623Y-91753907D01*
X161554615Y-91753909D01*
X161509555Y-91778295D01*
X161463516Y-91800802D01*
X161463514Y-91800803D01*
X161463305Y-91801013D01*
X161452000Y-91809442D01*
X161451741Y-91809582D01*
X161417042Y-91847275D01*
X160931454Y-92332862D01*
X160923609Y-92339234D01*
X160909328Y-92348564D01*
X160887714Y-92376335D01*
X160885706Y-92378609D01*
X160881632Y-92382684D01*
X160881623Y-92382694D01*
X160868955Y-92400438D01*
X160837484Y-92440871D01*
X160837480Y-92440880D01*
X160837385Y-92441157D01*
X160830933Y-92453690D01*
X160830762Y-92453928D01*
X160830760Y-92453933D01*
X160830760Y-92453934D01*
X160817299Y-92499148D01*
X160816138Y-92503046D01*
X160799500Y-92551509D01*
X160799500Y-92551794D01*
X160797463Y-92565775D01*
X160797382Y-92566044D01*
X160799500Y-92617231D01*
X160799500Y-92938557D01*
X160798897Y-92946222D01*
X160795131Y-92970000D01*
X160798897Y-92993777D01*
X160799500Y-93001442D01*
X160799500Y-95628567D01*
X160798457Y-95638622D01*
X160794957Y-95655315D01*
X149923920Y-95655315D01*
X149923746Y-94230000D01*
X155284534Y-94230000D01*
X155304312Y-94380235D01*
X155362299Y-94520228D01*
X155362302Y-94520233D01*
X155454549Y-94640451D01*
X155574767Y-94732698D01*
X155574769Y-94732698D01*
X155574771Y-94732700D01*
X155714764Y-94790687D01*
X155827280Y-94805500D01*
X155827284Y-94805500D01*
X155902716Y-94805500D01*
X155902720Y-94805500D01*
X156015236Y-94790687D01*
X156155233Y-94732698D01*
X156275451Y-94640451D01*
X156367698Y-94520233D01*
X156425687Y-94380236D01*
X156445466Y-94230000D01*
X156425687Y-94079764D01*
X156370921Y-93947547D01*
X156367700Y-93939771D01*
X156367697Y-93939766D01*
X156275451Y-93819549D01*
X156275450Y-93819548D01*
X156155233Y-93727302D01*
X156155228Y-93727299D01*
X156015235Y-93669312D01*
X155937894Y-93659130D01*
X155902720Y-93654500D01*
X155827280Y-93654500D01*
X155795425Y-93658693D01*
X155714764Y-93669312D01*
X155574771Y-93727299D01*
X155574766Y-93727302D01*
X155454549Y-93819548D01*
X155454548Y-93819549D01*
X155362302Y-93939766D01*
X155362299Y-93939771D01*
X155304312Y-94079764D01*
X155284534Y-94230000D01*
X149923746Y-94230000D01*
X149923422Y-91580000D01*
X155689479Y-91580000D01*
X155709412Y-91693047D01*
X155761576Y-91783397D01*
X155766806Y-91792455D01*
X155854739Y-91866240D01*
X155962606Y-91905500D01*
X155962607Y-91905500D01*
X156077393Y-91905500D01*
X156077394Y-91905500D01*
X156185261Y-91866240D01*
X156273194Y-91792455D01*
X156330588Y-91693045D01*
X156350521Y-91580000D01*
X156330588Y-91466955D01*
X156330587Y-91466953D01*
X156330587Y-91466952D01*
X156273195Y-91367547D01*
X156273194Y-91367545D01*
X156185261Y-91293760D01*
X156077394Y-91254500D01*
X155962606Y-91254500D01*
X155854737Y-91293760D01*
X155766808Y-91367541D01*
X155766804Y-91367546D01*
X155709412Y-91466952D01*
X155689479Y-91580000D01*
X149923422Y-91580000D01*
X149923214Y-89885314D01*
X153264957Y-89885314D01*
X153269312Y-89920249D01*
X153269500Y-89923282D01*
X153269500Y-89929040D01*
X153273087Y-89950540D01*
X153279427Y-90001393D01*
X153279427Y-90001394D01*
X153279428Y-90001396D01*
X153279553Y-90001652D01*
X153283859Y-90015093D01*
X153283905Y-90015371D01*
X153283907Y-90015377D01*
X153283908Y-90015381D01*
X153288843Y-90024500D01*
X153308295Y-90060444D01*
X153330802Y-90106484D01*
X153331002Y-90106684D01*
X153339445Y-90118006D01*
X153339582Y-90118258D01*
X153377275Y-90152957D01*
X153645206Y-90420887D01*
X153900109Y-90675790D01*
X153900112Y-90675794D01*
X153902905Y-90678587D01*
X153981413Y-90757095D01*
X154004345Y-90768779D01*
X154010569Y-90772558D01*
X154033934Y-90789240D01*
X154055075Y-90795534D01*
X154063326Y-90798831D01*
X154080339Y-90807500D01*
X154110634Y-90812297D01*
X154113785Y-90813011D01*
X154146046Y-90822617D01*
X154164757Y-90821842D01*
X154174437Y-90822403D01*
X154190000Y-90824869D01*
X154223382Y-90819580D01*
X154226177Y-90819302D01*
X154262923Y-90817784D01*
X154277259Y-90812189D01*
X154287400Y-90809441D01*
X154299661Y-90807500D01*
X154332541Y-90790746D01*
X154334740Y-90789760D01*
X154356023Y-90781455D01*
X154371895Y-90775263D01*
X154371895Y-90775262D01*
X154371897Y-90775262D01*
X154381085Y-90767478D01*
X154390505Y-90761211D01*
X154398587Y-90757095D01*
X154426880Y-90728800D01*
X154428350Y-90727447D01*
X154461159Y-90699660D01*
X154465609Y-90692190D01*
X154473056Y-90682625D01*
X154477095Y-90678587D01*
X154496680Y-90640147D01*
X154497441Y-90638769D01*
X154521037Y-90599171D01*
X154522131Y-90593953D01*
X154526430Y-90581759D01*
X154527327Y-90580000D01*
X155729479Y-90580000D01*
X155749412Y-90693047D01*
X155796880Y-90775263D01*
X155806806Y-90792455D01*
X155894739Y-90866240D01*
X156002606Y-90905500D01*
X156002607Y-90905500D01*
X156117393Y-90905500D01*
X156117394Y-90905500D01*
X156225261Y-90866240D01*
X156313194Y-90792455D01*
X156370588Y-90693045D01*
X156390521Y-90580000D01*
X156370588Y-90466955D01*
X156370587Y-90466953D01*
X156370587Y-90466952D01*
X156313195Y-90367547D01*
X156313194Y-90367545D01*
X156303469Y-90359385D01*
X156225261Y-90293760D01*
X156117394Y-90254500D01*
X156002606Y-90254500D01*
X155894737Y-90293760D01*
X155806808Y-90367541D01*
X155806804Y-90367546D01*
X155749412Y-90466952D01*
X155729479Y-90580000D01*
X154527327Y-90580000D01*
X154527500Y-90579661D01*
X154534734Y-90533984D01*
X154534941Y-90532857D01*
X154545043Y-90484685D01*
X154544800Y-90482737D01*
X154544948Y-90473863D01*
X154544869Y-90473863D01*
X154544869Y-90470004D01*
X154544868Y-90470001D01*
X154544869Y-90470000D01*
X154537090Y-90420887D01*
X154530573Y-90368607D01*
X154530173Y-90367789D01*
X154528885Y-90364605D01*
X154527499Y-90360337D01*
X154503598Y-90313429D01*
X154479200Y-90263521D01*
X154479199Y-90263520D01*
X154479198Y-90263517D01*
X154479195Y-90263514D01*
X154479193Y-90263511D01*
X154395797Y-90180115D01*
X154395790Y-90180109D01*
X153984852Y-89769170D01*
X153970500Y-89734522D01*
X153970500Y-88450000D01*
X155284534Y-88450000D01*
X155304312Y-88600235D01*
X155362299Y-88740228D01*
X155362302Y-88740233D01*
X155454549Y-88860451D01*
X155574767Y-88952698D01*
X155574769Y-88952698D01*
X155574771Y-88952700D01*
X155692445Y-89001442D01*
X155714764Y-89010687D01*
X155827280Y-89025500D01*
X155827284Y-89025500D01*
X155902716Y-89025500D01*
X155902720Y-89025500D01*
X156015236Y-89010687D01*
X156113463Y-88970000D01*
X165295131Y-88970000D01*
X165312500Y-89079661D01*
X165359266Y-89171446D01*
X165362905Y-89178587D01*
X165441413Y-89257095D01*
X165540339Y-89307500D01*
X165650000Y-89324869D01*
X165759661Y-89307500D01*
X165858587Y-89257095D01*
X165937095Y-89178587D01*
X165987500Y-89079661D01*
X165999831Y-89001801D01*
X166013578Y-88974822D01*
X166213550Y-88774852D01*
X166248198Y-88760500D01*
X167714522Y-88760500D01*
X167749170Y-88774852D01*
X167761413Y-88787095D01*
X167860339Y-88837500D01*
X167938197Y-88849831D01*
X167965178Y-88863580D01*
X168004241Y-88902643D01*
X168010335Y-88910068D01*
X168022189Y-88927810D01*
X168053285Y-88948587D01*
X168108358Y-88985385D01*
X168108360Y-88985386D01*
X168209997Y-89005603D01*
X168210000Y-89005603D01*
X168210001Y-89005603D01*
X168230919Y-89001442D01*
X168240479Y-89000500D01*
X172394522Y-89000500D01*
X172429170Y-89014852D01*
X172441412Y-89027094D01*
X172441415Y-89027096D01*
X172470352Y-89041840D01*
X172494709Y-89070358D01*
X172491767Y-89107745D01*
X172463249Y-89132102D01*
X172448107Y-89134500D01*
X170741010Y-89134500D01*
X170731450Y-89133558D01*
X170710528Y-89129396D01*
X170710525Y-89129396D01*
X170624617Y-89146485D01*
X170608884Y-89149615D01*
X170522716Y-89207190D01*
X170522715Y-89207191D01*
X170510863Y-89224928D01*
X170504771Y-89232351D01*
X169417354Y-90319769D01*
X169409931Y-90325861D01*
X169392191Y-90337715D01*
X169392190Y-90337716D01*
X169352190Y-90397582D01*
X169334614Y-90423885D01*
X169334614Y-90423886D01*
X169314397Y-90525524D01*
X169314397Y-90525528D01*
X169318558Y-90546445D01*
X169319500Y-90556005D01*
X169319500Y-90605730D01*
X169312935Y-90630230D01*
X169274412Y-90696952D01*
X169258048Y-90789758D01*
X169254479Y-90810000D01*
X169271318Y-90905500D01*
X169271609Y-90907146D01*
X169263491Y-90943760D01*
X169231862Y-90963911D01*
X169195248Y-90955793D01*
X169188705Y-90950303D01*
X169130252Y-90891850D01*
X169115900Y-90857202D01*
X169116645Y-90848693D01*
X169130521Y-90770002D01*
X169130521Y-90770000D01*
X169110588Y-90656955D01*
X169110587Y-90656953D01*
X169110587Y-90656952D01*
X169053195Y-90557547D01*
X169053194Y-90557545D01*
X169019827Y-90529547D01*
X168965261Y-90483760D01*
X168895812Y-90458483D01*
X168857394Y-90444500D01*
X168742606Y-90444500D01*
X168634737Y-90483760D01*
X168546808Y-90557541D01*
X168546804Y-90557546D01*
X168489412Y-90656952D01*
X168469479Y-90769999D01*
X168469479Y-90770000D01*
X168489412Y-90883045D01*
X168489412Y-90883046D01*
X168489413Y-90883047D01*
X168539747Y-90970230D01*
X168545370Y-90985170D01*
X168554614Y-91031640D01*
X168612190Y-91117811D01*
X168629930Y-91129664D01*
X168637356Y-91135758D01*
X173554241Y-96052643D01*
X173560335Y-96060068D01*
X173572189Y-96077810D01*
X173616979Y-96107737D01*
X173652358Y-96131376D01*
X173658358Y-96135385D01*
X173658360Y-96135386D01*
X173759997Y-96155603D01*
X173760000Y-96155603D01*
X173760001Y-96155603D01*
X173780919Y-96151442D01*
X173790479Y-96150500D01*
X178611359Y-96150500D01*
X178646007Y-96164852D01*
X178660359Y-96199500D01*
X178659755Y-96207168D01*
X178655267Y-96235492D01*
X178655048Y-96236686D01*
X178644957Y-96284814D01*
X178644956Y-96284820D01*
X178645200Y-96286773D01*
X178645054Y-96295644D01*
X178645131Y-96295644D01*
X178645131Y-96299498D01*
X178645131Y-96299500D01*
X178652909Y-96348612D01*
X178659427Y-96400893D01*
X178659823Y-96401704D01*
X178661109Y-96404883D01*
X178662499Y-96409160D01*
X178670136Y-96424148D01*
X178686395Y-96456058D01*
X178710799Y-96505980D01*
X178710803Y-96505985D01*
X178725148Y-96520330D01*
X178739500Y-96554978D01*
X178739500Y-98222863D01*
X178725148Y-98257511D01*
X178698170Y-98271259D01*
X178690337Y-98272500D01*
X178690336Y-98272500D01*
X178591419Y-98322900D01*
X178591412Y-98322905D01*
X178512905Y-98401412D01*
X178512903Y-98401415D01*
X178487408Y-98451454D01*
X178462500Y-98500339D01*
X178456356Y-98539129D01*
X178436759Y-98571105D01*
X178407959Y-98580462D01*
X177499128Y-98580462D01*
X177464480Y-98566110D01*
X177452237Y-98553867D01*
X177452230Y-98553862D01*
X177353315Y-98503463D01*
X177353312Y-98503462D01*
X177353311Y-98503462D01*
X177312116Y-98496936D01*
X177275452Y-98491129D01*
X177248471Y-98477380D01*
X176997947Y-98226856D01*
X176991854Y-98219433D01*
X176988296Y-98214108D01*
X176979998Y-98201690D01*
X176893830Y-98144115D01*
X176817842Y-98129000D01*
X176792189Y-98123897D01*
X176792187Y-98123897D01*
X176771269Y-98128058D01*
X176761709Y-98129000D01*
X175405478Y-98129000D01*
X175370830Y-98114648D01*
X175358587Y-98102405D01*
X175358584Y-98102403D01*
X175259661Y-98052000D01*
X175150000Y-98034631D01*
X175040338Y-98052000D01*
X174941415Y-98102403D01*
X174941412Y-98102405D01*
X174862905Y-98180912D01*
X174862903Y-98180915D01*
X174820207Y-98264713D01*
X174812500Y-98279839D01*
X174809596Y-98298166D01*
X174790002Y-98330142D01*
X174761201Y-98339500D01*
X173685478Y-98339500D01*
X173650830Y-98325148D01*
X173638587Y-98312905D01*
X173638584Y-98312903D01*
X173539661Y-98262500D01*
X173430000Y-98245131D01*
X173320338Y-98262500D01*
X173221415Y-98312903D01*
X173221412Y-98312905D01*
X173142905Y-98391412D01*
X173142903Y-98391415D01*
X173092500Y-98490338D01*
X173075131Y-98600000D01*
X173092500Y-98709661D01*
X173139503Y-98801912D01*
X173142905Y-98808587D01*
X173221413Y-98887095D01*
X173320339Y-98937500D01*
X173385602Y-98947836D01*
X173417578Y-98967432D01*
X173426333Y-99003895D01*
X173425446Y-99009497D01*
X173425446Y-99009500D01*
X173440169Y-99102455D01*
X173442815Y-99119161D01*
X173492729Y-99217125D01*
X173493220Y-99218087D01*
X173571728Y-99296595D01*
X173670654Y-99347000D01*
X173780315Y-99364369D01*
X173889976Y-99347000D01*
X173988902Y-99296595D01*
X174067410Y-99218087D01*
X174117815Y-99119161D01*
X174135184Y-99009500D01*
X174120559Y-98917164D01*
X174129314Y-98880699D01*
X174161291Y-98861103D01*
X174168956Y-98860500D01*
X174909021Y-98860500D01*
X174918581Y-98861442D01*
X174939499Y-98865603D01*
X174939500Y-98865603D01*
X174939503Y-98865603D01*
X175041139Y-98845386D01*
X175041139Y-98845385D01*
X175041142Y-98845385D01*
X175127310Y-98787810D01*
X175139165Y-98770066D01*
X175145253Y-98762647D01*
X175154822Y-98753078D01*
X175181801Y-98739331D01*
X175259661Y-98727000D01*
X175358587Y-98676595D01*
X175370830Y-98664352D01*
X175405478Y-98650000D01*
X176663990Y-98650000D01*
X176698638Y-98664352D01*
X176880068Y-98845783D01*
X176893817Y-98872764D01*
X176896547Y-98890000D01*
X176905655Y-98947500D01*
X176906151Y-98950627D01*
X176956550Y-99049542D01*
X176956555Y-99049549D01*
X177035063Y-99128057D01*
X177133989Y-99178462D01*
X177243650Y-99195831D01*
X177353311Y-99178462D01*
X177452237Y-99128057D01*
X177464480Y-99115814D01*
X177499128Y-99101462D01*
X178538559Y-99101462D01*
X178548119Y-99102404D01*
X178569037Y-99106565D01*
X178569038Y-99106565D01*
X178569041Y-99106565D01*
X178630023Y-99094434D01*
X178670680Y-99086347D01*
X178677266Y-99081946D01*
X178683854Y-99077545D01*
X178720350Y-99053158D01*
X178756848Y-99028772D01*
X178768702Y-99011028D01*
X178774787Y-99003613D01*
X178804823Y-98973578D01*
X178831802Y-98959831D01*
X178909661Y-98947500D01*
X179008587Y-98897095D01*
X179087095Y-98818587D01*
X179137500Y-98719661D01*
X179145364Y-98670004D01*
X183955131Y-98670004D01*
X183956287Y-98677307D01*
X183956723Y-98689010D01*
X183955867Y-98699341D01*
X183966034Y-98739493D01*
X183966482Y-98741674D01*
X183972499Y-98779658D01*
X183972501Y-98779663D01*
X183977377Y-98789234D01*
X183981215Y-98799444D01*
X183984582Y-98812737D01*
X183984585Y-98812744D01*
X183988401Y-98818584D01*
X184005545Y-98844824D01*
X184006852Y-98847081D01*
X184016289Y-98865603D01*
X184022903Y-98878584D01*
X184022906Y-98878588D01*
X184032861Y-98888543D01*
X184039233Y-98896389D01*
X184048563Y-98910669D01*
X184076351Y-98932297D01*
X184078611Y-98934293D01*
X184091817Y-98947499D01*
X184101412Y-98957094D01*
X184101416Y-98957097D01*
X184110455Y-98961702D01*
X184116936Y-98965004D01*
X184124787Y-98969996D01*
X184140873Y-98982517D01*
X184171221Y-98992935D01*
X184174393Y-98994280D01*
X184193264Y-99003895D01*
X184200339Y-99007500D01*
X184220827Y-99010744D01*
X184229073Y-99012796D01*
X184251512Y-99020500D01*
X184278557Y-99020500D01*
X184286222Y-99021103D01*
X184289707Y-99021654D01*
X184310000Y-99024869D01*
X184330292Y-99021654D01*
X184333778Y-99021103D01*
X184341443Y-99020500D01*
X187104522Y-99020500D01*
X187139170Y-99034852D01*
X187242861Y-99138543D01*
X187249233Y-99146389D01*
X187258563Y-99160669D01*
X187286351Y-99182297D01*
X187288611Y-99184293D01*
X187311413Y-99207095D01*
X187311417Y-99207097D01*
X187326933Y-99215003D01*
X187334785Y-99219995D01*
X187350874Y-99232517D01*
X187351132Y-99232605D01*
X187363706Y-99239077D01*
X187363933Y-99239239D01*
X187385066Y-99245530D01*
X187393331Y-99248834D01*
X187409269Y-99256955D01*
X187410339Y-99257500D01*
X187430827Y-99260744D01*
X187439073Y-99262796D01*
X187461512Y-99270500D01*
X187461796Y-99270500D01*
X187475780Y-99272538D01*
X187475864Y-99272562D01*
X187476046Y-99272617D01*
X187494757Y-99271842D01*
X187504436Y-99272403D01*
X187520000Y-99274869D01*
X187540999Y-99271543D01*
X187543778Y-99271103D01*
X187551443Y-99270500D01*
X189758567Y-99270500D01*
X189768622Y-99271543D01*
X189772566Y-99272369D01*
X189785315Y-99275043D01*
X189820251Y-99270688D01*
X189823284Y-99270500D01*
X189829037Y-99270500D01*
X189829040Y-99270500D01*
X189850540Y-99266912D01*
X189901393Y-99260573D01*
X189901640Y-99260452D01*
X189915105Y-99256137D01*
X189915381Y-99256092D01*
X189960444Y-99231704D01*
X190006484Y-99209198D01*
X190006680Y-99209001D01*
X190018014Y-99200549D01*
X190018258Y-99200418D01*
X190052957Y-99162724D01*
X191915680Y-97300000D01*
X194749479Y-97300000D01*
X194769412Y-97413047D01*
X194826804Y-97512452D01*
X194826806Y-97512455D01*
X194914739Y-97586240D01*
X195022606Y-97625500D01*
X195022607Y-97625500D01*
X195137393Y-97625500D01*
X195137394Y-97625500D01*
X195245261Y-97586240D01*
X195333194Y-97512455D01*
X195390588Y-97413045D01*
X195410521Y-97300000D01*
X195390588Y-97186955D01*
X195390587Y-97186953D01*
X195390587Y-97186952D01*
X195333195Y-97087547D01*
X195333194Y-97087545D01*
X195245261Y-97013760D01*
X195137394Y-96974500D01*
X195022606Y-96974500D01*
X194914737Y-97013760D01*
X194826808Y-97087541D01*
X194826804Y-97087546D01*
X194769412Y-97186952D01*
X194749479Y-97300000D01*
X191915680Y-97300000D01*
X192996899Y-96218781D01*
X192998342Y-96217453D01*
X193031159Y-96189660D01*
X193035609Y-96182190D01*
X193043056Y-96172625D01*
X193047095Y-96168587D01*
X193058777Y-96145657D01*
X193062560Y-96139426D01*
X193065446Y-96135385D01*
X193079240Y-96116066D01*
X193081719Y-96107735D01*
X193086591Y-96096631D01*
X193091037Y-96089171D01*
X193092131Y-96083950D01*
X193096431Y-96071758D01*
X193097500Y-96069661D01*
X193102300Y-96039346D01*
X193103015Y-96036203D01*
X193112454Y-96004500D01*
X193112617Y-96003954D01*
X193112257Y-95995271D01*
X193113259Y-95983189D01*
X193115043Y-95974685D01*
X193114800Y-95972737D01*
X193114948Y-95963863D01*
X193114869Y-95963863D01*
X193114869Y-95960004D01*
X193114868Y-95960001D01*
X193114869Y-95960000D01*
X193109579Y-95926610D01*
X193109301Y-95923815D01*
X193107783Y-95887078D01*
X193107782Y-95887075D01*
X193107782Y-95887073D01*
X193104624Y-95878981D01*
X193101647Y-95867226D01*
X193100746Y-95860000D01*
X193100573Y-95858607D01*
X193100176Y-95857796D01*
X193098885Y-95854603D01*
X193097499Y-95850336D01*
X193080748Y-95817461D01*
X193079753Y-95815243D01*
X193065261Y-95778104D01*
X193065261Y-95778103D01*
X193059645Y-95771472D01*
X193053014Y-95761322D01*
X193049198Y-95753516D01*
X193018805Y-95723123D01*
X193017433Y-95721633D01*
X192998297Y-95699040D01*
X192989660Y-95688842D01*
X192989657Y-95688840D01*
X192982193Y-95684392D01*
X192972630Y-95676948D01*
X190035682Y-92740000D01*
X192349479Y-92740000D01*
X192369412Y-92853047D01*
X192420169Y-92940960D01*
X192426806Y-92952455D01*
X192514739Y-93026240D01*
X192622606Y-93065500D01*
X192622607Y-93065500D01*
X192737393Y-93065500D01*
X192737394Y-93065500D01*
X192845261Y-93026240D01*
X192933194Y-92952455D01*
X192990588Y-92853045D01*
X193010521Y-92740000D01*
X192990588Y-92626955D01*
X192990587Y-92626953D01*
X192990587Y-92626952D01*
X192941950Y-92542711D01*
X192933194Y-92527545D01*
X192927124Y-92522452D01*
X192845261Y-92453760D01*
X192832650Y-92449170D01*
X192737394Y-92414500D01*
X192622606Y-92414500D01*
X192514737Y-92453760D01*
X192426808Y-92527541D01*
X192426804Y-92527546D01*
X192369412Y-92626952D01*
X192349479Y-92740000D01*
X190035682Y-92740000D01*
X189744852Y-92449170D01*
X189730500Y-92414522D01*
X189730500Y-91801442D01*
X189731103Y-91793777D01*
X189733555Y-91778295D01*
X189734869Y-91770000D01*
X189730895Y-91744908D01*
X189730676Y-91743096D01*
X189730500Y-91740970D01*
X189730500Y-91740960D01*
X189725965Y-91713783D01*
X189717500Y-91660339D01*
X189717498Y-91660336D01*
X189717408Y-91659764D01*
X189716297Y-91655216D01*
X189716092Y-91654619D01*
X189703430Y-91631221D01*
X189691946Y-91610000D01*
X190279479Y-91610000D01*
X190299412Y-91723047D01*
X190356804Y-91822452D01*
X190356806Y-91822455D01*
X190397501Y-91856602D01*
X190414818Y-91889868D01*
X190409797Y-91912530D01*
X190410879Y-91912924D01*
X190409413Y-91916951D01*
X190389479Y-92030000D01*
X190409412Y-92143047D01*
X190466804Y-92242452D01*
X190466806Y-92242455D01*
X190554739Y-92316240D01*
X190662606Y-92355500D01*
X190662607Y-92355500D01*
X190777393Y-92355500D01*
X190777394Y-92355500D01*
X190885261Y-92316240D01*
X190973194Y-92242455D01*
X191030588Y-92143045D01*
X191050521Y-92030000D01*
X191030588Y-91916955D01*
X191030587Y-91916953D01*
X191030587Y-91916952D01*
X190973195Y-91817547D01*
X190973193Y-91817544D01*
X190953241Y-91800802D01*
X190932497Y-91783396D01*
X190915181Y-91750131D01*
X190920209Y-91727473D01*
X190919121Y-91727077D01*
X190920586Y-91723049D01*
X190920586Y-91723048D01*
X190920588Y-91723045D01*
X190940521Y-91610000D01*
X190920588Y-91496955D01*
X190920587Y-91496953D01*
X190920587Y-91496952D01*
X190863195Y-91397547D01*
X190863194Y-91397545D01*
X190857124Y-91392452D01*
X190775261Y-91323760D01*
X190773753Y-91323211D01*
X190667394Y-91284500D01*
X190552606Y-91284500D01*
X190444737Y-91323760D01*
X190356808Y-91397541D01*
X190356804Y-91397546D01*
X190299412Y-91496952D01*
X190279479Y-91610000D01*
X189691946Y-91610000D01*
X189690332Y-91607018D01*
X189667095Y-91561413D01*
X189667093Y-91561411D01*
X189664831Y-91558298D01*
X189665106Y-91558097D01*
X189660551Y-91551988D01*
X189660418Y-91551742D01*
X189622724Y-91517042D01*
X189588587Y-91482905D01*
X189588586Y-91482904D01*
X189587977Y-91482594D01*
X189577047Y-91474993D01*
X189574356Y-91472516D01*
X189574352Y-91472514D01*
X189574351Y-91472513D01*
X189530731Y-91453379D01*
X189529451Y-91452772D01*
X189489661Y-91432500D01*
X189489658Y-91432499D01*
X189485668Y-91431867D01*
X189473659Y-91428346D01*
X189467232Y-91425527D01*
X189422851Y-91421848D01*
X189421043Y-91421630D01*
X189380000Y-91415131D01*
X189379995Y-91415131D01*
X189372692Y-91416287D01*
X189360988Y-91416723D01*
X189350657Y-91415867D01*
X189310505Y-91426034D01*
X189308324Y-91426482D01*
X189270340Y-91432499D01*
X189270336Y-91432501D01*
X189260762Y-91437378D01*
X189250556Y-91441215D01*
X189237264Y-91444582D01*
X189237254Y-91444586D01*
X189205181Y-91465540D01*
X189202903Y-91466859D01*
X189171417Y-91482902D01*
X189171412Y-91482905D01*
X189161451Y-91492866D01*
X189153607Y-91499235D01*
X189139330Y-91508563D01*
X189139328Y-91508564D01*
X189117712Y-91536337D01*
X189115702Y-91538613D01*
X189092904Y-91561412D01*
X189092902Y-91561415D01*
X189084995Y-91576934D01*
X189080007Y-91584780D01*
X189067485Y-91600870D01*
X189067482Y-91600875D01*
X189057063Y-91631221D01*
X189055720Y-91634391D01*
X189042502Y-91660334D01*
X189042499Y-91660342D01*
X189039252Y-91680836D01*
X189037202Y-91689075D01*
X189029500Y-91711513D01*
X189029500Y-91738557D01*
X189028897Y-91746222D01*
X189025131Y-91770000D01*
X189028897Y-91793777D01*
X189029500Y-91801442D01*
X189029500Y-92538567D01*
X189028457Y-92548622D01*
X189024957Y-92565315D01*
X189029261Y-92599838D01*
X189029312Y-92600249D01*
X189029500Y-92603282D01*
X189029500Y-92609040D01*
X189033087Y-92630540D01*
X189039427Y-92681393D01*
X189039427Y-92681394D01*
X189039428Y-92681396D01*
X189039553Y-92681652D01*
X189043859Y-92695093D01*
X189043905Y-92695371D01*
X189043907Y-92695377D01*
X189043908Y-92695381D01*
X189068055Y-92740000D01*
X189068295Y-92740444D01*
X189090802Y-92786484D01*
X189091002Y-92786684D01*
X189099445Y-92798006D01*
X189099582Y-92798258D01*
X189137275Y-92832957D01*
X190750558Y-94446239D01*
X192229670Y-95925351D01*
X192244022Y-95959999D01*
X192229670Y-95994647D01*
X189669170Y-98555148D01*
X189634522Y-98569500D01*
X187685478Y-98569500D01*
X187650830Y-98555148D01*
X187547136Y-98451454D01*
X187540762Y-98443605D01*
X187531438Y-98429333D01*
X187531437Y-98429331D01*
X187531435Y-98429329D01*
X187531433Y-98429327D01*
X187503657Y-98407709D01*
X187501386Y-98405704D01*
X187497307Y-98401625D01*
X187479561Y-98388955D01*
X187439126Y-98357483D01*
X187439124Y-98357482D01*
X187438852Y-98357389D01*
X187426302Y-98350928D01*
X187426069Y-98350761D01*
X187426067Y-98350760D01*
X187376954Y-98336138D01*
X187366613Y-98332588D01*
X187328488Y-98319500D01*
X187328487Y-98319500D01*
X187328205Y-98319500D01*
X187314221Y-98317462D01*
X187313954Y-98317382D01*
X187262769Y-98319500D01*
X184341443Y-98319500D01*
X184333778Y-98318897D01*
X184321406Y-98316937D01*
X184310000Y-98315131D01*
X184309999Y-98315131D01*
X184284910Y-98319104D01*
X184283107Y-98319321D01*
X184280965Y-98319499D01*
X184253783Y-98324034D01*
X184199781Y-98332588D01*
X184195206Y-98333706D01*
X184194619Y-98333908D01*
X184147018Y-98359667D01*
X184101409Y-98382906D01*
X184098291Y-98385172D01*
X184098093Y-98384899D01*
X184092000Y-98389442D01*
X184091741Y-98389582D01*
X184075914Y-98406775D01*
X184057042Y-98427275D01*
X184036457Y-98447861D01*
X184022903Y-98461415D01*
X184022901Y-98461418D01*
X184022591Y-98462027D01*
X184014995Y-98472949D01*
X184012516Y-98475642D01*
X183993379Y-98519267D01*
X183992773Y-98520547D01*
X183972499Y-98560338D01*
X183972499Y-98560339D01*
X183971867Y-98564331D01*
X183968346Y-98576340D01*
X183965527Y-98582766D01*
X183961848Y-98627149D01*
X183961630Y-98628957D01*
X183955131Y-98669999D01*
X183955131Y-98670004D01*
X179145364Y-98670004D01*
X179149775Y-98642152D01*
X179169370Y-98610176D01*
X179170922Y-98609093D01*
X179187810Y-98597810D01*
X179245385Y-98511642D01*
X179249463Y-98491142D01*
X179261759Y-98429331D01*
X179265604Y-98410001D01*
X179265604Y-98409998D01*
X179261442Y-98389076D01*
X179260500Y-98379516D01*
X179260500Y-96730000D01*
X179274852Y-96695352D01*
X179309500Y-96681000D01*
X180348557Y-96681000D01*
X180356222Y-96681603D01*
X180360252Y-96682241D01*
X180380000Y-96685369D01*
X180403777Y-96681603D01*
X180405091Y-96681395D01*
X180406904Y-96681176D01*
X180409028Y-96681000D01*
X180409040Y-96681000D01*
X180432330Y-96677113D01*
X180436217Y-96676465D01*
X180442830Y-96675417D01*
X180489661Y-96668000D01*
X180489664Y-96667998D01*
X180490241Y-96667907D01*
X180494790Y-96666795D01*
X180495379Y-96666593D01*
X180542981Y-96640832D01*
X180588587Y-96617595D01*
X180588587Y-96617594D01*
X180588590Y-96617593D01*
X180591707Y-96615328D01*
X180591908Y-96615605D01*
X180598018Y-96611047D01*
X180598258Y-96610918D01*
X180632957Y-96573224D01*
X180667095Y-96539087D01*
X180667402Y-96538483D01*
X180675013Y-96527540D01*
X180677484Y-96524856D01*
X180696621Y-96481225D01*
X180697218Y-96479964D01*
X180717500Y-96440161D01*
X180718131Y-96436170D01*
X180721658Y-96424148D01*
X180724473Y-96417732D01*
X180728150Y-96373355D01*
X180728368Y-96371545D01*
X180732000Y-96348612D01*
X180734869Y-96330500D01*
X180734790Y-96330000D01*
X186669479Y-96330000D01*
X186689412Y-96443047D01*
X186742318Y-96534682D01*
X186746806Y-96542455D01*
X186834739Y-96616240D01*
X186942606Y-96655500D01*
X186942607Y-96655500D01*
X187057393Y-96655500D01*
X187057394Y-96655500D01*
X187165261Y-96616240D01*
X187253194Y-96542455D01*
X187310588Y-96443045D01*
X187330521Y-96330000D01*
X187310588Y-96216955D01*
X187310587Y-96216953D01*
X187310587Y-96216952D01*
X187253195Y-96117547D01*
X187253194Y-96117545D01*
X187251431Y-96116066D01*
X187165261Y-96043760D01*
X187144498Y-96036203D01*
X187057394Y-96004500D01*
X186942606Y-96004500D01*
X186834737Y-96043760D01*
X186746808Y-96117541D01*
X186746804Y-96117546D01*
X186689412Y-96216952D01*
X186669479Y-96330000D01*
X180734790Y-96330000D01*
X180733711Y-96323197D01*
X180733276Y-96311479D01*
X180734132Y-96301156D01*
X180723961Y-96260996D01*
X180723518Y-96258839D01*
X180717500Y-96220839D01*
X180717500Y-96220837D01*
X180716310Y-96217176D01*
X180717569Y-96216766D01*
X180715020Y-96184357D01*
X180739377Y-96155840D01*
X180761621Y-96150500D01*
X180947803Y-96150500D01*
X180964561Y-96153454D01*
X181052606Y-96185500D01*
X181052607Y-96185500D01*
X181167393Y-96185500D01*
X181167394Y-96185500D01*
X181275261Y-96146240D01*
X181363194Y-96072455D01*
X181420588Y-95973045D01*
X181440521Y-95860000D01*
X181420588Y-95746955D01*
X181420587Y-95746953D01*
X181420587Y-95746952D01*
X181363195Y-95647547D01*
X181363193Y-95647544D01*
X181275261Y-95573760D01*
X181222344Y-95554500D01*
X181167394Y-95534500D01*
X181052606Y-95534500D01*
X180944742Y-95573759D01*
X180944737Y-95573762D01*
X180891973Y-95618036D01*
X180860477Y-95629500D01*
X173888198Y-95629500D01*
X173853550Y-95615148D01*
X172398402Y-94160000D01*
X186669479Y-94160000D01*
X186689412Y-94273047D01*
X186746804Y-94372452D01*
X186746806Y-94372455D01*
X186834739Y-94446240D01*
X186942606Y-94485500D01*
X186942607Y-94485500D01*
X187057393Y-94485500D01*
X187057394Y-94485500D01*
X187165261Y-94446240D01*
X187253194Y-94372455D01*
X187310588Y-94273045D01*
X187330521Y-94160000D01*
X187310588Y-94046955D01*
X187310587Y-94046953D01*
X187310587Y-94046952D01*
X187253195Y-93947547D01*
X187253194Y-93947545D01*
X187243929Y-93939771D01*
X187165261Y-93873760D01*
X187057394Y-93834500D01*
X186942606Y-93834500D01*
X186834737Y-93873760D01*
X186746808Y-93947541D01*
X186746804Y-93947546D01*
X186689412Y-94046952D01*
X186669479Y-94160000D01*
X172398402Y-94160000D01*
X170672550Y-92434148D01*
X170658198Y-92399500D01*
X170672550Y-92364852D01*
X170707198Y-92350500D01*
X172356229Y-92350500D01*
X172387724Y-92361963D01*
X172404739Y-92376240D01*
X172512606Y-92415500D01*
X172512607Y-92415500D01*
X172537800Y-92415500D01*
X172572448Y-92429852D01*
X172586800Y-92464500D01*
X172572448Y-92499148D01*
X172385177Y-92686418D01*
X172358196Y-92700166D01*
X172280338Y-92712499D01*
X172280336Y-92712500D01*
X172181419Y-92762900D01*
X172181412Y-92762905D01*
X172102905Y-92841412D01*
X172102903Y-92841415D01*
X172052500Y-92940338D01*
X172052171Y-92942415D01*
X172035131Y-93050000D01*
X172052500Y-93159661D01*
X172102905Y-93258587D01*
X172181413Y-93337095D01*
X172280339Y-93387500D01*
X172390000Y-93404869D01*
X172499661Y-93387500D01*
X172598587Y-93337095D01*
X172677095Y-93258587D01*
X172727500Y-93159661D01*
X172739831Y-93081801D01*
X172753578Y-93054823D01*
X173482650Y-92325751D01*
X173490069Y-92319663D01*
X173507810Y-92307810D01*
X173565385Y-92221642D01*
X173570296Y-92196955D01*
X173579385Y-92151266D01*
X173585604Y-92120001D01*
X173585604Y-92119998D01*
X173581442Y-92099076D01*
X173580500Y-92089516D01*
X173580500Y-90775478D01*
X173594852Y-90740830D01*
X173599734Y-90735948D01*
X173607095Y-90728587D01*
X173657500Y-90629661D01*
X173674869Y-90520000D01*
X173657500Y-90410339D01*
X173607095Y-90311413D01*
X173528587Y-90232905D01*
X173528584Y-90232903D01*
X173429661Y-90182500D01*
X173320000Y-90165131D01*
X173210338Y-90182500D01*
X173111415Y-90232903D01*
X173111412Y-90232905D01*
X173032905Y-90311412D01*
X173032903Y-90311415D01*
X172982500Y-90410338D01*
X172965131Y-90520000D01*
X172982500Y-90629661D01*
X173032903Y-90728584D01*
X173032905Y-90728587D01*
X173045148Y-90740830D01*
X173059500Y-90775478D01*
X173059500Y-91991800D01*
X173045148Y-92026448D01*
X172979232Y-92092364D01*
X172944584Y-92106716D01*
X172909936Y-92092364D01*
X172896329Y-92066227D01*
X172880588Y-91976955D01*
X172880587Y-91976953D01*
X172880587Y-91976952D01*
X172823195Y-91877547D01*
X172823193Y-91877544D01*
X172735261Y-91803760D01*
X172718292Y-91797584D01*
X172627394Y-91764500D01*
X172512606Y-91764500D01*
X172404742Y-91803759D01*
X172404740Y-91803760D01*
X172387725Y-91818036D01*
X172356230Y-91829500D01*
X170540747Y-91829500D01*
X170506099Y-91815148D01*
X170244852Y-91553901D01*
X170230500Y-91519253D01*
X170230500Y-91176477D01*
X170244852Y-91141829D01*
X170279500Y-91127477D01*
X170296254Y-91130431D01*
X170392606Y-91165500D01*
X170392607Y-91165500D01*
X170507393Y-91165500D01*
X170507394Y-91165500D01*
X170594907Y-91133648D01*
X170632372Y-91135284D01*
X170643161Y-91142157D01*
X170669539Y-91164290D01*
X170689739Y-91181240D01*
X170797606Y-91220500D01*
X170797607Y-91220500D01*
X170912393Y-91220500D01*
X170912394Y-91220500D01*
X171020261Y-91181240D01*
X171108194Y-91107455D01*
X171165588Y-91008045D01*
X171185521Y-90895000D01*
X171172641Y-90821956D01*
X171180758Y-90785344D01*
X171211335Y-90765391D01*
X171261642Y-90755385D01*
X171267125Y-90751721D01*
X171278164Y-90744346D01*
X171347807Y-90697812D01*
X171347806Y-90697812D01*
X171347810Y-90697810D01*
X171359665Y-90680066D01*
X171365753Y-90672647D01*
X172048551Y-89989852D01*
X172083199Y-89975500D01*
X174823036Y-89975500D01*
X174857684Y-89989852D01*
X174872036Y-90024500D01*
X174871292Y-90033002D01*
X174859479Y-90100000D01*
X174879412Y-90213047D01*
X174936804Y-90312452D01*
X174936806Y-90312455D01*
X175024739Y-90386240D01*
X175132606Y-90425500D01*
X175132607Y-90425500D01*
X175247393Y-90425500D01*
X175247394Y-90425500D01*
X175355261Y-90386240D01*
X175443194Y-90312455D01*
X175500588Y-90213045D01*
X175520521Y-90100000D01*
X175508708Y-90033007D01*
X175516825Y-89996395D01*
X175548455Y-89976244D01*
X175556964Y-89975500D01*
X179681407Y-89975500D01*
X179716055Y-89989852D01*
X179723840Y-89999997D01*
X179736806Y-90022455D01*
X179824739Y-90096240D01*
X179932606Y-90135500D01*
X179932607Y-90135500D01*
X180047394Y-90135500D01*
X180063741Y-90129550D01*
X180101208Y-90131186D01*
X180126545Y-90158836D01*
X180129500Y-90175595D01*
X180129500Y-92097069D01*
X180122935Y-92121569D01*
X180079412Y-92196952D01*
X180059479Y-92310000D01*
X180079412Y-92423047D01*
X180136804Y-92522452D01*
X180136806Y-92522455D01*
X180224739Y-92596240D01*
X180332606Y-92635500D01*
X180332607Y-92635500D01*
X180447393Y-92635500D01*
X180447394Y-92635500D01*
X180555261Y-92596240D01*
X180643194Y-92522455D01*
X180660065Y-92493232D01*
X180689817Y-92470403D01*
X180727000Y-92475298D01*
X180749830Y-92505050D01*
X180751500Y-92517733D01*
X180751500Y-93369057D01*
X180750897Y-93376722D01*
X180747131Y-93400501D01*
X180751104Y-93425589D01*
X180751321Y-93427393D01*
X180751499Y-93429534D01*
X180751500Y-93429539D01*
X180751500Y-93429540D01*
X180756034Y-93456716D01*
X180764500Y-93510161D01*
X180764501Y-93510163D01*
X180764591Y-93510730D01*
X180765708Y-93515302D01*
X180765906Y-93515879D01*
X180777685Y-93537644D01*
X180791667Y-93563481D01*
X180814905Y-93609087D01*
X180814908Y-93609090D01*
X180817172Y-93612206D01*
X180816896Y-93612406D01*
X180821447Y-93618508D01*
X180821583Y-93618759D01*
X180859275Y-93653457D01*
X180893413Y-93687595D01*
X180894012Y-93687900D01*
X180904954Y-93695508D01*
X180907644Y-93697984D01*
X180951274Y-93717122D01*
X180952539Y-93717721D01*
X180992339Y-93738000D01*
X180994695Y-93738373D01*
X180996322Y-93738631D01*
X181008345Y-93742156D01*
X181012586Y-93744016D01*
X181014768Y-93744973D01*
X181045754Y-93747540D01*
X181059143Y-93748650D01*
X181060953Y-93748868D01*
X181073666Y-93750881D01*
X181102000Y-93755369D01*
X181109302Y-93754211D01*
X181121019Y-93753776D01*
X181124131Y-93754034D01*
X181131342Y-93754632D01*
X181131342Y-93754631D01*
X181131344Y-93754632D01*
X181171507Y-93744460D01*
X181173654Y-93744019D01*
X181211661Y-93738000D01*
X181221235Y-93733121D01*
X181231445Y-93729282D01*
X181244741Y-93725916D01*
X181276830Y-93704949D01*
X181279074Y-93703650D01*
X181310587Y-93687595D01*
X181320549Y-93677631D01*
X181328392Y-93671263D01*
X181342669Y-93661937D01*
X181364297Y-93634147D01*
X181366294Y-93631886D01*
X181389095Y-93609087D01*
X181397006Y-93593559D01*
X181401993Y-93585715D01*
X181414517Y-93569626D01*
X181424939Y-93539264D01*
X181426270Y-93536123D01*
X181439500Y-93510161D01*
X181442745Y-93489666D01*
X181444795Y-93481426D01*
X181452500Y-93458988D01*
X181452500Y-93431942D01*
X181453103Y-93424277D01*
X181453152Y-93423963D01*
X181456869Y-93400500D01*
X181453103Y-93376722D01*
X181452500Y-93369057D01*
X181452500Y-91180000D01*
X192979479Y-91180000D01*
X192999412Y-91293047D01*
X193042425Y-91367547D01*
X193056806Y-91392455D01*
X193144739Y-91466240D01*
X193252606Y-91505500D01*
X193252607Y-91505500D01*
X193367393Y-91505500D01*
X193367394Y-91505500D01*
X193475261Y-91466240D01*
X193563194Y-91392455D01*
X193620588Y-91293045D01*
X193640521Y-91180000D01*
X193620588Y-91066955D01*
X193620587Y-91066953D01*
X193620587Y-91066952D01*
X193571052Y-90981156D01*
X193563194Y-90967545D01*
X193514817Y-90926952D01*
X193475261Y-90893760D01*
X193445821Y-90883045D01*
X193367394Y-90854500D01*
X193252606Y-90854500D01*
X193144737Y-90893760D01*
X193056808Y-90967541D01*
X193056804Y-90967546D01*
X192999412Y-91066952D01*
X192979479Y-91180000D01*
X181452500Y-91180000D01*
X181452500Y-90973427D01*
X181453543Y-90963371D01*
X181456283Y-90950303D01*
X181457042Y-90946685D01*
X181453250Y-90916268D01*
X181463206Y-90880113D01*
X181467218Y-90875569D01*
X181838548Y-90504239D01*
X181846390Y-90497872D01*
X181860669Y-90488544D01*
X181882290Y-90460763D01*
X181884294Y-90458493D01*
X181888375Y-90454414D01*
X181901044Y-90436668D01*
X181932517Y-90396233D01*
X181932605Y-90395974D01*
X181939077Y-90383399D01*
X181939240Y-90383173D01*
X181953861Y-90334061D01*
X181970500Y-90285595D01*
X181970500Y-90285309D01*
X181972537Y-90271329D01*
X181972617Y-90271061D01*
X181972350Y-90264615D01*
X181970500Y-90219875D01*
X181970500Y-89854320D01*
X181971543Y-89844264D01*
X181975042Y-89827578D01*
X181970688Y-89792647D01*
X181970500Y-89789613D01*
X181970500Y-89783851D01*
X181966910Y-89762342D01*
X181965372Y-89750000D01*
X190129479Y-89750000D01*
X190149412Y-89863047D01*
X190206804Y-89962452D01*
X190206806Y-89962455D01*
X190223681Y-89976615D01*
X190240998Y-90009881D01*
X190234620Y-90038650D01*
X190189412Y-90116953D01*
X190169479Y-90230000D01*
X190189412Y-90343047D01*
X190236085Y-90423886D01*
X190246806Y-90442455D01*
X190334739Y-90516240D01*
X190442606Y-90555500D01*
X190442607Y-90555500D01*
X190557393Y-90555500D01*
X190557394Y-90555500D01*
X190665261Y-90516240D01*
X190753194Y-90442455D01*
X190810588Y-90343045D01*
X190830521Y-90230000D01*
X190810588Y-90116955D01*
X190810587Y-90116953D01*
X190810587Y-90116952D01*
X190753195Y-90017547D01*
X190753194Y-90017545D01*
X190753191Y-90017543D01*
X190753190Y-90017541D01*
X190736318Y-90003383D01*
X190719001Y-89970118D01*
X190725380Y-89941348D01*
X190770587Y-89863047D01*
X190770587Y-89863046D01*
X190770588Y-89863045D01*
X190790521Y-89750000D01*
X190770588Y-89636955D01*
X190770587Y-89636953D01*
X190770587Y-89636952D01*
X190713195Y-89537547D01*
X190713194Y-89537545D01*
X190625261Y-89463760D01*
X190517394Y-89424500D01*
X190402606Y-89424500D01*
X190294737Y-89463760D01*
X190206808Y-89537541D01*
X190206804Y-89537546D01*
X190149412Y-89636952D01*
X190129479Y-89750000D01*
X181965372Y-89750000D01*
X181961459Y-89718608D01*
X181960573Y-89711500D01*
X181960447Y-89711243D01*
X181956138Y-89697786D01*
X181956092Y-89697513D01*
X181956092Y-89697512D01*
X181931704Y-89652448D01*
X181909198Y-89606409D01*
X181908998Y-89606209D01*
X181900551Y-89594881D01*
X181900418Y-89594635D01*
X181862724Y-89559935D01*
X181508882Y-89206093D01*
X181494530Y-89171445D01*
X181508880Y-89136800D01*
X182139117Y-88506562D01*
X182166096Y-88492815D01*
X182199661Y-88487500D01*
X182199664Y-88487498D01*
X182200240Y-88487407D01*
X182204790Y-88486295D01*
X182205379Y-88486093D01*
X182252981Y-88460332D01*
X182256370Y-88458605D01*
X182298587Y-88437095D01*
X182298587Y-88437094D01*
X182298590Y-88437093D01*
X182301707Y-88434828D01*
X182301908Y-88435105D01*
X182308018Y-88430547D01*
X182308258Y-88430418D01*
X182342957Y-88392724D01*
X182377095Y-88358587D01*
X182377402Y-88357983D01*
X182385013Y-88347040D01*
X182387484Y-88344356D01*
X182406621Y-88300725D01*
X182407218Y-88299464D01*
X182427500Y-88259661D01*
X182428131Y-88255670D01*
X182431658Y-88243648D01*
X182434473Y-88237232D01*
X182438150Y-88192855D01*
X182438368Y-88191045D01*
X182439530Y-88183701D01*
X182444869Y-88150000D01*
X182443711Y-88142697D01*
X182443276Y-88130979D01*
X182444132Y-88120656D01*
X182433961Y-88080496D01*
X182433518Y-88078339D01*
X182427500Y-88040339D01*
X182422622Y-88030765D01*
X182418783Y-88020552D01*
X182415416Y-88007259D01*
X182394457Y-87975179D01*
X182393141Y-87972907D01*
X182377096Y-87941415D01*
X182377095Y-87941413D01*
X182367136Y-87931454D01*
X182360762Y-87923605D01*
X182351438Y-87909333D01*
X182351437Y-87909331D01*
X182351435Y-87909329D01*
X182351433Y-87909327D01*
X182325718Y-87889313D01*
X182323655Y-87887708D01*
X182321379Y-87885697D01*
X182298586Y-87862904D01*
X182283063Y-87854995D01*
X182275220Y-87850009D01*
X182259126Y-87837483D01*
X182228777Y-87827063D01*
X182225607Y-87825719D01*
X182202424Y-87813908D01*
X182199661Y-87812500D01*
X182199659Y-87812499D01*
X182199660Y-87812499D01*
X182179166Y-87809253D01*
X182170923Y-87807202D01*
X182158936Y-87803087D01*
X182148488Y-87799500D01*
X182148487Y-87799500D01*
X182121443Y-87799500D01*
X182113778Y-87798897D01*
X182090000Y-87795131D01*
X182066222Y-87798897D01*
X182058557Y-87799500D01*
X182041433Y-87799500D01*
X182031378Y-87798457D01*
X182014685Y-87794957D01*
X181979749Y-87799312D01*
X181976716Y-87799500D01*
X181970960Y-87799500D01*
X181949459Y-87803087D01*
X181898607Y-87809427D01*
X181898605Y-87809427D01*
X181898604Y-87809428D01*
X181898345Y-87809555D01*
X181884906Y-87813860D01*
X181884616Y-87813908D01*
X181839550Y-87838297D01*
X181793516Y-87860802D01*
X181793514Y-87860803D01*
X181793305Y-87861013D01*
X181782000Y-87869442D01*
X181781741Y-87869582D01*
X181747031Y-87907287D01*
X180633314Y-89021002D01*
X180621998Y-89029442D01*
X180621745Y-89029578D01*
X180621741Y-89029582D01*
X180587042Y-89067275D01*
X180571624Y-89082693D01*
X180568273Y-89087386D01*
X180566360Y-89089742D01*
X180542516Y-89115643D01*
X180535663Y-89131265D01*
X180530671Y-89140051D01*
X180520760Y-89153932D01*
X180520759Y-89153934D01*
X180510713Y-89187676D01*
X180509667Y-89190528D01*
X180495528Y-89222763D01*
X180495526Y-89222770D01*
X180494117Y-89239766D01*
X180492249Y-89249693D01*
X180487383Y-89266042D01*
X180487382Y-89266049D01*
X180487735Y-89274584D01*
X180474825Y-89309795D01*
X180440799Y-89325564D01*
X180405588Y-89312654D01*
X180404129Y-89311254D01*
X180325231Y-89232356D01*
X180319137Y-89224930D01*
X180307284Y-89207190D01*
X180253786Y-89171445D01*
X180221115Y-89149615D01*
X180145127Y-89134500D01*
X180119474Y-89129397D01*
X180119472Y-89129397D01*
X180098554Y-89133558D01*
X180088994Y-89134500D01*
X172851893Y-89134500D01*
X172817245Y-89120148D01*
X172802893Y-89085500D01*
X172817245Y-89050852D01*
X172829648Y-89041840D01*
X172858587Y-89027095D01*
X172937095Y-88948587D01*
X172987500Y-88849661D01*
X173004869Y-88740000D01*
X172987500Y-88630339D01*
X172937095Y-88531413D01*
X172858587Y-88452905D01*
X172858584Y-88452903D01*
X172759661Y-88402500D01*
X172650000Y-88385131D01*
X172540338Y-88402500D01*
X172441415Y-88452903D01*
X172441412Y-88452905D01*
X172429170Y-88465148D01*
X172394522Y-88479500D01*
X172139029Y-88479500D01*
X172104381Y-88465148D01*
X172090029Y-88430500D01*
X172090772Y-88422000D01*
X172110521Y-88310000D01*
X172090588Y-88196955D01*
X172090587Y-88196953D01*
X172090587Y-88196952D01*
X172033195Y-88097547D01*
X172033194Y-88097545D01*
X171964077Y-88039549D01*
X171945261Y-88023760D01*
X171899924Y-88007259D01*
X171837394Y-87984500D01*
X171722606Y-87984500D01*
X171614737Y-88023760D01*
X171526808Y-88097541D01*
X171526804Y-88097546D01*
X171469412Y-88196952D01*
X171452756Y-88291413D01*
X171449479Y-88310000D01*
X171469226Y-88421993D01*
X171461110Y-88458605D01*
X171429480Y-88478756D01*
X171420971Y-88479500D01*
X168363472Y-88479500D01*
X168328824Y-88465148D01*
X168315075Y-88438166D01*
X168307500Y-88390339D01*
X168257095Y-88291413D01*
X168244852Y-88279170D01*
X168230500Y-88244522D01*
X168230500Y-87750000D01*
X186579479Y-87750000D01*
X186599412Y-87863047D01*
X186648057Y-87947302D01*
X186656806Y-87962455D01*
X186744739Y-88036240D01*
X186852606Y-88075500D01*
X186852607Y-88075500D01*
X186967393Y-88075500D01*
X186967394Y-88075500D01*
X187075261Y-88036240D01*
X187163194Y-87962455D01*
X187210574Y-87880388D01*
X187220587Y-87863047D01*
X187220587Y-87863046D01*
X187220588Y-87863045D01*
X187240521Y-87750000D01*
X187220588Y-87636955D01*
X187220587Y-87636953D01*
X187220587Y-87636952D01*
X187163195Y-87537547D01*
X187163194Y-87537545D01*
X187075261Y-87463760D01*
X186967394Y-87424500D01*
X186852606Y-87424500D01*
X186744737Y-87463760D01*
X186656808Y-87537541D01*
X186656804Y-87537546D01*
X186599412Y-87636952D01*
X186579479Y-87750000D01*
X168230500Y-87750000D01*
X168230500Y-86940478D01*
X168231442Y-86930918D01*
X168235603Y-86910001D01*
X168235603Y-86909997D01*
X168215385Y-86808359D01*
X168215385Y-86808358D01*
X168200112Y-86785499D01*
X168157810Y-86722189D01*
X168140068Y-86710335D01*
X168132643Y-86704241D01*
X168108402Y-86680000D01*
X185669479Y-86680000D01*
X185689412Y-86793047D01*
X185746804Y-86892452D01*
X185746806Y-86892455D01*
X185834739Y-86966240D01*
X185942606Y-87005500D01*
X185942607Y-87005500D01*
X186057393Y-87005500D01*
X186057394Y-87005500D01*
X186165261Y-86966240D01*
X186253194Y-86892455D01*
X186308016Y-86797500D01*
X186310587Y-86793047D01*
X186310587Y-86793046D01*
X186310588Y-86793045D01*
X186330521Y-86680000D01*
X186314430Y-86588746D01*
X186322547Y-86552135D01*
X186345926Y-86534195D01*
X186395261Y-86516240D01*
X186483194Y-86442455D01*
X186536377Y-86350339D01*
X186540587Y-86343047D01*
X186540587Y-86343046D01*
X186540588Y-86343045D01*
X186560521Y-86230000D01*
X186540588Y-86116955D01*
X186540587Y-86116953D01*
X186540587Y-86116952D01*
X186483195Y-86017547D01*
X186483194Y-86017545D01*
X186453568Y-85992686D01*
X186395261Y-85943760D01*
X186287394Y-85904500D01*
X186172606Y-85904500D01*
X186064737Y-85943760D01*
X185976808Y-86017541D01*
X185976804Y-86017546D01*
X185919412Y-86116952D01*
X185899479Y-86230000D01*
X185914474Y-86315043D01*
X185915569Y-86321249D01*
X185907451Y-86357863D01*
X185884073Y-86375803D01*
X185834739Y-86393759D01*
X185834736Y-86393762D01*
X185746808Y-86467541D01*
X185746804Y-86467546D01*
X185689412Y-86566952D01*
X185669479Y-86680000D01*
X168108402Y-86680000D01*
X167883580Y-86455178D01*
X167869831Y-86428197D01*
X167857500Y-86350339D01*
X167807095Y-86251413D01*
X167728587Y-86172905D01*
X167728584Y-86172903D01*
X167629661Y-86122500D01*
X167520000Y-86105131D01*
X167410338Y-86122500D01*
X167311415Y-86172903D01*
X167311412Y-86172905D01*
X167232905Y-86251412D01*
X167232903Y-86251415D01*
X167182500Y-86350338D01*
X167165131Y-86460000D01*
X167182500Y-86569661D01*
X167232587Y-86667964D01*
X167232905Y-86668587D01*
X167311413Y-86747095D01*
X167410339Y-86797500D01*
X167488197Y-86809831D01*
X167515178Y-86823580D01*
X167695148Y-87003550D01*
X167709500Y-87038198D01*
X167709500Y-88190500D01*
X167695148Y-88225148D01*
X167660500Y-88239500D01*
X166150479Y-88239500D01*
X166140919Y-88238558D01*
X166120001Y-88234397D01*
X166119999Y-88234397D01*
X166094346Y-88239500D01*
X166018358Y-88254615D01*
X165932189Y-88312190D01*
X165932188Y-88312191D01*
X165920334Y-88329931D01*
X165914242Y-88337354D01*
X165645178Y-88606418D01*
X165618197Y-88620167D01*
X165563722Y-88628796D01*
X165540339Y-88632500D01*
X165540338Y-88632500D01*
X165540334Y-88632501D01*
X165441419Y-88682900D01*
X165441412Y-88682905D01*
X165362905Y-88761412D01*
X165362903Y-88761415D01*
X165312500Y-88860338D01*
X165295131Y-88970000D01*
X156113463Y-88970000D01*
X156155233Y-88952698D01*
X156275451Y-88860451D01*
X156367698Y-88740233D01*
X156425687Y-88600236D01*
X156445466Y-88450000D01*
X156425687Y-88299764D01*
X156409076Y-88259661D01*
X156367700Y-88159771D01*
X156367697Y-88159766D01*
X156306875Y-88080502D01*
X156275451Y-88039549D01*
X156271137Y-88036239D01*
X156155233Y-87947302D01*
X156155228Y-87947299D01*
X156015235Y-87889312D01*
X155937894Y-87879130D01*
X155902720Y-87874500D01*
X155827280Y-87874500D01*
X155795425Y-87878693D01*
X155714764Y-87889312D01*
X155574771Y-87947299D01*
X155574766Y-87947302D01*
X155454549Y-88039548D01*
X155454548Y-88039549D01*
X155362302Y-88159766D01*
X155362299Y-88159771D01*
X155304312Y-88299764D01*
X155284534Y-88450000D01*
X153970500Y-88450000D01*
X153970500Y-86855478D01*
X153984852Y-86820830D01*
X155435852Y-85369830D01*
X155470500Y-85355478D01*
X155505148Y-85369830D01*
X155519500Y-85404478D01*
X155519500Y-85434490D01*
X155519416Y-85436513D01*
X155515868Y-85479343D01*
X155526416Y-85521002D01*
X155526832Y-85522983D01*
X155533907Y-85565379D01*
X155538045Y-85573025D01*
X155542451Y-85584318D01*
X155544583Y-85592741D01*
X155568089Y-85628719D01*
X155569126Y-85630459D01*
X155589580Y-85668256D01*
X155589582Y-85668258D01*
X155595974Y-85674142D01*
X155603809Y-85683393D01*
X155608563Y-85690669D01*
X155642475Y-85717063D01*
X155644020Y-85718372D01*
X155675644Y-85747484D01*
X155683601Y-85750974D01*
X155694014Y-85757178D01*
X155696605Y-85759194D01*
X155700874Y-85762517D01*
X155724178Y-85770517D01*
X155741514Y-85776469D01*
X155743401Y-85777205D01*
X155769830Y-85788798D01*
X155782768Y-85794473D01*
X155791426Y-85795189D01*
X155803294Y-85797678D01*
X155811512Y-85800500D01*
X155854492Y-85800500D01*
X155856516Y-85800584D01*
X155871957Y-85801862D01*
X155899344Y-85804132D01*
X155905762Y-85802506D01*
X155907768Y-85801999D01*
X155919795Y-85800500D01*
X157894522Y-85800500D01*
X157929170Y-85814852D01*
X158921191Y-86806873D01*
X158922563Y-86808363D01*
X158939868Y-86828795D01*
X158950340Y-86841158D01*
X158987265Y-86863161D01*
X158988944Y-86864257D01*
X159023934Y-86889239D01*
X159032258Y-86891716D01*
X159043359Y-86896585D01*
X159050829Y-86901037D01*
X159050830Y-86901037D01*
X159050832Y-86901038D01*
X159080521Y-86907263D01*
X159092896Y-86909857D01*
X159094852Y-86910352D01*
X159136046Y-86922617D01*
X159144727Y-86922257D01*
X159156800Y-86923257D01*
X159165315Y-86925043D01*
X159207988Y-86919722D01*
X159209973Y-86919558D01*
X159252922Y-86917783D01*
X159261016Y-86914624D01*
X159272771Y-86911647D01*
X159281393Y-86910573D01*
X159320019Y-86891689D01*
X159321845Y-86890888D01*
X159361897Y-86875261D01*
X159368527Y-86869644D01*
X159378678Y-86863013D01*
X159386484Y-86859198D01*
X159416886Y-86828794D01*
X159418356Y-86827441D01*
X159451158Y-86799660D01*
X159455604Y-86792196D01*
X159463042Y-86782638D01*
X159550831Y-86694850D01*
X159585478Y-86680500D01*
X161138567Y-86680500D01*
X161148623Y-86681543D01*
X161165315Y-86685043D01*
X161167261Y-86684800D01*
X161176138Y-86684947D01*
X161176138Y-86684869D01*
X161179996Y-86684869D01*
X161179998Y-86684868D01*
X161180000Y-86684869D01*
X161205110Y-86680891D01*
X161206905Y-86680676D01*
X161209026Y-86680500D01*
X161209040Y-86680500D01*
X161230540Y-86676912D01*
X161281393Y-86670573D01*
X161282199Y-86670178D01*
X161285372Y-86668894D01*
X161289042Y-86667700D01*
X161294780Y-86666297D01*
X161295377Y-86666092D01*
X161295381Y-86666092D01*
X161340444Y-86641704D01*
X161386484Y-86619198D01*
X161386680Y-86619001D01*
X161398014Y-86610549D01*
X161398258Y-86610418D01*
X161432957Y-86572724D01*
X161550503Y-86455178D01*
X161680830Y-86324852D01*
X161715478Y-86310500D01*
X164128567Y-86310500D01*
X164138622Y-86311543D01*
X164142566Y-86312369D01*
X164155315Y-86315043D01*
X164190251Y-86310688D01*
X164193284Y-86310500D01*
X164199037Y-86310500D01*
X164199040Y-86310500D01*
X164220540Y-86306912D01*
X164271393Y-86300573D01*
X164271640Y-86300452D01*
X164285105Y-86296137D01*
X164285381Y-86296092D01*
X164330444Y-86271704D01*
X164376484Y-86249198D01*
X164376680Y-86249001D01*
X164388014Y-86240549D01*
X164388258Y-86240418D01*
X164422957Y-86202724D01*
X167270830Y-83354852D01*
X167305478Y-83340500D01*
X189474522Y-83340500D01*
X189509170Y-83354852D01*
X196105148Y-89950830D01*
X196119500Y-89985478D01*
X196119500Y-99258557D01*
X196118896Y-99266222D01*
X196117528Y-99274869D01*
X196115131Y-99290001D01*
X196119104Y-99315089D01*
X196119321Y-99316893D01*
X196119499Y-99319034D01*
X196119500Y-99319039D01*
X196119500Y-99319040D01*
X196124034Y-99346216D01*
X196132500Y-99399661D01*
X196132501Y-99399663D01*
X196132591Y-99400230D01*
X196133708Y-99404802D01*
X196133906Y-99405379D01*
X196159667Y-99452981D01*
X196182905Y-99498587D01*
X196182908Y-99498590D01*
X196185172Y-99501706D01*
X196184896Y-99501906D01*
X196189447Y-99508008D01*
X196189583Y-99508259D01*
X196227275Y-99542957D01*
X196261413Y-99577095D01*
X196262012Y-99577400D01*
X196272954Y-99585008D01*
X196275644Y-99587484D01*
X196319274Y-99606622D01*
X196320539Y-99607221D01*
X196360339Y-99627500D01*
X196362695Y-99627873D01*
X196364322Y-99628131D01*
X196376345Y-99631656D01*
X196380586Y-99633516D01*
X196382768Y-99634473D01*
X196413754Y-99637040D01*
X196427143Y-99638150D01*
X196428953Y-99638368D01*
X196441666Y-99640381D01*
X196470000Y-99644869D01*
X196477302Y-99643711D01*
X196489019Y-99643276D01*
X196492131Y-99643534D01*
X196499342Y-99644132D01*
X196499342Y-99644131D01*
X196499344Y-99644132D01*
X196539507Y-99633960D01*
X196541654Y-99633519D01*
X196579661Y-99627500D01*
X196589235Y-99622621D01*
X196599445Y-99618782D01*
X196612741Y-99615416D01*
X196644830Y-99594449D01*
X196647074Y-99593150D01*
X196678587Y-99577095D01*
X196688549Y-99567131D01*
X196696392Y-99560763D01*
X196710669Y-99551437D01*
X196732297Y-99523647D01*
X196734294Y-99521386D01*
X196757095Y-99498587D01*
X196765006Y-99483059D01*
X196769993Y-99475215D01*
X196782517Y-99459126D01*
X196792939Y-99428764D01*
X196794270Y-99425623D01*
X196807500Y-99399661D01*
X196810745Y-99379166D01*
X196812795Y-99370926D01*
X196820500Y-99348488D01*
X196820500Y-99321442D01*
X196821103Y-99313777D01*
X196821152Y-99313463D01*
X196824869Y-99290000D01*
X196821103Y-99266222D01*
X196820500Y-99258557D01*
X196820500Y-99010500D01*
X198145131Y-99010500D01*
X198162500Y-99120161D01*
X198212393Y-99218084D01*
X198212905Y-99219087D01*
X198291413Y-99297595D01*
X198390339Y-99348000D01*
X198500000Y-99365369D01*
X198609661Y-99348000D01*
X198708587Y-99297595D01*
X198787095Y-99219087D01*
X198795844Y-99201915D01*
X198824362Y-99177559D01*
X198861749Y-99180501D01*
X198874152Y-99189513D01*
X198950274Y-99265635D01*
X199049200Y-99316040D01*
X199158861Y-99333409D01*
X199268522Y-99316040D01*
X199367448Y-99265635D01*
X199445956Y-99187127D01*
X199496361Y-99088201D01*
X199513730Y-98978540D01*
X199496361Y-98868879D01*
X199445956Y-98769953D01*
X199367448Y-98691445D01*
X199367445Y-98691443D01*
X199268522Y-98641040D01*
X199158861Y-98623671D01*
X199049199Y-98641040D01*
X198950276Y-98691443D01*
X198950273Y-98691445D01*
X198871766Y-98769952D01*
X198871762Y-98769958D01*
X198863014Y-98787126D01*
X198834496Y-98811480D01*
X198797108Y-98808536D01*
X198784708Y-98799526D01*
X198708587Y-98723405D01*
X198708584Y-98723403D01*
X198609661Y-98673000D01*
X198500000Y-98655631D01*
X198390338Y-98673000D01*
X198291415Y-98723403D01*
X198291412Y-98723405D01*
X198212905Y-98801912D01*
X198212903Y-98801915D01*
X198162500Y-98900838D01*
X198145131Y-99010500D01*
X196820500Y-99010500D01*
X196820500Y-96990000D01*
X198889479Y-96990000D01*
X198909412Y-97103047D01*
X198957855Y-97186952D01*
X198966806Y-97202455D01*
X199054739Y-97276240D01*
X199162606Y-97315500D01*
X199162607Y-97315500D01*
X199277393Y-97315500D01*
X199277394Y-97315500D01*
X199385261Y-97276240D01*
X199473194Y-97202455D01*
X199522216Y-97117546D01*
X199530587Y-97103047D01*
X199530587Y-97103046D01*
X199530588Y-97103045D01*
X199550521Y-96990000D01*
X199530588Y-96876955D01*
X199530587Y-96876953D01*
X199530587Y-96876952D01*
X199473195Y-96777547D01*
X199473194Y-96777545D01*
X199385261Y-96703760D01*
X199277394Y-96664500D01*
X199162606Y-96664500D01*
X199054737Y-96703760D01*
X198966808Y-96777541D01*
X198966804Y-96777546D01*
X198909412Y-96876952D01*
X198889479Y-96990000D01*
X196820500Y-96990000D01*
X196820500Y-93070000D01*
X203699479Y-93070000D01*
X203719412Y-93183047D01*
X203776804Y-93282452D01*
X203776806Y-93282455D01*
X203864739Y-93356240D01*
X203972606Y-93395500D01*
X203972607Y-93395500D01*
X204087393Y-93395500D01*
X204087394Y-93395500D01*
X204195261Y-93356240D01*
X204283194Y-93282455D01*
X204340588Y-93183045D01*
X204360521Y-93070000D01*
X204340588Y-92956955D01*
X204340587Y-92956953D01*
X204340587Y-92956952D01*
X204283195Y-92857547D01*
X204283194Y-92857545D01*
X204195261Y-92783760D01*
X204087394Y-92744500D01*
X203972606Y-92744500D01*
X203864737Y-92783760D01*
X203776808Y-92857541D01*
X203776804Y-92857546D01*
X203719412Y-92956952D01*
X203699479Y-93070000D01*
X196820500Y-93070000D01*
X196820500Y-89861431D01*
X196821543Y-89851375D01*
X196823034Y-89844264D01*
X196825043Y-89834685D01*
X196820688Y-89799749D01*
X196820500Y-89796716D01*
X196820500Y-89790958D01*
X196816911Y-89769457D01*
X196815086Y-89754818D01*
X196810573Y-89718608D01*
X196810451Y-89718359D01*
X196806138Y-89704899D01*
X196806092Y-89704619D01*
X196781699Y-89659546D01*
X196759198Y-89613517D01*
X196758998Y-89613317D01*
X196750553Y-89601992D01*
X196750418Y-89601742D01*
X196712712Y-89567031D01*
X189917136Y-82771454D01*
X189910762Y-82763605D01*
X189901438Y-82749333D01*
X189901437Y-82749331D01*
X189901435Y-82749329D01*
X189901433Y-82749327D01*
X189873657Y-82727709D01*
X189871386Y-82725704D01*
X189867307Y-82721625D01*
X189849561Y-82708955D01*
X189809126Y-82677483D01*
X189809124Y-82677482D01*
X189808852Y-82677389D01*
X189796302Y-82670928D01*
X189796069Y-82670761D01*
X189796067Y-82670760D01*
X189746954Y-82656138D01*
X189727405Y-82649427D01*
X189698488Y-82639500D01*
X189698487Y-82639500D01*
X189698205Y-82639500D01*
X189684221Y-82637462D01*
X189683954Y-82637382D01*
X189632769Y-82639500D01*
X167181428Y-82639500D01*
X167171373Y-82638457D01*
X167154685Y-82634958D01*
X167119754Y-82639312D01*
X167116723Y-82639500D01*
X167110960Y-82639500D01*
X167089449Y-82643089D01*
X167044944Y-82648637D01*
X167038606Y-82649427D01*
X167038602Y-82649428D01*
X167038343Y-82649555D01*
X167024908Y-82653859D01*
X167024627Y-82653905D01*
X167024615Y-82653909D01*
X166979555Y-82678295D01*
X166933516Y-82700802D01*
X166933514Y-82700803D01*
X166933305Y-82701013D01*
X166922000Y-82709442D01*
X166921741Y-82709582D01*
X166887042Y-82747275D01*
X164039170Y-85595148D01*
X164004522Y-85609500D01*
X161591433Y-85609500D01*
X161581378Y-85608457D01*
X161564685Y-85604957D01*
X161529749Y-85609312D01*
X161526716Y-85609500D01*
X161520960Y-85609500D01*
X161499459Y-85613087D01*
X161448607Y-85619427D01*
X161448605Y-85619427D01*
X161448604Y-85619428D01*
X161448345Y-85619555D01*
X161434906Y-85623860D01*
X161434623Y-85623907D01*
X161434615Y-85623909D01*
X161389555Y-85648295D01*
X161343516Y-85670802D01*
X161343514Y-85670803D01*
X161343305Y-85671013D01*
X161332000Y-85679442D01*
X161331741Y-85679582D01*
X161297042Y-85717275D01*
X161049170Y-85965148D01*
X161014522Y-85979500D01*
X159461428Y-85979500D01*
X159451373Y-85978457D01*
X159434685Y-85974958D01*
X159399754Y-85979312D01*
X159396723Y-85979500D01*
X159390960Y-85979500D01*
X159369449Y-85983089D01*
X159324944Y-85988637D01*
X159318606Y-85989427D01*
X159318602Y-85989428D01*
X159318343Y-85989555D01*
X159304908Y-85993859D01*
X159304627Y-85993905D01*
X159304615Y-85993909D01*
X159259555Y-86018295D01*
X159213516Y-86040802D01*
X159210214Y-86043160D01*
X159209305Y-86041887D01*
X159179986Y-86054022D01*
X159145352Y-86039670D01*
X158337136Y-85231454D01*
X158330762Y-85223605D01*
X158321438Y-85209333D01*
X158321437Y-85209331D01*
X158321435Y-85209329D01*
X158321433Y-85209327D01*
X158293657Y-85187709D01*
X158291386Y-85185704D01*
X158287307Y-85181625D01*
X158269561Y-85168955D01*
X158229126Y-85137483D01*
X158229124Y-85137482D01*
X158228852Y-85137389D01*
X158216302Y-85130928D01*
X158216069Y-85130761D01*
X158216067Y-85130760D01*
X158166954Y-85116138D01*
X158118488Y-85099500D01*
X158118487Y-85099500D01*
X158118205Y-85099500D01*
X158104221Y-85097462D01*
X158103954Y-85097382D01*
X158052769Y-85099500D01*
X156269500Y-85099500D01*
X156234852Y-85085148D01*
X156220500Y-85050500D01*
X156220500Y-84605478D01*
X156234852Y-84570830D01*
X156288375Y-84517307D01*
X156307095Y-84498587D01*
X156318777Y-84475657D01*
X156322560Y-84469426D01*
X156339239Y-84446067D01*
X156339240Y-84446066D01*
X156345534Y-84424922D01*
X156348830Y-84416675D01*
X156357500Y-84399661D01*
X156362300Y-84369346D01*
X156363015Y-84366203D01*
X156363065Y-84366035D01*
X156372617Y-84333954D01*
X156371842Y-84315241D01*
X156372403Y-84305564D01*
X156374869Y-84290000D01*
X156369580Y-84256612D01*
X156369301Y-84253813D01*
X156367783Y-84217078D01*
X156367782Y-84217075D01*
X156367782Y-84217073D01*
X156362190Y-84202744D01*
X156359440Y-84192592D01*
X156357500Y-84180341D01*
X156357499Y-84180337D01*
X156340749Y-84147463D01*
X156339753Y-84145244D01*
X156325262Y-84108103D01*
X156325260Y-84108101D01*
X156317480Y-84098915D01*
X156311213Y-84089495D01*
X156307095Y-84081413D01*
X156278807Y-84053125D01*
X156277435Y-84051635D01*
X156249662Y-84018844D01*
X156249657Y-84018840D01*
X156242193Y-84014392D01*
X156232630Y-84006948D01*
X156228588Y-84002906D01*
X156228581Y-84002901D01*
X156190170Y-83983331D01*
X156188751Y-83982547D01*
X156149172Y-83958963D01*
X156149168Y-83958962D01*
X156143947Y-83957867D01*
X156131767Y-83953573D01*
X156129661Y-83952500D01*
X156129659Y-83952499D01*
X156084006Y-83945267D01*
X156082822Y-83945049D01*
X156034685Y-83934957D01*
X156034684Y-83934957D01*
X156034677Y-83934956D01*
X156032725Y-83935200D01*
X156023857Y-83935053D01*
X156023857Y-83935131D01*
X156020001Y-83935131D01*
X156020000Y-83935131D01*
X156014147Y-83936058D01*
X155970887Y-83942909D01*
X155918606Y-83949426D01*
X155918603Y-83949427D01*
X155917792Y-83949824D01*
X155914613Y-83951110D01*
X155910339Y-83952499D01*
X155863441Y-83976395D01*
X155813520Y-84000799D01*
X155813513Y-84000804D01*
X155651453Y-84162864D01*
X155643609Y-84169234D01*
X155629328Y-84178564D01*
X155607709Y-84206341D01*
X155605698Y-84208619D01*
X153401454Y-86412862D01*
X153393609Y-86419234D01*
X153379328Y-86428564D01*
X153357714Y-86456335D01*
X153355706Y-86458609D01*
X153351632Y-86462684D01*
X153351623Y-86462694D01*
X153338955Y-86480438D01*
X153307484Y-86520871D01*
X153307480Y-86520880D01*
X153307385Y-86521157D01*
X153300933Y-86533690D01*
X153300762Y-86533928D01*
X153300760Y-86533933D01*
X153300760Y-86533934D01*
X153290930Y-86566952D01*
X153286138Y-86583046D01*
X153269500Y-86631509D01*
X153269500Y-86631794D01*
X153267463Y-86645775D01*
X153267382Y-86646044D01*
X153269500Y-86697231D01*
X153269500Y-89858567D01*
X153268457Y-89868622D01*
X153264957Y-89885314D01*
X149923214Y-89885314D01*
X149921951Y-79570001D01*
X155695131Y-79570001D01*
X155699104Y-79595089D01*
X155699321Y-79596893D01*
X155699499Y-79599034D01*
X155699500Y-79599039D01*
X155699500Y-79599040D01*
X155704034Y-79626216D01*
X155712500Y-79679661D01*
X155712501Y-79679663D01*
X155712591Y-79680230D01*
X155713708Y-79684802D01*
X155713906Y-79685379D01*
X155725685Y-79707144D01*
X155739667Y-79732981D01*
X155762905Y-79778587D01*
X155762908Y-79778590D01*
X155765172Y-79781706D01*
X155764896Y-79781906D01*
X155769447Y-79788008D01*
X155769583Y-79788259D01*
X155807275Y-79822957D01*
X155841413Y-79857095D01*
X155842012Y-79857400D01*
X155852954Y-79865008D01*
X155855644Y-79867484D01*
X155899274Y-79886622D01*
X155900539Y-79887221D01*
X155940339Y-79907500D01*
X155942695Y-79907873D01*
X155944322Y-79908131D01*
X155956345Y-79911656D01*
X155960586Y-79913516D01*
X155962768Y-79914473D01*
X155993754Y-79917040D01*
X156007143Y-79918150D01*
X156008953Y-79918368D01*
X156021666Y-79920381D01*
X156050000Y-79924869D01*
X156057302Y-79923711D01*
X156069019Y-79923276D01*
X156072131Y-79923534D01*
X156079342Y-79924132D01*
X156079342Y-79924131D01*
X156079344Y-79924132D01*
X156119507Y-79913960D01*
X156121654Y-79913519D01*
X156159661Y-79907500D01*
X156169235Y-79902621D01*
X156179445Y-79898782D01*
X156192741Y-79895416D01*
X156224830Y-79874449D01*
X156227074Y-79873150D01*
X156258587Y-79857095D01*
X156268549Y-79847131D01*
X156276392Y-79840763D01*
X156290669Y-79831437D01*
X156312297Y-79803647D01*
X156314294Y-79801386D01*
X156337095Y-79778587D01*
X156345006Y-79763059D01*
X156349993Y-79755215D01*
X156362517Y-79739126D01*
X156372939Y-79708764D01*
X156374270Y-79705623D01*
X156387500Y-79679661D01*
X156390745Y-79659166D01*
X156392795Y-79650926D01*
X156400500Y-79628488D01*
X156400500Y-79601442D01*
X156401103Y-79593777D01*
X156401152Y-79593463D01*
X156404869Y-79570000D01*
X156401103Y-79546222D01*
X156400500Y-79538557D01*
X156400500Y-79085478D01*
X156414852Y-79050830D01*
X156550830Y-78914852D01*
X156585478Y-78900500D01*
X164054522Y-78900500D01*
X164089170Y-78914852D01*
X164395148Y-79220830D01*
X164409500Y-79255478D01*
X164409500Y-81394522D01*
X164395148Y-81429170D01*
X164129170Y-81695148D01*
X164094522Y-81709500D01*
X163741443Y-81709500D01*
X163733778Y-81708897D01*
X163721406Y-81706937D01*
X163710000Y-81705131D01*
X163709999Y-81705131D01*
X163684910Y-81709104D01*
X163683107Y-81709321D01*
X163680965Y-81709499D01*
X163653783Y-81714034D01*
X163599781Y-81722588D01*
X163595206Y-81723706D01*
X163594619Y-81723908D01*
X163547018Y-81749667D01*
X163501409Y-81772906D01*
X163498291Y-81775172D01*
X163498093Y-81774899D01*
X163492000Y-81779442D01*
X163491741Y-81779582D01*
X163474392Y-81798428D01*
X163457042Y-81817275D01*
X163437179Y-81837139D01*
X163422903Y-81851415D01*
X163422901Y-81851418D01*
X163422591Y-81852027D01*
X163414995Y-81862949D01*
X163412516Y-81865642D01*
X163393379Y-81909267D01*
X163392773Y-81910547D01*
X163372499Y-81950338D01*
X163372499Y-81950339D01*
X163371867Y-81954331D01*
X163368346Y-81966340D01*
X163365527Y-81972766D01*
X163361848Y-82017149D01*
X163361630Y-82018957D01*
X163355131Y-82059999D01*
X163355131Y-82060004D01*
X163356287Y-82067307D01*
X163356723Y-82079010D01*
X163355867Y-82089341D01*
X163366034Y-82129493D01*
X163366482Y-82131674D01*
X163372499Y-82169658D01*
X163372501Y-82169663D01*
X163377377Y-82179234D01*
X163381215Y-82189444D01*
X163384582Y-82202737D01*
X163384585Y-82202744D01*
X163395206Y-82219000D01*
X163405545Y-82234824D01*
X163406852Y-82237081D01*
X163416977Y-82256954D01*
X163422903Y-82268584D01*
X163422906Y-82268588D01*
X163432861Y-82278543D01*
X163439233Y-82286389D01*
X163448563Y-82300669D01*
X163476351Y-82322297D01*
X163478611Y-82324293D01*
X163494731Y-82340413D01*
X163501412Y-82347094D01*
X163501416Y-82347097D01*
X163505540Y-82349198D01*
X163516936Y-82355004D01*
X163524787Y-82359996D01*
X163540873Y-82372517D01*
X163571221Y-82382935D01*
X163574393Y-82384280D01*
X163597570Y-82396089D01*
X163600339Y-82397500D01*
X163620827Y-82400744D01*
X163629073Y-82402796D01*
X163651512Y-82410500D01*
X163678557Y-82410500D01*
X163686222Y-82411103D01*
X163689001Y-82411543D01*
X163710000Y-82414869D01*
X163730999Y-82411543D01*
X163733778Y-82411103D01*
X163741443Y-82410500D01*
X164218567Y-82410500D01*
X164228622Y-82411543D01*
X164232566Y-82412369D01*
X164245315Y-82415043D01*
X164280251Y-82410688D01*
X164283284Y-82410500D01*
X164289037Y-82410500D01*
X164289040Y-82410500D01*
X164310540Y-82406912D01*
X164361393Y-82400573D01*
X164361640Y-82400452D01*
X164375105Y-82396137D01*
X164375381Y-82396092D01*
X164420444Y-82371704D01*
X164466484Y-82349198D01*
X164466680Y-82349001D01*
X164478014Y-82340549D01*
X164478258Y-82340418D01*
X164512957Y-82302723D01*
X164978545Y-81837134D01*
X164986387Y-81830767D01*
X165000669Y-81821437D01*
X165022303Y-81793639D01*
X165024306Y-81791374D01*
X165028375Y-81787306D01*
X165041038Y-81769569D01*
X165072517Y-81729126D01*
X165072605Y-81728867D01*
X165079077Y-81716292D01*
X165079240Y-81716066D01*
X165093861Y-81666954D01*
X165110500Y-81618488D01*
X165110500Y-81618202D01*
X165112537Y-81604222D01*
X165112617Y-81603954D01*
X165110500Y-81552758D01*
X165110500Y-79131427D01*
X165111543Y-79121371D01*
X165115042Y-79104685D01*
X165110688Y-79069754D01*
X165110500Y-79066720D01*
X165110500Y-79060958D01*
X165106910Y-79039449D01*
X165100573Y-78988608D01*
X165100448Y-78988352D01*
X165096138Y-78974893D01*
X165096092Y-78974620D01*
X165096092Y-78974619D01*
X165071704Y-78929555D01*
X165049198Y-78883516D01*
X165048998Y-78883316D01*
X165040551Y-78871988D01*
X165040418Y-78871742D01*
X165002724Y-78837042D01*
X164497136Y-78331454D01*
X164490762Y-78323605D01*
X164481438Y-78309333D01*
X164481437Y-78309331D01*
X164481435Y-78309329D01*
X164481433Y-78309327D01*
X164453657Y-78287709D01*
X164451386Y-78285704D01*
X164447307Y-78281625D01*
X164429561Y-78268955D01*
X164389126Y-78237483D01*
X164389124Y-78237482D01*
X164388852Y-78237389D01*
X164376302Y-78230928D01*
X164376069Y-78230761D01*
X164376067Y-78230760D01*
X164326954Y-78216138D01*
X164306490Y-78209113D01*
X164278488Y-78199500D01*
X164278487Y-78199500D01*
X164278205Y-78199500D01*
X164264221Y-78197462D01*
X164263954Y-78197382D01*
X164212769Y-78199500D01*
X156461433Y-78199500D01*
X156451378Y-78198457D01*
X156434685Y-78194957D01*
X156399749Y-78199312D01*
X156396716Y-78199500D01*
X156390960Y-78199500D01*
X156369459Y-78203087D01*
X156318607Y-78209427D01*
X156318605Y-78209427D01*
X156318604Y-78209428D01*
X156318345Y-78209555D01*
X156304906Y-78213860D01*
X156304623Y-78213907D01*
X156304615Y-78213909D01*
X156259555Y-78238295D01*
X156213516Y-78260802D01*
X156213514Y-78260803D01*
X156213305Y-78261013D01*
X156202000Y-78269442D01*
X156201741Y-78269582D01*
X156167042Y-78307275D01*
X155831454Y-78642862D01*
X155823609Y-78649234D01*
X155809328Y-78658564D01*
X155787714Y-78686335D01*
X155785706Y-78688609D01*
X155781632Y-78692684D01*
X155781623Y-78692694D01*
X155768955Y-78710438D01*
X155737484Y-78750871D01*
X155737480Y-78750880D01*
X155737385Y-78751157D01*
X155730933Y-78763690D01*
X155730762Y-78763928D01*
X155730760Y-78763933D01*
X155730760Y-78763934D01*
X155719005Y-78803418D01*
X155716138Y-78813046D01*
X155699500Y-78861509D01*
X155699500Y-78861794D01*
X155697463Y-78875775D01*
X155697382Y-78876044D01*
X155699500Y-78927231D01*
X155699500Y-79538557D01*
X155698897Y-79546222D01*
X155695131Y-79570001D01*
X149921951Y-79570001D01*
X149921939Y-79475709D01*
X149922094Y-79473714D01*
X149922085Y-79470986D01*
X149922086Y-79470984D01*
X149921933Y-79424122D01*
X149921933Y-79424053D01*
X149921964Y-79422765D01*
X149938399Y-79112850D01*
X149938695Y-79110152D01*
X149989673Y-78804780D01*
X149990278Y-78802095D01*
X149996886Y-78778927D01*
X150075197Y-78504365D01*
X150076084Y-78501808D01*
X150193878Y-78215468D01*
X150195048Y-78213024D01*
X150344223Y-77941707D01*
X150345665Y-77939401D01*
X150524334Y-77686542D01*
X150526030Y-77684409D01*
X150731931Y-77453202D01*
X150733868Y-77451260D01*
X150964405Y-77244617D01*
X150966536Y-77242913D01*
X151218811Y-77063435D01*
X151221118Y-77061982D01*
X151405134Y-76960032D01*
X151491928Y-76911947D01*
X151494405Y-76910750D01*
X151780333Y-76792046D01*
X151782911Y-76791141D01*
X152080358Y-76705266D01*
X152083024Y-76704656D01*
X152388225Y-76652694D01*
X152390960Y-76652386D01*
X152575995Y-76641974D01*
X152701430Y-76634917D01*
X152701430Y-76634916D01*
X152701995Y-76634885D01*
X152703370Y-76634846D01*
X152749024Y-76634847D01*
X152749027Y-76634846D01*
X152752959Y-76634846D01*
X152753129Y-76634831D01*
X209158677Y-76620513D01*
X209160595Y-76620660D01*
X209163354Y-76620651D01*
X209163357Y-76620652D01*
X209210253Y-76620499D01*
X209211595Y-76620532D01*
G37*
%TD.AperFunction*%
%TD*%
D20*
X180848000Y-90678000D03*
X184310000Y-98670000D03*
X189380000Y-91770000D03*
X173320000Y-90520000D03*
X178800000Y-98610000D03*
X165650000Y-88970000D03*
D21*
X169450000Y-101000000D03*
D20*
X163710000Y-82060000D03*
X173430000Y-98600000D03*
X181102000Y-93400500D03*
X192760000Y-95960000D03*
X179000000Y-96299500D03*
X163936113Y-91090817D03*
X163990000Y-92709500D03*
X156050000Y-79570000D03*
X175150000Y-98389500D03*
X161150000Y-92970000D03*
X182090000Y-88150000D03*
X187520000Y-98920000D03*
X172650000Y-88740000D03*
D21*
X167980000Y-100500000D03*
D20*
X167520000Y-86460000D03*
X165290000Y-100500000D03*
X172390000Y-93050000D03*
X177243650Y-98840962D03*
X167970000Y-88500000D03*
X180380000Y-96330500D03*
X170710000Y-100000000D03*
X204680000Y-92360000D03*
X173660000Y-99660000D03*
X154120000Y-88410000D03*
X183140000Y-94780000D03*
X184912000Y-91948000D03*
X185420000Y-91186000D03*
X187500000Y-84680000D03*
X190180000Y-94710000D03*
X186180000Y-94810000D03*
X163500000Y-89670000D03*
X168540000Y-99280000D03*
X176120000Y-101920000D03*
X174780000Y-91270000D03*
X183388000Y-102870000D03*
X184912000Y-90424000D03*
X163530000Y-90800000D03*
D21*
X163570000Y-79770000D03*
D20*
X152510000Y-88770000D03*
X186690000Y-91186000D03*
X163370000Y-93650000D03*
X158800000Y-95580000D03*
X154020000Y-100940000D03*
X203930000Y-87980000D03*
X177948018Y-96330500D03*
X191980000Y-94030000D03*
X185674000Y-90424000D03*
X186690000Y-90170000D03*
X163390000Y-92940000D03*
X171110000Y-101600000D03*
X181120000Y-90020000D03*
X186690000Y-90678000D03*
X171760000Y-102970000D03*
X188280000Y-85190000D03*
X168570000Y-86740000D03*
X169810000Y-86830000D03*
X185928000Y-91186000D03*
X177030000Y-102520000D03*
X175599500Y-92920000D03*
D21*
X160010000Y-80160000D03*
D20*
X157870000Y-104240000D03*
X163610000Y-88450000D03*
X176080000Y-92250000D03*
X171720000Y-99970000D03*
X158160000Y-87660000D03*
X204770000Y-95400000D03*
X179650000Y-79460000D03*
X181710000Y-85800000D03*
X175370000Y-85360000D03*
X167460000Y-95340000D03*
X158580000Y-88160000D03*
X153340000Y-85280000D03*
X185420000Y-91694000D03*
X178990000Y-85390000D03*
X203730000Y-90950000D03*
D21*
X160270000Y-84160000D03*
D20*
X178770000Y-88340500D03*
X184912000Y-91186000D03*
X203910000Y-89490000D03*
X183990000Y-81510000D03*
X156020000Y-84290000D03*
X154190000Y-90470000D03*
X161180000Y-86330000D03*
X196470000Y-99290000D03*
D21*
X199220000Y-96990000D03*
X204030000Y-93070000D03*
D20*
X198500000Y-99010500D03*
X184280000Y-100120000D03*
X199158861Y-98978540D03*
X173780315Y-99009500D03*
D21*
X156060000Y-90580000D03*
X156020000Y-91580000D03*
X180390000Y-92310000D03*
X169585000Y-90810000D03*
X168800000Y-90770000D03*
X181110000Y-95860000D03*
X170450000Y-90840000D03*
X179990000Y-89810000D03*
X170020000Y-95840000D03*
X175190000Y-90100000D03*
X172570000Y-92090000D03*
X169970000Y-90680000D03*
X161860000Y-101570000D03*
X164870000Y-98890000D03*
X170300000Y-94390000D03*
X190460000Y-89750000D03*
X190500000Y-90230000D03*
X170720000Y-95120000D03*
X170855000Y-90895000D03*
X186910000Y-87750000D03*
X193310000Y-91180000D03*
X171780000Y-88310000D03*
X190610000Y-91610000D03*
X171230000Y-96740000D03*
X190720000Y-92030000D03*
X170510000Y-97590000D03*
X170040000Y-97430000D03*
X192680000Y-92740000D03*
X195080000Y-97300000D03*
X169640000Y-97330000D03*
X161250000Y-101470000D03*
X162580000Y-97840000D03*
X162210000Y-98400000D03*
X160858406Y-102628406D03*
X164040000Y-101300000D03*
X165100000Y-103090000D03*
X165000000Y-101730000D03*
X163690000Y-101700000D03*
X168090000Y-91040000D03*
X172980000Y-99370000D03*
X187000000Y-96330000D03*
X187000000Y-94160000D03*
X165880000Y-95880000D03*
X186230000Y-86230000D03*
X166330000Y-95790000D03*
X186000000Y-86680000D03*
D22*
X207380000Y-103490000D03*
X207863274Y-102323274D03*
X207863274Y-104656726D03*
X209030000Y-101840000D03*
X209030000Y-103490000D03*
X209030000Y-105140000D03*
X210196726Y-102323274D03*
X210196726Y-104656726D03*
X210680000Y-103490000D03*
D23*
X202760000Y-84750000D03*
X202760000Y-99250000D03*
D24*
X208720000Y-84750000D03*
X208720000Y-99250000D03*
D22*
X207270000Y-79600000D03*
X207753274Y-78433274D03*
X207753274Y-80766726D03*
X208920000Y-77950000D03*
X208920000Y-79600000D03*
X208920000Y-81250000D03*
X210086726Y-78433274D03*
X210086726Y-80766726D03*
X210570000Y-79600000D03*
X155865000Y-88450000D03*
X155865000Y-94230000D03*
D25*
X156365000Y-87020000D03*
D26*
X152185000Y-87020000D03*
D25*
X156365000Y-95660000D03*
D26*
X152185000Y-95660000D03*
M02*
