M48
; DRILL file {KiCad 7.0.8} date Sun Apr 21 21:21:45 2024
; FORMAT={-:-/ absolute / metric / decimal}
; #@! TF.CreationDate,2024-04-21T21:21:45+03:00
; #@! TF.GenerationSoftware,Kicad,Pcbnew,7.0.8
; #@! TF.FileFunction,MixedPlating,1,4
FMAT,2
METRIC
; #@! TA.AperFunction,Plated,PTH,ComponentDrill
T1C0.200
; #@! TA.AperFunction,Plated,PTH,ViaDrill
T2C0.300
; #@! TA.AperFunction,Plated,PTH,ComponentDrill
T3C0.400
; #@! TA.AperFunction,Plated,PTH,ComponentDrill
T4C0.600
; #@! TA.AperFunction,Plated,PTH,ComponentDrill
T5C0.889
; #@! TA.AperFunction,Plated,PTH,ComponentDrill
T6C0.950
; #@! TA.AperFunction,Plated,PTH,ComponentDrill
T7C1.000
; #@! TA.AperFunction,Plated,PTH,ComponentDrill
T8C1.520
; #@! TA.AperFunction,Plated,PTH,ComponentDrill
T9C2.200
; #@! TA.AperFunction,NonPlated,NPTH,ComponentDrill
T10C0.650
; #@! TA.AperFunction,NonPlated,NPTH,ComponentDrill
T11C1.200
; #@! TA.AperFunction,NonPlated,NPTH,ComponentDrill
T12C2.390
; #@! TA.AperFunction,NonPlated,NPTH,ComponentDrill
T13C3.450
%
G90
G05
T1
X102.19Y-84.94
X102.19Y-86.34
X102.89Y-84.24
X102.89Y-85.64
X102.89Y-87.04
X103.615Y-84.94
X103.615Y-86.34
X104.29Y-84.24
X104.29Y-85.64
X104.29Y-87.04
X104.99Y-84.94
X104.99Y-86.34
T2
X56.358Y-87.325
X56.57Y-85.54
X57.73Y-79.05
X58.13Y-93.41
X59.33Y-89.16
X59.34Y-84.45
X61.33Y-85.0
X62.3Y-55.44
X64.92Y-81.17
X65.14Y-112.137
X65.74Y-116.96
X66.206Y-112.137
X66.56Y-83.71
X66.72Y-87.1
X68.21Y-77.0
X72.83Y-117.02
X74.86Y-82.71
X75.42Y-81.24
X79.7Y-72.0
X80.704Y-80.83
X83.65Y-77.06
X84.02Y-80.37
X85.62Y-77.25
X88.255Y-82.16
X88.861Y-89.96
X89.535Y-79.61
X90.23Y-91.475
X91.52Y-92.15
X91.904Y-85.31
X92.09Y-77.03
X94.93Y-79.59
X96.33Y-74.19
X97.66Y-73.64
X106.5Y-77.14
X107.79Y-79.5
X108.45Y-63.934
X108.99Y-90.8
X109.07Y-80.0
X109.39Y-92.12
X112.66Y-81.96
X113.63Y-85.63
X114.09Y-83.05
X115.39Y-79.91
X119.18Y-68.505
X121.55Y-77.21
X121.55Y-78.709
X121.739Y-72.36
X122.21Y-81.78
X122.29Y-85.6
X124.11Y-72.18
X126.28Y-71.65
X126.32Y-70.64
X126.89Y-95.36
X127.24Y-77.62
X127.29Y-75.46
X127.64Y-92.28
X127.93Y-86.99
X129.14Y-94.64
X130.76Y-71.24
X131.03Y-95.96
X131.12Y-108.76
X131.13Y-90.43
X131.15Y-104.61
X131.22Y-110.95
X131.27Y-105.7
X131.95Y-74.3
X132.04Y-97.66
X133.27Y-108.7
X133.28Y-88.88
X133.66Y-111.19
X134.13Y-101.12
X135.45Y-71.22
X135.61Y-64.03
X136.63Y-107.18
X137.928Y-70.304
X138.97Y-65.45
X139.13Y-72.48
X140.01Y-70.52
X141.26Y-105.55
X143.06Y-67.63
X143.94Y-71.48
X143.998Y-67.488
X144.17Y-110.3
X144.43Y-95.75
X144.59Y-77.01
X144.97Y-90.62
X145.1Y-64.12
X145.17Y-87.94
X145.59Y-73.8
X146.27Y-97.3
X147.58Y-74.37
X148.404Y-65.626
X148.69Y-105.61
X148.79Y-78.16
X149.01Y-66.3
X149.53Y-77.49
X151.13Y-96.23
X152.66Y-67.34
X152.67Y-93.99
X152.8Y-92.8
X152.8Y-96.33
X154.47Y-108.97
X155.14Y-92.86
X161.88Y-96.55
T3
X51.643Y-123.047
X51.71Y-46.3
X52.127Y-121.88
X52.127Y-124.213
X52.193Y-45.133
X52.193Y-47.467
X53.293Y-121.397
X53.293Y-124.697
X53.36Y-44.65
X53.36Y-47.95
X54.46Y-121.88
X54.46Y-124.213
X54.527Y-45.133
X54.527Y-47.467
X54.943Y-123.047
X55.01Y-46.3
X160.463Y-46.203
X160.497Y-122.937
X160.947Y-45.037
X160.947Y-47.37
X160.98Y-121.77
X160.98Y-124.103
X162.113Y-44.553
X162.113Y-47.853
X162.147Y-121.287
X162.147Y-124.587
X163.28Y-45.037
X163.28Y-47.37
X163.313Y-121.77
X163.313Y-124.103
X163.763Y-46.203
X163.797Y-122.937
T5
X143.0Y-48.87
X145.5Y-48.87
X148.0Y-48.87
X159.81Y-109.5
X159.81Y-112.0
X159.81Y-114.5
T6
X55.848Y-110.312
X55.848Y-112.812
X55.848Y-115.312
T7
X64.77Y-119.126
X67.31Y-119.126
X67.406Y-99.974
X67.406Y-107.574
X69.85Y-119.126
X72.39Y-119.126
X74.93Y-119.126
X77.47Y-119.126
X83.581Y-119.126
X86.121Y-119.126
X88.661Y-119.126
X94.996Y-119.126
X97.536Y-119.126
X100.076Y-119.126
X150.718Y-54.498
X150.718Y-57.038
X150.718Y-59.578
X150.718Y-62.118
T8
X157.14Y-82.61
X157.14Y-87.69
T9
X53.293Y-123.047
X53.36Y-46.3
X162.113Y-46.203
X162.147Y-122.937
T10
X56.803Y-83.612
X56.803Y-89.392
T11
X53.848Y-108.712
T12
X132.546Y-65.546
T13
X69.016Y-65.546
X124.216Y-49.546
T4
G00X53.523Y-82.182
M15
G01X52.723Y-82.182
M16
G05
G00X53.523Y-90.822
M15
G01X52.723Y-90.822
M16
G05
G00X57.853Y-82.182
M15
G01X56.753Y-82.182
M16
G05
G00X57.853Y-90.822
M15
G01X56.753Y-90.822
M16
G05
T0
M30
