%TF.GenerationSoftware,KiCad,Pcbnew,7.0.8*%
%TF.CreationDate,2024-04-21T21:21:45+03:00*%
%TF.ProjectId,esp32A9G,65737033-3241-4394-972e-6b696361645f,rev?*%
%TF.SameCoordinates,Original*%
%TF.FileFunction,Legend,Top*%
%TF.FilePolarity,Positive*%
%FSLAX46Y46*%
G04 Gerber Fmt 4.6, Leading zero omitted, Abs format (unit mm)*
G04 Created by KiCad (PCBNEW 7.0.8) date 2024-04-21 21:21:45*
%MOMM*%
%LPD*%
G01*
G04 APERTURE LIST*
%ADD10C,0.150000*%
%ADD11C,0.120000*%
%ADD12C,0.152400*%
%ADD13C,0.127000*%
%ADD14C,0.200000*%
%ADD15C,0.300000*%
%ADD16C,0.100000*%
%ADD17C,0.350000*%
%ADD18O,1.400000X0.600000*%
%ADD19O,1.700000X0.600000*%
%ADD20C,0.200000*%
G04 APERTURE END LIST*
D10*
X115269160Y-113302200D02*
X115412017Y-113349819D01*
X115412017Y-113349819D02*
X115650112Y-113349819D01*
X115650112Y-113349819D02*
X115745350Y-113302200D01*
X115745350Y-113302200D02*
X115792969Y-113254580D01*
X115792969Y-113254580D02*
X115840588Y-113159342D01*
X115840588Y-113159342D02*
X115840588Y-113064104D01*
X115840588Y-113064104D02*
X115792969Y-112968866D01*
X115792969Y-112968866D02*
X115745350Y-112921247D01*
X115745350Y-112921247D02*
X115650112Y-112873628D01*
X115650112Y-112873628D02*
X115459636Y-112826009D01*
X115459636Y-112826009D02*
X115364398Y-112778390D01*
X115364398Y-112778390D02*
X115316779Y-112730771D01*
X115316779Y-112730771D02*
X115269160Y-112635533D01*
X115269160Y-112635533D02*
X115269160Y-112540295D01*
X115269160Y-112540295D02*
X115316779Y-112445057D01*
X115316779Y-112445057D02*
X115364398Y-112397438D01*
X115364398Y-112397438D02*
X115459636Y-112349819D01*
X115459636Y-112349819D02*
X115697731Y-112349819D01*
X115697731Y-112349819D02*
X115840588Y-112397438D01*
X116269160Y-113349819D02*
X116269160Y-112683152D01*
X116269160Y-112349819D02*
X116221541Y-112397438D01*
X116221541Y-112397438D02*
X116269160Y-112445057D01*
X116269160Y-112445057D02*
X116316779Y-112397438D01*
X116316779Y-112397438D02*
X116269160Y-112349819D01*
X116269160Y-112349819D02*
X116269160Y-112445057D01*
X116888207Y-113349819D02*
X116792969Y-113302200D01*
X116792969Y-113302200D02*
X116745350Y-113206961D01*
X116745350Y-113206961D02*
X116745350Y-112349819D01*
X117412017Y-113349819D02*
X117316779Y-113302200D01*
X117316779Y-113302200D02*
X117269160Y-113254580D01*
X117269160Y-113254580D02*
X117221541Y-113159342D01*
X117221541Y-113159342D02*
X117221541Y-112873628D01*
X117221541Y-112873628D02*
X117269160Y-112778390D01*
X117269160Y-112778390D02*
X117316779Y-112730771D01*
X117316779Y-112730771D02*
X117412017Y-112683152D01*
X117412017Y-112683152D02*
X117554874Y-112683152D01*
X117554874Y-112683152D02*
X117650112Y-112730771D01*
X117650112Y-112730771D02*
X117697731Y-112778390D01*
X117697731Y-112778390D02*
X117745350Y-112873628D01*
X117745350Y-112873628D02*
X117745350Y-113159342D01*
X117745350Y-113159342D02*
X117697731Y-113254580D01*
X117697731Y-113254580D02*
X117650112Y-113302200D01*
X117650112Y-113302200D02*
X117554874Y-113349819D01*
X117554874Y-113349819D02*
X117412017Y-113349819D01*
X118888208Y-113064104D02*
X119364398Y-113064104D01*
X118792970Y-113349819D02*
X119126303Y-112349819D01*
X119126303Y-112349819D02*
X119459636Y-113349819D01*
X119650113Y-112683152D02*
X120031065Y-112683152D01*
X119792970Y-113349819D02*
X119792970Y-112492676D01*
X119792970Y-112492676D02*
X119840589Y-112397438D01*
X119840589Y-112397438D02*
X119935827Y-112349819D01*
X119935827Y-112349819D02*
X120031065Y-112349819D01*
X120364399Y-113349819D02*
X120364399Y-112683152D01*
X120364399Y-112873628D02*
X120412018Y-112778390D01*
X120412018Y-112778390D02*
X120459637Y-112730771D01*
X120459637Y-112730771D02*
X120554875Y-112683152D01*
X120554875Y-112683152D02*
X120650113Y-112683152D01*
X120983447Y-113349819D02*
X120983447Y-112683152D01*
X120983447Y-112349819D02*
X120935828Y-112397438D01*
X120935828Y-112397438D02*
X120983447Y-112445057D01*
X120983447Y-112445057D02*
X121031066Y-112397438D01*
X121031066Y-112397438D02*
X120983447Y-112349819D01*
X120983447Y-112349819D02*
X120983447Y-112445057D01*
X121888208Y-113302200D02*
X121792970Y-113349819D01*
X121792970Y-113349819D02*
X121602494Y-113349819D01*
X121602494Y-113349819D02*
X121507256Y-113302200D01*
X121507256Y-113302200D02*
X121459637Y-113254580D01*
X121459637Y-113254580D02*
X121412018Y-113159342D01*
X121412018Y-113159342D02*
X121412018Y-112873628D01*
X121412018Y-112873628D02*
X121459637Y-112778390D01*
X121459637Y-112778390D02*
X121507256Y-112730771D01*
X121507256Y-112730771D02*
X121602494Y-112683152D01*
X121602494Y-112683152D02*
X121792970Y-112683152D01*
X121792970Y-112683152D02*
X121888208Y-112730771D01*
X122745351Y-113349819D02*
X122745351Y-112826009D01*
X122745351Y-112826009D02*
X122697732Y-112730771D01*
X122697732Y-112730771D02*
X122602494Y-112683152D01*
X122602494Y-112683152D02*
X122412018Y-112683152D01*
X122412018Y-112683152D02*
X122316780Y-112730771D01*
X122745351Y-113302200D02*
X122650113Y-113349819D01*
X122650113Y-113349819D02*
X122412018Y-113349819D01*
X122412018Y-113349819D02*
X122316780Y-113302200D01*
X122316780Y-113302200D02*
X122269161Y-113206961D01*
X122269161Y-113206961D02*
X122269161Y-113111723D01*
X122269161Y-113111723D02*
X122316780Y-113016485D01*
X122316780Y-113016485D02*
X122412018Y-112968866D01*
X122412018Y-112968866D02*
X122650113Y-112968866D01*
X122650113Y-112968866D02*
X122745351Y-112921247D01*
X123983447Y-113349819D02*
X123983447Y-112349819D01*
X124602494Y-113349819D02*
X124507256Y-113302200D01*
X124507256Y-113302200D02*
X124459637Y-113254580D01*
X124459637Y-113254580D02*
X124412018Y-113159342D01*
X124412018Y-113159342D02*
X124412018Y-112873628D01*
X124412018Y-112873628D02*
X124459637Y-112778390D01*
X124459637Y-112778390D02*
X124507256Y-112730771D01*
X124507256Y-112730771D02*
X124602494Y-112683152D01*
X124602494Y-112683152D02*
X124745351Y-112683152D01*
X124745351Y-112683152D02*
X124840589Y-112730771D01*
X124840589Y-112730771D02*
X124888208Y-112778390D01*
X124888208Y-112778390D02*
X124935827Y-112873628D01*
X124935827Y-112873628D02*
X124935827Y-113159342D01*
X124935827Y-113159342D02*
X124888208Y-113254580D01*
X124888208Y-113254580D02*
X124840589Y-113302200D01*
X124840589Y-113302200D02*
X124745351Y-113349819D01*
X124745351Y-113349819D02*
X124602494Y-113349819D01*
X125221542Y-112349819D02*
X125792970Y-112349819D01*
X125507256Y-113349819D02*
X125507256Y-112349819D01*
X115221541Y-114293152D02*
X115459636Y-114959819D01*
X115459636Y-114959819D02*
X115697731Y-114293152D01*
X116459636Y-114912200D02*
X116364398Y-114959819D01*
X116364398Y-114959819D02*
X116173922Y-114959819D01*
X116173922Y-114959819D02*
X116078684Y-114912200D01*
X116078684Y-114912200D02*
X116031065Y-114816961D01*
X116031065Y-114816961D02*
X116031065Y-114436009D01*
X116031065Y-114436009D02*
X116078684Y-114340771D01*
X116078684Y-114340771D02*
X116173922Y-114293152D01*
X116173922Y-114293152D02*
X116364398Y-114293152D01*
X116364398Y-114293152D02*
X116459636Y-114340771D01*
X116459636Y-114340771D02*
X116507255Y-114436009D01*
X116507255Y-114436009D02*
X116507255Y-114531247D01*
X116507255Y-114531247D02*
X116031065Y-114626485D01*
X116935827Y-114959819D02*
X116935827Y-114293152D01*
X116935827Y-114483628D02*
X116983446Y-114388390D01*
X116983446Y-114388390D02*
X117031065Y-114340771D01*
X117031065Y-114340771D02*
X117126303Y-114293152D01*
X117126303Y-114293152D02*
X117221541Y-114293152D01*
X117507256Y-114912200D02*
X117602494Y-114959819D01*
X117602494Y-114959819D02*
X117792970Y-114959819D01*
X117792970Y-114959819D02*
X117888208Y-114912200D01*
X117888208Y-114912200D02*
X117935827Y-114816961D01*
X117935827Y-114816961D02*
X117935827Y-114769342D01*
X117935827Y-114769342D02*
X117888208Y-114674104D01*
X117888208Y-114674104D02*
X117792970Y-114626485D01*
X117792970Y-114626485D02*
X117650113Y-114626485D01*
X117650113Y-114626485D02*
X117554875Y-114578866D01*
X117554875Y-114578866D02*
X117507256Y-114483628D01*
X117507256Y-114483628D02*
X117507256Y-114436009D01*
X117507256Y-114436009D02*
X117554875Y-114340771D01*
X117554875Y-114340771D02*
X117650113Y-114293152D01*
X117650113Y-114293152D02*
X117792970Y-114293152D01*
X117792970Y-114293152D02*
X117888208Y-114340771D01*
X118364399Y-114959819D02*
X118364399Y-114293152D01*
X118364399Y-113959819D02*
X118316780Y-114007438D01*
X118316780Y-114007438D02*
X118364399Y-114055057D01*
X118364399Y-114055057D02*
X118412018Y-114007438D01*
X118412018Y-114007438D02*
X118364399Y-113959819D01*
X118364399Y-113959819D02*
X118364399Y-114055057D01*
X118983446Y-114959819D02*
X118888208Y-114912200D01*
X118888208Y-114912200D02*
X118840589Y-114864580D01*
X118840589Y-114864580D02*
X118792970Y-114769342D01*
X118792970Y-114769342D02*
X118792970Y-114483628D01*
X118792970Y-114483628D02*
X118840589Y-114388390D01*
X118840589Y-114388390D02*
X118888208Y-114340771D01*
X118888208Y-114340771D02*
X118983446Y-114293152D01*
X118983446Y-114293152D02*
X119126303Y-114293152D01*
X119126303Y-114293152D02*
X119221541Y-114340771D01*
X119221541Y-114340771D02*
X119269160Y-114388390D01*
X119269160Y-114388390D02*
X119316779Y-114483628D01*
X119316779Y-114483628D02*
X119316779Y-114769342D01*
X119316779Y-114769342D02*
X119269160Y-114864580D01*
X119269160Y-114864580D02*
X119221541Y-114912200D01*
X119221541Y-114912200D02*
X119126303Y-114959819D01*
X119126303Y-114959819D02*
X118983446Y-114959819D01*
X119745351Y-114293152D02*
X119745351Y-114959819D01*
X119745351Y-114388390D02*
X119792970Y-114340771D01*
X119792970Y-114340771D02*
X119888208Y-114293152D01*
X119888208Y-114293152D02*
X120031065Y-114293152D01*
X120031065Y-114293152D02*
X120126303Y-114340771D01*
X120126303Y-114340771D02*
X120173922Y-114436009D01*
X120173922Y-114436009D02*
X120173922Y-114959819D01*
X121935827Y-114959819D02*
X121364399Y-114959819D01*
X121650113Y-114959819D02*
X121650113Y-113959819D01*
X121650113Y-113959819D02*
X121554875Y-114102676D01*
X121554875Y-114102676D02*
X121459637Y-114197914D01*
X121459637Y-114197914D02*
X121364399Y-114245533D01*
X122364399Y-114864580D02*
X122412018Y-114912200D01*
X122412018Y-114912200D02*
X122364399Y-114959819D01*
X122364399Y-114959819D02*
X122316780Y-114912200D01*
X122316780Y-114912200D02*
X122364399Y-114864580D01*
X122364399Y-114864580D02*
X122364399Y-114959819D01*
X123031065Y-113959819D02*
X123126303Y-113959819D01*
X123126303Y-113959819D02*
X123221541Y-114007438D01*
X123221541Y-114007438D02*
X123269160Y-114055057D01*
X123269160Y-114055057D02*
X123316779Y-114150295D01*
X123316779Y-114150295D02*
X123364398Y-114340771D01*
X123364398Y-114340771D02*
X123364398Y-114578866D01*
X123364398Y-114578866D02*
X123316779Y-114769342D01*
X123316779Y-114769342D02*
X123269160Y-114864580D01*
X123269160Y-114864580D02*
X123221541Y-114912200D01*
X123221541Y-114912200D02*
X123126303Y-114959819D01*
X123126303Y-114959819D02*
X123031065Y-114959819D01*
X123031065Y-114959819D02*
X122935827Y-114912200D01*
X122935827Y-114912200D02*
X122888208Y-114864580D01*
X122888208Y-114864580D02*
X122840589Y-114769342D01*
X122840589Y-114769342D02*
X122792970Y-114578866D01*
X122792970Y-114578866D02*
X122792970Y-114340771D01*
X122792970Y-114340771D02*
X122840589Y-114150295D01*
X122840589Y-114150295D02*
X122888208Y-114055057D01*
X122888208Y-114055057D02*
X122935827Y-114007438D01*
X122935827Y-114007438D02*
X123031065Y-113959819D01*
G36*
X149877104Y-85966782D02*
G01*
X149474989Y-85832744D01*
X149877104Y-85698705D01*
X149877104Y-85966782D01*
G37*
G36*
X149717201Y-84751526D02*
G01*
X149747608Y-84781933D01*
X149781866Y-84850449D01*
X149781866Y-85005515D01*
X149747608Y-85074031D01*
X149717201Y-85104438D01*
X149648685Y-85138696D01*
X149446000Y-85138696D01*
X149377484Y-85104438D01*
X149347077Y-85074031D01*
X149312819Y-85005515D01*
X149312819Y-84850449D01*
X149347077Y-84781933D01*
X149377484Y-84751526D01*
X149446000Y-84717268D01*
X149648685Y-84717268D01*
X149717201Y-84751526D01*
G37*
G36*
X150455676Y-86380085D02*
G01*
X149019962Y-86380085D01*
X149019962Y-85843745D01*
X149163630Y-85843745D01*
X149164658Y-85845644D01*
X149164342Y-85847780D01*
X149176760Y-85867993D01*
X149188059Y-85888859D01*
X149190066Y-85889652D01*
X149191197Y-85891492D01*
X149214102Y-85903895D01*
X150214102Y-86237228D01*
X150265385Y-86235827D01*
X150303771Y-86201789D01*
X150311296Y-86151041D01*
X150284441Y-86107328D01*
X150261536Y-86094926D01*
X150027104Y-86016782D01*
X150027104Y-85648705D01*
X150261536Y-85570562D01*
X150301722Y-85538671D01*
X150312008Y-85488410D01*
X150287579Y-85443296D01*
X150239867Y-85424439D01*
X150214102Y-85428260D01*
X149214102Y-85761593D01*
X149212410Y-85762935D01*
X149210252Y-85762994D01*
X149192490Y-85778743D01*
X149173916Y-85793484D01*
X149173483Y-85795597D01*
X149171867Y-85797031D01*
X149168386Y-85820501D01*
X149163630Y-85843745D01*
X149019962Y-85843745D01*
X149019962Y-85023220D01*
X149162819Y-85023220D01*
X149164352Y-85027433D01*
X149163311Y-85031794D01*
X149170737Y-85056761D01*
X149218356Y-85151999D01*
X149219545Y-85153124D01*
X149232405Y-85171491D01*
X149280024Y-85219110D01*
X149281505Y-85219801D01*
X149299516Y-85233159D01*
X149394754Y-85280778D01*
X149399207Y-85281290D01*
X149402643Y-85284173D01*
X149428295Y-85288696D01*
X149666390Y-85288696D01*
X149670603Y-85287162D01*
X149674964Y-85288204D01*
X149699931Y-85280778D01*
X149795169Y-85233159D01*
X149796294Y-85231969D01*
X149814661Y-85219110D01*
X149862280Y-85171491D01*
X149862971Y-85170009D01*
X149876329Y-85151999D01*
X149923948Y-85056761D01*
X149924460Y-85052307D01*
X149927343Y-85048872D01*
X149931866Y-85023220D01*
X149931866Y-84832744D01*
X149930332Y-84828530D01*
X149931374Y-84824169D01*
X149923948Y-84799203D01*
X149894833Y-84740973D01*
X149968929Y-84759497D01*
X150094798Y-84843409D01*
X150128561Y-84877171D01*
X150162819Y-84945687D01*
X150162819Y-85118458D01*
X150180366Y-85166667D01*
X150224795Y-85192319D01*
X150275319Y-85183410D01*
X150308296Y-85144110D01*
X150312819Y-85118458D01*
X150312819Y-84927982D01*
X150311285Y-84923768D01*
X150312327Y-84919407D01*
X150304901Y-84894441D01*
X150257282Y-84799203D01*
X150256094Y-84798078D01*
X150243232Y-84779710D01*
X150195612Y-84732091D01*
X150192446Y-84730614D01*
X150184183Y-84722721D01*
X150041326Y-84627483D01*
X150040904Y-84627380D01*
X150017913Y-84617126D01*
X149827437Y-84569507D01*
X149823988Y-84569867D01*
X149809247Y-84567268D01*
X149428295Y-84567268D01*
X149424081Y-84568801D01*
X149419720Y-84567760D01*
X149394754Y-84575186D01*
X149299516Y-84622805D01*
X149298390Y-84623994D01*
X149280024Y-84636854D01*
X149232405Y-84684473D01*
X149231714Y-84685954D01*
X149218356Y-84703965D01*
X149170737Y-84799203D01*
X149170224Y-84803656D01*
X149167342Y-84807092D01*
X149162819Y-84832744D01*
X149162819Y-85023220D01*
X149019962Y-85023220D01*
X149019962Y-83927982D01*
X149162819Y-83927982D01*
X149163379Y-83929520D01*
X149166668Y-83951699D01*
X149214287Y-84094556D01*
X149217074Y-84098068D01*
X149217465Y-84102535D01*
X149232405Y-84123872D01*
X149327643Y-84219110D01*
X149329124Y-84219800D01*
X149347135Y-84233159D01*
X149442373Y-84280778D01*
X149445901Y-84281184D01*
X149457724Y-84286457D01*
X149648200Y-84334076D01*
X149651648Y-84333715D01*
X149666390Y-84336315D01*
X149809247Y-84336315D01*
X149812504Y-84335129D01*
X149827437Y-84334076D01*
X150017913Y-84286457D01*
X150020857Y-84284468D01*
X150033264Y-84280778D01*
X150128502Y-84233159D01*
X150129625Y-84231972D01*
X150147994Y-84219110D01*
X150243233Y-84123872D01*
X150245128Y-84119807D01*
X150248948Y-84117461D01*
X150261351Y-84094556D01*
X150308970Y-83951700D01*
X150308925Y-83950064D01*
X150312819Y-83927982D01*
X150312819Y-83832744D01*
X150312259Y-83831206D01*
X150308970Y-83809026D01*
X150261351Y-83666170D01*
X150258563Y-83662658D01*
X150258173Y-83658190D01*
X150243232Y-83636853D01*
X150195612Y-83589234D01*
X150180774Y-83582315D01*
X150168232Y-83571791D01*
X150152104Y-83568947D01*
X150149116Y-83567554D01*
X150147165Y-83568076D01*
X150142580Y-83567268D01*
X149809247Y-83567268D01*
X149790938Y-83573931D01*
X149771747Y-83577316D01*
X149767396Y-83582500D01*
X149761038Y-83584815D01*
X149751295Y-83601688D01*
X149738770Y-83616616D01*
X149737052Y-83626358D01*
X149735386Y-83629244D01*
X149735964Y-83632526D01*
X149734247Y-83642268D01*
X149734247Y-83832744D01*
X149751794Y-83880953D01*
X149796223Y-83906605D01*
X149846747Y-83897696D01*
X149879724Y-83858396D01*
X149884247Y-83832744D01*
X149884247Y-83717268D01*
X150111514Y-83717268D01*
X150124648Y-83730401D01*
X150162819Y-83844914D01*
X150162819Y-83915812D01*
X150124648Y-84030324D01*
X150050534Y-84104437D01*
X149973547Y-84142931D01*
X149800013Y-84186315D01*
X149675624Y-84186315D01*
X149502090Y-84142931D01*
X149425103Y-84104438D01*
X149350990Y-84030325D01*
X149312819Y-83915811D01*
X149312819Y-83802830D01*
X149352520Y-83723428D01*
X149358385Y-83672462D01*
X149330119Y-83629649D01*
X149280944Y-83615022D01*
X149233873Y-83635425D01*
X149218356Y-83656346D01*
X149170737Y-83751584D01*
X149170224Y-83756037D01*
X149167342Y-83759473D01*
X149162819Y-83785125D01*
X149162819Y-83927982D01*
X149019962Y-83927982D01*
X149019962Y-83424411D01*
X150455676Y-83424411D01*
X150455676Y-86380085D01*
G37*
X154089160Y-78812200D02*
X154232017Y-78859819D01*
X154232017Y-78859819D02*
X154470112Y-78859819D01*
X154470112Y-78859819D02*
X154565350Y-78812200D01*
X154565350Y-78812200D02*
X154612969Y-78764580D01*
X154612969Y-78764580D02*
X154660588Y-78669342D01*
X154660588Y-78669342D02*
X154660588Y-78574104D01*
X154660588Y-78574104D02*
X154612969Y-78478866D01*
X154612969Y-78478866D02*
X154565350Y-78431247D01*
X154565350Y-78431247D02*
X154470112Y-78383628D01*
X154470112Y-78383628D02*
X154279636Y-78336009D01*
X154279636Y-78336009D02*
X154184398Y-78288390D01*
X154184398Y-78288390D02*
X154136779Y-78240771D01*
X154136779Y-78240771D02*
X154089160Y-78145533D01*
X154089160Y-78145533D02*
X154089160Y-78050295D01*
X154089160Y-78050295D02*
X154136779Y-77955057D01*
X154136779Y-77955057D02*
X154184398Y-77907438D01*
X154184398Y-77907438D02*
X154279636Y-77859819D01*
X154279636Y-77859819D02*
X154517731Y-77859819D01*
X154517731Y-77859819D02*
X154660588Y-77907438D01*
X155279636Y-77859819D02*
X155470112Y-77859819D01*
X155470112Y-77859819D02*
X155565350Y-77907438D01*
X155565350Y-77907438D02*
X155660588Y-78002676D01*
X155660588Y-78002676D02*
X155708207Y-78193152D01*
X155708207Y-78193152D02*
X155708207Y-78526485D01*
X155708207Y-78526485D02*
X155660588Y-78716961D01*
X155660588Y-78716961D02*
X155565350Y-78812200D01*
X155565350Y-78812200D02*
X155470112Y-78859819D01*
X155470112Y-78859819D02*
X155279636Y-78859819D01*
X155279636Y-78859819D02*
X155184398Y-78812200D01*
X155184398Y-78812200D02*
X155089160Y-78716961D01*
X155089160Y-78716961D02*
X155041541Y-78526485D01*
X155041541Y-78526485D02*
X155041541Y-78193152D01*
X155041541Y-78193152D02*
X155089160Y-78002676D01*
X155089160Y-78002676D02*
X155184398Y-77907438D01*
X155184398Y-77907438D02*
X155279636Y-77859819D01*
X156612969Y-78859819D02*
X156136779Y-78859819D01*
X156136779Y-78859819D02*
X156136779Y-77859819D01*
X156898684Y-78574104D02*
X157374874Y-78574104D01*
X156803446Y-78859819D02*
X157136779Y-77859819D01*
X157136779Y-77859819D02*
X157470112Y-78859819D01*
X158374874Y-78859819D02*
X158041541Y-78383628D01*
X157803446Y-78859819D02*
X157803446Y-77859819D01*
X157803446Y-77859819D02*
X158184398Y-77859819D01*
X158184398Y-77859819D02*
X158279636Y-77907438D01*
X158279636Y-77907438D02*
X158327255Y-77955057D01*
X158327255Y-77955057D02*
X158374874Y-78050295D01*
X158374874Y-78050295D02*
X158374874Y-78193152D01*
X158374874Y-78193152D02*
X158327255Y-78288390D01*
X158327255Y-78288390D02*
X158279636Y-78336009D01*
X158279636Y-78336009D02*
X158184398Y-78383628D01*
X158184398Y-78383628D02*
X157803446Y-78383628D01*
X158803446Y-78478866D02*
X159565351Y-78478866D01*
X160041541Y-78859819D02*
X160041541Y-77859819D01*
X160517731Y-78859819D02*
X160517731Y-77859819D01*
X160517731Y-77859819D02*
X161089159Y-78859819D01*
X161089159Y-78859819D02*
X161089159Y-77859819D01*
X96710588Y-122057438D02*
X96615350Y-122009819D01*
X96615350Y-122009819D02*
X96472493Y-122009819D01*
X96472493Y-122009819D02*
X96329636Y-122057438D01*
X96329636Y-122057438D02*
X96234398Y-122152676D01*
X96234398Y-122152676D02*
X96186779Y-122247914D01*
X96186779Y-122247914D02*
X96139160Y-122438390D01*
X96139160Y-122438390D02*
X96139160Y-122581247D01*
X96139160Y-122581247D02*
X96186779Y-122771723D01*
X96186779Y-122771723D02*
X96234398Y-122866961D01*
X96234398Y-122866961D02*
X96329636Y-122962200D01*
X96329636Y-122962200D02*
X96472493Y-123009819D01*
X96472493Y-123009819D02*
X96567731Y-123009819D01*
X96567731Y-123009819D02*
X96710588Y-122962200D01*
X96710588Y-122962200D02*
X96758207Y-122914580D01*
X96758207Y-122914580D02*
X96758207Y-122581247D01*
X96758207Y-122581247D02*
X96567731Y-122581247D01*
X97186779Y-123009819D02*
X97186779Y-122009819D01*
X97186779Y-122009819D02*
X97758207Y-123009819D01*
X97758207Y-123009819D02*
X97758207Y-122009819D01*
X98234398Y-123009819D02*
X98234398Y-122009819D01*
X98234398Y-122009819D02*
X98472493Y-122009819D01*
X98472493Y-122009819D02*
X98615350Y-122057438D01*
X98615350Y-122057438D02*
X98710588Y-122152676D01*
X98710588Y-122152676D02*
X98758207Y-122247914D01*
X98758207Y-122247914D02*
X98805826Y-122438390D01*
X98805826Y-122438390D02*
X98805826Y-122581247D01*
X98805826Y-122581247D02*
X98758207Y-122771723D01*
X98758207Y-122771723D02*
X98710588Y-122866961D01*
X98710588Y-122866961D02*
X98615350Y-122962200D01*
X98615350Y-122962200D02*
X98472493Y-123009819D01*
X98472493Y-123009819D02*
X98234398Y-123009819D01*
X69183922Y-120999819D02*
X69755350Y-120999819D01*
X69469636Y-121999819D02*
X69469636Y-120999819D01*
X69993446Y-120999819D02*
X70660112Y-121999819D01*
X70660112Y-120999819D02*
X69993446Y-121999819D01*
G36*
X56992220Y-120181180D02*
G01*
X56841295Y-120181180D01*
X56726782Y-120143009D01*
X56652669Y-120068896D01*
X56614175Y-119991909D01*
X56570792Y-119818375D01*
X56570792Y-119693986D01*
X56614175Y-119520452D01*
X56652669Y-119443465D01*
X56726781Y-119369352D01*
X56841296Y-119331180D01*
X56992220Y-119331180D01*
X56992220Y-120181180D01*
G37*
G36*
X57285077Y-120474037D02*
G01*
X54374312Y-120474037D01*
X54374312Y-120243156D01*
X54517169Y-120243156D01*
X54526078Y-120293680D01*
X54565378Y-120326657D01*
X54591030Y-120331180D01*
X55162458Y-120331180D01*
X55210667Y-120313633D01*
X55236319Y-120269204D01*
X55234022Y-120256180D01*
X55420792Y-120256180D01*
X55438339Y-120304389D01*
X55482768Y-120330041D01*
X55533292Y-120321132D01*
X55566269Y-120281832D01*
X55570792Y-120256180D01*
X55570792Y-119854990D01*
X55992220Y-119854990D01*
X55992220Y-120256180D01*
X56009767Y-120304389D01*
X56054196Y-120330041D01*
X56104720Y-120321132D01*
X56137697Y-120281832D01*
X56142220Y-120256180D01*
X56142220Y-119827609D01*
X56420792Y-119827609D01*
X56421977Y-119830866D01*
X56423031Y-119845799D01*
X56470650Y-120036275D01*
X56472638Y-120039219D01*
X56476329Y-120051626D01*
X56523948Y-120146864D01*
X56525137Y-120147989D01*
X56537997Y-120166356D01*
X56633235Y-120261594D01*
X56637299Y-120263489D01*
X56639646Y-120267309D01*
X56662551Y-120279712D01*
X56805407Y-120327331D01*
X56807042Y-120327286D01*
X56829125Y-120331180D01*
X57067220Y-120331180D01*
X57085528Y-120324516D01*
X57104720Y-120321132D01*
X57109070Y-120315947D01*
X57115429Y-120313633D01*
X57125171Y-120296759D01*
X57137697Y-120281832D01*
X57139414Y-120272089D01*
X57141081Y-120269204D01*
X57140502Y-120265921D01*
X57142220Y-120256180D01*
X57142220Y-119256180D01*
X57135556Y-119237871D01*
X57132172Y-119218680D01*
X57126987Y-119214329D01*
X57124673Y-119207971D01*
X57107799Y-119198228D01*
X57092872Y-119185703D01*
X57083129Y-119183985D01*
X57080244Y-119182319D01*
X57076961Y-119182897D01*
X57067220Y-119181180D01*
X56829125Y-119181180D01*
X56827586Y-119181740D01*
X56805408Y-119185029D01*
X56662550Y-119232649D01*
X56659039Y-119235435D01*
X56654572Y-119235826D01*
X56633235Y-119250767D01*
X56537997Y-119346005D01*
X56537306Y-119347486D01*
X56523948Y-119365497D01*
X56476329Y-119460735D01*
X56475922Y-119464263D01*
X56470650Y-119476086D01*
X56423031Y-119666562D01*
X56423391Y-119670010D01*
X56420792Y-119684752D01*
X56420792Y-119827609D01*
X56142220Y-119827609D01*
X56142220Y-119256180D01*
X56124673Y-119207971D01*
X56080244Y-119182319D01*
X56029720Y-119191228D01*
X55996743Y-119230528D01*
X55992220Y-119256180D01*
X55992220Y-119704990D01*
X55570792Y-119704990D01*
X55570792Y-119256180D01*
X55553245Y-119207971D01*
X55508816Y-119182319D01*
X55458292Y-119191228D01*
X55425315Y-119230528D01*
X55420792Y-119256180D01*
X55420792Y-120256180D01*
X55234022Y-120256180D01*
X55227410Y-120218680D01*
X55188110Y-120185703D01*
X55162458Y-120181180D01*
X54951744Y-120181180D01*
X54951744Y-119256180D01*
X54934197Y-119207971D01*
X54889768Y-119182319D01*
X54839244Y-119191228D01*
X54806267Y-119230528D01*
X54801744Y-119256180D01*
X54801744Y-120181180D01*
X54591030Y-120181180D01*
X54542821Y-120198727D01*
X54517169Y-120243156D01*
X54374312Y-120243156D01*
X54374312Y-119038323D01*
X57285077Y-119038323D01*
X57285077Y-120474037D01*
G37*
X99650779Y-103232009D02*
X99984112Y-103232009D01*
X100126969Y-103755819D02*
X99650779Y-103755819D01*
X99650779Y-103755819D02*
X99650779Y-102755819D01*
X99650779Y-102755819D02*
X100126969Y-102755819D01*
X100507922Y-103708200D02*
X100650779Y-103755819D01*
X100650779Y-103755819D02*
X100888874Y-103755819D01*
X100888874Y-103755819D02*
X100984112Y-103708200D01*
X100984112Y-103708200D02*
X101031731Y-103660580D01*
X101031731Y-103660580D02*
X101079350Y-103565342D01*
X101079350Y-103565342D02*
X101079350Y-103470104D01*
X101079350Y-103470104D02*
X101031731Y-103374866D01*
X101031731Y-103374866D02*
X100984112Y-103327247D01*
X100984112Y-103327247D02*
X100888874Y-103279628D01*
X100888874Y-103279628D02*
X100698398Y-103232009D01*
X100698398Y-103232009D02*
X100603160Y-103184390D01*
X100603160Y-103184390D02*
X100555541Y-103136771D01*
X100555541Y-103136771D02*
X100507922Y-103041533D01*
X100507922Y-103041533D02*
X100507922Y-102946295D01*
X100507922Y-102946295D02*
X100555541Y-102851057D01*
X100555541Y-102851057D02*
X100603160Y-102803438D01*
X100603160Y-102803438D02*
X100698398Y-102755819D01*
X100698398Y-102755819D02*
X100936493Y-102755819D01*
X100936493Y-102755819D02*
X101079350Y-102803438D01*
X101507922Y-103755819D02*
X101507922Y-102755819D01*
X101507922Y-102755819D02*
X101888874Y-102755819D01*
X101888874Y-102755819D02*
X101984112Y-102803438D01*
X101984112Y-102803438D02*
X102031731Y-102851057D01*
X102031731Y-102851057D02*
X102079350Y-102946295D01*
X102079350Y-102946295D02*
X102079350Y-103089152D01*
X102079350Y-103089152D02*
X102031731Y-103184390D01*
X102031731Y-103184390D02*
X101984112Y-103232009D01*
X101984112Y-103232009D02*
X101888874Y-103279628D01*
X101888874Y-103279628D02*
X101507922Y-103279628D01*
X102412684Y-102755819D02*
X103031731Y-102755819D01*
X103031731Y-102755819D02*
X102698398Y-103136771D01*
X102698398Y-103136771D02*
X102841255Y-103136771D01*
X102841255Y-103136771D02*
X102936493Y-103184390D01*
X102936493Y-103184390D02*
X102984112Y-103232009D01*
X102984112Y-103232009D02*
X103031731Y-103327247D01*
X103031731Y-103327247D02*
X103031731Y-103565342D01*
X103031731Y-103565342D02*
X102984112Y-103660580D01*
X102984112Y-103660580D02*
X102936493Y-103708200D01*
X102936493Y-103708200D02*
X102841255Y-103755819D01*
X102841255Y-103755819D02*
X102555541Y-103755819D01*
X102555541Y-103755819D02*
X102460303Y-103708200D01*
X102460303Y-103708200D02*
X102412684Y-103660580D01*
X103412684Y-102851057D02*
X103460303Y-102803438D01*
X103460303Y-102803438D02*
X103555541Y-102755819D01*
X103555541Y-102755819D02*
X103793636Y-102755819D01*
X103793636Y-102755819D02*
X103888874Y-102803438D01*
X103888874Y-102803438D02*
X103936493Y-102851057D01*
X103936493Y-102851057D02*
X103984112Y-102946295D01*
X103984112Y-102946295D02*
X103984112Y-103041533D01*
X103984112Y-103041533D02*
X103936493Y-103184390D01*
X103936493Y-103184390D02*
X103365065Y-103755819D01*
X103365065Y-103755819D02*
X103984112Y-103755819D01*
X71786779Y-121386009D02*
X72120112Y-121386009D01*
X72262969Y-121909819D02*
X71786779Y-121909819D01*
X71786779Y-121909819D02*
X71786779Y-120909819D01*
X71786779Y-120909819D02*
X72262969Y-120909819D01*
X72691541Y-121909819D02*
X72691541Y-120909819D01*
X72691541Y-120909819D02*
X73262969Y-121909819D01*
X73262969Y-121909819D02*
X73262969Y-120909819D01*
X67218207Y-121949819D02*
X66884874Y-121473628D01*
X66646779Y-121949819D02*
X66646779Y-120949819D01*
X66646779Y-120949819D02*
X67027731Y-120949819D01*
X67027731Y-120949819D02*
X67122969Y-120997438D01*
X67122969Y-120997438D02*
X67170588Y-121045057D01*
X67170588Y-121045057D02*
X67218207Y-121140295D01*
X67218207Y-121140295D02*
X67218207Y-121283152D01*
X67218207Y-121283152D02*
X67170588Y-121378390D01*
X67170588Y-121378390D02*
X67122969Y-121426009D01*
X67122969Y-121426009D02*
X67027731Y-121473628D01*
X67027731Y-121473628D02*
X66646779Y-121473628D01*
X67551541Y-120949819D02*
X68218207Y-121949819D01*
X68218207Y-120949819D02*
X67551541Y-121949819D01*
X147205819Y-62401220D02*
X148015342Y-62401220D01*
X148015342Y-62401220D02*
X148110580Y-62353601D01*
X148110580Y-62353601D02*
X148158200Y-62305982D01*
X148158200Y-62305982D02*
X148205819Y-62210744D01*
X148205819Y-62210744D02*
X148205819Y-62020268D01*
X148205819Y-62020268D02*
X148158200Y-61925030D01*
X148158200Y-61925030D02*
X148110580Y-61877411D01*
X148110580Y-61877411D02*
X148015342Y-61829792D01*
X148015342Y-61829792D02*
X147205819Y-61829792D01*
X148205819Y-60877411D02*
X148205819Y-61353601D01*
X148205819Y-61353601D02*
X147205819Y-61353601D01*
X147205819Y-60686934D02*
X147205819Y-60115506D01*
X148205819Y-60401220D02*
X147205819Y-60401220D01*
X148205819Y-59210744D02*
X147729628Y-59544077D01*
X148205819Y-59782172D02*
X147205819Y-59782172D01*
X147205819Y-59782172D02*
X147205819Y-59401220D01*
X147205819Y-59401220D02*
X147253438Y-59305982D01*
X147253438Y-59305982D02*
X147301057Y-59258363D01*
X147301057Y-59258363D02*
X147396295Y-59210744D01*
X147396295Y-59210744D02*
X147539152Y-59210744D01*
X147539152Y-59210744D02*
X147634390Y-59258363D01*
X147634390Y-59258363D02*
X147682009Y-59305982D01*
X147682009Y-59305982D02*
X147729628Y-59401220D01*
X147729628Y-59401220D02*
X147729628Y-59782172D01*
X147920104Y-58829791D02*
X147920104Y-58353601D01*
X148205819Y-58925029D02*
X147205819Y-58591696D01*
X147205819Y-58591696D02*
X148205819Y-58258363D01*
X148158200Y-57972648D02*
X148205819Y-57829791D01*
X148205819Y-57829791D02*
X148205819Y-57591696D01*
X148205819Y-57591696D02*
X148158200Y-57496458D01*
X148158200Y-57496458D02*
X148110580Y-57448839D01*
X148110580Y-57448839D02*
X148015342Y-57401220D01*
X148015342Y-57401220D02*
X147920104Y-57401220D01*
X147920104Y-57401220D02*
X147824866Y-57448839D01*
X147824866Y-57448839D02*
X147777247Y-57496458D01*
X147777247Y-57496458D02*
X147729628Y-57591696D01*
X147729628Y-57591696D02*
X147682009Y-57782172D01*
X147682009Y-57782172D02*
X147634390Y-57877410D01*
X147634390Y-57877410D02*
X147586771Y-57925029D01*
X147586771Y-57925029D02*
X147491533Y-57972648D01*
X147491533Y-57972648D02*
X147396295Y-57972648D01*
X147396295Y-57972648D02*
X147301057Y-57925029D01*
X147301057Y-57925029D02*
X147253438Y-57877410D01*
X147253438Y-57877410D02*
X147205819Y-57782172D01*
X147205819Y-57782172D02*
X147205819Y-57544077D01*
X147205819Y-57544077D02*
X147253438Y-57401220D01*
X147205819Y-56782172D02*
X147205819Y-56591696D01*
X147205819Y-56591696D02*
X147253438Y-56496458D01*
X147253438Y-56496458D02*
X147348676Y-56401220D01*
X147348676Y-56401220D02*
X147539152Y-56353601D01*
X147539152Y-56353601D02*
X147872485Y-56353601D01*
X147872485Y-56353601D02*
X148062961Y-56401220D01*
X148062961Y-56401220D02*
X148158200Y-56496458D01*
X148158200Y-56496458D02*
X148205819Y-56591696D01*
X148205819Y-56591696D02*
X148205819Y-56782172D01*
X148205819Y-56782172D02*
X148158200Y-56877410D01*
X148158200Y-56877410D02*
X148062961Y-56972648D01*
X148062961Y-56972648D02*
X147872485Y-57020267D01*
X147872485Y-57020267D02*
X147539152Y-57020267D01*
X147539152Y-57020267D02*
X147348676Y-56972648D01*
X147348676Y-56972648D02*
X147253438Y-56877410D01*
X147253438Y-56877410D02*
X147205819Y-56782172D01*
X148205819Y-55925029D02*
X147205819Y-55925029D01*
X147205819Y-55925029D02*
X148205819Y-55353601D01*
X148205819Y-55353601D02*
X147205819Y-55353601D01*
X148205819Y-54877410D02*
X147205819Y-54877410D01*
X148110580Y-53829792D02*
X148158200Y-53877411D01*
X148158200Y-53877411D02*
X148205819Y-54020268D01*
X148205819Y-54020268D02*
X148205819Y-54115506D01*
X148205819Y-54115506D02*
X148158200Y-54258363D01*
X148158200Y-54258363D02*
X148062961Y-54353601D01*
X148062961Y-54353601D02*
X147967723Y-54401220D01*
X147967723Y-54401220D02*
X147777247Y-54448839D01*
X147777247Y-54448839D02*
X147634390Y-54448839D01*
X147634390Y-54448839D02*
X147443914Y-54401220D01*
X147443914Y-54401220D02*
X147348676Y-54353601D01*
X147348676Y-54353601D02*
X147253438Y-54258363D01*
X147253438Y-54258363D02*
X147205819Y-54115506D01*
X147205819Y-54115506D02*
X147205819Y-54020268D01*
X147205819Y-54020268D02*
X147253438Y-53877411D01*
X147253438Y-53877411D02*
X147301057Y-53829792D01*
X84531541Y-122169819D02*
X85150588Y-122169819D01*
X85150588Y-122169819D02*
X84817255Y-122550771D01*
X84817255Y-122550771D02*
X84960112Y-122550771D01*
X84960112Y-122550771D02*
X85055350Y-122598390D01*
X85055350Y-122598390D02*
X85102969Y-122646009D01*
X85102969Y-122646009D02*
X85150588Y-122741247D01*
X85150588Y-122741247D02*
X85150588Y-122979342D01*
X85150588Y-122979342D02*
X85102969Y-123074580D01*
X85102969Y-123074580D02*
X85055350Y-123122200D01*
X85055350Y-123122200D02*
X84960112Y-123169819D01*
X84960112Y-123169819D02*
X84674398Y-123169819D01*
X84674398Y-123169819D02*
X84579160Y-123122200D01*
X84579160Y-123122200D02*
X84531541Y-123074580D01*
X85579160Y-123074580D02*
X85626779Y-123122200D01*
X85626779Y-123122200D02*
X85579160Y-123169819D01*
X85579160Y-123169819D02*
X85531541Y-123122200D01*
X85531541Y-123122200D02*
X85579160Y-123074580D01*
X85579160Y-123074580D02*
X85579160Y-123169819D01*
X85960112Y-122169819D02*
X86579159Y-122169819D01*
X86579159Y-122169819D02*
X86245826Y-122550771D01*
X86245826Y-122550771D02*
X86388683Y-122550771D01*
X86388683Y-122550771D02*
X86483921Y-122598390D01*
X86483921Y-122598390D02*
X86531540Y-122646009D01*
X86531540Y-122646009D02*
X86579159Y-122741247D01*
X86579159Y-122741247D02*
X86579159Y-122979342D01*
X86579159Y-122979342D02*
X86531540Y-123074580D01*
X86531540Y-123074580D02*
X86483921Y-123122200D01*
X86483921Y-123122200D02*
X86388683Y-123169819D01*
X86388683Y-123169819D02*
X86102969Y-123169819D01*
X86102969Y-123169819D02*
X86007731Y-123122200D01*
X86007731Y-123122200D02*
X85960112Y-123074580D01*
X86864874Y-122169819D02*
X87198207Y-123169819D01*
X87198207Y-123169819D02*
X87531540Y-122169819D01*
X153550588Y-62007438D02*
X153455350Y-61959819D01*
X153455350Y-61959819D02*
X153312493Y-61959819D01*
X153312493Y-61959819D02*
X153169636Y-62007438D01*
X153169636Y-62007438D02*
X153074398Y-62102676D01*
X153074398Y-62102676D02*
X153026779Y-62197914D01*
X153026779Y-62197914D02*
X152979160Y-62388390D01*
X152979160Y-62388390D02*
X152979160Y-62531247D01*
X152979160Y-62531247D02*
X153026779Y-62721723D01*
X153026779Y-62721723D02*
X153074398Y-62816961D01*
X153074398Y-62816961D02*
X153169636Y-62912200D01*
X153169636Y-62912200D02*
X153312493Y-62959819D01*
X153312493Y-62959819D02*
X153407731Y-62959819D01*
X153407731Y-62959819D02*
X153550588Y-62912200D01*
X153550588Y-62912200D02*
X153598207Y-62864580D01*
X153598207Y-62864580D02*
X153598207Y-62531247D01*
X153598207Y-62531247D02*
X153407731Y-62531247D01*
X154026779Y-62959819D02*
X154026779Y-61959819D01*
X154026779Y-61959819D02*
X154598207Y-62959819D01*
X154598207Y-62959819D02*
X154598207Y-61959819D01*
X155074398Y-62959819D02*
X155074398Y-61959819D01*
X155074398Y-61959819D02*
X155312493Y-61959819D01*
X155312493Y-61959819D02*
X155455350Y-62007438D01*
X155455350Y-62007438D02*
X155550588Y-62102676D01*
X155550588Y-62102676D02*
X155598207Y-62197914D01*
X155598207Y-62197914D02*
X155645826Y-62388390D01*
X155645826Y-62388390D02*
X155645826Y-62531247D01*
X155645826Y-62531247D02*
X155598207Y-62721723D01*
X155598207Y-62721723D02*
X155550588Y-62816961D01*
X155550588Y-62816961D02*
X155455350Y-62912200D01*
X155455350Y-62912200D02*
X155312493Y-62959819D01*
X155312493Y-62959819D02*
X155074398Y-62959819D01*
X152703922Y-56299819D02*
X153275350Y-56299819D01*
X152989636Y-57299819D02*
X152989636Y-56299819D01*
X154180112Y-57299819D02*
X153846779Y-56823628D01*
X153608684Y-57299819D02*
X153608684Y-56299819D01*
X153608684Y-56299819D02*
X153989636Y-56299819D01*
X153989636Y-56299819D02*
X154084874Y-56347438D01*
X154084874Y-56347438D02*
X154132493Y-56395057D01*
X154132493Y-56395057D02*
X154180112Y-56490295D01*
X154180112Y-56490295D02*
X154180112Y-56633152D01*
X154180112Y-56633152D02*
X154132493Y-56728390D01*
X154132493Y-56728390D02*
X154084874Y-56776009D01*
X154084874Y-56776009D02*
X153989636Y-56823628D01*
X153989636Y-56823628D02*
X153608684Y-56823628D01*
X154608684Y-57299819D02*
X154608684Y-56299819D01*
X155608683Y-56347438D02*
X155513445Y-56299819D01*
X155513445Y-56299819D02*
X155370588Y-56299819D01*
X155370588Y-56299819D02*
X155227731Y-56347438D01*
X155227731Y-56347438D02*
X155132493Y-56442676D01*
X155132493Y-56442676D02*
X155084874Y-56537914D01*
X155084874Y-56537914D02*
X155037255Y-56728390D01*
X155037255Y-56728390D02*
X155037255Y-56871247D01*
X155037255Y-56871247D02*
X155084874Y-57061723D01*
X155084874Y-57061723D02*
X155132493Y-57156961D01*
X155132493Y-57156961D02*
X155227731Y-57252200D01*
X155227731Y-57252200D02*
X155370588Y-57299819D01*
X155370588Y-57299819D02*
X155465826Y-57299819D01*
X155465826Y-57299819D02*
X155608683Y-57252200D01*
X155608683Y-57252200D02*
X155656302Y-57204580D01*
X155656302Y-57204580D02*
X155656302Y-56871247D01*
X155656302Y-56871247D02*
X155465826Y-56871247D01*
X150910588Y-112207438D02*
X150815350Y-112159819D01*
X150815350Y-112159819D02*
X150672493Y-112159819D01*
X150672493Y-112159819D02*
X150529636Y-112207438D01*
X150529636Y-112207438D02*
X150434398Y-112302676D01*
X150434398Y-112302676D02*
X150386779Y-112397914D01*
X150386779Y-112397914D02*
X150339160Y-112588390D01*
X150339160Y-112588390D02*
X150339160Y-112731247D01*
X150339160Y-112731247D02*
X150386779Y-112921723D01*
X150386779Y-112921723D02*
X150434398Y-113016961D01*
X150434398Y-113016961D02*
X150529636Y-113112200D01*
X150529636Y-113112200D02*
X150672493Y-113159819D01*
X150672493Y-113159819D02*
X150767731Y-113159819D01*
X150767731Y-113159819D02*
X150910588Y-113112200D01*
X150910588Y-113112200D02*
X150958207Y-113064580D01*
X150958207Y-113064580D02*
X150958207Y-112731247D01*
X150958207Y-112731247D02*
X150767731Y-112731247D01*
X151386779Y-113159819D02*
X151386779Y-112159819D01*
X151386779Y-112159819D02*
X151767731Y-112159819D01*
X151767731Y-112159819D02*
X151862969Y-112207438D01*
X151862969Y-112207438D02*
X151910588Y-112255057D01*
X151910588Y-112255057D02*
X151958207Y-112350295D01*
X151958207Y-112350295D02*
X151958207Y-112493152D01*
X151958207Y-112493152D02*
X151910588Y-112588390D01*
X151910588Y-112588390D02*
X151862969Y-112636009D01*
X151862969Y-112636009D02*
X151767731Y-112683628D01*
X151767731Y-112683628D02*
X151386779Y-112683628D01*
X152339160Y-113112200D02*
X152482017Y-113159819D01*
X152482017Y-113159819D02*
X152720112Y-113159819D01*
X152720112Y-113159819D02*
X152815350Y-113112200D01*
X152815350Y-113112200D02*
X152862969Y-113064580D01*
X152862969Y-113064580D02*
X152910588Y-112969342D01*
X152910588Y-112969342D02*
X152910588Y-112874104D01*
X152910588Y-112874104D02*
X152862969Y-112778866D01*
X152862969Y-112778866D02*
X152815350Y-112731247D01*
X152815350Y-112731247D02*
X152720112Y-112683628D01*
X152720112Y-112683628D02*
X152529636Y-112636009D01*
X152529636Y-112636009D02*
X152434398Y-112588390D01*
X152434398Y-112588390D02*
X152386779Y-112540771D01*
X152386779Y-112540771D02*
X152339160Y-112445533D01*
X152339160Y-112445533D02*
X152339160Y-112350295D01*
X152339160Y-112350295D02*
X152386779Y-112255057D01*
X152386779Y-112255057D02*
X152434398Y-112207438D01*
X152434398Y-112207438D02*
X152529636Y-112159819D01*
X152529636Y-112159819D02*
X152767731Y-112159819D01*
X152767731Y-112159819D02*
X152910588Y-112207438D01*
X162329819Y-83466077D02*
X163329819Y-83132744D01*
X163329819Y-83132744D02*
X162329819Y-82799411D01*
X162948866Y-82466077D02*
X162948866Y-81704173D01*
X163329819Y-82085125D02*
X162567914Y-82085125D01*
X74570112Y-121476009D02*
X74712969Y-121523628D01*
X74712969Y-121523628D02*
X74760588Y-121571247D01*
X74760588Y-121571247D02*
X74808207Y-121666485D01*
X74808207Y-121666485D02*
X74808207Y-121809342D01*
X74808207Y-121809342D02*
X74760588Y-121904580D01*
X74760588Y-121904580D02*
X74712969Y-121952200D01*
X74712969Y-121952200D02*
X74617731Y-121999819D01*
X74617731Y-121999819D02*
X74236779Y-121999819D01*
X74236779Y-121999819D02*
X74236779Y-120999819D01*
X74236779Y-120999819D02*
X74570112Y-120999819D01*
X74570112Y-120999819D02*
X74665350Y-121047438D01*
X74665350Y-121047438D02*
X74712969Y-121095057D01*
X74712969Y-121095057D02*
X74760588Y-121190295D01*
X74760588Y-121190295D02*
X74760588Y-121285533D01*
X74760588Y-121285533D02*
X74712969Y-121380771D01*
X74712969Y-121380771D02*
X74665350Y-121428390D01*
X74665350Y-121428390D02*
X74570112Y-121476009D01*
X74570112Y-121476009D02*
X74236779Y-121476009D01*
X75093922Y-120999819D02*
X75665350Y-120999819D01*
X75379636Y-121999819D02*
X75379636Y-120999819D01*
X164212200Y-117200839D02*
X164259819Y-117057982D01*
X164259819Y-117057982D02*
X164259819Y-116819887D01*
X164259819Y-116819887D02*
X164212200Y-116724649D01*
X164212200Y-116724649D02*
X164164580Y-116677030D01*
X164164580Y-116677030D02*
X164069342Y-116629411D01*
X164069342Y-116629411D02*
X163974104Y-116629411D01*
X163974104Y-116629411D02*
X163878866Y-116677030D01*
X163878866Y-116677030D02*
X163831247Y-116724649D01*
X163831247Y-116724649D02*
X163783628Y-116819887D01*
X163783628Y-116819887D02*
X163736009Y-117010363D01*
X163736009Y-117010363D02*
X163688390Y-117105601D01*
X163688390Y-117105601D02*
X163640771Y-117153220D01*
X163640771Y-117153220D02*
X163545533Y-117200839D01*
X163545533Y-117200839D02*
X163450295Y-117200839D01*
X163450295Y-117200839D02*
X163355057Y-117153220D01*
X163355057Y-117153220D02*
X163307438Y-117105601D01*
X163307438Y-117105601D02*
X163259819Y-117010363D01*
X163259819Y-117010363D02*
X163259819Y-116772268D01*
X163259819Y-116772268D02*
X163307438Y-116629411D01*
X163259819Y-116010363D02*
X163259819Y-115819887D01*
X163259819Y-115819887D02*
X163307438Y-115724649D01*
X163307438Y-115724649D02*
X163402676Y-115629411D01*
X163402676Y-115629411D02*
X163593152Y-115581792D01*
X163593152Y-115581792D02*
X163926485Y-115581792D01*
X163926485Y-115581792D02*
X164116961Y-115629411D01*
X164116961Y-115629411D02*
X164212200Y-115724649D01*
X164212200Y-115724649D02*
X164259819Y-115819887D01*
X164259819Y-115819887D02*
X164259819Y-116010363D01*
X164259819Y-116010363D02*
X164212200Y-116105601D01*
X164212200Y-116105601D02*
X164116961Y-116200839D01*
X164116961Y-116200839D02*
X163926485Y-116248458D01*
X163926485Y-116248458D02*
X163593152Y-116248458D01*
X163593152Y-116248458D02*
X163402676Y-116200839D01*
X163402676Y-116200839D02*
X163307438Y-116105601D01*
X163307438Y-116105601D02*
X163259819Y-116010363D01*
X164259819Y-114677030D02*
X164259819Y-115153220D01*
X164259819Y-115153220D02*
X163259819Y-115153220D01*
X163974104Y-114391315D02*
X163974104Y-113915125D01*
X164259819Y-114486553D02*
X163259819Y-114153220D01*
X163259819Y-114153220D02*
X164259819Y-113819887D01*
X164259819Y-112915125D02*
X163783628Y-113248458D01*
X164259819Y-113486553D02*
X163259819Y-113486553D01*
X163259819Y-113486553D02*
X163259819Y-113105601D01*
X163259819Y-113105601D02*
X163307438Y-113010363D01*
X163307438Y-113010363D02*
X163355057Y-112962744D01*
X163355057Y-112962744D02*
X163450295Y-112915125D01*
X163450295Y-112915125D02*
X163593152Y-112915125D01*
X163593152Y-112915125D02*
X163688390Y-112962744D01*
X163688390Y-112962744D02*
X163736009Y-113010363D01*
X163736009Y-113010363D02*
X163783628Y-113105601D01*
X163783628Y-113105601D02*
X163783628Y-113486553D01*
X164212200Y-111772267D02*
X164259819Y-111629410D01*
X164259819Y-111629410D02*
X164259819Y-111391315D01*
X164259819Y-111391315D02*
X164212200Y-111296077D01*
X164212200Y-111296077D02*
X164164580Y-111248458D01*
X164164580Y-111248458D02*
X164069342Y-111200839D01*
X164069342Y-111200839D02*
X163974104Y-111200839D01*
X163974104Y-111200839D02*
X163878866Y-111248458D01*
X163878866Y-111248458D02*
X163831247Y-111296077D01*
X163831247Y-111296077D02*
X163783628Y-111391315D01*
X163783628Y-111391315D02*
X163736009Y-111581791D01*
X163736009Y-111581791D02*
X163688390Y-111677029D01*
X163688390Y-111677029D02*
X163640771Y-111724648D01*
X163640771Y-111724648D02*
X163545533Y-111772267D01*
X163545533Y-111772267D02*
X163450295Y-111772267D01*
X163450295Y-111772267D02*
X163355057Y-111724648D01*
X163355057Y-111724648D02*
X163307438Y-111677029D01*
X163307438Y-111677029D02*
X163259819Y-111581791D01*
X163259819Y-111581791D02*
X163259819Y-111343696D01*
X163259819Y-111343696D02*
X163307438Y-111200839D01*
X163259819Y-110867505D02*
X164259819Y-110629410D01*
X164259819Y-110629410D02*
X163545533Y-110438934D01*
X163545533Y-110438934D02*
X164259819Y-110248458D01*
X164259819Y-110248458D02*
X163259819Y-110010363D01*
X164259819Y-109629410D02*
X163259819Y-109629410D01*
X163259819Y-109296077D02*
X163259819Y-108724649D01*
X164259819Y-109010363D02*
X163259819Y-109010363D01*
X164164580Y-107819887D02*
X164212200Y-107867506D01*
X164212200Y-107867506D02*
X164259819Y-108010363D01*
X164259819Y-108010363D02*
X164259819Y-108105601D01*
X164259819Y-108105601D02*
X164212200Y-108248458D01*
X164212200Y-108248458D02*
X164116961Y-108343696D01*
X164116961Y-108343696D02*
X164021723Y-108391315D01*
X164021723Y-108391315D02*
X163831247Y-108438934D01*
X163831247Y-108438934D02*
X163688390Y-108438934D01*
X163688390Y-108438934D02*
X163497914Y-108391315D01*
X163497914Y-108391315D02*
X163402676Y-108343696D01*
X163402676Y-108343696D02*
X163307438Y-108248458D01*
X163307438Y-108248458D02*
X163259819Y-108105601D01*
X163259819Y-108105601D02*
X163259819Y-108010363D01*
X163259819Y-108010363D02*
X163307438Y-107867506D01*
X163307438Y-107867506D02*
X163355057Y-107819887D01*
X164259819Y-107391315D02*
X163259819Y-107391315D01*
X163736009Y-107391315D02*
X163736009Y-106819887D01*
X164259819Y-106819887D02*
X163259819Y-106819887D01*
X162299819Y-88406077D02*
X163299819Y-88072744D01*
X163299819Y-88072744D02*
X162299819Y-87739411D01*
X162918866Y-87406077D02*
X162918866Y-86644173D01*
X142989160Y-45892200D02*
X143132017Y-45939819D01*
X143132017Y-45939819D02*
X143370112Y-45939819D01*
X143370112Y-45939819D02*
X143465350Y-45892200D01*
X143465350Y-45892200D02*
X143512969Y-45844580D01*
X143512969Y-45844580D02*
X143560588Y-45749342D01*
X143560588Y-45749342D02*
X143560588Y-45654104D01*
X143560588Y-45654104D02*
X143512969Y-45558866D01*
X143512969Y-45558866D02*
X143465350Y-45511247D01*
X143465350Y-45511247D02*
X143370112Y-45463628D01*
X143370112Y-45463628D02*
X143179636Y-45416009D01*
X143179636Y-45416009D02*
X143084398Y-45368390D01*
X143084398Y-45368390D02*
X143036779Y-45320771D01*
X143036779Y-45320771D02*
X142989160Y-45225533D01*
X142989160Y-45225533D02*
X142989160Y-45130295D01*
X142989160Y-45130295D02*
X143036779Y-45035057D01*
X143036779Y-45035057D02*
X143084398Y-44987438D01*
X143084398Y-44987438D02*
X143179636Y-44939819D01*
X143179636Y-44939819D02*
X143417731Y-44939819D01*
X143417731Y-44939819D02*
X143560588Y-44987438D01*
X143893922Y-44939819D02*
X144132017Y-45939819D01*
X144132017Y-45939819D02*
X144322493Y-45225533D01*
X144322493Y-45225533D02*
X144512969Y-45939819D01*
X144512969Y-45939819D02*
X144751065Y-44939819D01*
X145132017Y-45939819D02*
X145132017Y-44939819D01*
X145465350Y-44939819D02*
X146036778Y-44939819D01*
X145751064Y-45939819D02*
X145751064Y-44939819D01*
X146941540Y-45844580D02*
X146893921Y-45892200D01*
X146893921Y-45892200D02*
X146751064Y-45939819D01*
X146751064Y-45939819D02*
X146655826Y-45939819D01*
X146655826Y-45939819D02*
X146512969Y-45892200D01*
X146512969Y-45892200D02*
X146417731Y-45796961D01*
X146417731Y-45796961D02*
X146370112Y-45701723D01*
X146370112Y-45701723D02*
X146322493Y-45511247D01*
X146322493Y-45511247D02*
X146322493Y-45368390D01*
X146322493Y-45368390D02*
X146370112Y-45177914D01*
X146370112Y-45177914D02*
X146417731Y-45082676D01*
X146417731Y-45082676D02*
X146512969Y-44987438D01*
X146512969Y-44987438D02*
X146655826Y-44939819D01*
X146655826Y-44939819D02*
X146751064Y-44939819D01*
X146751064Y-44939819D02*
X146893921Y-44987438D01*
X146893921Y-44987438D02*
X146941540Y-45035057D01*
X147370112Y-45939819D02*
X147370112Y-44939819D01*
X147370112Y-45416009D02*
X147941540Y-45416009D01*
X147941540Y-45939819D02*
X147941540Y-44939819D01*
X163327438Y-68439411D02*
X163279819Y-68534649D01*
X163279819Y-68534649D02*
X163279819Y-68677506D01*
X163279819Y-68677506D02*
X163327438Y-68820363D01*
X163327438Y-68820363D02*
X163422676Y-68915601D01*
X163422676Y-68915601D02*
X163517914Y-68963220D01*
X163517914Y-68963220D02*
X163708390Y-69010839D01*
X163708390Y-69010839D02*
X163851247Y-69010839D01*
X163851247Y-69010839D02*
X164041723Y-68963220D01*
X164041723Y-68963220D02*
X164136961Y-68915601D01*
X164136961Y-68915601D02*
X164232200Y-68820363D01*
X164232200Y-68820363D02*
X164279819Y-68677506D01*
X164279819Y-68677506D02*
X164279819Y-68582268D01*
X164279819Y-68582268D02*
X164232200Y-68439411D01*
X164232200Y-68439411D02*
X164184580Y-68391792D01*
X164184580Y-68391792D02*
X163851247Y-68391792D01*
X163851247Y-68391792D02*
X163851247Y-68582268D01*
X164232200Y-68010839D02*
X164279819Y-67867982D01*
X164279819Y-67867982D02*
X164279819Y-67629887D01*
X164279819Y-67629887D02*
X164232200Y-67534649D01*
X164232200Y-67534649D02*
X164184580Y-67487030D01*
X164184580Y-67487030D02*
X164089342Y-67439411D01*
X164089342Y-67439411D02*
X163994104Y-67439411D01*
X163994104Y-67439411D02*
X163898866Y-67487030D01*
X163898866Y-67487030D02*
X163851247Y-67534649D01*
X163851247Y-67534649D02*
X163803628Y-67629887D01*
X163803628Y-67629887D02*
X163756009Y-67820363D01*
X163756009Y-67820363D02*
X163708390Y-67915601D01*
X163708390Y-67915601D02*
X163660771Y-67963220D01*
X163660771Y-67963220D02*
X163565533Y-68010839D01*
X163565533Y-68010839D02*
X163470295Y-68010839D01*
X163470295Y-68010839D02*
X163375057Y-67963220D01*
X163375057Y-67963220D02*
X163327438Y-67915601D01*
X163327438Y-67915601D02*
X163279819Y-67820363D01*
X163279819Y-67820363D02*
X163279819Y-67582268D01*
X163279819Y-67582268D02*
X163327438Y-67439411D01*
X164279819Y-67010839D02*
X163279819Y-67010839D01*
X163279819Y-67010839D02*
X163994104Y-66677506D01*
X163994104Y-66677506D02*
X163279819Y-66344173D01*
X163279819Y-66344173D02*
X164279819Y-66344173D01*
X152713922Y-53909819D02*
X153047255Y-54909819D01*
X153047255Y-54909819D02*
X153380588Y-53909819D01*
X154285350Y-54814580D02*
X154237731Y-54862200D01*
X154237731Y-54862200D02*
X154094874Y-54909819D01*
X154094874Y-54909819D02*
X153999636Y-54909819D01*
X153999636Y-54909819D02*
X153856779Y-54862200D01*
X153856779Y-54862200D02*
X153761541Y-54766961D01*
X153761541Y-54766961D02*
X153713922Y-54671723D01*
X153713922Y-54671723D02*
X153666303Y-54481247D01*
X153666303Y-54481247D02*
X153666303Y-54338390D01*
X153666303Y-54338390D02*
X153713922Y-54147914D01*
X153713922Y-54147914D02*
X153761541Y-54052676D01*
X153761541Y-54052676D02*
X153856779Y-53957438D01*
X153856779Y-53957438D02*
X153999636Y-53909819D01*
X153999636Y-53909819D02*
X154094874Y-53909819D01*
X154094874Y-53909819D02*
X154237731Y-53957438D01*
X154237731Y-53957438D02*
X154285350Y-54005057D01*
X155285350Y-54814580D02*
X155237731Y-54862200D01*
X155237731Y-54862200D02*
X155094874Y-54909819D01*
X155094874Y-54909819D02*
X154999636Y-54909819D01*
X154999636Y-54909819D02*
X154856779Y-54862200D01*
X154856779Y-54862200D02*
X154761541Y-54766961D01*
X154761541Y-54766961D02*
X154713922Y-54671723D01*
X154713922Y-54671723D02*
X154666303Y-54481247D01*
X154666303Y-54481247D02*
X154666303Y-54338390D01*
X154666303Y-54338390D02*
X154713922Y-54147914D01*
X154713922Y-54147914D02*
X154761541Y-54052676D01*
X154761541Y-54052676D02*
X154856779Y-53957438D01*
X154856779Y-53957438D02*
X154999636Y-53909819D01*
X154999636Y-53909819D02*
X155094874Y-53909819D01*
X155094874Y-53909819D02*
X155237731Y-53957438D01*
X155237731Y-53957438D02*
X155285350Y-54005057D01*
X152716779Y-59506009D02*
X153050112Y-59506009D01*
X153192969Y-60029819D02*
X152716779Y-60029819D01*
X152716779Y-60029819D02*
X152716779Y-59029819D01*
X152716779Y-59029819D02*
X153192969Y-59029819D01*
X154192969Y-59934580D02*
X154145350Y-59982200D01*
X154145350Y-59982200D02*
X154002493Y-60029819D01*
X154002493Y-60029819D02*
X153907255Y-60029819D01*
X153907255Y-60029819D02*
X153764398Y-59982200D01*
X153764398Y-59982200D02*
X153669160Y-59886961D01*
X153669160Y-59886961D02*
X153621541Y-59791723D01*
X153621541Y-59791723D02*
X153573922Y-59601247D01*
X153573922Y-59601247D02*
X153573922Y-59458390D01*
X153573922Y-59458390D02*
X153621541Y-59267914D01*
X153621541Y-59267914D02*
X153669160Y-59172676D01*
X153669160Y-59172676D02*
X153764398Y-59077438D01*
X153764398Y-59077438D02*
X153907255Y-59029819D01*
X153907255Y-59029819D02*
X154002493Y-59029819D01*
X154002493Y-59029819D02*
X154145350Y-59077438D01*
X154145350Y-59077438D02*
X154192969Y-59125057D01*
X154621541Y-60029819D02*
X154621541Y-59029819D01*
X154621541Y-59506009D02*
X155192969Y-59506009D01*
X155192969Y-60029819D02*
X155192969Y-59029819D01*
X155859636Y-59029819D02*
X156050112Y-59029819D01*
X156050112Y-59029819D02*
X156145350Y-59077438D01*
X156145350Y-59077438D02*
X156240588Y-59172676D01*
X156240588Y-59172676D02*
X156288207Y-59363152D01*
X156288207Y-59363152D02*
X156288207Y-59696485D01*
X156288207Y-59696485D02*
X156240588Y-59886961D01*
X156240588Y-59886961D02*
X156145350Y-59982200D01*
X156145350Y-59982200D02*
X156050112Y-60029819D01*
X156050112Y-60029819D02*
X155859636Y-60029819D01*
X155859636Y-60029819D02*
X155764398Y-59982200D01*
X155764398Y-59982200D02*
X155669160Y-59886961D01*
X155669160Y-59886961D02*
X155621541Y-59696485D01*
X155621541Y-59696485D02*
X155621541Y-59363152D01*
X155621541Y-59363152D02*
X155669160Y-59172676D01*
X155669160Y-59172676D02*
X155764398Y-59077438D01*
X155764398Y-59077438D02*
X155859636Y-59029819D01*
X77170588Y-121007438D02*
X77075350Y-120959819D01*
X77075350Y-120959819D02*
X76932493Y-120959819D01*
X76932493Y-120959819D02*
X76789636Y-121007438D01*
X76789636Y-121007438D02*
X76694398Y-121102676D01*
X76694398Y-121102676D02*
X76646779Y-121197914D01*
X76646779Y-121197914D02*
X76599160Y-121388390D01*
X76599160Y-121388390D02*
X76599160Y-121531247D01*
X76599160Y-121531247D02*
X76646779Y-121721723D01*
X76646779Y-121721723D02*
X76694398Y-121816961D01*
X76694398Y-121816961D02*
X76789636Y-121912200D01*
X76789636Y-121912200D02*
X76932493Y-121959819D01*
X76932493Y-121959819D02*
X77027731Y-121959819D01*
X77027731Y-121959819D02*
X77170588Y-121912200D01*
X77170588Y-121912200D02*
X77218207Y-121864580D01*
X77218207Y-121864580D02*
X77218207Y-121531247D01*
X77218207Y-121531247D02*
X77027731Y-121531247D01*
X77646779Y-121959819D02*
X77646779Y-120959819D01*
X77646779Y-120959819D02*
X78218207Y-121959819D01*
X78218207Y-121959819D02*
X78218207Y-120959819D01*
X78694398Y-121959819D02*
X78694398Y-120959819D01*
X78694398Y-120959819D02*
X78932493Y-120959819D01*
X78932493Y-120959819D02*
X79075350Y-121007438D01*
X79075350Y-121007438D02*
X79170588Y-121102676D01*
X79170588Y-121102676D02*
X79218207Y-121197914D01*
X79218207Y-121197914D02*
X79265826Y-121388390D01*
X79265826Y-121388390D02*
X79265826Y-121531247D01*
X79265826Y-121531247D02*
X79218207Y-121721723D01*
X79218207Y-121721723D02*
X79170588Y-121816961D01*
X79170588Y-121816961D02*
X79075350Y-121912200D01*
X79075350Y-121912200D02*
X78932493Y-121959819D01*
X78932493Y-121959819D02*
X78694398Y-121959819D01*
X63231541Y-120839819D02*
X63850588Y-120839819D01*
X63850588Y-120839819D02*
X63517255Y-121220771D01*
X63517255Y-121220771D02*
X63660112Y-121220771D01*
X63660112Y-121220771D02*
X63755350Y-121268390D01*
X63755350Y-121268390D02*
X63802969Y-121316009D01*
X63802969Y-121316009D02*
X63850588Y-121411247D01*
X63850588Y-121411247D02*
X63850588Y-121649342D01*
X63850588Y-121649342D02*
X63802969Y-121744580D01*
X63802969Y-121744580D02*
X63755350Y-121792200D01*
X63755350Y-121792200D02*
X63660112Y-121839819D01*
X63660112Y-121839819D02*
X63374398Y-121839819D01*
X63374398Y-121839819D02*
X63279160Y-121792200D01*
X63279160Y-121792200D02*
X63231541Y-121744580D01*
X64183922Y-121173152D02*
X64422017Y-121839819D01*
X64422017Y-121839819D02*
X64660112Y-121173152D01*
X64945827Y-120839819D02*
X65564874Y-120839819D01*
X65564874Y-120839819D02*
X65231541Y-121220771D01*
X65231541Y-121220771D02*
X65374398Y-121220771D01*
X65374398Y-121220771D02*
X65469636Y-121268390D01*
X65469636Y-121268390D02*
X65517255Y-121316009D01*
X65517255Y-121316009D02*
X65564874Y-121411247D01*
X65564874Y-121411247D02*
X65564874Y-121649342D01*
X65564874Y-121649342D02*
X65517255Y-121744580D01*
X65517255Y-121744580D02*
X65469636Y-121792200D01*
X65469636Y-121792200D02*
X65374398Y-121839819D01*
X65374398Y-121839819D02*
X65088684Y-121839819D01*
X65088684Y-121839819D02*
X64993446Y-121792200D01*
X64993446Y-121792200D02*
X64945827Y-121744580D01*
X52686009Y-101691887D02*
X52733628Y-101549030D01*
X52733628Y-101549030D02*
X52781247Y-101501411D01*
X52781247Y-101501411D02*
X52876485Y-101453792D01*
X52876485Y-101453792D02*
X53019342Y-101453792D01*
X53019342Y-101453792D02*
X53114580Y-101501411D01*
X53114580Y-101501411D02*
X53162200Y-101549030D01*
X53162200Y-101549030D02*
X53209819Y-101644268D01*
X53209819Y-101644268D02*
X53209819Y-102025220D01*
X53209819Y-102025220D02*
X52209819Y-102025220D01*
X52209819Y-102025220D02*
X52209819Y-101691887D01*
X52209819Y-101691887D02*
X52257438Y-101596649D01*
X52257438Y-101596649D02*
X52305057Y-101549030D01*
X52305057Y-101549030D02*
X52400295Y-101501411D01*
X52400295Y-101501411D02*
X52495533Y-101501411D01*
X52495533Y-101501411D02*
X52590771Y-101549030D01*
X52590771Y-101549030D02*
X52638390Y-101596649D01*
X52638390Y-101596649D02*
X52686009Y-101691887D01*
X52686009Y-101691887D02*
X52686009Y-102025220D01*
X52209819Y-100834744D02*
X52209819Y-100644268D01*
X52209819Y-100644268D02*
X52257438Y-100549030D01*
X52257438Y-100549030D02*
X52352676Y-100453792D01*
X52352676Y-100453792D02*
X52543152Y-100406173D01*
X52543152Y-100406173D02*
X52876485Y-100406173D01*
X52876485Y-100406173D02*
X53066961Y-100453792D01*
X53066961Y-100453792D02*
X53162200Y-100549030D01*
X53162200Y-100549030D02*
X53209819Y-100644268D01*
X53209819Y-100644268D02*
X53209819Y-100834744D01*
X53209819Y-100834744D02*
X53162200Y-100929982D01*
X53162200Y-100929982D02*
X53066961Y-101025220D01*
X53066961Y-101025220D02*
X52876485Y-101072839D01*
X52876485Y-101072839D02*
X52543152Y-101072839D01*
X52543152Y-101072839D02*
X52352676Y-101025220D01*
X52352676Y-101025220D02*
X52257438Y-100929982D01*
X52257438Y-100929982D02*
X52209819Y-100834744D01*
X52209819Y-99787125D02*
X52209819Y-99596649D01*
X52209819Y-99596649D02*
X52257438Y-99501411D01*
X52257438Y-99501411D02*
X52352676Y-99406173D01*
X52352676Y-99406173D02*
X52543152Y-99358554D01*
X52543152Y-99358554D02*
X52876485Y-99358554D01*
X52876485Y-99358554D02*
X53066961Y-99406173D01*
X53066961Y-99406173D02*
X53162200Y-99501411D01*
X53162200Y-99501411D02*
X53209819Y-99596649D01*
X53209819Y-99596649D02*
X53209819Y-99787125D01*
X53209819Y-99787125D02*
X53162200Y-99882363D01*
X53162200Y-99882363D02*
X53066961Y-99977601D01*
X53066961Y-99977601D02*
X52876485Y-100025220D01*
X52876485Y-100025220D02*
X52543152Y-100025220D01*
X52543152Y-100025220D02*
X52352676Y-99977601D01*
X52352676Y-99977601D02*
X52257438Y-99882363D01*
X52257438Y-99882363D02*
X52209819Y-99787125D01*
X52209819Y-99072839D02*
X52209819Y-98501411D01*
X53209819Y-98787125D02*
X52209819Y-98787125D01*
X63862009Y-105501887D02*
X63909628Y-105359030D01*
X63909628Y-105359030D02*
X63957247Y-105311411D01*
X63957247Y-105311411D02*
X64052485Y-105263792D01*
X64052485Y-105263792D02*
X64195342Y-105263792D01*
X64195342Y-105263792D02*
X64290580Y-105311411D01*
X64290580Y-105311411D02*
X64338200Y-105359030D01*
X64338200Y-105359030D02*
X64385819Y-105454268D01*
X64385819Y-105454268D02*
X64385819Y-105835220D01*
X64385819Y-105835220D02*
X63385819Y-105835220D01*
X63385819Y-105835220D02*
X63385819Y-105501887D01*
X63385819Y-105501887D02*
X63433438Y-105406649D01*
X63433438Y-105406649D02*
X63481057Y-105359030D01*
X63481057Y-105359030D02*
X63576295Y-105311411D01*
X63576295Y-105311411D02*
X63671533Y-105311411D01*
X63671533Y-105311411D02*
X63766771Y-105359030D01*
X63766771Y-105359030D02*
X63814390Y-105406649D01*
X63814390Y-105406649D02*
X63862009Y-105501887D01*
X63862009Y-105501887D02*
X63862009Y-105835220D01*
X63385819Y-104835220D02*
X64195342Y-104835220D01*
X64195342Y-104835220D02*
X64290580Y-104787601D01*
X64290580Y-104787601D02*
X64338200Y-104739982D01*
X64338200Y-104739982D02*
X64385819Y-104644744D01*
X64385819Y-104644744D02*
X64385819Y-104454268D01*
X64385819Y-104454268D02*
X64338200Y-104359030D01*
X64338200Y-104359030D02*
X64290580Y-104311411D01*
X64290580Y-104311411D02*
X64195342Y-104263792D01*
X64195342Y-104263792D02*
X63385819Y-104263792D01*
X63385819Y-103882839D02*
X63385819Y-103216173D01*
X63385819Y-103216173D02*
X64385819Y-103882839D01*
X64385819Y-103882839D02*
X64385819Y-103216173D01*
X63385819Y-102930458D02*
X63385819Y-102263792D01*
X63385819Y-102263792D02*
X64385819Y-102930458D01*
X64385819Y-102930458D02*
X64385819Y-102263792D01*
X63862009Y-101882839D02*
X63862009Y-101549506D01*
X64385819Y-101406649D02*
X64385819Y-101882839D01*
X64385819Y-101882839D02*
X63385819Y-101882839D01*
X63385819Y-101882839D02*
X63385819Y-101406649D01*
X64385819Y-100406649D02*
X63909628Y-100739982D01*
X64385819Y-100978077D02*
X63385819Y-100978077D01*
X63385819Y-100978077D02*
X63385819Y-100597125D01*
X63385819Y-100597125D02*
X63433438Y-100501887D01*
X63433438Y-100501887D02*
X63481057Y-100454268D01*
X63481057Y-100454268D02*
X63576295Y-100406649D01*
X63576295Y-100406649D02*
X63719152Y-100406649D01*
X63719152Y-100406649D02*
X63814390Y-100454268D01*
X63814390Y-100454268D02*
X63862009Y-100501887D01*
X63862009Y-100501887D02*
X63909628Y-100597125D01*
X63909628Y-100597125D02*
X63909628Y-100978077D01*
X130499160Y-121774104D02*
X130975350Y-121774104D01*
X130403922Y-122059819D02*
X130737255Y-121059819D01*
X130737255Y-121059819D02*
X131070588Y-122059819D01*
X131451541Y-122059819D02*
X131642017Y-122059819D01*
X131642017Y-122059819D02*
X131737255Y-122012200D01*
X131737255Y-122012200D02*
X131784874Y-121964580D01*
X131784874Y-121964580D02*
X131880112Y-121821723D01*
X131880112Y-121821723D02*
X131927731Y-121631247D01*
X131927731Y-121631247D02*
X131927731Y-121250295D01*
X131927731Y-121250295D02*
X131880112Y-121155057D01*
X131880112Y-121155057D02*
X131832493Y-121107438D01*
X131832493Y-121107438D02*
X131737255Y-121059819D01*
X131737255Y-121059819D02*
X131546779Y-121059819D01*
X131546779Y-121059819D02*
X131451541Y-121107438D01*
X131451541Y-121107438D02*
X131403922Y-121155057D01*
X131403922Y-121155057D02*
X131356303Y-121250295D01*
X131356303Y-121250295D02*
X131356303Y-121488390D01*
X131356303Y-121488390D02*
X131403922Y-121583628D01*
X131403922Y-121583628D02*
X131451541Y-121631247D01*
X131451541Y-121631247D02*
X131546779Y-121678866D01*
X131546779Y-121678866D02*
X131737255Y-121678866D01*
X131737255Y-121678866D02*
X131832493Y-121631247D01*
X131832493Y-121631247D02*
X131880112Y-121583628D01*
X131880112Y-121583628D02*
X131927731Y-121488390D01*
X132880112Y-121107438D02*
X132784874Y-121059819D01*
X132784874Y-121059819D02*
X132642017Y-121059819D01*
X132642017Y-121059819D02*
X132499160Y-121107438D01*
X132499160Y-121107438D02*
X132403922Y-121202676D01*
X132403922Y-121202676D02*
X132356303Y-121297914D01*
X132356303Y-121297914D02*
X132308684Y-121488390D01*
X132308684Y-121488390D02*
X132308684Y-121631247D01*
X132308684Y-121631247D02*
X132356303Y-121821723D01*
X132356303Y-121821723D02*
X132403922Y-121916961D01*
X132403922Y-121916961D02*
X132499160Y-122012200D01*
X132499160Y-122012200D02*
X132642017Y-122059819D01*
X132642017Y-122059819D02*
X132737255Y-122059819D01*
X132737255Y-122059819D02*
X132880112Y-122012200D01*
X132880112Y-122012200D02*
X132927731Y-121964580D01*
X132927731Y-121964580D02*
X132927731Y-121631247D01*
X132927731Y-121631247D02*
X132737255Y-121631247D01*
X133356303Y-121678866D02*
X134118208Y-121678866D01*
X135165826Y-122059819D02*
X134832493Y-121583628D01*
X134594398Y-122059819D02*
X134594398Y-121059819D01*
X134594398Y-121059819D02*
X134975350Y-121059819D01*
X134975350Y-121059819D02*
X135070588Y-121107438D01*
X135070588Y-121107438D02*
X135118207Y-121155057D01*
X135118207Y-121155057D02*
X135165826Y-121250295D01*
X135165826Y-121250295D02*
X135165826Y-121393152D01*
X135165826Y-121393152D02*
X135118207Y-121488390D01*
X135118207Y-121488390D02*
X135070588Y-121536009D01*
X135070588Y-121536009D02*
X134975350Y-121583628D01*
X134975350Y-121583628D02*
X134594398Y-121583628D01*
X135546779Y-122012200D02*
X135689636Y-122059819D01*
X135689636Y-122059819D02*
X135927731Y-122059819D01*
X135927731Y-122059819D02*
X136022969Y-122012200D01*
X136022969Y-122012200D02*
X136070588Y-121964580D01*
X136070588Y-121964580D02*
X136118207Y-121869342D01*
X136118207Y-121869342D02*
X136118207Y-121774104D01*
X136118207Y-121774104D02*
X136070588Y-121678866D01*
X136070588Y-121678866D02*
X136022969Y-121631247D01*
X136022969Y-121631247D02*
X135927731Y-121583628D01*
X135927731Y-121583628D02*
X135737255Y-121536009D01*
X135737255Y-121536009D02*
X135642017Y-121488390D01*
X135642017Y-121488390D02*
X135594398Y-121440771D01*
X135594398Y-121440771D02*
X135546779Y-121345533D01*
X135546779Y-121345533D02*
X135546779Y-121250295D01*
X135546779Y-121250295D02*
X135594398Y-121155057D01*
X135594398Y-121155057D02*
X135642017Y-121107438D01*
X135642017Y-121107438D02*
X135737255Y-121059819D01*
X135737255Y-121059819D02*
X135975350Y-121059819D01*
X135975350Y-121059819D02*
X136118207Y-121107438D01*
X136403922Y-121059819D02*
X136975350Y-121059819D01*
X136689636Y-122059819D02*
X136689636Y-121059819D01*
X52955819Y-73513792D02*
X52479628Y-73847125D01*
X52955819Y-74085220D02*
X51955819Y-74085220D01*
X51955819Y-74085220D02*
X51955819Y-73704268D01*
X51955819Y-73704268D02*
X52003438Y-73609030D01*
X52003438Y-73609030D02*
X52051057Y-73561411D01*
X52051057Y-73561411D02*
X52146295Y-73513792D01*
X52146295Y-73513792D02*
X52289152Y-73513792D01*
X52289152Y-73513792D02*
X52384390Y-73561411D01*
X52384390Y-73561411D02*
X52432009Y-73609030D01*
X52432009Y-73609030D02*
X52479628Y-73704268D01*
X52479628Y-73704268D02*
X52479628Y-74085220D01*
X52432009Y-73085220D02*
X52432009Y-72751887D01*
X52955819Y-72609030D02*
X52955819Y-73085220D01*
X52955819Y-73085220D02*
X51955819Y-73085220D01*
X51955819Y-73085220D02*
X51955819Y-72609030D01*
X52908200Y-72228077D02*
X52955819Y-72085220D01*
X52955819Y-72085220D02*
X52955819Y-71847125D01*
X52955819Y-71847125D02*
X52908200Y-71751887D01*
X52908200Y-71751887D02*
X52860580Y-71704268D01*
X52860580Y-71704268D02*
X52765342Y-71656649D01*
X52765342Y-71656649D02*
X52670104Y-71656649D01*
X52670104Y-71656649D02*
X52574866Y-71704268D01*
X52574866Y-71704268D02*
X52527247Y-71751887D01*
X52527247Y-71751887D02*
X52479628Y-71847125D01*
X52479628Y-71847125D02*
X52432009Y-72037601D01*
X52432009Y-72037601D02*
X52384390Y-72132839D01*
X52384390Y-72132839D02*
X52336771Y-72180458D01*
X52336771Y-72180458D02*
X52241533Y-72228077D01*
X52241533Y-72228077D02*
X52146295Y-72228077D01*
X52146295Y-72228077D02*
X52051057Y-72180458D01*
X52051057Y-72180458D02*
X52003438Y-72132839D01*
X52003438Y-72132839D02*
X51955819Y-72037601D01*
X51955819Y-72037601D02*
X51955819Y-71799506D01*
X51955819Y-71799506D02*
X52003438Y-71656649D01*
X52432009Y-71228077D02*
X52432009Y-70894744D01*
X52955819Y-70751887D02*
X52955819Y-71228077D01*
X52955819Y-71228077D02*
X51955819Y-71228077D01*
X51955819Y-71228077D02*
X51955819Y-70751887D01*
X51955819Y-70466172D02*
X51955819Y-69894744D01*
X52955819Y-70180458D02*
X51955819Y-70180458D01*
X61894819Y-119459333D02*
X62609104Y-119459333D01*
X62609104Y-119459333D02*
X62751961Y-119506952D01*
X62751961Y-119506952D02*
X62847200Y-119602190D01*
X62847200Y-119602190D02*
X62894819Y-119745047D01*
X62894819Y-119745047D02*
X62894819Y-119840285D01*
X61894819Y-118554571D02*
X61894819Y-118745047D01*
X61894819Y-118745047D02*
X61942438Y-118840285D01*
X61942438Y-118840285D02*
X61990057Y-118887904D01*
X61990057Y-118887904D02*
X62132914Y-118983142D01*
X62132914Y-118983142D02*
X62323390Y-119030761D01*
X62323390Y-119030761D02*
X62704342Y-119030761D01*
X62704342Y-119030761D02*
X62799580Y-118983142D01*
X62799580Y-118983142D02*
X62847200Y-118935523D01*
X62847200Y-118935523D02*
X62894819Y-118840285D01*
X62894819Y-118840285D02*
X62894819Y-118649809D01*
X62894819Y-118649809D02*
X62847200Y-118554571D01*
X62847200Y-118554571D02*
X62799580Y-118506952D01*
X62799580Y-118506952D02*
X62704342Y-118459333D01*
X62704342Y-118459333D02*
X62466247Y-118459333D01*
X62466247Y-118459333D02*
X62371009Y-118506952D01*
X62371009Y-118506952D02*
X62323390Y-118554571D01*
X62323390Y-118554571D02*
X62275771Y-118649809D01*
X62275771Y-118649809D02*
X62275771Y-118840285D01*
X62275771Y-118840285D02*
X62323390Y-118935523D01*
X62323390Y-118935523D02*
X62371009Y-118983142D01*
X62371009Y-118983142D02*
X62466247Y-119030761D01*
X60243180Y-86168666D02*
X59528895Y-86168666D01*
X59528895Y-86168666D02*
X59386038Y-86121047D01*
X59386038Y-86121047D02*
X59290800Y-86025809D01*
X59290800Y-86025809D02*
X59243180Y-85882952D01*
X59243180Y-85882952D02*
X59243180Y-85787714D01*
X59243180Y-87168666D02*
X59243180Y-86597238D01*
X59243180Y-86882952D02*
X60243180Y-86882952D01*
X60243180Y-86882952D02*
X60100323Y-86787714D01*
X60100323Y-86787714D02*
X60005085Y-86692476D01*
X60005085Y-86692476D02*
X59957466Y-86597238D01*
X158496667Y-105387200D02*
X158639524Y-105434819D01*
X158639524Y-105434819D02*
X158877619Y-105434819D01*
X158877619Y-105434819D02*
X158972857Y-105387200D01*
X158972857Y-105387200D02*
X159020476Y-105339580D01*
X159020476Y-105339580D02*
X159068095Y-105244342D01*
X159068095Y-105244342D02*
X159068095Y-105149104D01*
X159068095Y-105149104D02*
X159020476Y-105053866D01*
X159020476Y-105053866D02*
X158972857Y-105006247D01*
X158972857Y-105006247D02*
X158877619Y-104958628D01*
X158877619Y-104958628D02*
X158687143Y-104911009D01*
X158687143Y-104911009D02*
X158591905Y-104863390D01*
X158591905Y-104863390D02*
X158544286Y-104815771D01*
X158544286Y-104815771D02*
X158496667Y-104720533D01*
X158496667Y-104720533D02*
X158496667Y-104625295D01*
X158496667Y-104625295D02*
X158544286Y-104530057D01*
X158544286Y-104530057D02*
X158591905Y-104482438D01*
X158591905Y-104482438D02*
X158687143Y-104434819D01*
X158687143Y-104434819D02*
X158925238Y-104434819D01*
X158925238Y-104434819D02*
X159068095Y-104482438D01*
X159401429Y-104434819D02*
X159639524Y-105434819D01*
X159639524Y-105434819D02*
X159830000Y-104720533D01*
X159830000Y-104720533D02*
X160020476Y-105434819D01*
X160020476Y-105434819D02*
X160258572Y-104434819D01*
X161068095Y-104768152D02*
X161068095Y-105434819D01*
X160830000Y-104387200D02*
X160591905Y-105101485D01*
X160591905Y-105101485D02*
X161210952Y-105101485D01*
X157308100Y-108954819D02*
X157308100Y-109192914D01*
X157070005Y-109097676D02*
X157308100Y-109192914D01*
X157308100Y-109192914D02*
X157546195Y-109097676D01*
X157165243Y-109383390D02*
X157308100Y-109192914D01*
X157308100Y-109192914D02*
X157450957Y-109383390D01*
X157308100Y-108954819D02*
X157308100Y-109192914D01*
X157070005Y-109097676D02*
X157308100Y-109192914D01*
X157308100Y-109192914D02*
X157546195Y-109097676D01*
X157165243Y-109383390D02*
X157308100Y-109192914D01*
X157308100Y-109192914D02*
X157450957Y-109383390D01*
X152837200Y-50323332D02*
X152884819Y-50180475D01*
X152884819Y-50180475D02*
X152884819Y-49942380D01*
X152884819Y-49942380D02*
X152837200Y-49847142D01*
X152837200Y-49847142D02*
X152789580Y-49799523D01*
X152789580Y-49799523D02*
X152694342Y-49751904D01*
X152694342Y-49751904D02*
X152599104Y-49751904D01*
X152599104Y-49751904D02*
X152503866Y-49799523D01*
X152503866Y-49799523D02*
X152456247Y-49847142D01*
X152456247Y-49847142D02*
X152408628Y-49942380D01*
X152408628Y-49942380D02*
X152361009Y-50132856D01*
X152361009Y-50132856D02*
X152313390Y-50228094D01*
X152313390Y-50228094D02*
X152265771Y-50275713D01*
X152265771Y-50275713D02*
X152170533Y-50323332D01*
X152170533Y-50323332D02*
X152075295Y-50323332D01*
X152075295Y-50323332D02*
X151980057Y-50275713D01*
X151980057Y-50275713D02*
X151932438Y-50228094D01*
X151932438Y-50228094D02*
X151884819Y-50132856D01*
X151884819Y-50132856D02*
X151884819Y-49894761D01*
X151884819Y-49894761D02*
X151932438Y-49751904D01*
X151884819Y-49418570D02*
X152884819Y-49180475D01*
X152884819Y-49180475D02*
X152170533Y-48989999D01*
X152170533Y-48989999D02*
X152884819Y-48799523D01*
X152884819Y-48799523D02*
X151884819Y-48561428D01*
X151884819Y-48275713D02*
X151884819Y-47656666D01*
X151884819Y-47656666D02*
X152265771Y-47989999D01*
X152265771Y-47989999D02*
X152265771Y-47847142D01*
X152265771Y-47847142D02*
X152313390Y-47751904D01*
X152313390Y-47751904D02*
X152361009Y-47704285D01*
X152361009Y-47704285D02*
X152456247Y-47656666D01*
X152456247Y-47656666D02*
X152694342Y-47656666D01*
X152694342Y-47656666D02*
X152789580Y-47704285D01*
X152789580Y-47704285D02*
X152837200Y-47751904D01*
X152837200Y-47751904D02*
X152884819Y-47847142D01*
X152884819Y-47847142D02*
X152884819Y-48132856D01*
X152884819Y-48132856D02*
X152837200Y-48228094D01*
X152837200Y-48228094D02*
X152789580Y-48275713D01*
X142454819Y-51371899D02*
X142692914Y-51371899D01*
X142597676Y-51609994D02*
X142692914Y-51371899D01*
X142692914Y-51371899D02*
X142597676Y-51133804D01*
X142883390Y-51514756D02*
X142692914Y-51371899D01*
X142692914Y-51371899D02*
X142883390Y-51229042D01*
X142454819Y-51371899D02*
X142692914Y-51371899D01*
X142597676Y-51609994D02*
X142692914Y-51371899D01*
X142692914Y-51371899D02*
X142597676Y-51133804D01*
X142883390Y-51514756D02*
X142692914Y-51371899D01*
X142692914Y-51371899D02*
X142883390Y-51229042D01*
X58127142Y-76291580D02*
X58079523Y-76339200D01*
X58079523Y-76339200D02*
X57936666Y-76386819D01*
X57936666Y-76386819D02*
X57841428Y-76386819D01*
X57841428Y-76386819D02*
X57698571Y-76339200D01*
X57698571Y-76339200D02*
X57603333Y-76243961D01*
X57603333Y-76243961D02*
X57555714Y-76148723D01*
X57555714Y-76148723D02*
X57508095Y-75958247D01*
X57508095Y-75958247D02*
X57508095Y-75815390D01*
X57508095Y-75815390D02*
X57555714Y-75624914D01*
X57555714Y-75624914D02*
X57603333Y-75529676D01*
X57603333Y-75529676D02*
X57698571Y-75434438D01*
X57698571Y-75434438D02*
X57841428Y-75386819D01*
X57841428Y-75386819D02*
X57936666Y-75386819D01*
X57936666Y-75386819D02*
X58079523Y-75434438D01*
X58079523Y-75434438D02*
X58127142Y-75482057D01*
X59079523Y-76386819D02*
X58508095Y-76386819D01*
X58793809Y-76386819D02*
X58793809Y-75386819D01*
X58793809Y-75386819D02*
X58698571Y-75529676D01*
X58698571Y-75529676D02*
X58603333Y-75624914D01*
X58603333Y-75624914D02*
X58508095Y-75672533D01*
X59460476Y-75482057D02*
X59508095Y-75434438D01*
X59508095Y-75434438D02*
X59603333Y-75386819D01*
X59603333Y-75386819D02*
X59841428Y-75386819D01*
X59841428Y-75386819D02*
X59936666Y-75434438D01*
X59936666Y-75434438D02*
X59984285Y-75482057D01*
X59984285Y-75482057D02*
X60031904Y-75577295D01*
X60031904Y-75577295D02*
X60031904Y-75672533D01*
X60031904Y-75672533D02*
X59984285Y-75815390D01*
X59984285Y-75815390D02*
X59412857Y-76386819D01*
X59412857Y-76386819D02*
X60031904Y-76386819D01*
X155821905Y-93942819D02*
X155821905Y-92942819D01*
X155821905Y-92942819D02*
X156060000Y-92942819D01*
X156060000Y-92942819D02*
X156202857Y-92990438D01*
X156202857Y-92990438D02*
X156298095Y-93085676D01*
X156298095Y-93085676D02*
X156345714Y-93180914D01*
X156345714Y-93180914D02*
X156393333Y-93371390D01*
X156393333Y-93371390D02*
X156393333Y-93514247D01*
X156393333Y-93514247D02*
X156345714Y-93704723D01*
X156345714Y-93704723D02*
X156298095Y-93799961D01*
X156298095Y-93799961D02*
X156202857Y-93895200D01*
X156202857Y-93895200D02*
X156060000Y-93942819D01*
X156060000Y-93942819D02*
X155821905Y-93942819D01*
X157250476Y-93276152D02*
X157250476Y-93942819D01*
X157012381Y-92895200D02*
X156774286Y-93609485D01*
X156774286Y-93609485D02*
X157393333Y-93609485D01*
X124505580Y-77238857D02*
X124553200Y-77286476D01*
X124553200Y-77286476D02*
X124600819Y-77429333D01*
X124600819Y-77429333D02*
X124600819Y-77524571D01*
X124600819Y-77524571D02*
X124553200Y-77667428D01*
X124553200Y-77667428D02*
X124457961Y-77762666D01*
X124457961Y-77762666D02*
X124362723Y-77810285D01*
X124362723Y-77810285D02*
X124172247Y-77857904D01*
X124172247Y-77857904D02*
X124029390Y-77857904D01*
X124029390Y-77857904D02*
X123838914Y-77810285D01*
X123838914Y-77810285D02*
X123743676Y-77762666D01*
X123743676Y-77762666D02*
X123648438Y-77667428D01*
X123648438Y-77667428D02*
X123600819Y-77524571D01*
X123600819Y-77524571D02*
X123600819Y-77429333D01*
X123600819Y-77429333D02*
X123648438Y-77286476D01*
X123648438Y-77286476D02*
X123696057Y-77238857D01*
X124600819Y-76286476D02*
X124600819Y-76857904D01*
X124600819Y-76572190D02*
X123600819Y-76572190D01*
X123600819Y-76572190D02*
X123743676Y-76667428D01*
X123743676Y-76667428D02*
X123838914Y-76762666D01*
X123838914Y-76762666D02*
X123886533Y-76857904D01*
X124029390Y-75715047D02*
X123981771Y-75810285D01*
X123981771Y-75810285D02*
X123934152Y-75857904D01*
X123934152Y-75857904D02*
X123838914Y-75905523D01*
X123838914Y-75905523D02*
X123791295Y-75905523D01*
X123791295Y-75905523D02*
X123696057Y-75857904D01*
X123696057Y-75857904D02*
X123648438Y-75810285D01*
X123648438Y-75810285D02*
X123600819Y-75715047D01*
X123600819Y-75715047D02*
X123600819Y-75524571D01*
X123600819Y-75524571D02*
X123648438Y-75429333D01*
X123648438Y-75429333D02*
X123696057Y-75381714D01*
X123696057Y-75381714D02*
X123791295Y-75334095D01*
X123791295Y-75334095D02*
X123838914Y-75334095D01*
X123838914Y-75334095D02*
X123934152Y-75381714D01*
X123934152Y-75381714D02*
X123981771Y-75429333D01*
X123981771Y-75429333D02*
X124029390Y-75524571D01*
X124029390Y-75524571D02*
X124029390Y-75715047D01*
X124029390Y-75715047D02*
X124077009Y-75810285D01*
X124077009Y-75810285D02*
X124124628Y-75857904D01*
X124124628Y-75857904D02*
X124219866Y-75905523D01*
X124219866Y-75905523D02*
X124410342Y-75905523D01*
X124410342Y-75905523D02*
X124505580Y-75857904D01*
X124505580Y-75857904D02*
X124553200Y-75810285D01*
X124553200Y-75810285D02*
X124600819Y-75715047D01*
X124600819Y-75715047D02*
X124600819Y-75524571D01*
X124600819Y-75524571D02*
X124553200Y-75429333D01*
X124553200Y-75429333D02*
X124505580Y-75381714D01*
X124505580Y-75381714D02*
X124410342Y-75334095D01*
X124410342Y-75334095D02*
X124219866Y-75334095D01*
X124219866Y-75334095D02*
X124124628Y-75381714D01*
X124124628Y-75381714D02*
X124077009Y-75429333D01*
X124077009Y-75429333D02*
X124029390Y-75524571D01*
X95830285Y-68977009D02*
X95973142Y-69024628D01*
X95973142Y-69024628D02*
X96020761Y-69072247D01*
X96020761Y-69072247D02*
X96068380Y-69167485D01*
X96068380Y-69167485D02*
X96068380Y-69310342D01*
X96068380Y-69310342D02*
X96020761Y-69405580D01*
X96020761Y-69405580D02*
X95973142Y-69453200D01*
X95973142Y-69453200D02*
X95877904Y-69500819D01*
X95877904Y-69500819D02*
X95496952Y-69500819D01*
X95496952Y-69500819D02*
X95496952Y-68500819D01*
X95496952Y-68500819D02*
X95830285Y-68500819D01*
X95830285Y-68500819D02*
X95925523Y-68548438D01*
X95925523Y-68548438D02*
X95973142Y-68596057D01*
X95973142Y-68596057D02*
X96020761Y-68691295D01*
X96020761Y-68691295D02*
X96020761Y-68786533D01*
X96020761Y-68786533D02*
X95973142Y-68881771D01*
X95973142Y-68881771D02*
X95925523Y-68929390D01*
X95925523Y-68929390D02*
X95830285Y-68977009D01*
X95830285Y-68977009D02*
X95496952Y-68977009D01*
X96354095Y-68500819D02*
X96925523Y-68500819D01*
X96639809Y-69500819D02*
X96639809Y-68500819D01*
X97782666Y-69500819D02*
X97211238Y-69500819D01*
X97496952Y-69500819D02*
X97496952Y-68500819D01*
X97496952Y-68500819D02*
X97401714Y-68643676D01*
X97401714Y-68643676D02*
X97306476Y-68738914D01*
X97306476Y-68738914D02*
X97211238Y-68786533D01*
X122023580Y-83334857D02*
X122071200Y-83382476D01*
X122071200Y-83382476D02*
X122118819Y-83525333D01*
X122118819Y-83525333D02*
X122118819Y-83620571D01*
X122118819Y-83620571D02*
X122071200Y-83763428D01*
X122071200Y-83763428D02*
X121975961Y-83858666D01*
X121975961Y-83858666D02*
X121880723Y-83906285D01*
X121880723Y-83906285D02*
X121690247Y-83953904D01*
X121690247Y-83953904D02*
X121547390Y-83953904D01*
X121547390Y-83953904D02*
X121356914Y-83906285D01*
X121356914Y-83906285D02*
X121261676Y-83858666D01*
X121261676Y-83858666D02*
X121166438Y-83763428D01*
X121166438Y-83763428D02*
X121118819Y-83620571D01*
X121118819Y-83620571D02*
X121118819Y-83525333D01*
X121118819Y-83525333D02*
X121166438Y-83382476D01*
X121166438Y-83382476D02*
X121214057Y-83334857D01*
X122118819Y-82382476D02*
X122118819Y-82953904D01*
X122118819Y-82668190D02*
X121118819Y-82668190D01*
X121118819Y-82668190D02*
X121261676Y-82763428D01*
X121261676Y-82763428D02*
X121356914Y-82858666D01*
X121356914Y-82858666D02*
X121404533Y-82953904D01*
X121452152Y-81525333D02*
X122118819Y-81525333D01*
X121071200Y-81763428D02*
X121785485Y-82001523D01*
X121785485Y-82001523D02*
X121785485Y-81382476D01*
X73573333Y-111722819D02*
X73240000Y-111246628D01*
X73001905Y-111722819D02*
X73001905Y-110722819D01*
X73001905Y-110722819D02*
X73382857Y-110722819D01*
X73382857Y-110722819D02*
X73478095Y-110770438D01*
X73478095Y-110770438D02*
X73525714Y-110818057D01*
X73525714Y-110818057D02*
X73573333Y-110913295D01*
X73573333Y-110913295D02*
X73573333Y-111056152D01*
X73573333Y-111056152D02*
X73525714Y-111151390D01*
X73525714Y-111151390D02*
X73478095Y-111199009D01*
X73478095Y-111199009D02*
X73382857Y-111246628D01*
X73382857Y-111246628D02*
X73001905Y-111246628D01*
X73906667Y-110722819D02*
X74573333Y-110722819D01*
X74573333Y-110722819D02*
X74144762Y-111722819D01*
X150146905Y-97356819D02*
X150146905Y-96356819D01*
X150146905Y-96356819D02*
X150385000Y-96356819D01*
X150385000Y-96356819D02*
X150527857Y-96404438D01*
X150527857Y-96404438D02*
X150623095Y-96499676D01*
X150623095Y-96499676D02*
X150670714Y-96594914D01*
X150670714Y-96594914D02*
X150718333Y-96785390D01*
X150718333Y-96785390D02*
X150718333Y-96928247D01*
X150718333Y-96928247D02*
X150670714Y-97118723D01*
X150670714Y-97118723D02*
X150623095Y-97213961D01*
X150623095Y-97213961D02*
X150527857Y-97309200D01*
X150527857Y-97309200D02*
X150385000Y-97356819D01*
X150385000Y-97356819D02*
X150146905Y-97356819D01*
X151099286Y-96452057D02*
X151146905Y-96404438D01*
X151146905Y-96404438D02*
X151242143Y-96356819D01*
X151242143Y-96356819D02*
X151480238Y-96356819D01*
X151480238Y-96356819D02*
X151575476Y-96404438D01*
X151575476Y-96404438D02*
X151623095Y-96452057D01*
X151623095Y-96452057D02*
X151670714Y-96547295D01*
X151670714Y-96547295D02*
X151670714Y-96642533D01*
X151670714Y-96642533D02*
X151623095Y-96785390D01*
X151623095Y-96785390D02*
X151051667Y-97356819D01*
X151051667Y-97356819D02*
X151670714Y-97356819D01*
X137197200Y-118723332D02*
X137244819Y-118580475D01*
X137244819Y-118580475D02*
X137244819Y-118342380D01*
X137244819Y-118342380D02*
X137197200Y-118247142D01*
X137197200Y-118247142D02*
X137149580Y-118199523D01*
X137149580Y-118199523D02*
X137054342Y-118151904D01*
X137054342Y-118151904D02*
X136959104Y-118151904D01*
X136959104Y-118151904D02*
X136863866Y-118199523D01*
X136863866Y-118199523D02*
X136816247Y-118247142D01*
X136816247Y-118247142D02*
X136768628Y-118342380D01*
X136768628Y-118342380D02*
X136721009Y-118532856D01*
X136721009Y-118532856D02*
X136673390Y-118628094D01*
X136673390Y-118628094D02*
X136625771Y-118675713D01*
X136625771Y-118675713D02*
X136530533Y-118723332D01*
X136530533Y-118723332D02*
X136435295Y-118723332D01*
X136435295Y-118723332D02*
X136340057Y-118675713D01*
X136340057Y-118675713D02*
X136292438Y-118628094D01*
X136292438Y-118628094D02*
X136244819Y-118532856D01*
X136244819Y-118532856D02*
X136244819Y-118294761D01*
X136244819Y-118294761D02*
X136292438Y-118151904D01*
X136244819Y-117818570D02*
X137244819Y-117580475D01*
X137244819Y-117580475D02*
X136530533Y-117389999D01*
X136530533Y-117389999D02*
X137244819Y-117199523D01*
X137244819Y-117199523D02*
X136244819Y-116961428D01*
X136244819Y-116104285D02*
X136244819Y-116580475D01*
X136244819Y-116580475D02*
X136721009Y-116628094D01*
X136721009Y-116628094D02*
X136673390Y-116580475D01*
X136673390Y-116580475D02*
X136625771Y-116485237D01*
X136625771Y-116485237D02*
X136625771Y-116247142D01*
X136625771Y-116247142D02*
X136673390Y-116151904D01*
X136673390Y-116151904D02*
X136721009Y-116104285D01*
X136721009Y-116104285D02*
X136816247Y-116056666D01*
X136816247Y-116056666D02*
X137054342Y-116056666D01*
X137054342Y-116056666D02*
X137149580Y-116104285D01*
X137149580Y-116104285D02*
X137197200Y-116151904D01*
X137197200Y-116151904D02*
X137244819Y-116247142D01*
X137244819Y-116247142D02*
X137244819Y-116485237D01*
X137244819Y-116485237D02*
X137197200Y-116580475D01*
X137197200Y-116580475D02*
X137149580Y-116628094D01*
X79025095Y-77897819D02*
X79025095Y-78707342D01*
X79025095Y-78707342D02*
X79072714Y-78802580D01*
X79072714Y-78802580D02*
X79120333Y-78850200D01*
X79120333Y-78850200D02*
X79215571Y-78897819D01*
X79215571Y-78897819D02*
X79406047Y-78897819D01*
X79406047Y-78897819D02*
X79501285Y-78850200D01*
X79501285Y-78850200D02*
X79548904Y-78802580D01*
X79548904Y-78802580D02*
X79596523Y-78707342D01*
X79596523Y-78707342D02*
X79596523Y-77897819D01*
X80501285Y-78231152D02*
X80501285Y-78897819D01*
X80263190Y-77850200D02*
X80025095Y-78564485D01*
X80025095Y-78564485D02*
X80644142Y-78564485D01*
X127865580Y-81789357D02*
X127913200Y-81836976D01*
X127913200Y-81836976D02*
X127960819Y-81979833D01*
X127960819Y-81979833D02*
X127960819Y-82075071D01*
X127960819Y-82075071D02*
X127913200Y-82217928D01*
X127913200Y-82217928D02*
X127817961Y-82313166D01*
X127817961Y-82313166D02*
X127722723Y-82360785D01*
X127722723Y-82360785D02*
X127532247Y-82408404D01*
X127532247Y-82408404D02*
X127389390Y-82408404D01*
X127389390Y-82408404D02*
X127198914Y-82360785D01*
X127198914Y-82360785D02*
X127103676Y-82313166D01*
X127103676Y-82313166D02*
X127008438Y-82217928D01*
X127008438Y-82217928D02*
X126960819Y-82075071D01*
X126960819Y-82075071D02*
X126960819Y-81979833D01*
X126960819Y-81979833D02*
X127008438Y-81836976D01*
X127008438Y-81836976D02*
X127056057Y-81789357D01*
X127960819Y-80836976D02*
X127960819Y-81408404D01*
X127960819Y-81122690D02*
X126960819Y-81122690D01*
X126960819Y-81122690D02*
X127103676Y-81217928D01*
X127103676Y-81217928D02*
X127198914Y-81313166D01*
X127198914Y-81313166D02*
X127246533Y-81408404D01*
X126960819Y-80503642D02*
X126960819Y-79836976D01*
X126960819Y-79836976D02*
X127960819Y-80265547D01*
X124630819Y-86128857D02*
X124154628Y-86462190D01*
X124630819Y-86700285D02*
X123630819Y-86700285D01*
X123630819Y-86700285D02*
X123630819Y-86319333D01*
X123630819Y-86319333D02*
X123678438Y-86224095D01*
X123678438Y-86224095D02*
X123726057Y-86176476D01*
X123726057Y-86176476D02*
X123821295Y-86128857D01*
X123821295Y-86128857D02*
X123964152Y-86128857D01*
X123964152Y-86128857D02*
X124059390Y-86176476D01*
X124059390Y-86176476D02*
X124107009Y-86224095D01*
X124107009Y-86224095D02*
X124154628Y-86319333D01*
X124154628Y-86319333D02*
X124154628Y-86700285D01*
X124630819Y-85176476D02*
X124630819Y-85747904D01*
X124630819Y-85462190D02*
X123630819Y-85462190D01*
X123630819Y-85462190D02*
X123773676Y-85557428D01*
X123773676Y-85557428D02*
X123868914Y-85652666D01*
X123868914Y-85652666D02*
X123916533Y-85747904D01*
X124059390Y-84605047D02*
X124011771Y-84700285D01*
X124011771Y-84700285D02*
X123964152Y-84747904D01*
X123964152Y-84747904D02*
X123868914Y-84795523D01*
X123868914Y-84795523D02*
X123821295Y-84795523D01*
X123821295Y-84795523D02*
X123726057Y-84747904D01*
X123726057Y-84747904D02*
X123678438Y-84700285D01*
X123678438Y-84700285D02*
X123630819Y-84605047D01*
X123630819Y-84605047D02*
X123630819Y-84414571D01*
X123630819Y-84414571D02*
X123678438Y-84319333D01*
X123678438Y-84319333D02*
X123726057Y-84271714D01*
X123726057Y-84271714D02*
X123821295Y-84224095D01*
X123821295Y-84224095D02*
X123868914Y-84224095D01*
X123868914Y-84224095D02*
X123964152Y-84271714D01*
X123964152Y-84271714D02*
X124011771Y-84319333D01*
X124011771Y-84319333D02*
X124059390Y-84414571D01*
X124059390Y-84414571D02*
X124059390Y-84605047D01*
X124059390Y-84605047D02*
X124107009Y-84700285D01*
X124107009Y-84700285D02*
X124154628Y-84747904D01*
X124154628Y-84747904D02*
X124249866Y-84795523D01*
X124249866Y-84795523D02*
X124440342Y-84795523D01*
X124440342Y-84795523D02*
X124535580Y-84747904D01*
X124535580Y-84747904D02*
X124583200Y-84700285D01*
X124583200Y-84700285D02*
X124630819Y-84605047D01*
X124630819Y-84605047D02*
X124630819Y-84414571D01*
X124630819Y-84414571D02*
X124583200Y-84319333D01*
X124583200Y-84319333D02*
X124535580Y-84271714D01*
X124535580Y-84271714D02*
X124440342Y-84224095D01*
X124440342Y-84224095D02*
X124249866Y-84224095D01*
X124249866Y-84224095D02*
X124154628Y-84271714D01*
X124154628Y-84271714D02*
X124107009Y-84319333D01*
X124107009Y-84319333D02*
X124059390Y-84414571D01*
X121261580Y-71650857D02*
X121309200Y-71698476D01*
X121309200Y-71698476D02*
X121356819Y-71841333D01*
X121356819Y-71841333D02*
X121356819Y-71936571D01*
X121356819Y-71936571D02*
X121309200Y-72079428D01*
X121309200Y-72079428D02*
X121213961Y-72174666D01*
X121213961Y-72174666D02*
X121118723Y-72222285D01*
X121118723Y-72222285D02*
X120928247Y-72269904D01*
X120928247Y-72269904D02*
X120785390Y-72269904D01*
X120785390Y-72269904D02*
X120594914Y-72222285D01*
X120594914Y-72222285D02*
X120499676Y-72174666D01*
X120499676Y-72174666D02*
X120404438Y-72079428D01*
X120404438Y-72079428D02*
X120356819Y-71936571D01*
X120356819Y-71936571D02*
X120356819Y-71841333D01*
X120356819Y-71841333D02*
X120404438Y-71698476D01*
X120404438Y-71698476D02*
X120452057Y-71650857D01*
X121356819Y-70698476D02*
X121356819Y-71269904D01*
X121356819Y-70984190D02*
X120356819Y-70984190D01*
X120356819Y-70984190D02*
X120499676Y-71079428D01*
X120499676Y-71079428D02*
X120594914Y-71174666D01*
X120594914Y-71174666D02*
X120642533Y-71269904D01*
X120356819Y-69793714D02*
X120356819Y-70269904D01*
X120356819Y-70269904D02*
X120833009Y-70317523D01*
X120833009Y-70317523D02*
X120785390Y-70269904D01*
X120785390Y-70269904D02*
X120737771Y-70174666D01*
X120737771Y-70174666D02*
X120737771Y-69936571D01*
X120737771Y-69936571D02*
X120785390Y-69841333D01*
X120785390Y-69841333D02*
X120833009Y-69793714D01*
X120833009Y-69793714D02*
X120928247Y-69746095D01*
X120928247Y-69746095D02*
X121166342Y-69746095D01*
X121166342Y-69746095D02*
X121261580Y-69793714D01*
X121261580Y-69793714D02*
X121309200Y-69841333D01*
X121309200Y-69841333D02*
X121356819Y-69936571D01*
X121356819Y-69936571D02*
X121356819Y-70174666D01*
X121356819Y-70174666D02*
X121309200Y-70269904D01*
X121309200Y-70269904D02*
X121261580Y-70317523D01*
X56343200Y-78691332D02*
X56390819Y-78548475D01*
X56390819Y-78548475D02*
X56390819Y-78310380D01*
X56390819Y-78310380D02*
X56343200Y-78215142D01*
X56343200Y-78215142D02*
X56295580Y-78167523D01*
X56295580Y-78167523D02*
X56200342Y-78119904D01*
X56200342Y-78119904D02*
X56105104Y-78119904D01*
X56105104Y-78119904D02*
X56009866Y-78167523D01*
X56009866Y-78167523D02*
X55962247Y-78215142D01*
X55962247Y-78215142D02*
X55914628Y-78310380D01*
X55914628Y-78310380D02*
X55867009Y-78500856D01*
X55867009Y-78500856D02*
X55819390Y-78596094D01*
X55819390Y-78596094D02*
X55771771Y-78643713D01*
X55771771Y-78643713D02*
X55676533Y-78691332D01*
X55676533Y-78691332D02*
X55581295Y-78691332D01*
X55581295Y-78691332D02*
X55486057Y-78643713D01*
X55486057Y-78643713D02*
X55438438Y-78596094D01*
X55438438Y-78596094D02*
X55390819Y-78500856D01*
X55390819Y-78500856D02*
X55390819Y-78262761D01*
X55390819Y-78262761D02*
X55438438Y-78119904D01*
X55390819Y-77786570D02*
X56390819Y-77548475D01*
X56390819Y-77548475D02*
X55676533Y-77357999D01*
X55676533Y-77357999D02*
X56390819Y-77167523D01*
X56390819Y-77167523D02*
X55390819Y-76929428D01*
X55486057Y-76596094D02*
X55438438Y-76548475D01*
X55438438Y-76548475D02*
X55390819Y-76453237D01*
X55390819Y-76453237D02*
X55390819Y-76215142D01*
X55390819Y-76215142D02*
X55438438Y-76119904D01*
X55438438Y-76119904D02*
X55486057Y-76072285D01*
X55486057Y-76072285D02*
X55581295Y-76024666D01*
X55581295Y-76024666D02*
X55676533Y-76024666D01*
X55676533Y-76024666D02*
X55819390Y-76072285D01*
X55819390Y-76072285D02*
X56390819Y-76643713D01*
X56390819Y-76643713D02*
X56390819Y-76024666D01*
X149905580Y-94235357D02*
X149953200Y-94282976D01*
X149953200Y-94282976D02*
X150000819Y-94425833D01*
X150000819Y-94425833D02*
X150000819Y-94521071D01*
X150000819Y-94521071D02*
X149953200Y-94663928D01*
X149953200Y-94663928D02*
X149857961Y-94759166D01*
X149857961Y-94759166D02*
X149762723Y-94806785D01*
X149762723Y-94806785D02*
X149572247Y-94854404D01*
X149572247Y-94854404D02*
X149429390Y-94854404D01*
X149429390Y-94854404D02*
X149238914Y-94806785D01*
X149238914Y-94806785D02*
X149143676Y-94759166D01*
X149143676Y-94759166D02*
X149048438Y-94663928D01*
X149048438Y-94663928D02*
X149000819Y-94521071D01*
X149000819Y-94521071D02*
X149000819Y-94425833D01*
X149000819Y-94425833D02*
X149048438Y-94282976D01*
X149048438Y-94282976D02*
X149096057Y-94235357D01*
X150000819Y-93282976D02*
X150000819Y-93854404D01*
X150000819Y-93568690D02*
X149000819Y-93568690D01*
X149000819Y-93568690D02*
X149143676Y-93663928D01*
X149143676Y-93663928D02*
X149238914Y-93759166D01*
X149238914Y-93759166D02*
X149286533Y-93854404D01*
X150000819Y-92330595D02*
X150000819Y-92902023D01*
X150000819Y-92616309D02*
X149000819Y-92616309D01*
X149000819Y-92616309D02*
X149143676Y-92711547D01*
X149143676Y-92711547D02*
X149238914Y-92806785D01*
X149238914Y-92806785D02*
X149286533Y-92902023D01*
X118532819Y-83334857D02*
X118056628Y-83668190D01*
X118532819Y-83906285D02*
X117532819Y-83906285D01*
X117532819Y-83906285D02*
X117532819Y-83525333D01*
X117532819Y-83525333D02*
X117580438Y-83430095D01*
X117580438Y-83430095D02*
X117628057Y-83382476D01*
X117628057Y-83382476D02*
X117723295Y-83334857D01*
X117723295Y-83334857D02*
X117866152Y-83334857D01*
X117866152Y-83334857D02*
X117961390Y-83382476D01*
X117961390Y-83382476D02*
X118009009Y-83430095D01*
X118009009Y-83430095D02*
X118056628Y-83525333D01*
X118056628Y-83525333D02*
X118056628Y-83906285D01*
X118532819Y-82382476D02*
X118532819Y-82953904D01*
X118532819Y-82668190D02*
X117532819Y-82668190D01*
X117532819Y-82668190D02*
X117675676Y-82763428D01*
X117675676Y-82763428D02*
X117770914Y-82858666D01*
X117770914Y-82858666D02*
X117818533Y-82953904D01*
X117628057Y-82001523D02*
X117580438Y-81953904D01*
X117580438Y-81953904D02*
X117532819Y-81858666D01*
X117532819Y-81858666D02*
X117532819Y-81620571D01*
X117532819Y-81620571D02*
X117580438Y-81525333D01*
X117580438Y-81525333D02*
X117628057Y-81477714D01*
X117628057Y-81477714D02*
X117723295Y-81430095D01*
X117723295Y-81430095D02*
X117818533Y-81430095D01*
X117818533Y-81430095D02*
X117961390Y-81477714D01*
X117961390Y-81477714D02*
X118532819Y-82049142D01*
X118532819Y-82049142D02*
X118532819Y-81430095D01*
X146137333Y-112240819D02*
X145661143Y-112240819D01*
X145661143Y-112240819D02*
X145661143Y-111240819D01*
X146994476Y-112240819D02*
X146423048Y-112240819D01*
X146708762Y-112240819D02*
X146708762Y-111240819D01*
X146708762Y-111240819D02*
X146613524Y-111383676D01*
X146613524Y-111383676D02*
X146518286Y-111478914D01*
X146518286Y-111478914D02*
X146423048Y-111526533D01*
X111168819Y-72412857D02*
X110692628Y-72746190D01*
X111168819Y-72984285D02*
X110168819Y-72984285D01*
X110168819Y-72984285D02*
X110168819Y-72603333D01*
X110168819Y-72603333D02*
X110216438Y-72508095D01*
X110216438Y-72508095D02*
X110264057Y-72460476D01*
X110264057Y-72460476D02*
X110359295Y-72412857D01*
X110359295Y-72412857D02*
X110502152Y-72412857D01*
X110502152Y-72412857D02*
X110597390Y-72460476D01*
X110597390Y-72460476D02*
X110645009Y-72508095D01*
X110645009Y-72508095D02*
X110692628Y-72603333D01*
X110692628Y-72603333D02*
X110692628Y-72984285D01*
X111168819Y-71460476D02*
X111168819Y-72031904D01*
X111168819Y-71746190D02*
X110168819Y-71746190D01*
X110168819Y-71746190D02*
X110311676Y-71841428D01*
X110311676Y-71841428D02*
X110406914Y-71936666D01*
X110406914Y-71936666D02*
X110454533Y-72031904D01*
X111168819Y-70508095D02*
X111168819Y-71079523D01*
X111168819Y-70793809D02*
X110168819Y-70793809D01*
X110168819Y-70793809D02*
X110311676Y-70889047D01*
X110311676Y-70889047D02*
X110406914Y-70984285D01*
X110406914Y-70984285D02*
X110454533Y-71079523D01*
X58852819Y-113621523D02*
X59567104Y-113621523D01*
X59567104Y-113621523D02*
X59709961Y-113669142D01*
X59709961Y-113669142D02*
X59805200Y-113764380D01*
X59805200Y-113764380D02*
X59852819Y-113907237D01*
X59852819Y-113907237D02*
X59852819Y-114002475D01*
X59852819Y-112621523D02*
X59852819Y-113192951D01*
X59852819Y-112907237D02*
X58852819Y-112907237D01*
X58852819Y-112907237D02*
X58995676Y-113002475D01*
X58995676Y-113002475D02*
X59090914Y-113097713D01*
X59090914Y-113097713D02*
X59138533Y-113192951D01*
X59852819Y-111669142D02*
X59852819Y-112240570D01*
X59852819Y-111954856D02*
X58852819Y-111954856D01*
X58852819Y-111954856D02*
X58995676Y-112050094D01*
X58995676Y-112050094D02*
X59090914Y-112145332D01*
X59090914Y-112145332D02*
X59138533Y-112240570D01*
X86536261Y-91926057D02*
X86441023Y-91878438D01*
X86441023Y-91878438D02*
X86345785Y-91783200D01*
X86345785Y-91783200D02*
X86202928Y-91640342D01*
X86202928Y-91640342D02*
X86107690Y-91592723D01*
X86107690Y-91592723D02*
X86012452Y-91592723D01*
X86060071Y-91830819D02*
X85964833Y-91783200D01*
X85964833Y-91783200D02*
X85869595Y-91687961D01*
X85869595Y-91687961D02*
X85821976Y-91497485D01*
X85821976Y-91497485D02*
X85821976Y-91164152D01*
X85821976Y-91164152D02*
X85869595Y-90973676D01*
X85869595Y-90973676D02*
X85964833Y-90878438D01*
X85964833Y-90878438D02*
X86060071Y-90830819D01*
X86060071Y-90830819D02*
X86250547Y-90830819D01*
X86250547Y-90830819D02*
X86345785Y-90878438D01*
X86345785Y-90878438D02*
X86441023Y-90973676D01*
X86441023Y-90973676D02*
X86488642Y-91164152D01*
X86488642Y-91164152D02*
X86488642Y-91497485D01*
X86488642Y-91497485D02*
X86441023Y-91687961D01*
X86441023Y-91687961D02*
X86345785Y-91783200D01*
X86345785Y-91783200D02*
X86250547Y-91830819D01*
X86250547Y-91830819D02*
X86060071Y-91830819D01*
X86869595Y-90926057D02*
X86917214Y-90878438D01*
X86917214Y-90878438D02*
X87012452Y-90830819D01*
X87012452Y-90830819D02*
X87250547Y-90830819D01*
X87250547Y-90830819D02*
X87345785Y-90878438D01*
X87345785Y-90878438D02*
X87393404Y-90926057D01*
X87393404Y-90926057D02*
X87441023Y-91021295D01*
X87441023Y-91021295D02*
X87441023Y-91116533D01*
X87441023Y-91116533D02*
X87393404Y-91259390D01*
X87393404Y-91259390D02*
X86821976Y-91830819D01*
X86821976Y-91830819D02*
X87441023Y-91830819D01*
X68690905Y-111722819D02*
X68690905Y-110722819D01*
X68690905Y-110722819D02*
X68929000Y-110722819D01*
X68929000Y-110722819D02*
X69071857Y-110770438D01*
X69071857Y-110770438D02*
X69167095Y-110865676D01*
X69167095Y-110865676D02*
X69214714Y-110960914D01*
X69214714Y-110960914D02*
X69262333Y-111151390D01*
X69262333Y-111151390D02*
X69262333Y-111294247D01*
X69262333Y-111294247D02*
X69214714Y-111484723D01*
X69214714Y-111484723D02*
X69167095Y-111579961D01*
X69167095Y-111579961D02*
X69071857Y-111675200D01*
X69071857Y-111675200D02*
X68929000Y-111722819D01*
X68929000Y-111722819D02*
X68690905Y-111722819D01*
X69595667Y-110722819D02*
X70214714Y-110722819D01*
X70214714Y-110722819D02*
X69881381Y-111103771D01*
X69881381Y-111103771D02*
X70024238Y-111103771D01*
X70024238Y-111103771D02*
X70119476Y-111151390D01*
X70119476Y-111151390D02*
X70167095Y-111199009D01*
X70167095Y-111199009D02*
X70214714Y-111294247D01*
X70214714Y-111294247D02*
X70214714Y-111532342D01*
X70214714Y-111532342D02*
X70167095Y-111627580D01*
X70167095Y-111627580D02*
X70119476Y-111675200D01*
X70119476Y-111675200D02*
X70024238Y-111722819D01*
X70024238Y-111722819D02*
X69738524Y-111722819D01*
X69738524Y-111722819D02*
X69643286Y-111675200D01*
X69643286Y-111675200D02*
X69595667Y-111627580D01*
X72181580Y-80551166D02*
X72229200Y-80598785D01*
X72229200Y-80598785D02*
X72276819Y-80741642D01*
X72276819Y-80741642D02*
X72276819Y-80836880D01*
X72276819Y-80836880D02*
X72229200Y-80979737D01*
X72229200Y-80979737D02*
X72133961Y-81074975D01*
X72133961Y-81074975D02*
X72038723Y-81122594D01*
X72038723Y-81122594D02*
X71848247Y-81170213D01*
X71848247Y-81170213D02*
X71705390Y-81170213D01*
X71705390Y-81170213D02*
X71514914Y-81122594D01*
X71514914Y-81122594D02*
X71419676Y-81074975D01*
X71419676Y-81074975D02*
X71324438Y-80979737D01*
X71324438Y-80979737D02*
X71276819Y-80836880D01*
X71276819Y-80836880D02*
X71276819Y-80741642D01*
X71276819Y-80741642D02*
X71324438Y-80598785D01*
X71324438Y-80598785D02*
X71372057Y-80551166D01*
X72276819Y-80074975D02*
X72276819Y-79884499D01*
X72276819Y-79884499D02*
X72229200Y-79789261D01*
X72229200Y-79789261D02*
X72181580Y-79741642D01*
X72181580Y-79741642D02*
X72038723Y-79646404D01*
X72038723Y-79646404D02*
X71848247Y-79598785D01*
X71848247Y-79598785D02*
X71467295Y-79598785D01*
X71467295Y-79598785D02*
X71372057Y-79646404D01*
X71372057Y-79646404D02*
X71324438Y-79694023D01*
X71324438Y-79694023D02*
X71276819Y-79789261D01*
X71276819Y-79789261D02*
X71276819Y-79979737D01*
X71276819Y-79979737D02*
X71324438Y-80074975D01*
X71324438Y-80074975D02*
X71372057Y-80122594D01*
X71372057Y-80122594D02*
X71467295Y-80170213D01*
X71467295Y-80170213D02*
X71705390Y-80170213D01*
X71705390Y-80170213D02*
X71800628Y-80122594D01*
X71800628Y-80122594D02*
X71848247Y-80074975D01*
X71848247Y-80074975D02*
X71895866Y-79979737D01*
X71895866Y-79979737D02*
X71895866Y-79789261D01*
X71895866Y-79789261D02*
X71848247Y-79694023D01*
X71848247Y-79694023D02*
X71800628Y-79646404D01*
X71800628Y-79646404D02*
X71705390Y-79598785D01*
X86051333Y-82510819D02*
X85718000Y-82034628D01*
X85479905Y-82510819D02*
X85479905Y-81510819D01*
X85479905Y-81510819D02*
X85860857Y-81510819D01*
X85860857Y-81510819D02*
X85956095Y-81558438D01*
X85956095Y-81558438D02*
X86003714Y-81606057D01*
X86003714Y-81606057D02*
X86051333Y-81701295D01*
X86051333Y-81701295D02*
X86051333Y-81844152D01*
X86051333Y-81844152D02*
X86003714Y-81939390D01*
X86003714Y-81939390D02*
X85956095Y-81987009D01*
X85956095Y-81987009D02*
X85860857Y-82034628D01*
X85860857Y-82034628D02*
X85479905Y-82034628D01*
X86908476Y-81510819D02*
X86718000Y-81510819D01*
X86718000Y-81510819D02*
X86622762Y-81558438D01*
X86622762Y-81558438D02*
X86575143Y-81606057D01*
X86575143Y-81606057D02*
X86479905Y-81748914D01*
X86479905Y-81748914D02*
X86432286Y-81939390D01*
X86432286Y-81939390D02*
X86432286Y-82320342D01*
X86432286Y-82320342D02*
X86479905Y-82415580D01*
X86479905Y-82415580D02*
X86527524Y-82463200D01*
X86527524Y-82463200D02*
X86622762Y-82510819D01*
X86622762Y-82510819D02*
X86813238Y-82510819D01*
X86813238Y-82510819D02*
X86908476Y-82463200D01*
X86908476Y-82463200D02*
X86956095Y-82415580D01*
X86956095Y-82415580D02*
X87003714Y-82320342D01*
X87003714Y-82320342D02*
X87003714Y-82082247D01*
X87003714Y-82082247D02*
X86956095Y-81987009D01*
X86956095Y-81987009D02*
X86908476Y-81939390D01*
X86908476Y-81939390D02*
X86813238Y-81891771D01*
X86813238Y-81891771D02*
X86622762Y-81891771D01*
X86622762Y-81891771D02*
X86527524Y-81939390D01*
X86527524Y-81939390D02*
X86479905Y-81987009D01*
X86479905Y-81987009D02*
X86432286Y-82082247D01*
X137615142Y-62924819D02*
X137281809Y-62448628D01*
X137043714Y-62924819D02*
X137043714Y-61924819D01*
X137043714Y-61924819D02*
X137424666Y-61924819D01*
X137424666Y-61924819D02*
X137519904Y-61972438D01*
X137519904Y-61972438D02*
X137567523Y-62020057D01*
X137567523Y-62020057D02*
X137615142Y-62115295D01*
X137615142Y-62115295D02*
X137615142Y-62258152D01*
X137615142Y-62258152D02*
X137567523Y-62353390D01*
X137567523Y-62353390D02*
X137519904Y-62401009D01*
X137519904Y-62401009D02*
X137424666Y-62448628D01*
X137424666Y-62448628D02*
X137043714Y-62448628D01*
X138567523Y-62924819D02*
X137996095Y-62924819D01*
X138281809Y-62924819D02*
X138281809Y-61924819D01*
X138281809Y-61924819D02*
X138186571Y-62067676D01*
X138186571Y-62067676D02*
X138091333Y-62162914D01*
X138091333Y-62162914D02*
X137996095Y-62210533D01*
X139424666Y-62258152D02*
X139424666Y-62924819D01*
X139186571Y-61877200D02*
X138948476Y-62591485D01*
X138948476Y-62591485D02*
X139567523Y-62591485D01*
X150384666Y-51622819D02*
X150384666Y-52337104D01*
X150384666Y-52337104D02*
X150337047Y-52479961D01*
X150337047Y-52479961D02*
X150241809Y-52575200D01*
X150241809Y-52575200D02*
X150098952Y-52622819D01*
X150098952Y-52622819D02*
X150003714Y-52622819D01*
X151337047Y-51622819D02*
X150860857Y-51622819D01*
X150860857Y-51622819D02*
X150813238Y-52099009D01*
X150813238Y-52099009D02*
X150860857Y-52051390D01*
X150860857Y-52051390D02*
X150956095Y-52003771D01*
X150956095Y-52003771D02*
X151194190Y-52003771D01*
X151194190Y-52003771D02*
X151289428Y-52051390D01*
X151289428Y-52051390D02*
X151337047Y-52099009D01*
X151337047Y-52099009D02*
X151384666Y-52194247D01*
X151384666Y-52194247D02*
X151384666Y-52432342D01*
X151384666Y-52432342D02*
X151337047Y-52527580D01*
X151337047Y-52527580D02*
X151289428Y-52575200D01*
X151289428Y-52575200D02*
X151194190Y-52622819D01*
X151194190Y-52622819D02*
X150956095Y-52622819D01*
X150956095Y-52622819D02*
X150860857Y-52575200D01*
X150860857Y-52575200D02*
X150813238Y-52527580D01*
X127977142Y-69941580D02*
X127929523Y-69989200D01*
X127929523Y-69989200D02*
X127786666Y-70036819D01*
X127786666Y-70036819D02*
X127691428Y-70036819D01*
X127691428Y-70036819D02*
X127548571Y-69989200D01*
X127548571Y-69989200D02*
X127453333Y-69893961D01*
X127453333Y-69893961D02*
X127405714Y-69798723D01*
X127405714Y-69798723D02*
X127358095Y-69608247D01*
X127358095Y-69608247D02*
X127358095Y-69465390D01*
X127358095Y-69465390D02*
X127405714Y-69274914D01*
X127405714Y-69274914D02*
X127453333Y-69179676D01*
X127453333Y-69179676D02*
X127548571Y-69084438D01*
X127548571Y-69084438D02*
X127691428Y-69036819D01*
X127691428Y-69036819D02*
X127786666Y-69036819D01*
X127786666Y-69036819D02*
X127929523Y-69084438D01*
X127929523Y-69084438D02*
X127977142Y-69132057D01*
X128929523Y-70036819D02*
X128358095Y-70036819D01*
X128643809Y-70036819D02*
X128643809Y-69036819D01*
X128643809Y-69036819D02*
X128548571Y-69179676D01*
X128548571Y-69179676D02*
X128453333Y-69274914D01*
X128453333Y-69274914D02*
X128358095Y-69322533D01*
X129786666Y-69036819D02*
X129596190Y-69036819D01*
X129596190Y-69036819D02*
X129500952Y-69084438D01*
X129500952Y-69084438D02*
X129453333Y-69132057D01*
X129453333Y-69132057D02*
X129358095Y-69274914D01*
X129358095Y-69274914D02*
X129310476Y-69465390D01*
X129310476Y-69465390D02*
X129310476Y-69846342D01*
X129310476Y-69846342D02*
X129358095Y-69941580D01*
X129358095Y-69941580D02*
X129405714Y-69989200D01*
X129405714Y-69989200D02*
X129500952Y-70036819D01*
X129500952Y-70036819D02*
X129691428Y-70036819D01*
X129691428Y-70036819D02*
X129786666Y-69989200D01*
X129786666Y-69989200D02*
X129834285Y-69941580D01*
X129834285Y-69941580D02*
X129881904Y-69846342D01*
X129881904Y-69846342D02*
X129881904Y-69608247D01*
X129881904Y-69608247D02*
X129834285Y-69513009D01*
X129834285Y-69513009D02*
X129786666Y-69465390D01*
X129786666Y-69465390D02*
X129691428Y-69417771D01*
X129691428Y-69417771D02*
X129500952Y-69417771D01*
X129500952Y-69417771D02*
X129405714Y-69465390D01*
X129405714Y-69465390D02*
X129358095Y-69513009D01*
X129358095Y-69513009D02*
X129310476Y-69608247D01*
X141097905Y-97712819D02*
X141097905Y-98522342D01*
X141097905Y-98522342D02*
X141145524Y-98617580D01*
X141145524Y-98617580D02*
X141193143Y-98665200D01*
X141193143Y-98665200D02*
X141288381Y-98712819D01*
X141288381Y-98712819D02*
X141478857Y-98712819D01*
X141478857Y-98712819D02*
X141574095Y-98665200D01*
X141574095Y-98665200D02*
X141621714Y-98617580D01*
X141621714Y-98617580D02*
X141669333Y-98522342D01*
X141669333Y-98522342D02*
X141669333Y-97712819D01*
X142669333Y-98712819D02*
X142097905Y-98712819D01*
X142383619Y-98712819D02*
X142383619Y-97712819D01*
X142383619Y-97712819D02*
X142288381Y-97855676D01*
X142288381Y-97855676D02*
X142193143Y-97950914D01*
X142193143Y-97950914D02*
X142097905Y-97998533D01*
X143621714Y-98712819D02*
X143050286Y-98712819D01*
X143336000Y-98712819D02*
X143336000Y-97712819D01*
X143336000Y-97712819D02*
X143240762Y-97855676D01*
X143240762Y-97855676D02*
X143145524Y-97950914D01*
X143145524Y-97950914D02*
X143050286Y-97998533D01*
X55577200Y-96471332D02*
X55624819Y-96328475D01*
X55624819Y-96328475D02*
X55624819Y-96090380D01*
X55624819Y-96090380D02*
X55577200Y-95995142D01*
X55577200Y-95995142D02*
X55529580Y-95947523D01*
X55529580Y-95947523D02*
X55434342Y-95899904D01*
X55434342Y-95899904D02*
X55339104Y-95899904D01*
X55339104Y-95899904D02*
X55243866Y-95947523D01*
X55243866Y-95947523D02*
X55196247Y-95995142D01*
X55196247Y-95995142D02*
X55148628Y-96090380D01*
X55148628Y-96090380D02*
X55101009Y-96280856D01*
X55101009Y-96280856D02*
X55053390Y-96376094D01*
X55053390Y-96376094D02*
X55005771Y-96423713D01*
X55005771Y-96423713D02*
X54910533Y-96471332D01*
X54910533Y-96471332D02*
X54815295Y-96471332D01*
X54815295Y-96471332D02*
X54720057Y-96423713D01*
X54720057Y-96423713D02*
X54672438Y-96376094D01*
X54672438Y-96376094D02*
X54624819Y-96280856D01*
X54624819Y-96280856D02*
X54624819Y-96042761D01*
X54624819Y-96042761D02*
X54672438Y-95899904D01*
X54624819Y-95566570D02*
X55624819Y-95328475D01*
X55624819Y-95328475D02*
X54910533Y-95137999D01*
X54910533Y-95137999D02*
X55624819Y-94947523D01*
X55624819Y-94947523D02*
X54624819Y-94709428D01*
X55624819Y-93804666D02*
X55624819Y-94376094D01*
X55624819Y-94090380D02*
X54624819Y-94090380D01*
X54624819Y-94090380D02*
X54767676Y-94185618D01*
X54767676Y-94185618D02*
X54862914Y-94280856D01*
X54862914Y-94280856D02*
X54910533Y-94376094D01*
X132787142Y-70066819D02*
X132453809Y-69590628D01*
X132215714Y-70066819D02*
X132215714Y-69066819D01*
X132215714Y-69066819D02*
X132596666Y-69066819D01*
X132596666Y-69066819D02*
X132691904Y-69114438D01*
X132691904Y-69114438D02*
X132739523Y-69162057D01*
X132739523Y-69162057D02*
X132787142Y-69257295D01*
X132787142Y-69257295D02*
X132787142Y-69400152D01*
X132787142Y-69400152D02*
X132739523Y-69495390D01*
X132739523Y-69495390D02*
X132691904Y-69543009D01*
X132691904Y-69543009D02*
X132596666Y-69590628D01*
X132596666Y-69590628D02*
X132215714Y-69590628D01*
X133739523Y-70066819D02*
X133168095Y-70066819D01*
X133453809Y-70066819D02*
X133453809Y-69066819D01*
X133453809Y-69066819D02*
X133358571Y-69209676D01*
X133358571Y-69209676D02*
X133263333Y-69304914D01*
X133263333Y-69304914D02*
X133168095Y-69352533D01*
X134644285Y-69066819D02*
X134168095Y-69066819D01*
X134168095Y-69066819D02*
X134120476Y-69543009D01*
X134120476Y-69543009D02*
X134168095Y-69495390D01*
X134168095Y-69495390D02*
X134263333Y-69447771D01*
X134263333Y-69447771D02*
X134501428Y-69447771D01*
X134501428Y-69447771D02*
X134596666Y-69495390D01*
X134596666Y-69495390D02*
X134644285Y-69543009D01*
X134644285Y-69543009D02*
X134691904Y-69638247D01*
X134691904Y-69638247D02*
X134691904Y-69876342D01*
X134691904Y-69876342D02*
X134644285Y-69971580D01*
X134644285Y-69971580D02*
X134596666Y-70019200D01*
X134596666Y-70019200D02*
X134501428Y-70066819D01*
X134501428Y-70066819D02*
X134263333Y-70066819D01*
X134263333Y-70066819D02*
X134168095Y-70019200D01*
X134168095Y-70019200D02*
X134120476Y-69971580D01*
X57619142Y-71844819D02*
X57285809Y-71368628D01*
X57047714Y-71844819D02*
X57047714Y-70844819D01*
X57047714Y-70844819D02*
X57428666Y-70844819D01*
X57428666Y-70844819D02*
X57523904Y-70892438D01*
X57523904Y-70892438D02*
X57571523Y-70940057D01*
X57571523Y-70940057D02*
X57619142Y-71035295D01*
X57619142Y-71035295D02*
X57619142Y-71178152D01*
X57619142Y-71178152D02*
X57571523Y-71273390D01*
X57571523Y-71273390D02*
X57523904Y-71321009D01*
X57523904Y-71321009D02*
X57428666Y-71368628D01*
X57428666Y-71368628D02*
X57047714Y-71368628D01*
X58571523Y-71844819D02*
X58000095Y-71844819D01*
X58285809Y-71844819D02*
X58285809Y-70844819D01*
X58285809Y-70844819D02*
X58190571Y-70987676D01*
X58190571Y-70987676D02*
X58095333Y-71082914D01*
X58095333Y-71082914D02*
X58000095Y-71130533D01*
X59190571Y-70844819D02*
X59285809Y-70844819D01*
X59285809Y-70844819D02*
X59381047Y-70892438D01*
X59381047Y-70892438D02*
X59428666Y-70940057D01*
X59428666Y-70940057D02*
X59476285Y-71035295D01*
X59476285Y-71035295D02*
X59523904Y-71225771D01*
X59523904Y-71225771D02*
X59523904Y-71463866D01*
X59523904Y-71463866D02*
X59476285Y-71654342D01*
X59476285Y-71654342D02*
X59428666Y-71749580D01*
X59428666Y-71749580D02*
X59381047Y-71797200D01*
X59381047Y-71797200D02*
X59285809Y-71844819D01*
X59285809Y-71844819D02*
X59190571Y-71844819D01*
X59190571Y-71844819D02*
X59095333Y-71797200D01*
X59095333Y-71797200D02*
X59047714Y-71749580D01*
X59047714Y-71749580D02*
X59000095Y-71654342D01*
X59000095Y-71654342D02*
X58952476Y-71463866D01*
X58952476Y-71463866D02*
X58952476Y-71225771D01*
X58952476Y-71225771D02*
X59000095Y-71035295D01*
X59000095Y-71035295D02*
X59047714Y-70940057D01*
X59047714Y-70940057D02*
X59095333Y-70892438D01*
X59095333Y-70892438D02*
X59190571Y-70844819D01*
X120753580Y-92024166D02*
X120801200Y-92071785D01*
X120801200Y-92071785D02*
X120848819Y-92214642D01*
X120848819Y-92214642D02*
X120848819Y-92309880D01*
X120848819Y-92309880D02*
X120801200Y-92452737D01*
X120801200Y-92452737D02*
X120705961Y-92547975D01*
X120705961Y-92547975D02*
X120610723Y-92595594D01*
X120610723Y-92595594D02*
X120420247Y-92643213D01*
X120420247Y-92643213D02*
X120277390Y-92643213D01*
X120277390Y-92643213D02*
X120086914Y-92595594D01*
X120086914Y-92595594D02*
X119991676Y-92547975D01*
X119991676Y-92547975D02*
X119896438Y-92452737D01*
X119896438Y-92452737D02*
X119848819Y-92309880D01*
X119848819Y-92309880D02*
X119848819Y-92214642D01*
X119848819Y-92214642D02*
X119896438Y-92071785D01*
X119896438Y-92071785D02*
X119944057Y-92024166D01*
X119848819Y-91119404D02*
X119848819Y-91595594D01*
X119848819Y-91595594D02*
X120325009Y-91643213D01*
X120325009Y-91643213D02*
X120277390Y-91595594D01*
X120277390Y-91595594D02*
X120229771Y-91500356D01*
X120229771Y-91500356D02*
X120229771Y-91262261D01*
X120229771Y-91262261D02*
X120277390Y-91167023D01*
X120277390Y-91167023D02*
X120325009Y-91119404D01*
X120325009Y-91119404D02*
X120420247Y-91071785D01*
X120420247Y-91071785D02*
X120658342Y-91071785D01*
X120658342Y-91071785D02*
X120753580Y-91119404D01*
X120753580Y-91119404D02*
X120801200Y-91167023D01*
X120801200Y-91167023D02*
X120848819Y-91262261D01*
X120848819Y-91262261D02*
X120848819Y-91500356D01*
X120848819Y-91500356D02*
X120801200Y-91595594D01*
X120801200Y-91595594D02*
X120753580Y-91643213D01*
X118491761Y-89633057D02*
X118396523Y-89585438D01*
X118396523Y-89585438D02*
X118301285Y-89490200D01*
X118301285Y-89490200D02*
X118158428Y-89347342D01*
X118158428Y-89347342D02*
X118063190Y-89299723D01*
X118063190Y-89299723D02*
X117967952Y-89299723D01*
X118015571Y-89537819D02*
X117920333Y-89490200D01*
X117920333Y-89490200D02*
X117825095Y-89394961D01*
X117825095Y-89394961D02*
X117777476Y-89204485D01*
X117777476Y-89204485D02*
X117777476Y-88871152D01*
X117777476Y-88871152D02*
X117825095Y-88680676D01*
X117825095Y-88680676D02*
X117920333Y-88585438D01*
X117920333Y-88585438D02*
X118015571Y-88537819D01*
X118015571Y-88537819D02*
X118206047Y-88537819D01*
X118206047Y-88537819D02*
X118301285Y-88585438D01*
X118301285Y-88585438D02*
X118396523Y-88680676D01*
X118396523Y-88680676D02*
X118444142Y-88871152D01*
X118444142Y-88871152D02*
X118444142Y-89204485D01*
X118444142Y-89204485D02*
X118396523Y-89394961D01*
X118396523Y-89394961D02*
X118301285Y-89490200D01*
X118301285Y-89490200D02*
X118206047Y-89537819D01*
X118206047Y-89537819D02*
X118015571Y-89537819D01*
X118777476Y-88537819D02*
X119396523Y-88537819D01*
X119396523Y-88537819D02*
X119063190Y-88918771D01*
X119063190Y-88918771D02*
X119206047Y-88918771D01*
X119206047Y-88918771D02*
X119301285Y-88966390D01*
X119301285Y-88966390D02*
X119348904Y-89014009D01*
X119348904Y-89014009D02*
X119396523Y-89109247D01*
X119396523Y-89109247D02*
X119396523Y-89347342D01*
X119396523Y-89347342D02*
X119348904Y-89442580D01*
X119348904Y-89442580D02*
X119301285Y-89490200D01*
X119301285Y-89490200D02*
X119206047Y-89537819D01*
X119206047Y-89537819D02*
X118920333Y-89537819D01*
X118920333Y-89537819D02*
X118825095Y-89490200D01*
X118825095Y-89490200D02*
X118777476Y-89442580D01*
X75541580Y-75228357D02*
X75589200Y-75275976D01*
X75589200Y-75275976D02*
X75636819Y-75418833D01*
X75636819Y-75418833D02*
X75636819Y-75514071D01*
X75636819Y-75514071D02*
X75589200Y-75656928D01*
X75589200Y-75656928D02*
X75493961Y-75752166D01*
X75493961Y-75752166D02*
X75398723Y-75799785D01*
X75398723Y-75799785D02*
X75208247Y-75847404D01*
X75208247Y-75847404D02*
X75065390Y-75847404D01*
X75065390Y-75847404D02*
X74874914Y-75799785D01*
X74874914Y-75799785D02*
X74779676Y-75752166D01*
X74779676Y-75752166D02*
X74684438Y-75656928D01*
X74684438Y-75656928D02*
X74636819Y-75514071D01*
X74636819Y-75514071D02*
X74636819Y-75418833D01*
X74636819Y-75418833D02*
X74684438Y-75275976D01*
X74684438Y-75275976D02*
X74732057Y-75228357D01*
X75636819Y-74275976D02*
X75636819Y-74847404D01*
X75636819Y-74561690D02*
X74636819Y-74561690D01*
X74636819Y-74561690D02*
X74779676Y-74656928D01*
X74779676Y-74656928D02*
X74874914Y-74752166D01*
X74874914Y-74752166D02*
X74922533Y-74847404D01*
X74636819Y-73942642D02*
X74636819Y-73323595D01*
X74636819Y-73323595D02*
X75017771Y-73656928D01*
X75017771Y-73656928D02*
X75017771Y-73514071D01*
X75017771Y-73514071D02*
X75065390Y-73418833D01*
X75065390Y-73418833D02*
X75113009Y-73371214D01*
X75113009Y-73371214D02*
X75208247Y-73323595D01*
X75208247Y-73323595D02*
X75446342Y-73323595D01*
X75446342Y-73323595D02*
X75541580Y-73371214D01*
X75541580Y-73371214D02*
X75589200Y-73418833D01*
X75589200Y-73418833D02*
X75636819Y-73514071D01*
X75636819Y-73514071D02*
X75636819Y-73799785D01*
X75636819Y-73799785D02*
X75589200Y-73895023D01*
X75589200Y-73895023D02*
X75541580Y-73942642D01*
X60337009Y-104654952D02*
X60384628Y-104512095D01*
X60384628Y-104512095D02*
X60432247Y-104464476D01*
X60432247Y-104464476D02*
X60527485Y-104416857D01*
X60527485Y-104416857D02*
X60670342Y-104416857D01*
X60670342Y-104416857D02*
X60765580Y-104464476D01*
X60765580Y-104464476D02*
X60813200Y-104512095D01*
X60813200Y-104512095D02*
X60860819Y-104607333D01*
X60860819Y-104607333D02*
X60860819Y-104988285D01*
X60860819Y-104988285D02*
X59860819Y-104988285D01*
X59860819Y-104988285D02*
X59860819Y-104654952D01*
X59860819Y-104654952D02*
X59908438Y-104559714D01*
X59908438Y-104559714D02*
X59956057Y-104512095D01*
X59956057Y-104512095D02*
X60051295Y-104464476D01*
X60051295Y-104464476D02*
X60146533Y-104464476D01*
X60146533Y-104464476D02*
X60241771Y-104512095D01*
X60241771Y-104512095D02*
X60289390Y-104559714D01*
X60289390Y-104559714D02*
X60337009Y-104654952D01*
X60337009Y-104654952D02*
X60337009Y-104988285D01*
X59860819Y-104083523D02*
X59860819Y-103416857D01*
X59860819Y-103416857D02*
X60860819Y-104083523D01*
X60860819Y-104083523D02*
X60860819Y-103416857D01*
X60860819Y-102512095D02*
X60860819Y-103083523D01*
X60860819Y-102797809D02*
X59860819Y-102797809D01*
X59860819Y-102797809D02*
X60003676Y-102893047D01*
X60003676Y-102893047D02*
X60098914Y-102988285D01*
X60098914Y-102988285D02*
X60146533Y-103083523D01*
X65679866Y-107954951D02*
X65679866Y-107193047D01*
X66060819Y-107573999D02*
X65298914Y-107573999D01*
X131342057Y-98964738D02*
X131294438Y-99059976D01*
X131294438Y-99059976D02*
X131199200Y-99155214D01*
X131199200Y-99155214D02*
X131056342Y-99298071D01*
X131056342Y-99298071D02*
X131008723Y-99393309D01*
X131008723Y-99393309D02*
X131008723Y-99488547D01*
X131246819Y-99440928D02*
X131199200Y-99536166D01*
X131199200Y-99536166D02*
X131103961Y-99631404D01*
X131103961Y-99631404D02*
X130913485Y-99679023D01*
X130913485Y-99679023D02*
X130580152Y-99679023D01*
X130580152Y-99679023D02*
X130389676Y-99631404D01*
X130389676Y-99631404D02*
X130294438Y-99536166D01*
X130294438Y-99536166D02*
X130246819Y-99440928D01*
X130246819Y-99440928D02*
X130246819Y-99250452D01*
X130246819Y-99250452D02*
X130294438Y-99155214D01*
X130294438Y-99155214D02*
X130389676Y-99059976D01*
X130389676Y-99059976D02*
X130580152Y-99012357D01*
X130580152Y-99012357D02*
X130913485Y-99012357D01*
X130913485Y-99012357D02*
X131103961Y-99059976D01*
X131103961Y-99059976D02*
X131199200Y-99155214D01*
X131199200Y-99155214D02*
X131246819Y-99250452D01*
X131246819Y-99250452D02*
X131246819Y-99440928D01*
X130580152Y-98155214D02*
X131246819Y-98155214D01*
X130199200Y-98393309D02*
X130913485Y-98631404D01*
X130913485Y-98631404D02*
X130913485Y-98012357D01*
X80705819Y-119459333D02*
X81420104Y-119459333D01*
X81420104Y-119459333D02*
X81562961Y-119506952D01*
X81562961Y-119506952D02*
X81658200Y-119602190D01*
X81658200Y-119602190D02*
X81705819Y-119745047D01*
X81705819Y-119745047D02*
X81705819Y-119840285D01*
X80705819Y-119078380D02*
X80705819Y-118411714D01*
X80705819Y-118411714D02*
X81705819Y-118840285D01*
X68191905Y-92164819D02*
X68191905Y-91164819D01*
X68191905Y-91164819D02*
X68430000Y-91164819D01*
X68430000Y-91164819D02*
X68572857Y-91212438D01*
X68572857Y-91212438D02*
X68668095Y-91307676D01*
X68668095Y-91307676D02*
X68715714Y-91402914D01*
X68715714Y-91402914D02*
X68763333Y-91593390D01*
X68763333Y-91593390D02*
X68763333Y-91736247D01*
X68763333Y-91736247D02*
X68715714Y-91926723D01*
X68715714Y-91926723D02*
X68668095Y-92021961D01*
X68668095Y-92021961D02*
X68572857Y-92117200D01*
X68572857Y-92117200D02*
X68430000Y-92164819D01*
X68430000Y-92164819D02*
X68191905Y-92164819D01*
X69239524Y-92164819D02*
X69430000Y-92164819D01*
X69430000Y-92164819D02*
X69525238Y-92117200D01*
X69525238Y-92117200D02*
X69572857Y-92069580D01*
X69572857Y-92069580D02*
X69668095Y-91926723D01*
X69668095Y-91926723D02*
X69715714Y-91736247D01*
X69715714Y-91736247D02*
X69715714Y-91355295D01*
X69715714Y-91355295D02*
X69668095Y-91260057D01*
X69668095Y-91260057D02*
X69620476Y-91212438D01*
X69620476Y-91212438D02*
X69525238Y-91164819D01*
X69525238Y-91164819D02*
X69334762Y-91164819D01*
X69334762Y-91164819D02*
X69239524Y-91212438D01*
X69239524Y-91212438D02*
X69191905Y-91260057D01*
X69191905Y-91260057D02*
X69144286Y-91355295D01*
X69144286Y-91355295D02*
X69144286Y-91593390D01*
X69144286Y-91593390D02*
X69191905Y-91688628D01*
X69191905Y-91688628D02*
X69239524Y-91736247D01*
X69239524Y-91736247D02*
X69334762Y-91783866D01*
X69334762Y-91783866D02*
X69525238Y-91783866D01*
X69525238Y-91783866D02*
X69620476Y-91736247D01*
X69620476Y-91736247D02*
X69668095Y-91688628D01*
X69668095Y-91688628D02*
X69715714Y-91593390D01*
X129135905Y-109434819D02*
X129135905Y-108434819D01*
X129135905Y-108434819D02*
X129374000Y-108434819D01*
X129374000Y-108434819D02*
X129516857Y-108482438D01*
X129516857Y-108482438D02*
X129612095Y-108577676D01*
X129612095Y-108577676D02*
X129659714Y-108672914D01*
X129659714Y-108672914D02*
X129707333Y-108863390D01*
X129707333Y-108863390D02*
X129707333Y-109006247D01*
X129707333Y-109006247D02*
X129659714Y-109196723D01*
X129659714Y-109196723D02*
X129612095Y-109291961D01*
X129612095Y-109291961D02*
X129516857Y-109387200D01*
X129516857Y-109387200D02*
X129374000Y-109434819D01*
X129374000Y-109434819D02*
X129135905Y-109434819D01*
X130278762Y-108863390D02*
X130183524Y-108815771D01*
X130183524Y-108815771D02*
X130135905Y-108768152D01*
X130135905Y-108768152D02*
X130088286Y-108672914D01*
X130088286Y-108672914D02*
X130088286Y-108625295D01*
X130088286Y-108625295D02*
X130135905Y-108530057D01*
X130135905Y-108530057D02*
X130183524Y-108482438D01*
X130183524Y-108482438D02*
X130278762Y-108434819D01*
X130278762Y-108434819D02*
X130469238Y-108434819D01*
X130469238Y-108434819D02*
X130564476Y-108482438D01*
X130564476Y-108482438D02*
X130612095Y-108530057D01*
X130612095Y-108530057D02*
X130659714Y-108625295D01*
X130659714Y-108625295D02*
X130659714Y-108672914D01*
X130659714Y-108672914D02*
X130612095Y-108768152D01*
X130612095Y-108768152D02*
X130564476Y-108815771D01*
X130564476Y-108815771D02*
X130469238Y-108863390D01*
X130469238Y-108863390D02*
X130278762Y-108863390D01*
X130278762Y-108863390D02*
X130183524Y-108911009D01*
X130183524Y-108911009D02*
X130135905Y-108958628D01*
X130135905Y-108958628D02*
X130088286Y-109053866D01*
X130088286Y-109053866D02*
X130088286Y-109244342D01*
X130088286Y-109244342D02*
X130135905Y-109339580D01*
X130135905Y-109339580D02*
X130183524Y-109387200D01*
X130183524Y-109387200D02*
X130278762Y-109434819D01*
X130278762Y-109434819D02*
X130469238Y-109434819D01*
X130469238Y-109434819D02*
X130564476Y-109387200D01*
X130564476Y-109387200D02*
X130612095Y-109339580D01*
X130612095Y-109339580D02*
X130659714Y-109244342D01*
X130659714Y-109244342D02*
X130659714Y-109053866D01*
X130659714Y-109053866D02*
X130612095Y-108958628D01*
X130612095Y-108958628D02*
X130564476Y-108911009D01*
X130564476Y-108911009D02*
X130469238Y-108863390D01*
X86439261Y-73222057D02*
X86344023Y-73174438D01*
X86344023Y-73174438D02*
X86248785Y-73079200D01*
X86248785Y-73079200D02*
X86105928Y-72936342D01*
X86105928Y-72936342D02*
X86010690Y-72888723D01*
X86010690Y-72888723D02*
X85915452Y-72888723D01*
X85963071Y-73126819D02*
X85867833Y-73079200D01*
X85867833Y-73079200D02*
X85772595Y-72983961D01*
X85772595Y-72983961D02*
X85724976Y-72793485D01*
X85724976Y-72793485D02*
X85724976Y-72460152D01*
X85724976Y-72460152D02*
X85772595Y-72269676D01*
X85772595Y-72269676D02*
X85867833Y-72174438D01*
X85867833Y-72174438D02*
X85963071Y-72126819D01*
X85963071Y-72126819D02*
X86153547Y-72126819D01*
X86153547Y-72126819D02*
X86248785Y-72174438D01*
X86248785Y-72174438D02*
X86344023Y-72269676D01*
X86344023Y-72269676D02*
X86391642Y-72460152D01*
X86391642Y-72460152D02*
X86391642Y-72793485D01*
X86391642Y-72793485D02*
X86344023Y-72983961D01*
X86344023Y-72983961D02*
X86248785Y-73079200D01*
X86248785Y-73079200D02*
X86153547Y-73126819D01*
X86153547Y-73126819D02*
X85963071Y-73126819D01*
X87344023Y-73126819D02*
X86772595Y-73126819D01*
X87058309Y-73126819D02*
X87058309Y-72126819D01*
X87058309Y-72126819D02*
X86963071Y-72269676D01*
X86963071Y-72269676D02*
X86867833Y-72364914D01*
X86867833Y-72364914D02*
X86772595Y-72412533D01*
X133803142Y-109434819D02*
X133469809Y-108958628D01*
X133231714Y-109434819D02*
X133231714Y-108434819D01*
X133231714Y-108434819D02*
X133612666Y-108434819D01*
X133612666Y-108434819D02*
X133707904Y-108482438D01*
X133707904Y-108482438D02*
X133755523Y-108530057D01*
X133755523Y-108530057D02*
X133803142Y-108625295D01*
X133803142Y-108625295D02*
X133803142Y-108768152D01*
X133803142Y-108768152D02*
X133755523Y-108863390D01*
X133755523Y-108863390D02*
X133707904Y-108911009D01*
X133707904Y-108911009D02*
X133612666Y-108958628D01*
X133612666Y-108958628D02*
X133231714Y-108958628D01*
X134184095Y-108530057D02*
X134231714Y-108482438D01*
X134231714Y-108482438D02*
X134326952Y-108434819D01*
X134326952Y-108434819D02*
X134565047Y-108434819D01*
X134565047Y-108434819D02*
X134660285Y-108482438D01*
X134660285Y-108482438D02*
X134707904Y-108530057D01*
X134707904Y-108530057D02*
X134755523Y-108625295D01*
X134755523Y-108625295D02*
X134755523Y-108720533D01*
X134755523Y-108720533D02*
X134707904Y-108863390D01*
X134707904Y-108863390D02*
X134136476Y-109434819D01*
X134136476Y-109434819D02*
X134755523Y-109434819D01*
X135374571Y-108434819D02*
X135469809Y-108434819D01*
X135469809Y-108434819D02*
X135565047Y-108482438D01*
X135565047Y-108482438D02*
X135612666Y-108530057D01*
X135612666Y-108530057D02*
X135660285Y-108625295D01*
X135660285Y-108625295D02*
X135707904Y-108815771D01*
X135707904Y-108815771D02*
X135707904Y-109053866D01*
X135707904Y-109053866D02*
X135660285Y-109244342D01*
X135660285Y-109244342D02*
X135612666Y-109339580D01*
X135612666Y-109339580D02*
X135565047Y-109387200D01*
X135565047Y-109387200D02*
X135469809Y-109434819D01*
X135469809Y-109434819D02*
X135374571Y-109434819D01*
X135374571Y-109434819D02*
X135279333Y-109387200D01*
X135279333Y-109387200D02*
X135231714Y-109339580D01*
X135231714Y-109339580D02*
X135184095Y-109244342D01*
X135184095Y-109244342D02*
X135136476Y-109053866D01*
X135136476Y-109053866D02*
X135136476Y-108815771D01*
X135136476Y-108815771D02*
X135184095Y-108625295D01*
X135184095Y-108625295D02*
X135231714Y-108530057D01*
X135231714Y-108530057D02*
X135279333Y-108482438D01*
X135279333Y-108482438D02*
X135374571Y-108434819D01*
X151411333Y-106019295D02*
X151411333Y-106590723D01*
X151411333Y-106590723D02*
X151373238Y-106705009D01*
X151373238Y-106705009D02*
X151297047Y-106781200D01*
X151297047Y-106781200D02*
X151182762Y-106819295D01*
X151182762Y-106819295D02*
X151106571Y-106819295D01*
X151716095Y-106019295D02*
X152211333Y-106019295D01*
X152211333Y-106019295D02*
X151944667Y-106324057D01*
X151944667Y-106324057D02*
X152058952Y-106324057D01*
X152058952Y-106324057D02*
X152135143Y-106362152D01*
X152135143Y-106362152D02*
X152173238Y-106400247D01*
X152173238Y-106400247D02*
X152211333Y-106476438D01*
X152211333Y-106476438D02*
X152211333Y-106666914D01*
X152211333Y-106666914D02*
X152173238Y-106743104D01*
X152173238Y-106743104D02*
X152135143Y-106781200D01*
X152135143Y-106781200D02*
X152058952Y-106819295D01*
X152058952Y-106819295D02*
X151830381Y-106819295D01*
X151830381Y-106819295D02*
X151754190Y-106781200D01*
X151754190Y-106781200D02*
X151716095Y-106743104D01*
X117197580Y-92024166D02*
X117245200Y-92071785D01*
X117245200Y-92071785D02*
X117292819Y-92214642D01*
X117292819Y-92214642D02*
X117292819Y-92309880D01*
X117292819Y-92309880D02*
X117245200Y-92452737D01*
X117245200Y-92452737D02*
X117149961Y-92547975D01*
X117149961Y-92547975D02*
X117054723Y-92595594D01*
X117054723Y-92595594D02*
X116864247Y-92643213D01*
X116864247Y-92643213D02*
X116721390Y-92643213D01*
X116721390Y-92643213D02*
X116530914Y-92595594D01*
X116530914Y-92595594D02*
X116435676Y-92547975D01*
X116435676Y-92547975D02*
X116340438Y-92452737D01*
X116340438Y-92452737D02*
X116292819Y-92309880D01*
X116292819Y-92309880D02*
X116292819Y-92214642D01*
X116292819Y-92214642D02*
X116340438Y-92071785D01*
X116340438Y-92071785D02*
X116388057Y-92024166D01*
X116626152Y-91167023D02*
X117292819Y-91167023D01*
X116245200Y-91405118D02*
X116959485Y-91643213D01*
X116959485Y-91643213D02*
X116959485Y-91024166D01*
X146634142Y-67450819D02*
X146300809Y-66974628D01*
X146062714Y-67450819D02*
X146062714Y-66450819D01*
X146062714Y-66450819D02*
X146443666Y-66450819D01*
X146443666Y-66450819D02*
X146538904Y-66498438D01*
X146538904Y-66498438D02*
X146586523Y-66546057D01*
X146586523Y-66546057D02*
X146634142Y-66641295D01*
X146634142Y-66641295D02*
X146634142Y-66784152D01*
X146634142Y-66784152D02*
X146586523Y-66879390D01*
X146586523Y-66879390D02*
X146538904Y-66927009D01*
X146538904Y-66927009D02*
X146443666Y-66974628D01*
X146443666Y-66974628D02*
X146062714Y-66974628D01*
X147586523Y-67450819D02*
X147015095Y-67450819D01*
X147300809Y-67450819D02*
X147300809Y-66450819D01*
X147300809Y-66450819D02*
X147205571Y-66593676D01*
X147205571Y-66593676D02*
X147110333Y-66688914D01*
X147110333Y-66688914D02*
X147015095Y-66736533D01*
X147919857Y-66450819D02*
X148538904Y-66450819D01*
X148538904Y-66450819D02*
X148205571Y-66831771D01*
X148205571Y-66831771D02*
X148348428Y-66831771D01*
X148348428Y-66831771D02*
X148443666Y-66879390D01*
X148443666Y-66879390D02*
X148491285Y-66927009D01*
X148491285Y-66927009D02*
X148538904Y-67022247D01*
X148538904Y-67022247D02*
X148538904Y-67260342D01*
X148538904Y-67260342D02*
X148491285Y-67355580D01*
X148491285Y-67355580D02*
X148443666Y-67403200D01*
X148443666Y-67403200D02*
X148348428Y-67450819D01*
X148348428Y-67450819D02*
X148062714Y-67450819D01*
X148062714Y-67450819D02*
X147967476Y-67403200D01*
X147967476Y-67403200D02*
X147919857Y-67355580D01*
X86035333Y-85812819D02*
X85702000Y-85336628D01*
X85463905Y-85812819D02*
X85463905Y-84812819D01*
X85463905Y-84812819D02*
X85844857Y-84812819D01*
X85844857Y-84812819D02*
X85940095Y-84860438D01*
X85940095Y-84860438D02*
X85987714Y-84908057D01*
X85987714Y-84908057D02*
X86035333Y-85003295D01*
X86035333Y-85003295D02*
X86035333Y-85146152D01*
X86035333Y-85146152D02*
X85987714Y-85241390D01*
X85987714Y-85241390D02*
X85940095Y-85289009D01*
X85940095Y-85289009D02*
X85844857Y-85336628D01*
X85844857Y-85336628D02*
X85463905Y-85336628D01*
X86940095Y-84812819D02*
X86463905Y-84812819D01*
X86463905Y-84812819D02*
X86416286Y-85289009D01*
X86416286Y-85289009D02*
X86463905Y-85241390D01*
X86463905Y-85241390D02*
X86559143Y-85193771D01*
X86559143Y-85193771D02*
X86797238Y-85193771D01*
X86797238Y-85193771D02*
X86892476Y-85241390D01*
X86892476Y-85241390D02*
X86940095Y-85289009D01*
X86940095Y-85289009D02*
X86987714Y-85384247D01*
X86987714Y-85384247D02*
X86987714Y-85622342D01*
X86987714Y-85622342D02*
X86940095Y-85717580D01*
X86940095Y-85717580D02*
X86892476Y-85765200D01*
X86892476Y-85765200D02*
X86797238Y-85812819D01*
X86797238Y-85812819D02*
X86559143Y-85812819D01*
X86559143Y-85812819D02*
X86463905Y-85765200D01*
X86463905Y-85765200D02*
X86416286Y-85717580D01*
X131609095Y-76053819D02*
X131609095Y-76863342D01*
X131609095Y-76863342D02*
X131656714Y-76958580D01*
X131656714Y-76958580D02*
X131704333Y-77006200D01*
X131704333Y-77006200D02*
X131799571Y-77053819D01*
X131799571Y-77053819D02*
X131990047Y-77053819D01*
X131990047Y-77053819D02*
X132085285Y-77006200D01*
X132085285Y-77006200D02*
X132132904Y-76958580D01*
X132132904Y-76958580D02*
X132180523Y-76863342D01*
X132180523Y-76863342D02*
X132180523Y-76053819D01*
X133132904Y-76053819D02*
X132656714Y-76053819D01*
X132656714Y-76053819D02*
X132609095Y-76530009D01*
X132609095Y-76530009D02*
X132656714Y-76482390D01*
X132656714Y-76482390D02*
X132751952Y-76434771D01*
X132751952Y-76434771D02*
X132990047Y-76434771D01*
X132990047Y-76434771D02*
X133085285Y-76482390D01*
X133085285Y-76482390D02*
X133132904Y-76530009D01*
X133132904Y-76530009D02*
X133180523Y-76625247D01*
X133180523Y-76625247D02*
X133180523Y-76863342D01*
X133180523Y-76863342D02*
X133132904Y-76958580D01*
X133132904Y-76958580D02*
X133085285Y-77006200D01*
X133085285Y-77006200D02*
X132990047Y-77053819D01*
X132990047Y-77053819D02*
X132751952Y-77053819D01*
X132751952Y-77053819D02*
X132656714Y-77006200D01*
X132656714Y-77006200D02*
X132609095Y-76958580D01*
X129151905Y-114514819D02*
X129151905Y-113514819D01*
X129151905Y-113514819D02*
X129390000Y-113514819D01*
X129390000Y-113514819D02*
X129532857Y-113562438D01*
X129532857Y-113562438D02*
X129628095Y-113657676D01*
X129628095Y-113657676D02*
X129675714Y-113752914D01*
X129675714Y-113752914D02*
X129723333Y-113943390D01*
X129723333Y-113943390D02*
X129723333Y-114086247D01*
X129723333Y-114086247D02*
X129675714Y-114276723D01*
X129675714Y-114276723D02*
X129628095Y-114371961D01*
X129628095Y-114371961D02*
X129532857Y-114467200D01*
X129532857Y-114467200D02*
X129390000Y-114514819D01*
X129390000Y-114514819D02*
X129151905Y-114514819D01*
X130056667Y-113514819D02*
X130723333Y-113514819D01*
X130723333Y-113514819D02*
X130294762Y-114514819D01*
X127932819Y-98828857D02*
X127456628Y-99162190D01*
X127932819Y-99400285D02*
X126932819Y-99400285D01*
X126932819Y-99400285D02*
X126932819Y-99019333D01*
X126932819Y-99019333D02*
X126980438Y-98924095D01*
X126980438Y-98924095D02*
X127028057Y-98876476D01*
X127028057Y-98876476D02*
X127123295Y-98828857D01*
X127123295Y-98828857D02*
X127266152Y-98828857D01*
X127266152Y-98828857D02*
X127361390Y-98876476D01*
X127361390Y-98876476D02*
X127409009Y-98924095D01*
X127409009Y-98924095D02*
X127456628Y-99019333D01*
X127456628Y-99019333D02*
X127456628Y-99400285D01*
X127932819Y-97876476D02*
X127932819Y-98447904D01*
X127932819Y-98162190D02*
X126932819Y-98162190D01*
X126932819Y-98162190D02*
X127075676Y-98257428D01*
X127075676Y-98257428D02*
X127170914Y-98352666D01*
X127170914Y-98352666D02*
X127218533Y-98447904D01*
X126932819Y-97019333D02*
X126932819Y-97209809D01*
X126932819Y-97209809D02*
X126980438Y-97305047D01*
X126980438Y-97305047D02*
X127028057Y-97352666D01*
X127028057Y-97352666D02*
X127170914Y-97447904D01*
X127170914Y-97447904D02*
X127361390Y-97495523D01*
X127361390Y-97495523D02*
X127742342Y-97495523D01*
X127742342Y-97495523D02*
X127837580Y-97447904D01*
X127837580Y-97447904D02*
X127885200Y-97400285D01*
X127885200Y-97400285D02*
X127932819Y-97305047D01*
X127932819Y-97305047D02*
X127932819Y-97114571D01*
X127932819Y-97114571D02*
X127885200Y-97019333D01*
X127885200Y-97019333D02*
X127837580Y-96971714D01*
X127837580Y-96971714D02*
X127742342Y-96924095D01*
X127742342Y-96924095D02*
X127504247Y-96924095D01*
X127504247Y-96924095D02*
X127409009Y-96971714D01*
X127409009Y-96971714D02*
X127361390Y-97019333D01*
X127361390Y-97019333D02*
X127313771Y-97114571D01*
X127313771Y-97114571D02*
X127313771Y-97305047D01*
X127313771Y-97305047D02*
X127361390Y-97400285D01*
X127361390Y-97400285D02*
X127409009Y-97447904D01*
X127409009Y-97447904D02*
X127504247Y-97495523D01*
X157126666Y-90964819D02*
X157126666Y-91679104D01*
X157126666Y-91679104D02*
X157079047Y-91821961D01*
X157079047Y-91821961D02*
X156983809Y-91917200D01*
X156983809Y-91917200D02*
X156840952Y-91964819D01*
X156840952Y-91964819D02*
X156745714Y-91964819D01*
X158031428Y-91298152D02*
X158031428Y-91964819D01*
X157793333Y-90917200D02*
X157555238Y-91631485D01*
X157555238Y-91631485D02*
X158174285Y-91631485D01*
X139565905Y-68504819D02*
X139565905Y-67504819D01*
X139565905Y-67504819D02*
X139804000Y-67504819D01*
X139804000Y-67504819D02*
X139946857Y-67552438D01*
X139946857Y-67552438D02*
X140042095Y-67647676D01*
X140042095Y-67647676D02*
X140089714Y-67742914D01*
X140089714Y-67742914D02*
X140137333Y-67933390D01*
X140137333Y-67933390D02*
X140137333Y-68076247D01*
X140137333Y-68076247D02*
X140089714Y-68266723D01*
X140089714Y-68266723D02*
X140042095Y-68361961D01*
X140042095Y-68361961D02*
X139946857Y-68457200D01*
X139946857Y-68457200D02*
X139804000Y-68504819D01*
X139804000Y-68504819D02*
X139565905Y-68504819D01*
X141089714Y-68504819D02*
X140518286Y-68504819D01*
X140804000Y-68504819D02*
X140804000Y-67504819D01*
X140804000Y-67504819D02*
X140708762Y-67647676D01*
X140708762Y-67647676D02*
X140613524Y-67742914D01*
X140613524Y-67742914D02*
X140518286Y-67790533D01*
X101860819Y-119459333D02*
X102575104Y-119459333D01*
X102575104Y-119459333D02*
X102717961Y-119506952D01*
X102717961Y-119506952D02*
X102813200Y-119602190D01*
X102813200Y-119602190D02*
X102860819Y-119745047D01*
X102860819Y-119745047D02*
X102860819Y-119840285D01*
X102289390Y-118840285D02*
X102241771Y-118935523D01*
X102241771Y-118935523D02*
X102194152Y-118983142D01*
X102194152Y-118983142D02*
X102098914Y-119030761D01*
X102098914Y-119030761D02*
X102051295Y-119030761D01*
X102051295Y-119030761D02*
X101956057Y-118983142D01*
X101956057Y-118983142D02*
X101908438Y-118935523D01*
X101908438Y-118935523D02*
X101860819Y-118840285D01*
X101860819Y-118840285D02*
X101860819Y-118649809D01*
X101860819Y-118649809D02*
X101908438Y-118554571D01*
X101908438Y-118554571D02*
X101956057Y-118506952D01*
X101956057Y-118506952D02*
X102051295Y-118459333D01*
X102051295Y-118459333D02*
X102098914Y-118459333D01*
X102098914Y-118459333D02*
X102194152Y-118506952D01*
X102194152Y-118506952D02*
X102241771Y-118554571D01*
X102241771Y-118554571D02*
X102289390Y-118649809D01*
X102289390Y-118649809D02*
X102289390Y-118840285D01*
X102289390Y-118840285D02*
X102337009Y-118935523D01*
X102337009Y-118935523D02*
X102384628Y-118983142D01*
X102384628Y-118983142D02*
X102479866Y-119030761D01*
X102479866Y-119030761D02*
X102670342Y-119030761D01*
X102670342Y-119030761D02*
X102765580Y-118983142D01*
X102765580Y-118983142D02*
X102813200Y-118935523D01*
X102813200Y-118935523D02*
X102860819Y-118840285D01*
X102860819Y-118840285D02*
X102860819Y-118649809D01*
X102860819Y-118649809D02*
X102813200Y-118554571D01*
X102813200Y-118554571D02*
X102765580Y-118506952D01*
X102765580Y-118506952D02*
X102670342Y-118459333D01*
X102670342Y-118459333D02*
X102479866Y-118459333D01*
X102479866Y-118459333D02*
X102384628Y-118506952D01*
X102384628Y-118506952D02*
X102337009Y-118554571D01*
X102337009Y-118554571D02*
X102289390Y-118649809D01*
X160711333Y-93942819D02*
X160378000Y-93466628D01*
X160139905Y-93942819D02*
X160139905Y-92942819D01*
X160139905Y-92942819D02*
X160520857Y-92942819D01*
X160520857Y-92942819D02*
X160616095Y-92990438D01*
X160616095Y-92990438D02*
X160663714Y-93038057D01*
X160663714Y-93038057D02*
X160711333Y-93133295D01*
X160711333Y-93133295D02*
X160711333Y-93276152D01*
X160711333Y-93276152D02*
X160663714Y-93371390D01*
X160663714Y-93371390D02*
X160616095Y-93419009D01*
X160616095Y-93419009D02*
X160520857Y-93466628D01*
X160520857Y-93466628D02*
X160139905Y-93466628D01*
X161282762Y-93371390D02*
X161187524Y-93323771D01*
X161187524Y-93323771D02*
X161139905Y-93276152D01*
X161139905Y-93276152D02*
X161092286Y-93180914D01*
X161092286Y-93180914D02*
X161092286Y-93133295D01*
X161092286Y-93133295D02*
X161139905Y-93038057D01*
X161139905Y-93038057D02*
X161187524Y-92990438D01*
X161187524Y-92990438D02*
X161282762Y-92942819D01*
X161282762Y-92942819D02*
X161473238Y-92942819D01*
X161473238Y-92942819D02*
X161568476Y-92990438D01*
X161568476Y-92990438D02*
X161616095Y-93038057D01*
X161616095Y-93038057D02*
X161663714Y-93133295D01*
X161663714Y-93133295D02*
X161663714Y-93180914D01*
X161663714Y-93180914D02*
X161616095Y-93276152D01*
X161616095Y-93276152D02*
X161568476Y-93323771D01*
X161568476Y-93323771D02*
X161473238Y-93371390D01*
X161473238Y-93371390D02*
X161282762Y-93371390D01*
X161282762Y-93371390D02*
X161187524Y-93419009D01*
X161187524Y-93419009D02*
X161139905Y-93466628D01*
X161139905Y-93466628D02*
X161092286Y-93561866D01*
X161092286Y-93561866D02*
X161092286Y-93752342D01*
X161092286Y-93752342D02*
X161139905Y-93847580D01*
X161139905Y-93847580D02*
X161187524Y-93895200D01*
X161187524Y-93895200D02*
X161282762Y-93942819D01*
X161282762Y-93942819D02*
X161473238Y-93942819D01*
X161473238Y-93942819D02*
X161568476Y-93895200D01*
X161568476Y-93895200D02*
X161616095Y-93847580D01*
X161616095Y-93847580D02*
X161663714Y-93752342D01*
X161663714Y-93752342D02*
X161663714Y-93561866D01*
X161663714Y-93561866D02*
X161616095Y-93466628D01*
X161616095Y-93466628D02*
X161568476Y-93419009D01*
X161568476Y-93419009D02*
X161473238Y-93371390D01*
X70207580Y-88403666D02*
X70255200Y-88451285D01*
X70255200Y-88451285D02*
X70302819Y-88594142D01*
X70302819Y-88594142D02*
X70302819Y-88689380D01*
X70302819Y-88689380D02*
X70255200Y-88832237D01*
X70255200Y-88832237D02*
X70159961Y-88927475D01*
X70159961Y-88927475D02*
X70064723Y-88975094D01*
X70064723Y-88975094D02*
X69874247Y-89022713D01*
X69874247Y-89022713D02*
X69731390Y-89022713D01*
X69731390Y-89022713D02*
X69540914Y-88975094D01*
X69540914Y-88975094D02*
X69445676Y-88927475D01*
X69445676Y-88927475D02*
X69350438Y-88832237D01*
X69350438Y-88832237D02*
X69302819Y-88689380D01*
X69302819Y-88689380D02*
X69302819Y-88594142D01*
X69302819Y-88594142D02*
X69350438Y-88451285D01*
X69350438Y-88451285D02*
X69398057Y-88403666D01*
X70302819Y-87451285D02*
X70302819Y-88022713D01*
X70302819Y-87736999D02*
X69302819Y-87736999D01*
X69302819Y-87736999D02*
X69445676Y-87832237D01*
X69445676Y-87832237D02*
X69540914Y-87927475D01*
X69540914Y-87927475D02*
X69588533Y-88022713D01*
X112154819Y-77441904D02*
X112964342Y-77441904D01*
X112964342Y-77441904D02*
X113059580Y-77394285D01*
X113059580Y-77394285D02*
X113107200Y-77346666D01*
X113107200Y-77346666D02*
X113154819Y-77251428D01*
X113154819Y-77251428D02*
X113154819Y-77060952D01*
X113154819Y-77060952D02*
X113107200Y-76965714D01*
X113107200Y-76965714D02*
X113059580Y-76918095D01*
X113059580Y-76918095D02*
X112964342Y-76870476D01*
X112964342Y-76870476D02*
X112154819Y-76870476D01*
X113154819Y-75870476D02*
X113154819Y-76441904D01*
X113154819Y-76156190D02*
X112154819Y-76156190D01*
X112154819Y-76156190D02*
X112297676Y-76251428D01*
X112297676Y-76251428D02*
X112392914Y-76346666D01*
X112392914Y-76346666D02*
X112440533Y-76441904D01*
X60850819Y-76239904D02*
X61660342Y-76239904D01*
X61660342Y-76239904D02*
X61755580Y-76192285D01*
X61755580Y-76192285D02*
X61803200Y-76144666D01*
X61803200Y-76144666D02*
X61850819Y-76049428D01*
X61850819Y-76049428D02*
X61850819Y-75858952D01*
X61850819Y-75858952D02*
X61803200Y-75763714D01*
X61803200Y-75763714D02*
X61755580Y-75716095D01*
X61755580Y-75716095D02*
X61660342Y-75668476D01*
X61660342Y-75668476D02*
X60850819Y-75668476D01*
X61279390Y-75049428D02*
X61231771Y-75144666D01*
X61231771Y-75144666D02*
X61184152Y-75192285D01*
X61184152Y-75192285D02*
X61088914Y-75239904D01*
X61088914Y-75239904D02*
X61041295Y-75239904D01*
X61041295Y-75239904D02*
X60946057Y-75192285D01*
X60946057Y-75192285D02*
X60898438Y-75144666D01*
X60898438Y-75144666D02*
X60850819Y-75049428D01*
X60850819Y-75049428D02*
X60850819Y-74858952D01*
X60850819Y-74858952D02*
X60898438Y-74763714D01*
X60898438Y-74763714D02*
X60946057Y-74716095D01*
X60946057Y-74716095D02*
X61041295Y-74668476D01*
X61041295Y-74668476D02*
X61088914Y-74668476D01*
X61088914Y-74668476D02*
X61184152Y-74716095D01*
X61184152Y-74716095D02*
X61231771Y-74763714D01*
X61231771Y-74763714D02*
X61279390Y-74858952D01*
X61279390Y-74858952D02*
X61279390Y-75049428D01*
X61279390Y-75049428D02*
X61327009Y-75144666D01*
X61327009Y-75144666D02*
X61374628Y-75192285D01*
X61374628Y-75192285D02*
X61469866Y-75239904D01*
X61469866Y-75239904D02*
X61660342Y-75239904D01*
X61660342Y-75239904D02*
X61755580Y-75192285D01*
X61755580Y-75192285D02*
X61803200Y-75144666D01*
X61803200Y-75144666D02*
X61850819Y-75049428D01*
X61850819Y-75049428D02*
X61850819Y-74858952D01*
X61850819Y-74858952D02*
X61803200Y-74763714D01*
X61803200Y-74763714D02*
X61755580Y-74716095D01*
X61755580Y-74716095D02*
X61660342Y-74668476D01*
X61660342Y-74668476D02*
X61469866Y-74668476D01*
X61469866Y-74668476D02*
X61374628Y-74716095D01*
X61374628Y-74716095D02*
X61327009Y-74763714D01*
X61327009Y-74763714D02*
X61279390Y-74858952D01*
X150856905Y-67704819D02*
X150856905Y-66704819D01*
X150856905Y-66704819D02*
X151095000Y-66704819D01*
X151095000Y-66704819D02*
X151237857Y-66752438D01*
X151237857Y-66752438D02*
X151333095Y-66847676D01*
X151333095Y-66847676D02*
X151380714Y-66942914D01*
X151380714Y-66942914D02*
X151428333Y-67133390D01*
X151428333Y-67133390D02*
X151428333Y-67276247D01*
X151428333Y-67276247D02*
X151380714Y-67466723D01*
X151380714Y-67466723D02*
X151333095Y-67561961D01*
X151333095Y-67561961D02*
X151237857Y-67657200D01*
X151237857Y-67657200D02*
X151095000Y-67704819D01*
X151095000Y-67704819D02*
X150856905Y-67704819D01*
X152333095Y-66704819D02*
X151856905Y-66704819D01*
X151856905Y-66704819D02*
X151809286Y-67181009D01*
X151809286Y-67181009D02*
X151856905Y-67133390D01*
X151856905Y-67133390D02*
X151952143Y-67085771D01*
X151952143Y-67085771D02*
X152190238Y-67085771D01*
X152190238Y-67085771D02*
X152285476Y-67133390D01*
X152285476Y-67133390D02*
X152333095Y-67181009D01*
X152333095Y-67181009D02*
X152380714Y-67276247D01*
X152380714Y-67276247D02*
X152380714Y-67514342D01*
X152380714Y-67514342D02*
X152333095Y-67609580D01*
X152333095Y-67609580D02*
X152285476Y-67657200D01*
X152285476Y-67657200D02*
X152190238Y-67704819D01*
X152190238Y-67704819D02*
X151952143Y-67704819D01*
X151952143Y-67704819D02*
X151856905Y-67657200D01*
X151856905Y-67657200D02*
X151809286Y-67609580D01*
X61397333Y-89116819D02*
X61064000Y-88640628D01*
X60825905Y-89116819D02*
X60825905Y-88116819D01*
X60825905Y-88116819D02*
X61206857Y-88116819D01*
X61206857Y-88116819D02*
X61302095Y-88164438D01*
X61302095Y-88164438D02*
X61349714Y-88212057D01*
X61349714Y-88212057D02*
X61397333Y-88307295D01*
X61397333Y-88307295D02*
X61397333Y-88450152D01*
X61397333Y-88450152D02*
X61349714Y-88545390D01*
X61349714Y-88545390D02*
X61302095Y-88593009D01*
X61302095Y-88593009D02*
X61206857Y-88640628D01*
X61206857Y-88640628D02*
X60825905Y-88640628D01*
X62349714Y-89116819D02*
X61778286Y-89116819D01*
X62064000Y-89116819D02*
X62064000Y-88116819D01*
X62064000Y-88116819D02*
X61968762Y-88259676D01*
X61968762Y-88259676D02*
X61873524Y-88354914D01*
X61873524Y-88354914D02*
X61778286Y-88402533D01*
X58914819Y-95016666D02*
X58438628Y-95349999D01*
X58914819Y-95588094D02*
X57914819Y-95588094D01*
X57914819Y-95588094D02*
X57914819Y-95207142D01*
X57914819Y-95207142D02*
X57962438Y-95111904D01*
X57962438Y-95111904D02*
X58010057Y-95064285D01*
X58010057Y-95064285D02*
X58105295Y-95016666D01*
X58105295Y-95016666D02*
X58248152Y-95016666D01*
X58248152Y-95016666D02*
X58343390Y-95064285D01*
X58343390Y-95064285D02*
X58391009Y-95111904D01*
X58391009Y-95111904D02*
X58438628Y-95207142D01*
X58438628Y-95207142D02*
X58438628Y-95588094D01*
X58914819Y-94540475D02*
X58914819Y-94349999D01*
X58914819Y-94349999D02*
X58867200Y-94254761D01*
X58867200Y-94254761D02*
X58819580Y-94207142D01*
X58819580Y-94207142D02*
X58676723Y-94111904D01*
X58676723Y-94111904D02*
X58486247Y-94064285D01*
X58486247Y-94064285D02*
X58105295Y-94064285D01*
X58105295Y-94064285D02*
X58010057Y-94111904D01*
X58010057Y-94111904D02*
X57962438Y-94159523D01*
X57962438Y-94159523D02*
X57914819Y-94254761D01*
X57914819Y-94254761D02*
X57914819Y-94445237D01*
X57914819Y-94445237D02*
X57962438Y-94540475D01*
X57962438Y-94540475D02*
X58010057Y-94588094D01*
X58010057Y-94588094D02*
X58105295Y-94635713D01*
X58105295Y-94635713D02*
X58343390Y-94635713D01*
X58343390Y-94635713D02*
X58438628Y-94588094D01*
X58438628Y-94588094D02*
X58486247Y-94540475D01*
X58486247Y-94540475D02*
X58533866Y-94445237D01*
X58533866Y-94445237D02*
X58533866Y-94254761D01*
X58533866Y-94254761D02*
X58486247Y-94159523D01*
X58486247Y-94159523D02*
X58438628Y-94111904D01*
X58438628Y-94111904D02*
X58343390Y-94064285D01*
X134057142Y-114514819D02*
X133723809Y-114038628D01*
X133485714Y-114514819D02*
X133485714Y-113514819D01*
X133485714Y-113514819D02*
X133866666Y-113514819D01*
X133866666Y-113514819D02*
X133961904Y-113562438D01*
X133961904Y-113562438D02*
X134009523Y-113610057D01*
X134009523Y-113610057D02*
X134057142Y-113705295D01*
X134057142Y-113705295D02*
X134057142Y-113848152D01*
X134057142Y-113848152D02*
X134009523Y-113943390D01*
X134009523Y-113943390D02*
X133961904Y-113991009D01*
X133961904Y-113991009D02*
X133866666Y-114038628D01*
X133866666Y-114038628D02*
X133485714Y-114038628D01*
X135009523Y-114514819D02*
X134438095Y-114514819D01*
X134723809Y-114514819D02*
X134723809Y-113514819D01*
X134723809Y-113514819D02*
X134628571Y-113657676D01*
X134628571Y-113657676D02*
X134533333Y-113752914D01*
X134533333Y-113752914D02*
X134438095Y-113800533D01*
X135485714Y-114514819D02*
X135676190Y-114514819D01*
X135676190Y-114514819D02*
X135771428Y-114467200D01*
X135771428Y-114467200D02*
X135819047Y-114419580D01*
X135819047Y-114419580D02*
X135914285Y-114276723D01*
X135914285Y-114276723D02*
X135961904Y-114086247D01*
X135961904Y-114086247D02*
X135961904Y-113705295D01*
X135961904Y-113705295D02*
X135914285Y-113610057D01*
X135914285Y-113610057D02*
X135866666Y-113562438D01*
X135866666Y-113562438D02*
X135771428Y-113514819D01*
X135771428Y-113514819D02*
X135580952Y-113514819D01*
X135580952Y-113514819D02*
X135485714Y-113562438D01*
X135485714Y-113562438D02*
X135438095Y-113610057D01*
X135438095Y-113610057D02*
X135390476Y-113705295D01*
X135390476Y-113705295D02*
X135390476Y-113943390D01*
X135390476Y-113943390D02*
X135438095Y-114038628D01*
X135438095Y-114038628D02*
X135485714Y-114086247D01*
X135485714Y-114086247D02*
X135580952Y-114133866D01*
X135580952Y-114133866D02*
X135771428Y-114133866D01*
X135771428Y-114133866D02*
X135866666Y-114086247D01*
X135866666Y-114086247D02*
X135914285Y-114038628D01*
X135914285Y-114038628D02*
X135961904Y-113943390D01*
X80367580Y-74730666D02*
X80415200Y-74778285D01*
X80415200Y-74778285D02*
X80462819Y-74921142D01*
X80462819Y-74921142D02*
X80462819Y-75016380D01*
X80462819Y-75016380D02*
X80415200Y-75159237D01*
X80415200Y-75159237D02*
X80319961Y-75254475D01*
X80319961Y-75254475D02*
X80224723Y-75302094D01*
X80224723Y-75302094D02*
X80034247Y-75349713D01*
X80034247Y-75349713D02*
X79891390Y-75349713D01*
X79891390Y-75349713D02*
X79700914Y-75302094D01*
X79700914Y-75302094D02*
X79605676Y-75254475D01*
X79605676Y-75254475D02*
X79510438Y-75159237D01*
X79510438Y-75159237D02*
X79462819Y-75016380D01*
X79462819Y-75016380D02*
X79462819Y-74921142D01*
X79462819Y-74921142D02*
X79510438Y-74778285D01*
X79510438Y-74778285D02*
X79558057Y-74730666D01*
X79891390Y-74159237D02*
X79843771Y-74254475D01*
X79843771Y-74254475D02*
X79796152Y-74302094D01*
X79796152Y-74302094D02*
X79700914Y-74349713D01*
X79700914Y-74349713D02*
X79653295Y-74349713D01*
X79653295Y-74349713D02*
X79558057Y-74302094D01*
X79558057Y-74302094D02*
X79510438Y-74254475D01*
X79510438Y-74254475D02*
X79462819Y-74159237D01*
X79462819Y-74159237D02*
X79462819Y-73968761D01*
X79462819Y-73968761D02*
X79510438Y-73873523D01*
X79510438Y-73873523D02*
X79558057Y-73825904D01*
X79558057Y-73825904D02*
X79653295Y-73778285D01*
X79653295Y-73778285D02*
X79700914Y-73778285D01*
X79700914Y-73778285D02*
X79796152Y-73825904D01*
X79796152Y-73825904D02*
X79843771Y-73873523D01*
X79843771Y-73873523D02*
X79891390Y-73968761D01*
X79891390Y-73968761D02*
X79891390Y-74159237D01*
X79891390Y-74159237D02*
X79939009Y-74254475D01*
X79939009Y-74254475D02*
X79986628Y-74302094D01*
X79986628Y-74302094D02*
X80081866Y-74349713D01*
X80081866Y-74349713D02*
X80272342Y-74349713D01*
X80272342Y-74349713D02*
X80367580Y-74302094D01*
X80367580Y-74302094D02*
X80415200Y-74254475D01*
X80415200Y-74254475D02*
X80462819Y-74159237D01*
X80462819Y-74159237D02*
X80462819Y-73968761D01*
X80462819Y-73968761D02*
X80415200Y-73873523D01*
X80415200Y-73873523D02*
X80367580Y-73825904D01*
X80367580Y-73825904D02*
X80272342Y-73778285D01*
X80272342Y-73778285D02*
X80081866Y-73778285D01*
X80081866Y-73778285D02*
X79986628Y-73825904D01*
X79986628Y-73825904D02*
X79939009Y-73873523D01*
X79939009Y-73873523D02*
X79891390Y-73968761D01*
X60568319Y-86921904D02*
X61377842Y-86921904D01*
X61377842Y-86921904D02*
X61473080Y-86874285D01*
X61473080Y-86874285D02*
X61520700Y-86826666D01*
X61520700Y-86826666D02*
X61568319Y-86731428D01*
X61568319Y-86731428D02*
X61568319Y-86540952D01*
X61568319Y-86540952D02*
X61520700Y-86445714D01*
X61520700Y-86445714D02*
X61473080Y-86398095D01*
X61473080Y-86398095D02*
X61377842Y-86350476D01*
X61377842Y-86350476D02*
X60568319Y-86350476D01*
X60663557Y-85921904D02*
X60615938Y-85874285D01*
X60615938Y-85874285D02*
X60568319Y-85779047D01*
X60568319Y-85779047D02*
X60568319Y-85540952D01*
X60568319Y-85540952D02*
X60615938Y-85445714D01*
X60615938Y-85445714D02*
X60663557Y-85398095D01*
X60663557Y-85398095D02*
X60758795Y-85350476D01*
X60758795Y-85350476D02*
X60854033Y-85350476D01*
X60854033Y-85350476D02*
X60996890Y-85398095D01*
X60996890Y-85398095D02*
X61568319Y-85969523D01*
X61568319Y-85969523D02*
X61568319Y-85350476D01*
X150487142Y-101549580D02*
X150439523Y-101597200D01*
X150439523Y-101597200D02*
X150296666Y-101644819D01*
X150296666Y-101644819D02*
X150201428Y-101644819D01*
X150201428Y-101644819D02*
X150058571Y-101597200D01*
X150058571Y-101597200D02*
X149963333Y-101501961D01*
X149963333Y-101501961D02*
X149915714Y-101406723D01*
X149915714Y-101406723D02*
X149868095Y-101216247D01*
X149868095Y-101216247D02*
X149868095Y-101073390D01*
X149868095Y-101073390D02*
X149915714Y-100882914D01*
X149915714Y-100882914D02*
X149963333Y-100787676D01*
X149963333Y-100787676D02*
X150058571Y-100692438D01*
X150058571Y-100692438D02*
X150201428Y-100644819D01*
X150201428Y-100644819D02*
X150296666Y-100644819D01*
X150296666Y-100644819D02*
X150439523Y-100692438D01*
X150439523Y-100692438D02*
X150487142Y-100740057D01*
X151439523Y-101644819D02*
X150868095Y-101644819D01*
X151153809Y-101644819D02*
X151153809Y-100644819D01*
X151153809Y-100644819D02*
X151058571Y-100787676D01*
X151058571Y-100787676D02*
X150963333Y-100882914D01*
X150963333Y-100882914D02*
X150868095Y-100930533D01*
X152058571Y-100644819D02*
X152153809Y-100644819D01*
X152153809Y-100644819D02*
X152249047Y-100692438D01*
X152249047Y-100692438D02*
X152296666Y-100740057D01*
X152296666Y-100740057D02*
X152344285Y-100835295D01*
X152344285Y-100835295D02*
X152391904Y-101025771D01*
X152391904Y-101025771D02*
X152391904Y-101263866D01*
X152391904Y-101263866D02*
X152344285Y-101454342D01*
X152344285Y-101454342D02*
X152296666Y-101549580D01*
X152296666Y-101549580D02*
X152249047Y-101597200D01*
X152249047Y-101597200D02*
X152153809Y-101644819D01*
X152153809Y-101644819D02*
X152058571Y-101644819D01*
X152058571Y-101644819D02*
X151963333Y-101597200D01*
X151963333Y-101597200D02*
X151915714Y-101549580D01*
X151915714Y-101549580D02*
X151868095Y-101454342D01*
X151868095Y-101454342D02*
X151820476Y-101263866D01*
X151820476Y-101263866D02*
X151820476Y-101025771D01*
X151820476Y-101025771D02*
X151868095Y-100835295D01*
X151868095Y-100835295D02*
X151915714Y-100740057D01*
X151915714Y-100740057D02*
X151963333Y-100692438D01*
X151963333Y-100692438D02*
X152058571Y-100644819D01*
X121505905Y-73517819D02*
X121505905Y-74327342D01*
X121505905Y-74327342D02*
X121553524Y-74422580D01*
X121553524Y-74422580D02*
X121601143Y-74470200D01*
X121601143Y-74470200D02*
X121696381Y-74517819D01*
X121696381Y-74517819D02*
X121886857Y-74517819D01*
X121886857Y-74517819D02*
X121982095Y-74470200D01*
X121982095Y-74470200D02*
X122029714Y-74422580D01*
X122029714Y-74422580D02*
X122077333Y-74327342D01*
X122077333Y-74327342D02*
X122077333Y-73517819D01*
X123077333Y-74517819D02*
X122505905Y-74517819D01*
X122791619Y-74517819D02*
X122791619Y-73517819D01*
X122791619Y-73517819D02*
X122696381Y-73660676D01*
X122696381Y-73660676D02*
X122601143Y-73755914D01*
X122601143Y-73755914D02*
X122505905Y-73803533D01*
X123696381Y-73517819D02*
X123791619Y-73517819D01*
X123791619Y-73517819D02*
X123886857Y-73565438D01*
X123886857Y-73565438D02*
X123934476Y-73613057D01*
X123934476Y-73613057D02*
X123982095Y-73708295D01*
X123982095Y-73708295D02*
X124029714Y-73898771D01*
X124029714Y-73898771D02*
X124029714Y-74136866D01*
X124029714Y-74136866D02*
X123982095Y-74327342D01*
X123982095Y-74327342D02*
X123934476Y-74422580D01*
X123934476Y-74422580D02*
X123886857Y-74470200D01*
X123886857Y-74470200D02*
X123791619Y-74517819D01*
X123791619Y-74517819D02*
X123696381Y-74517819D01*
X123696381Y-74517819D02*
X123601143Y-74470200D01*
X123601143Y-74470200D02*
X123553524Y-74422580D01*
X123553524Y-74422580D02*
X123505905Y-74327342D01*
X123505905Y-74327342D02*
X123458286Y-74136866D01*
X123458286Y-74136866D02*
X123458286Y-73898771D01*
X123458286Y-73898771D02*
X123505905Y-73708295D01*
X123505905Y-73708295D02*
X123553524Y-73613057D01*
X123553524Y-73613057D02*
X123601143Y-73565438D01*
X123601143Y-73565438D02*
X123696381Y-73517819D01*
X160013333Y-64594295D02*
X160013333Y-65165723D01*
X160013333Y-65165723D02*
X159975238Y-65280009D01*
X159975238Y-65280009D02*
X159899047Y-65356200D01*
X159899047Y-65356200D02*
X159784762Y-65394295D01*
X159784762Y-65394295D02*
X159708571Y-65394295D01*
X160356190Y-64670485D02*
X160394286Y-64632390D01*
X160394286Y-64632390D02*
X160470476Y-64594295D01*
X160470476Y-64594295D02*
X160660952Y-64594295D01*
X160660952Y-64594295D02*
X160737143Y-64632390D01*
X160737143Y-64632390D02*
X160775238Y-64670485D01*
X160775238Y-64670485D02*
X160813333Y-64746676D01*
X160813333Y-64746676D02*
X160813333Y-64822866D01*
X160813333Y-64822866D02*
X160775238Y-64937152D01*
X160775238Y-64937152D02*
X160318095Y-65394295D01*
X160318095Y-65394295D02*
X160813333Y-65394295D01*
X59606819Y-82604666D02*
X59130628Y-82937999D01*
X59606819Y-83176094D02*
X58606819Y-83176094D01*
X58606819Y-83176094D02*
X58606819Y-82795142D01*
X58606819Y-82795142D02*
X58654438Y-82699904D01*
X58654438Y-82699904D02*
X58702057Y-82652285D01*
X58702057Y-82652285D02*
X58797295Y-82604666D01*
X58797295Y-82604666D02*
X58940152Y-82604666D01*
X58940152Y-82604666D02*
X59035390Y-82652285D01*
X59035390Y-82652285D02*
X59083009Y-82699904D01*
X59083009Y-82699904D02*
X59130628Y-82795142D01*
X59130628Y-82795142D02*
X59130628Y-83176094D01*
X58702057Y-82223713D02*
X58654438Y-82176094D01*
X58654438Y-82176094D02*
X58606819Y-82080856D01*
X58606819Y-82080856D02*
X58606819Y-81842761D01*
X58606819Y-81842761D02*
X58654438Y-81747523D01*
X58654438Y-81747523D02*
X58702057Y-81699904D01*
X58702057Y-81699904D02*
X58797295Y-81652285D01*
X58797295Y-81652285D02*
X58892533Y-81652285D01*
X58892533Y-81652285D02*
X59035390Y-81699904D01*
X59035390Y-81699904D02*
X59606819Y-82271332D01*
X59606819Y-82271332D02*
X59606819Y-81652285D01*
X127930819Y-90700857D02*
X127454628Y-91034190D01*
X127930819Y-91272285D02*
X126930819Y-91272285D01*
X126930819Y-91272285D02*
X126930819Y-90891333D01*
X126930819Y-90891333D02*
X126978438Y-90796095D01*
X126978438Y-90796095D02*
X127026057Y-90748476D01*
X127026057Y-90748476D02*
X127121295Y-90700857D01*
X127121295Y-90700857D02*
X127264152Y-90700857D01*
X127264152Y-90700857D02*
X127359390Y-90748476D01*
X127359390Y-90748476D02*
X127407009Y-90796095D01*
X127407009Y-90796095D02*
X127454628Y-90891333D01*
X127454628Y-90891333D02*
X127454628Y-91272285D01*
X127930819Y-89748476D02*
X127930819Y-90319904D01*
X127930819Y-90034190D02*
X126930819Y-90034190D01*
X126930819Y-90034190D02*
X127073676Y-90129428D01*
X127073676Y-90129428D02*
X127168914Y-90224666D01*
X127168914Y-90224666D02*
X127216533Y-90319904D01*
X126930819Y-89415142D02*
X126930819Y-88748476D01*
X126930819Y-88748476D02*
X127930819Y-89177047D01*
X116647095Y-72523819D02*
X116647095Y-73333342D01*
X116647095Y-73333342D02*
X116694714Y-73428580D01*
X116694714Y-73428580D02*
X116742333Y-73476200D01*
X116742333Y-73476200D02*
X116837571Y-73523819D01*
X116837571Y-73523819D02*
X117028047Y-73523819D01*
X117028047Y-73523819D02*
X117123285Y-73476200D01*
X117123285Y-73476200D02*
X117170904Y-73428580D01*
X117170904Y-73428580D02*
X117218523Y-73333342D01*
X117218523Y-73333342D02*
X117218523Y-72523819D01*
X117742333Y-73523819D02*
X117932809Y-73523819D01*
X117932809Y-73523819D02*
X118028047Y-73476200D01*
X118028047Y-73476200D02*
X118075666Y-73428580D01*
X118075666Y-73428580D02*
X118170904Y-73285723D01*
X118170904Y-73285723D02*
X118218523Y-73095247D01*
X118218523Y-73095247D02*
X118218523Y-72714295D01*
X118218523Y-72714295D02*
X118170904Y-72619057D01*
X118170904Y-72619057D02*
X118123285Y-72571438D01*
X118123285Y-72571438D02*
X118028047Y-72523819D01*
X118028047Y-72523819D02*
X117837571Y-72523819D01*
X117837571Y-72523819D02*
X117742333Y-72571438D01*
X117742333Y-72571438D02*
X117694714Y-72619057D01*
X117694714Y-72619057D02*
X117647095Y-72714295D01*
X117647095Y-72714295D02*
X117647095Y-72952390D01*
X117647095Y-72952390D02*
X117694714Y-73047628D01*
X117694714Y-73047628D02*
X117742333Y-73095247D01*
X117742333Y-73095247D02*
X117837571Y-73142866D01*
X117837571Y-73142866D02*
X118028047Y-73142866D01*
X118028047Y-73142866D02*
X118123285Y-73095247D01*
X118123285Y-73095247D02*
X118170904Y-73047628D01*
X118170904Y-73047628D02*
X118218523Y-72952390D01*
X142116905Y-62924819D02*
X142116905Y-61924819D01*
X142116905Y-61924819D02*
X142355000Y-61924819D01*
X142355000Y-61924819D02*
X142497857Y-61972438D01*
X142497857Y-61972438D02*
X142593095Y-62067676D01*
X142593095Y-62067676D02*
X142640714Y-62162914D01*
X142640714Y-62162914D02*
X142688333Y-62353390D01*
X142688333Y-62353390D02*
X142688333Y-62496247D01*
X142688333Y-62496247D02*
X142640714Y-62686723D01*
X142640714Y-62686723D02*
X142593095Y-62781961D01*
X142593095Y-62781961D02*
X142497857Y-62877200D01*
X142497857Y-62877200D02*
X142355000Y-62924819D01*
X142355000Y-62924819D02*
X142116905Y-62924819D01*
X143545476Y-61924819D02*
X143355000Y-61924819D01*
X143355000Y-61924819D02*
X143259762Y-61972438D01*
X143259762Y-61972438D02*
X143212143Y-62020057D01*
X143212143Y-62020057D02*
X143116905Y-62162914D01*
X143116905Y-62162914D02*
X143069286Y-62353390D01*
X143069286Y-62353390D02*
X143069286Y-62734342D01*
X143069286Y-62734342D02*
X143116905Y-62829580D01*
X143116905Y-62829580D02*
X143164524Y-62877200D01*
X143164524Y-62877200D02*
X143259762Y-62924819D01*
X143259762Y-62924819D02*
X143450238Y-62924819D01*
X143450238Y-62924819D02*
X143545476Y-62877200D01*
X143545476Y-62877200D02*
X143593095Y-62829580D01*
X143593095Y-62829580D02*
X143640714Y-62734342D01*
X143640714Y-62734342D02*
X143640714Y-62496247D01*
X143640714Y-62496247D02*
X143593095Y-62401009D01*
X143593095Y-62401009D02*
X143545476Y-62353390D01*
X143545476Y-62353390D02*
X143450238Y-62305771D01*
X143450238Y-62305771D02*
X143259762Y-62305771D01*
X143259762Y-62305771D02*
X143164524Y-62353390D01*
X143164524Y-62353390D02*
X143116905Y-62401009D01*
X143116905Y-62401009D02*
X143069286Y-62496247D01*
X67397333Y-80975580D02*
X67349714Y-81023200D01*
X67349714Y-81023200D02*
X67206857Y-81070819D01*
X67206857Y-81070819D02*
X67111619Y-81070819D01*
X67111619Y-81070819D02*
X66968762Y-81023200D01*
X66968762Y-81023200D02*
X66873524Y-80927961D01*
X66873524Y-80927961D02*
X66825905Y-80832723D01*
X66825905Y-80832723D02*
X66778286Y-80642247D01*
X66778286Y-80642247D02*
X66778286Y-80499390D01*
X66778286Y-80499390D02*
X66825905Y-80308914D01*
X66825905Y-80308914D02*
X66873524Y-80213676D01*
X66873524Y-80213676D02*
X66968762Y-80118438D01*
X66968762Y-80118438D02*
X67111619Y-80070819D01*
X67111619Y-80070819D02*
X67206857Y-80070819D01*
X67206857Y-80070819D02*
X67349714Y-80118438D01*
X67349714Y-80118438D02*
X67397333Y-80166057D01*
X67730667Y-80070819D02*
X68349714Y-80070819D01*
X68349714Y-80070819D02*
X68016381Y-80451771D01*
X68016381Y-80451771D02*
X68159238Y-80451771D01*
X68159238Y-80451771D02*
X68254476Y-80499390D01*
X68254476Y-80499390D02*
X68302095Y-80547009D01*
X68302095Y-80547009D02*
X68349714Y-80642247D01*
X68349714Y-80642247D02*
X68349714Y-80880342D01*
X68349714Y-80880342D02*
X68302095Y-80975580D01*
X68302095Y-80975580D02*
X68254476Y-81023200D01*
X68254476Y-81023200D02*
X68159238Y-81070819D01*
X68159238Y-81070819D02*
X67873524Y-81070819D01*
X67873524Y-81070819D02*
X67778286Y-81023200D01*
X67778286Y-81023200D02*
X67730667Y-80975580D01*
D11*
%TO.C,J6*%
X63440000Y-120456000D02*
X63440000Y-119126000D01*
X64770000Y-120456000D02*
X63440000Y-120456000D01*
X66040000Y-120456000D02*
X78800000Y-120456000D01*
X66040000Y-120456000D02*
X66040000Y-117796000D01*
X78800000Y-120456000D02*
X78800000Y-117796000D01*
X66040000Y-117796000D02*
X78800000Y-117796000D01*
%TO.C,J1*%
X54298000Y-91172000D02*
X55998000Y-91172000D01*
X54298000Y-81832000D02*
X55998000Y-81832000D01*
D12*
%TO.C,SW4*%
X157689100Y-117930900D02*
X161930900Y-117930900D01*
X161930900Y-117930900D02*
X161930900Y-106069100D01*
X161930900Y-106069100D02*
X157689100Y-106069100D01*
X157689100Y-106069100D02*
X157689100Y-117930900D01*
%TO.C,SW3*%
X151430900Y-50990900D02*
X151430900Y-46749100D01*
X151430900Y-46749100D02*
X139569100Y-46749100D01*
X139569100Y-46749100D02*
X139569100Y-50990900D01*
X139569100Y-50990900D02*
X151430900Y-50990900D01*
D11*
%TO.C,C12*%
X58508748Y-76877000D02*
X59031252Y-76877000D01*
X58508748Y-78347000D02*
X59031252Y-78347000D01*
%TO.C,D4*%
X154700000Y-94178000D02*
X154700000Y-96098000D01*
X154700000Y-96098000D02*
X157560000Y-96098000D01*
X157560000Y-94178000D02*
X154700000Y-94178000D01*
%TO.C,C18*%
X125091000Y-76857252D02*
X125091000Y-76334748D01*
X126561000Y-76857252D02*
X126561000Y-76334748D01*
%TO.C,BT1*%
X140366000Y-63546000D02*
X137866000Y-63546000D01*
X139116000Y-62296000D02*
X139116000Y-64796000D01*
X135256000Y-67986000D02*
X135256000Y-60986000D01*
X135256000Y-60986000D02*
X139616000Y-60986000D01*
X135256000Y-47106000D02*
X135256000Y-54106000D01*
X57976000Y-67986000D02*
X135256000Y-67986000D01*
X57976000Y-60986000D02*
X57976000Y-67966000D01*
X57976000Y-54106000D02*
X57976000Y-47106000D01*
X57976000Y-47106000D02*
X135256000Y-47106000D01*
X52866000Y-63546000D02*
X55366000Y-63546000D01*
%TO.C,C14*%
X120719000Y-82430748D02*
X120719000Y-82953252D01*
X119249000Y-82430748D02*
X119249000Y-82953252D01*
%TO.C,R7*%
X73512936Y-112183000D02*
X73967064Y-112183000D01*
X73512936Y-113653000D02*
X73967064Y-113653000D01*
%TO.C,D2*%
X149025000Y-97592000D02*
X149025000Y-99512000D01*
X149025000Y-99512000D02*
X151885000Y-99512000D01*
X151885000Y-97592000D02*
X149025000Y-97592000D01*
%TO.C,SW5*%
X131796000Y-116090000D02*
X135096000Y-116090000D01*
X131796000Y-116390000D02*
X131796000Y-116090000D01*
X131796000Y-118590000D02*
X131796000Y-118890000D01*
X131796000Y-118890000D02*
X135096000Y-118890000D01*
X135096000Y-116090000D02*
X135096000Y-116390000D01*
X135096000Y-118890000D02*
X135096000Y-118590000D01*
%TO.C,U4*%
X79787000Y-79283000D02*
X76337000Y-79283000D01*
X79787000Y-79283000D02*
X81737000Y-79283000D01*
X79787000Y-89403000D02*
X77837000Y-89403000D01*
X79787000Y-89403000D02*
X81737000Y-89403000D01*
%TO.C,C17*%
X126561000Y-80885248D02*
X126561000Y-81407752D01*
X125091000Y-80885248D02*
X125091000Y-81407752D01*
%TO.C,R18*%
X125091000Y-85713064D02*
X125091000Y-85258936D01*
X126561000Y-85713064D02*
X126561000Y-85258936D01*
%TO.C,C15*%
X119957000Y-70746748D02*
X119957000Y-71269252D01*
X118487000Y-70746748D02*
X118487000Y-71269252D01*
%TO.C,SW2*%
X54836000Y-75708000D02*
X54836000Y-79008000D01*
X54536000Y-75708000D02*
X54836000Y-75708000D01*
X52336000Y-75708000D02*
X52036000Y-75708000D01*
X52036000Y-75708000D02*
X52036000Y-79008000D01*
X54836000Y-79008000D02*
X54536000Y-79008000D01*
X52036000Y-79008000D02*
X52336000Y-79008000D01*
%TO.C,C11*%
X150491000Y-93853752D02*
X150491000Y-93331248D01*
X151961000Y-93853752D02*
X151961000Y-93331248D01*
%TO.C,R12*%
X117163000Y-82464936D02*
X117163000Y-82919064D01*
X115693000Y-82464936D02*
X115693000Y-82919064D01*
%TO.C,L1*%
X146714242Y-110796000D02*
X145893758Y-110796000D01*
X146714242Y-109676000D02*
X145893758Y-109676000D01*
%TO.C,R11*%
X111629000Y-71997064D02*
X111629000Y-71542936D01*
X113099000Y-71997064D02*
X113099000Y-71542936D01*
%TO.C,J11*%
X58598000Y-107462000D02*
X57348000Y-107462000D01*
X58308000Y-107752000D02*
X52338000Y-107752000D01*
X52338000Y-107752000D02*
X52338000Y-117872000D01*
X58298000Y-107762000D02*
X57548000Y-107762000D01*
X57548000Y-107762000D02*
X57548000Y-109562000D01*
X56048000Y-107762000D02*
X56048000Y-108512000D01*
X56048000Y-108512000D02*
X54708000Y-108512000D01*
X58598000Y-108712000D02*
X58598000Y-107462000D01*
X58298000Y-109562000D02*
X58298000Y-107762000D01*
X57548000Y-109562000D02*
X58298000Y-109562000D01*
X58298000Y-111062000D02*
X57548000Y-111062000D01*
X57548000Y-111062000D02*
X57548000Y-114562000D01*
X53098000Y-112812000D02*
X53098000Y-109572000D01*
X58298000Y-114562000D02*
X58298000Y-111062000D01*
X57548000Y-114562000D02*
X58298000Y-114562000D01*
X58298000Y-116062000D02*
X57548000Y-116062000D01*
X57548000Y-116062000D02*
X57548000Y-117862000D01*
X56048000Y-117112000D02*
X53098000Y-117112000D01*
X53098000Y-117112000D02*
X53098000Y-112812000D01*
X58298000Y-117862000D02*
X58298000Y-116062000D01*
X57548000Y-117862000D02*
X58298000Y-117862000D01*
X56048000Y-117862000D02*
X56048000Y-117112000D01*
X58308000Y-117872000D02*
X58308000Y-107752000D01*
X52338000Y-117872000D02*
X58308000Y-117872000D01*
%TO.C,Q2*%
X86631500Y-90536000D02*
X88306500Y-90536000D01*
X86631500Y-90536000D02*
X85981500Y-90536000D01*
X86631500Y-87416000D02*
X87281500Y-87416000D01*
X86631500Y-87416000D02*
X85981500Y-87416000D01*
%TO.C,D3*%
X67569000Y-111958000D02*
X67569000Y-113878000D01*
X67569000Y-113878000D02*
X70429000Y-113878000D01*
X70429000Y-111958000D02*
X67569000Y-111958000D01*
%TO.C,C9*%
X72767000Y-80645752D02*
X72767000Y-80123248D01*
X74237000Y-80645752D02*
X74237000Y-80123248D01*
%TO.C,R6*%
X86445064Y-81141000D02*
X85990936Y-81141000D01*
X86445064Y-79671000D02*
X85990936Y-79671000D01*
%TO.C,R14*%
X138030936Y-63385000D02*
X138485064Y-63385000D01*
X138030936Y-64855000D02*
X138485064Y-64855000D01*
%TO.C,J5*%
X149388000Y-53168000D02*
X150718000Y-53168000D01*
X149388000Y-54498000D02*
X149388000Y-53168000D01*
X149388000Y-55768000D02*
X149388000Y-63448000D01*
X149388000Y-55768000D02*
X152048000Y-55768000D01*
X149388000Y-63448000D02*
X152048000Y-63448000D01*
X152048000Y-55768000D02*
X152048000Y-63448000D01*
%TO.C,C16*%
X128358748Y-70527000D02*
X128881252Y-70527000D01*
X128358748Y-71997000D02*
X128881252Y-71997000D01*
%TO.C,U11*%
X138236000Y-99348000D02*
X144246000Y-99348000D01*
X140486000Y-106168000D02*
X144246000Y-106168000D01*
X144246000Y-99348000D02*
X144246000Y-100608000D01*
X144246000Y-106168000D02*
X144246000Y-104908000D01*
%TO.C,SW1*%
X54232000Y-93488000D02*
X54232000Y-96788000D01*
X53932000Y-93488000D02*
X54232000Y-93488000D01*
X51732000Y-93488000D02*
X51432000Y-93488000D01*
X51432000Y-93488000D02*
X51432000Y-96788000D01*
X54232000Y-96788000D02*
X53932000Y-96788000D01*
X51432000Y-96788000D02*
X51732000Y-96788000D01*
%TO.C,R15*%
X133202936Y-70527000D02*
X133657064Y-70527000D01*
X133202936Y-71997000D02*
X133657064Y-71997000D01*
%TO.C,R10*%
X58034936Y-72305000D02*
X58489064Y-72305000D01*
X58034936Y-73775000D02*
X58489064Y-73775000D01*
%TO.C,C5*%
X119449000Y-91596248D02*
X119449000Y-92118752D01*
X117979000Y-91596248D02*
X117979000Y-92118752D01*
D13*
%TO.C,Q3*%
X120202000Y-88271000D02*
X115702000Y-88271000D01*
X120202000Y-85241000D02*
X115702000Y-85241000D01*
D14*
X122492000Y-88131000D02*
G75*
G03*
X122492000Y-88131000I-100000J0D01*
G01*
D11*
%TO.C,C13*%
X74237000Y-74324248D02*
X74237000Y-74846752D01*
X72767000Y-74324248D02*
X72767000Y-74846752D01*
%TO.C,BZ1*%
X73506000Y-103774000D02*
G75*
G03*
X73506000Y-103774000I-6100000J0D01*
G01*
%TO.C,Q4*%
X131632000Y-98869500D02*
X131632000Y-100544500D01*
X131632000Y-98869500D02*
X131632000Y-98219500D01*
X134752000Y-98869500D02*
X134752000Y-99519500D01*
X134752000Y-98869500D02*
X134752000Y-98219500D01*
%TO.C,J7*%
X82251000Y-120456000D02*
X82251000Y-119126000D01*
X83581000Y-120456000D02*
X82251000Y-120456000D01*
X84851000Y-120456000D02*
X89991000Y-120456000D01*
X84851000Y-120456000D02*
X84851000Y-117796000D01*
X89991000Y-120456000D02*
X89991000Y-117796000D01*
X84851000Y-117796000D02*
X89991000Y-117796000D01*
%TO.C,D9*%
X67070000Y-92400000D02*
X67070000Y-94320000D01*
X67070000Y-94320000D02*
X69930000Y-94320000D01*
X69930000Y-92400000D02*
X67070000Y-92400000D01*
%TO.C,D8*%
X131734000Y-108290000D02*
X131734000Y-106370000D01*
X131734000Y-106370000D02*
X128874000Y-106370000D01*
X128874000Y-108290000D02*
X131734000Y-108290000D01*
%TO.C,Q1*%
X86534500Y-73512000D02*
X84859500Y-73512000D01*
X86534500Y-73512000D02*
X87184500Y-73512000D01*
X86534500Y-76632000D02*
X85884500Y-76632000D01*
X86534500Y-76632000D02*
X87184500Y-76632000D01*
%TO.C,R20*%
X134673064Y-108065000D02*
X134218936Y-108065000D01*
X134673064Y-106595000D02*
X134218936Y-106595000D01*
D13*
%TO.C,J3*%
X150338000Y-107545000D02*
X152938000Y-107545000D01*
X150818000Y-110385000D02*
X150338000Y-110385000D01*
X152458000Y-110385000D02*
X152938000Y-110385000D01*
D14*
X151738000Y-111565000D02*
G75*
G03*
X151738000Y-111565000I-100000J0D01*
G01*
D11*
%TO.C,C4*%
X115893000Y-91596248D02*
X115893000Y-92118752D01*
X114423000Y-91596248D02*
X114423000Y-92118752D01*
%TO.C,R13*%
X147049936Y-67911000D02*
X147504064Y-67911000D01*
X147049936Y-69381000D02*
X147504064Y-69381000D01*
%TO.C,R5*%
X86429064Y-84443000D02*
X85974936Y-84443000D01*
X86429064Y-82973000D02*
X85974936Y-82973000D01*
D13*
%TO.C,U5*%
X129196000Y-75434000D02*
X147996000Y-75434000D01*
X129196000Y-94634000D02*
X129196000Y-75434000D01*
X129196000Y-94634000D02*
X147996000Y-94634000D01*
X147996000Y-75434000D02*
X147996000Y-94634000D01*
D11*
%TO.C,D7*%
X131750000Y-113370000D02*
X131750000Y-111450000D01*
X131750000Y-111450000D02*
X128890000Y-111450000D01*
X128890000Y-113370000D02*
X131750000Y-113370000D01*
%TO.C,R16*%
X128393000Y-98413064D02*
X128393000Y-97958936D01*
X129863000Y-98413064D02*
X129863000Y-97958936D01*
%TO.C,J4*%
X153330000Y-90230000D02*
X160950000Y-90230000D01*
X160950000Y-90230000D02*
X160950000Y-80070000D01*
X153330000Y-80070000D02*
X153330000Y-90230000D01*
X159680000Y-80070000D02*
X159680000Y-90230000D01*
X160950000Y-80070000D02*
X153330000Y-80070000D01*
%TO.C,D1*%
X139504000Y-72100000D02*
X141104000Y-72100000D01*
X141104000Y-68900000D02*
X138804000Y-68900000D01*
%TO.C,J8*%
X101406000Y-117796000D02*
X101406000Y-119126000D01*
X100076000Y-117796000D02*
X101406000Y-117796000D01*
X98806000Y-117796000D02*
X93666000Y-117796000D01*
X98806000Y-117796000D02*
X98806000Y-120456000D01*
X93666000Y-117796000D02*
X93666000Y-120456000D01*
X98806000Y-120456000D02*
X93666000Y-120456000D01*
%TO.C,R8*%
X160650936Y-94403000D02*
X161105064Y-94403000D01*
X160650936Y-95873000D02*
X161105064Y-95873000D01*
%TO.C,C1*%
X68903000Y-87975748D02*
X68903000Y-88498252D01*
X67433000Y-87975748D02*
X67433000Y-88498252D01*
%TO.C,U1*%
X111210000Y-100970000D02*
X111210000Y-94555000D01*
X111210000Y-100970000D02*
X92970000Y-100970000D01*
X111210000Y-94555000D02*
X111590000Y-94555000D01*
X111210000Y-76010000D02*
X111210000Y-75230000D01*
X111210000Y-75230000D02*
X110210000Y-75230000D01*
X92970000Y-100970000D02*
X92970000Y-94555000D01*
X92970000Y-76010000D02*
X92970000Y-75230000D01*
X92970000Y-75230000D02*
X93970000Y-75230000D01*
%TO.C,U8*%
X62486000Y-79578000D02*
X62486000Y-73568000D01*
X69306000Y-77328000D02*
X69306000Y-73568000D01*
X62486000Y-73568000D02*
X63746000Y-73568000D01*
X69306000Y-73568000D02*
X68046000Y-73568000D01*
%TO.C,D5*%
X149735000Y-67940000D02*
X149735000Y-69860000D01*
X149735000Y-69860000D02*
X152595000Y-69860000D01*
X152595000Y-67940000D02*
X149735000Y-67940000D01*
%TO.C,R1*%
X61336936Y-89577000D02*
X61791064Y-89577000D01*
X61336936Y-91047000D02*
X61791064Y-91047000D01*
%TO.C,R9*%
X56003000Y-95127064D02*
X56003000Y-94672936D01*
X57473000Y-95127064D02*
X57473000Y-94672936D01*
%TO.C,R19*%
X134927064Y-113145000D02*
X134472936Y-113145000D01*
X134927064Y-111675000D02*
X134472936Y-111675000D01*
%TO.C,C8*%
X79063000Y-74302748D02*
X79063000Y-74825252D01*
X77593000Y-74302748D02*
X77593000Y-74825252D01*
%TO.C,U2*%
X63763500Y-86960000D02*
X63763500Y-85360000D01*
X61963500Y-85360000D02*
X61963500Y-87260000D01*
%TO.C,C10*%
X150868748Y-102135000D02*
X151391252Y-102135000D01*
X150868748Y-103605000D02*
X151391252Y-103605000D01*
D14*
%TO.C,U10*%
X126464000Y-72278000D02*
G75*
G03*
X126464000Y-72278000I-100000J0D01*
G01*
D13*
%TO.C,J2*%
X158940000Y-66120000D02*
X161540000Y-66120000D01*
X159420000Y-68960000D02*
X158940000Y-68960000D01*
X161060000Y-68960000D02*
X161540000Y-68960000D01*
D14*
X160340000Y-70140000D02*
G75*
G03*
X160340000Y-70140000I-100000J0D01*
G01*
D11*
%TO.C,R2*%
X60067000Y-82665064D02*
X60067000Y-82210936D01*
X61537000Y-82665064D02*
X61537000Y-82210936D01*
%TO.C,R17*%
X126561000Y-89830936D02*
X126561000Y-90285064D01*
X125091000Y-89830936D02*
X125091000Y-90285064D01*
%TO.C,U9*%
X117409000Y-73909000D02*
X113959000Y-73909000D01*
X117409000Y-73909000D02*
X119359000Y-73909000D01*
X117409000Y-79029000D02*
X115459000Y-79029000D01*
X117409000Y-79029000D02*
X119359000Y-79029000D01*
%TO.C,D6*%
X140995000Y-63160000D02*
X140995000Y-65080000D01*
X140995000Y-65080000D02*
X143855000Y-65080000D01*
X143855000Y-63160000D02*
X140995000Y-63160000D01*
%TO.C,C3*%
X67302748Y-81561000D02*
X67825252Y-81561000D01*
X67302748Y-83031000D02*
X67825252Y-83031000D01*
%TD*%
D15*
X65740000Y-116960000D03*
X56358115Y-87325123D03*
X56570000Y-85540000D03*
X59330000Y-89160000D03*
X121550500Y-78709500D03*
X115390000Y-79910500D03*
X124110000Y-72180000D03*
X113630000Y-85630000D03*
X122290000Y-85600000D03*
X108450000Y-63934500D03*
X152670000Y-93990000D03*
D16*
X96770000Y-81730000D03*
X96800000Y-85020000D03*
D15*
X161880000Y-96550000D03*
X152800500Y-96330000D03*
X62300000Y-55440000D03*
X75420000Y-81240000D03*
X65140000Y-112137500D03*
X74860000Y-82710000D03*
X66205500Y-112137500D03*
X72830000Y-117020000D03*
X109390000Y-92120000D03*
X132040000Y-97660000D03*
X106500000Y-77140000D03*
X127240000Y-77620000D03*
X122210000Y-81780000D03*
X145170000Y-87940000D03*
X107790000Y-79500000D03*
X109070000Y-80000000D03*
X58130000Y-93410000D03*
X64920000Y-81170000D03*
X68210000Y-77000000D03*
X61330000Y-85000000D03*
X59340000Y-84450000D03*
X57730000Y-79050000D03*
X79700000Y-72000000D03*
X80704500Y-80830000D03*
X126320000Y-70640000D03*
X114090000Y-83050000D03*
X126280000Y-71650000D03*
X129140000Y-94640500D03*
X131030000Y-95960000D03*
X126890000Y-95360000D03*
X154470000Y-108970000D03*
X134130000Y-101120000D03*
X136630000Y-107180000D03*
X133280000Y-88880000D03*
X144590000Y-77010000D03*
X127930000Y-86990000D03*
X127640000Y-92280000D03*
X135450000Y-71220000D03*
X130760000Y-71240000D03*
X127290000Y-75460000D03*
X121739500Y-72360000D03*
X119180000Y-68505500D03*
X140010000Y-70520000D03*
X131130000Y-90430000D03*
X144170000Y-110300000D03*
X141260000Y-105550000D03*
X148690000Y-105610000D03*
X145100000Y-64120000D03*
X152660000Y-67340000D03*
X155140000Y-92860000D03*
X152800000Y-92800000D03*
X151130000Y-96230000D03*
X146270000Y-97300000D03*
X90230000Y-91475500D03*
X143940000Y-71480000D03*
X147580000Y-74370000D03*
X148404424Y-65625861D03*
X148790000Y-78160000D03*
X149010000Y-66300000D03*
X149530000Y-77490000D03*
X139130000Y-72480000D03*
X145590000Y-73800000D03*
X121550500Y-77210000D03*
X137927864Y-70304500D03*
X135610000Y-64030000D03*
X138970000Y-65450000D03*
X143998056Y-67488056D03*
X143060000Y-67630000D03*
X91520000Y-92150000D03*
X94930000Y-79590000D03*
X97660000Y-73640000D03*
X66720000Y-87100000D03*
X66560000Y-83710000D03*
X131120000Y-108760000D03*
X133270000Y-108700000D03*
X144430000Y-95750000D03*
X131270000Y-105700000D03*
X131950000Y-74300000D03*
X112660000Y-81960000D03*
X144970000Y-90620000D03*
X131150000Y-104610000D03*
X133660000Y-111190000D03*
X131220000Y-110950000D03*
X91904500Y-85310000D03*
X96330000Y-74190000D03*
X92090000Y-77030000D03*
X88861000Y-89960000D03*
X89535500Y-79610000D03*
X108990000Y-90800000D03*
X84020000Y-80370000D03*
X83650000Y-77060000D03*
X85620000Y-77250000D03*
X88255500Y-82160000D03*
D17*
X64770000Y-119126000D03*
X67310000Y-119126000D03*
X69850000Y-119126000D03*
X72390000Y-119126000D03*
X74930000Y-119126000D03*
X77470000Y-119126000D03*
D18*
X53123000Y-90822000D03*
D19*
X57303000Y-90822000D03*
D18*
X53123000Y-82182000D03*
D19*
X57303000Y-82182000D03*
D17*
X56803000Y-89392000D03*
X56803000Y-83612000D03*
X159810000Y-109500000D03*
X159810000Y-112000000D03*
X159810000Y-114500000D03*
X143000000Y-48870000D03*
X145500000Y-48870000D03*
X148000000Y-48870000D03*
X132546000Y-65546000D03*
X124216000Y-49546000D03*
X69016000Y-65546000D03*
X160463274Y-46203274D03*
X160946548Y-45036548D03*
X160946548Y-47370000D03*
X162113274Y-44553274D03*
X162113274Y-46203274D03*
X162113274Y-47853274D03*
X163280000Y-45036548D03*
X163280000Y-47370000D03*
X163763274Y-46203274D03*
X53848000Y-108712000D03*
X55848000Y-110312000D03*
X55848000Y-112812000D03*
X55848000Y-115312000D03*
X150718000Y-54498000D03*
X150718000Y-57038000D03*
X150718000Y-59578000D03*
X150718000Y-62118000D03*
X67406000Y-107574000D03*
X67406000Y-99974000D03*
X163796726Y-122936726D03*
X163313452Y-124103452D03*
X163313452Y-121770000D03*
X162146726Y-124586726D03*
X162146726Y-122936726D03*
X162146726Y-121286726D03*
X160980000Y-124103452D03*
X160980000Y-121770000D03*
X160496726Y-122936726D03*
X54943274Y-123046726D03*
X54460000Y-124213452D03*
X54460000Y-121880000D03*
X53293274Y-124696726D03*
X53293274Y-123046726D03*
X53293274Y-121396726D03*
X52126548Y-124213452D03*
X52126548Y-121880000D03*
X51643274Y-123046726D03*
X83581000Y-119126000D03*
X86121000Y-119126000D03*
X88661000Y-119126000D03*
X157140000Y-87690000D03*
X157140000Y-82610000D03*
X51710000Y-46300000D03*
X52193274Y-45133274D03*
X52193274Y-47466726D03*
X53360000Y-44650000D03*
X53360000Y-46300000D03*
X53360000Y-47950000D03*
X54526726Y-45133274D03*
X54526726Y-47466726D03*
X55010000Y-46300000D03*
X100076000Y-119126000D03*
X97536000Y-119126000D03*
X94996000Y-119126000D03*
D20*
X104990000Y-86340000D03*
X104990000Y-84940000D03*
X104290000Y-87040000D03*
X104290000Y-85640000D03*
X104290000Y-84240000D03*
X103615000Y-86340000D03*
X103615000Y-84940000D03*
X102890000Y-87040000D03*
X102890000Y-85640000D03*
X102890000Y-84240000D03*
X102190000Y-86340000D03*
X102190000Y-84940000D03*
M02*
