%TF.GenerationSoftware,KiCad,Pcbnew,7.0.8*%
%TF.CreationDate,2024-04-11T13:26:56+03:00*%
%TF.ProjectId,rp2040DVI,72703230-3430-4445-9649-2e6b69636164,rev?*%
%TF.SameCoordinates,Original*%
%TF.FileFunction,Copper,L4,Bot*%
%TF.FilePolarity,Positive*%
%FSLAX46Y46*%
G04 Gerber Fmt 4.6, Leading zero omitted, Abs format (unit mm)*
G04 Created by KiCad (PCBNEW 7.0.8) date 2024-04-11 13:26:56*
%MOMM*%
%LPD*%
G01*
G04 APERTURE LIST*
G04 Aperture macros list*
%AMRoundRect*
0 Rectangle with rounded corners*
0 $1 Rounding radius*
0 $2 $3 $4 $5 $6 $7 $8 $9 X,Y pos of 4 corners*
0 Add a 4 corners polygon primitive as box body*
4,1,4,$2,$3,$4,$5,$6,$7,$8,$9,$2,$3,0*
0 Add four circle primitives for the rounded corners*
1,1,$1+$1,$2,$3*
1,1,$1+$1,$4,$5*
1,1,$1+$1,$6,$7*
1,1,$1+$1,$8,$9*
0 Add four rect primitives between the rounded corners*
20,1,$1+$1,$2,$3,$4,$5,0*
20,1,$1+$1,$4,$5,$6,$7,0*
20,1,$1+$1,$6,$7,$8,$9,0*
20,1,$1+$1,$8,$9,$2,$3,0*%
G04 Aperture macros list end*
%TA.AperFunction,ComponentPad*%
%ADD10C,0.700000*%
%TD*%
%TA.AperFunction,ComponentPad*%
%ADD11C,4.400000*%
%TD*%
%TA.AperFunction,ComponentPad*%
%ADD12O,3.300000X1.500000*%
%TD*%
%TA.AperFunction,ComponentPad*%
%ADD13O,2.300000X1.500000*%
%TD*%
%TA.AperFunction,ComponentPad*%
%ADD14O,2.100000X1.000000*%
%TD*%
%TA.AperFunction,ComponentPad*%
%ADD15O,1.800000X1.000000*%
%TD*%
%TA.AperFunction,SMDPad,CuDef*%
%ADD16RoundRect,0.135000X-0.185000X0.135000X-0.185000X-0.135000X0.185000X-0.135000X0.185000X0.135000X0*%
%TD*%
%TA.AperFunction,SMDPad,CuDef*%
%ADD17RoundRect,0.135000X0.185000X-0.135000X0.185000X0.135000X-0.185000X0.135000X-0.185000X-0.135000X0*%
%TD*%
%TA.AperFunction,SMDPad,CuDef*%
%ADD18RoundRect,0.140000X0.170000X-0.140000X0.170000X0.140000X-0.170000X0.140000X-0.170000X-0.140000X0*%
%TD*%
%TA.AperFunction,SMDPad,CuDef*%
%ADD19R,0.700000X1.750000*%
%TD*%
%TA.AperFunction,SMDPad,CuDef*%
%ADD20R,1.450000X1.000000*%
%TD*%
%TA.AperFunction,SMDPad,CuDef*%
%ADD21R,1.000000X1.550000*%
%TD*%
%TA.AperFunction,SMDPad,CuDef*%
%ADD22R,0.800000X1.500000*%
%TD*%
%TA.AperFunction,SMDPad,CuDef*%
%ADD23R,1.300000X1.500000*%
%TD*%
%TA.AperFunction,SMDPad,CuDef*%
%ADD24R,1.500000X1.500000*%
%TD*%
%TA.AperFunction,SMDPad,CuDef*%
%ADD25R,0.800000X1.400000*%
%TD*%
%TA.AperFunction,ViaPad*%
%ADD26C,0.300000*%
%TD*%
%TA.AperFunction,ViaPad*%
%ADD27C,0.150000*%
%TD*%
%TA.AperFunction,Conductor*%
%ADD28C,0.300000*%
%TD*%
%TA.AperFunction,Conductor*%
%ADD29C,0.120000*%
%TD*%
%ADD30C,0.150000*%
%ADD31C,0.149999*%
%ADD32C,0.350000*%
%ADD33O,2.700000X0.900000*%
%ADD34O,1.700000X0.900000*%
%ADD35O,1.700000X0.600000*%
%ADD36O,1.400000X0.600000*%
G04 APERTURE END LIST*
D10*
%TO.P,H2,1,1*%
%TO.N,GND*%
X207380000Y-103490000D03*
X207863274Y-102323274D03*
X207863274Y-104656726D03*
X209030000Y-101840000D03*
D11*
X209030000Y-103490000D03*
D10*
X209030000Y-105140000D03*
X210196726Y-102323274D03*
X210196726Y-104656726D03*
X210680000Y-103490000D03*
%TD*%
D12*
%TO.P,J1,SH,SH*%
%TO.N,GND*%
X202760000Y-84750000D03*
X202760000Y-99250000D03*
D13*
X208720000Y-84750000D03*
X208720000Y-99250000D03*
%TD*%
D10*
%TO.P,H1,1,1*%
%TO.N,GND*%
X207270000Y-79600000D03*
X207753274Y-78433274D03*
X207753274Y-80766726D03*
X208920000Y-77950000D03*
D11*
X208920000Y-79600000D03*
D10*
X208920000Y-81250000D03*
X210086726Y-78433274D03*
X210086726Y-80766726D03*
X210570000Y-79600000D03*
%TD*%
D14*
%TO.P,J2,S1,SHIELD*%
%TO.N,GND*%
X156365000Y-87020000D03*
D15*
X152185000Y-87020000D03*
D14*
X156365000Y-95660000D03*
D15*
X152185000Y-95660000D03*
%TD*%
D16*
%TO.P,R10,1*%
%TO.N,+3V3*%
X174150000Y-91750000D03*
%TO.P,R10,2*%
%TO.N,/SD_DAT1*%
X174150000Y-92770000D03*
%TD*%
D17*
%TO.P,R11,1*%
%TO.N,/SD_DAT2*%
X181000000Y-92250000D03*
%TO.P,R11,2*%
%TO.N,+3V3*%
X181000000Y-91230000D03*
%TD*%
%TO.P,R12,1*%
%TO.N,/GPIO5*%
X177650000Y-92270000D03*
%TO.P,R12,2*%
%TO.N,GND*%
X177650000Y-91250000D03*
%TD*%
D18*
%TO.P,C20,1*%
%TO.N,+3V3*%
X174150000Y-90750000D03*
%TO.P,C20,2*%
%TO.N,GND*%
X174150000Y-89790000D03*
%TD*%
D19*
%TO.P,J5,1,DAT2*%
%TO.N,/SD_DAT2*%
X182200000Y-94625000D03*
%TO.P,J5,2,DAT3/CD*%
%TO.N,/GPIO22*%
X181100000Y-94625000D03*
%TO.P,J5,3,CMD*%
%TO.N,/GPIO18*%
X180000000Y-94625000D03*
%TO.P,J5,4,VDD*%
%TO.N,+3V3*%
X178900000Y-94625000D03*
%TO.P,J5,5,CLK*%
%TO.N,/GPIO5*%
X177800000Y-94625000D03*
%TO.P,J5,6,VSS*%
%TO.N,GND*%
X176700000Y-94625000D03*
%TO.P,J5,7,DAT0*%
%TO.N,/GPIO19*%
X175600000Y-94625000D03*
%TO.P,J5,8,DAT1*%
%TO.N,/SD_DAT1*%
X174500000Y-94625000D03*
D20*
%TO.P,J5,9,DET_B*%
%TO.N,unconnected-(J5-DET_B-Pad9)*%
X173375000Y-103850000D03*
D21*
%TO.P,J5,10,DET_A*%
%TO.N,unconnected-(J5-DET_A-Pad10)*%
X184600000Y-105425000D03*
D22*
%TO.P,J5,11,SHIELD*%
%TO.N,GND*%
X173050000Y-102350000D03*
D23*
X173300000Y-94750000D03*
D24*
X184650000Y-94750000D03*
D25*
X185000000Y-103000000D03*
%TD*%
D26*
%TO.N,+3V3*%
X180848000Y-90678000D03*
X184310000Y-98670000D03*
X189380000Y-91770000D03*
X173320000Y-90520000D03*
X178800000Y-98610000D03*
X165650000Y-88970000D03*
D27*
X169450000Y-101000000D03*
D26*
X163710000Y-82060000D03*
X173430000Y-98600000D03*
X181102000Y-93400500D03*
X192760000Y-95960000D03*
X179000000Y-96299500D03*
X163936113Y-91090817D03*
X163990000Y-92709500D03*
X156050000Y-79570000D03*
X175150000Y-98389500D03*
X161150000Y-92970000D03*
X182090000Y-88150000D03*
X187520000Y-98920000D03*
X172650000Y-88740000D03*
D27*
X167980000Y-100500000D03*
D26*
X167520000Y-86460000D03*
X165290000Y-100500000D03*
X172390000Y-93050000D03*
X177243650Y-98840962D03*
X167970000Y-88500000D03*
X180380000Y-96330500D03*
%TO.N,GND*%
X170710000Y-100000000D03*
X204680000Y-92360000D03*
X173660000Y-99660000D03*
X154120000Y-88410000D03*
X183140000Y-94780000D03*
X184912000Y-91948000D03*
X185420000Y-91186000D03*
X187500000Y-84680000D03*
X190180000Y-94710000D03*
X186180000Y-94810000D03*
X163500000Y-89670000D03*
X168540000Y-99280000D03*
X176120000Y-101920000D03*
X174780000Y-91270000D03*
X183388000Y-102870000D03*
X184912000Y-90424000D03*
X163530000Y-90800000D03*
D27*
X163570000Y-79770000D03*
D26*
X152510000Y-88770000D03*
X186690000Y-91186000D03*
X163370000Y-93650000D03*
X158800000Y-95580000D03*
X154020000Y-100940000D03*
X203930000Y-87980000D03*
X177948018Y-96330500D03*
X191980000Y-94030000D03*
X185674000Y-90424000D03*
X186690000Y-90170000D03*
X163390000Y-92940000D03*
X171110000Y-101600000D03*
X181120000Y-90020000D03*
X186690000Y-90678000D03*
X171760000Y-102970000D03*
X188280000Y-85190000D03*
X168570000Y-86740000D03*
X169810000Y-86830000D03*
X185928000Y-91186000D03*
X177030000Y-102520000D03*
X175599500Y-92920000D03*
D27*
X160010000Y-80160000D03*
D26*
X157870000Y-104240000D03*
X163610000Y-88450000D03*
X176080000Y-92250000D03*
X171720000Y-99970000D03*
X158160000Y-87660000D03*
X204770000Y-95400000D03*
X179650000Y-79460000D03*
X181710000Y-85800000D03*
X175370000Y-85360000D03*
X167460000Y-95340000D03*
X158580000Y-88160000D03*
X153340000Y-85280000D03*
X185420000Y-91694000D03*
X178990000Y-85390000D03*
X203730000Y-90950000D03*
D27*
X160270000Y-84160000D03*
D26*
X178770000Y-88340500D03*
X184912000Y-91186000D03*
X203910000Y-89490000D03*
X183990000Y-81510000D03*
%TO.N,+5V*%
X156020000Y-84290000D03*
X154190000Y-90470000D03*
X161180000Y-86330000D03*
X196470000Y-99290000D03*
D27*
%TO.N,Net-(J1-CK-)*%
X199220000Y-96990000D03*
X204030000Y-93070000D03*
D26*
%TO.N,/SCL*%
X198500000Y-99010500D03*
X184280000Y-100120000D03*
%TO.N,/SDA*%
X199158861Y-98978540D03*
X173780315Y-99009500D03*
D27*
%TO.N,/USB_D-*%
X156060000Y-90580000D03*
X156020000Y-91580000D03*
%TO.N,/SD_DAT2*%
X180390000Y-92310000D03*
X169585000Y-90810000D03*
%TO.N,/GPIO22*%
X168800000Y-90770000D03*
X181110000Y-95860000D03*
%TO.N,/GPIO18*%
X170450000Y-90840000D03*
X179990000Y-89810000D03*
%TO.N,/GPIO5*%
X170020000Y-95840000D03*
%TO.N,/GPIO19*%
X175190000Y-90100000D03*
%TO.N,/SD_DAT1*%
X172570000Y-92090000D03*
X169970000Y-90680000D03*
%TO.N,/QSPI_SS*%
X161860000Y-101570000D03*
X164870000Y-98890000D03*
%TO.N,/DVI_D2+*%
X170300000Y-94390000D03*
X190460000Y-89750000D03*
%TO.N,/DVI_D2-*%
X190500000Y-90230000D03*
X170720000Y-95120000D03*
%TO.N,/DVI_D1+*%
X170855000Y-90895000D03*
X186910000Y-87750000D03*
%TO.N,/DVI_D1-*%
X193310000Y-91180000D03*
X171780000Y-88310000D03*
%TO.N,/DVI_D0+*%
X190610000Y-91610000D03*
X171230000Y-96740000D03*
%TO.N,/DVI_D0-*%
X190720000Y-92030000D03*
X170510000Y-97590000D03*
%TO.N,/DVI_CK+*%
X170040000Y-97430000D03*
X192680000Y-92740000D03*
%TO.N,/DVI_CK-*%
X195080000Y-97300000D03*
X169640000Y-97330000D03*
%TO.N,/QSPI_SD1*%
X161250000Y-101470000D03*
X162580000Y-97840000D03*
%TO.N,/QSPI_SD2*%
X162210000Y-98400000D03*
X160858406Y-102628406D03*
%TO.N,/QSPI_SCLK*%
X164040000Y-101300000D03*
X165100000Y-103090000D03*
%TO.N,/QSPI_SD3*%
X165000000Y-101730000D03*
X163690000Y-101700000D03*
%TO.N,/INT1*%
X168090000Y-91040000D03*
X172980000Y-99370000D03*
%TO.N,/BOOT*%
X187000000Y-96330000D03*
X187000000Y-94160000D03*
%TO.N,/C3_RXD*%
X165880000Y-95880000D03*
X186230000Y-86230000D03*
%TO.N,/C3_TXD*%
X166330000Y-95790000D03*
X186000000Y-86680000D03*
%TD*%
D28*
%TO.N,+3V3*%
X173550000Y-90750000D02*
X173320000Y-90520000D01*
D29*
X178900000Y-96199500D02*
X179000000Y-96299500D01*
D28*
X181000000Y-91230000D02*
X181000000Y-90830000D01*
X174150000Y-91750000D02*
X174150000Y-90750000D01*
X174150000Y-90750000D02*
X173550000Y-90750000D01*
D29*
X178900000Y-94625000D02*
X178900000Y-96199500D01*
D28*
X181000000Y-91132500D02*
X181000000Y-91230000D01*
X181000000Y-90830000D02*
X180848000Y-90678000D01*
%TO.N,GND*%
X186120000Y-94750000D02*
X186180000Y-94810000D01*
X184650000Y-94750000D02*
X186120000Y-94750000D01*
X183518000Y-103000000D02*
X183388000Y-102870000D01*
X185000000Y-103000000D02*
X183518000Y-103000000D01*
D29*
%TO.N,Net-(J1-CK-)*%
X199220000Y-96990000D02*
X203650000Y-96990000D01*
X204030000Y-96610000D02*
X204030000Y-93070000D01*
X203650000Y-96990000D02*
X204030000Y-96610000D01*
%TO.N,/SCL*%
X198500000Y-99290000D02*
X197760000Y-100030000D01*
X198500000Y-99010500D02*
X198500000Y-99290000D01*
X197670000Y-100120000D02*
X197760000Y-100030000D01*
X184280000Y-100120000D02*
X197670000Y-100120000D01*
%TO.N,/SDA*%
X199158861Y-99231139D02*
X198910000Y-99480000D01*
X184308866Y-99250962D02*
X174240962Y-99250962D01*
X174240962Y-99250962D02*
X173999500Y-99009500D01*
X199158861Y-98978540D02*
X199158861Y-99231139D01*
X185259828Y-98300000D02*
X184308866Y-99250962D01*
X173999500Y-99009500D02*
X173780315Y-99009500D01*
X198910000Y-99480000D02*
X198910000Y-98840672D01*
X198369328Y-98300000D02*
X185259828Y-98300000D01*
X198910000Y-98840672D02*
X198369328Y-98300000D01*
%TO.N,/USB_D-*%
X156010000Y-90630000D02*
X156060000Y-90580000D01*
X156010000Y-91590000D02*
X156010000Y-90630000D01*
%TO.N,/SD_DAT2*%
X180450000Y-92250000D02*
X180390000Y-92310000D01*
X181000000Y-92250000D02*
X182200000Y-93450000D01*
X181000000Y-92250000D02*
X180450000Y-92250000D01*
X182200000Y-93450000D02*
X182200000Y-94625000D01*
%TO.N,/GPIO22*%
X181100000Y-94625000D02*
X181100000Y-95850000D01*
X181100000Y-95850000D02*
X181110000Y-95860000D01*
%TO.N,/GPIO18*%
X180000000Y-94625000D02*
X180000000Y-89820000D01*
X180000000Y-89820000D02*
X179990000Y-89810000D01*
%TO.N,/GPIO5*%
X177650000Y-92270000D02*
X177650000Y-94475000D01*
X170340000Y-96160000D02*
X170020000Y-95840000D01*
X177800000Y-94625000D02*
X177800000Y-95900000D01*
X177800000Y-95900000D02*
X177540000Y-96160000D01*
X177650000Y-94475000D02*
X177800000Y-94625000D01*
X177540000Y-96160000D02*
X170340000Y-96160000D01*
%TO.N,/GPIO19*%
X175190000Y-93110000D02*
X175190000Y-90100000D01*
X175600000Y-93520000D02*
X175370000Y-93290000D01*
X175600000Y-94625000D02*
X175600000Y-93520000D01*
X175370000Y-93290000D02*
X175190000Y-93110000D01*
%TO.N,/SD_DAT1*%
X174150000Y-92770000D02*
X174500000Y-93120000D01*
X174500000Y-93120000D02*
X174500000Y-94625000D01*
X173250000Y-92770000D02*
X172570000Y-92090000D01*
X174150000Y-92770000D02*
X173250000Y-92770000D01*
%TO.N,/QSPI_SS*%
X164870000Y-98890000D02*
X162190000Y-101570000D01*
X162190000Y-101570000D02*
X161860000Y-101570000D01*
%TO.N,/DVI_D2+*%
X173550000Y-88750000D02*
X170440000Y-91860000D01*
X189460000Y-88750000D02*
X173550000Y-88750000D01*
X190460000Y-89750000D02*
X189460000Y-88750000D01*
X170440000Y-91860000D02*
X170300000Y-92000000D01*
X170300000Y-92000000D02*
X170300000Y-94390000D01*
%TO.N,/DVI_D2-*%
X189270000Y-89180000D02*
X173572548Y-89180000D01*
X190320000Y-90230000D02*
X189270000Y-89180000D01*
X173572548Y-89180000D02*
X170720000Y-92032548D01*
X170720000Y-92032548D02*
X170720000Y-95120000D01*
X190500000Y-90230000D02*
X190320000Y-90230000D01*
%TO.N,/DVI_D1+*%
X172035000Y-88695000D02*
X173170000Y-87560000D01*
X171620527Y-88695000D02*
X172035000Y-88695000D01*
X186720000Y-87560000D02*
X186910000Y-87750000D01*
X171395000Y-88469473D02*
X171620527Y-88695000D01*
X171118527Y-88469473D02*
X171395000Y-88469473D01*
X173170000Y-87560000D02*
X186720000Y-87560000D01*
X170855000Y-90895000D02*
X170855000Y-88733000D01*
X170855000Y-88733000D02*
X171118527Y-88469473D01*
%TO.N,/DVI_D1-*%
X193310000Y-91180000D02*
X191160000Y-91180000D01*
X190070000Y-87240000D02*
X172850000Y-87240000D01*
X172850000Y-87240000D02*
X171780000Y-88310000D01*
X191160000Y-91180000D02*
X190885000Y-90905000D01*
X190885000Y-90905000D02*
X190885000Y-88055000D01*
X190885000Y-88055000D02*
X190070000Y-87240000D01*
%TO.N,/DVI_D0+*%
X171230000Y-96740000D02*
X188710000Y-96740000D01*
X188710000Y-93495527D02*
X190595527Y-91610000D01*
X190595527Y-91610000D02*
X190610000Y-91610000D01*
X188710000Y-96740000D02*
X188710000Y-93495527D01*
%TO.N,/DVI_D0-*%
X189030000Y-93720000D02*
X190720000Y-92030000D01*
X170660000Y-97740000D02*
X171060000Y-97740000D01*
X189030000Y-96872548D02*
X189030000Y-93720000D01*
X188842548Y-97060000D02*
X189030000Y-96872548D01*
X170510000Y-97590000D02*
X170660000Y-97740000D01*
X171060000Y-97740000D02*
X171740000Y-97060000D01*
X171740000Y-97060000D02*
X188842548Y-97060000D01*
%TO.N,/DVI_CK+*%
X170040000Y-97664473D02*
X170475527Y-98100000D01*
X170040000Y-97430000D02*
X170040000Y-97664473D01*
X189660000Y-97150000D02*
X189660000Y-93790000D01*
X170475527Y-98100000D02*
X171320000Y-98100000D01*
X189660000Y-93790000D02*
X190710000Y-92740000D01*
X190710000Y-92740000D02*
X192680000Y-92740000D01*
X171320000Y-98100000D02*
X171840000Y-97580000D01*
X171840000Y-97580000D02*
X189230000Y-97580000D01*
X189230000Y-97580000D02*
X189660000Y-97150000D01*
%TO.N,/DVI_CK-*%
X194400000Y-97980000D02*
X195080000Y-97300000D01*
X171660000Y-98420000D02*
X172100000Y-97980000D01*
X169680000Y-97730000D02*
X169680000Y-98030000D01*
X170070000Y-98420000D02*
X171660000Y-98420000D01*
X169640000Y-97330000D02*
X169640000Y-97690000D01*
X169680000Y-98030000D02*
X170070000Y-98420000D01*
X172100000Y-97980000D02*
X194400000Y-97980000D01*
X169640000Y-97690000D02*
X169680000Y-97730000D01*
%TO.N,/QSPI_SD1*%
X161250000Y-101470000D02*
X162595000Y-100125000D01*
X162595000Y-97855000D02*
X162580000Y-97840000D01*
X162595000Y-100125000D02*
X162595000Y-97855000D01*
%TO.N,/QSPI_SD2*%
X160860000Y-101634473D02*
X160865000Y-101629473D01*
X160865000Y-101629473D02*
X160865000Y-100895000D01*
X160865000Y-100895000D02*
X162210000Y-99550000D01*
X162210000Y-99550000D02*
X162210000Y-98400000D01*
X160858406Y-102628406D02*
X160860000Y-102626812D01*
X160860000Y-102626812D02*
X160860000Y-101634473D01*
%TO.N,/QSPI_SCLK*%
X165385000Y-102355000D02*
X164970000Y-102770000D01*
X165385000Y-101465000D02*
X165385000Y-102355000D01*
X164970000Y-102770000D02*
X164970000Y-102960000D01*
X165310000Y-101390000D02*
X165385000Y-101465000D01*
X164970000Y-102960000D02*
X165100000Y-103090000D01*
X164040000Y-101300000D02*
X165220000Y-101300000D01*
X165220000Y-101300000D02*
X165310000Y-101390000D01*
%TO.N,/QSPI_SD3*%
X163720000Y-101730000D02*
X163690000Y-101700000D01*
X165000000Y-101730000D02*
X163720000Y-101730000D01*
%TO.N,/INT1*%
X172980000Y-99370000D02*
X172980000Y-98860000D01*
X169340000Y-98270000D02*
X169255000Y-98185000D01*
X169810000Y-98740000D02*
X169340000Y-98270000D01*
X169255000Y-92205000D02*
X168090000Y-91040000D01*
X172980000Y-98860000D02*
X172860000Y-98740000D01*
X172860000Y-98740000D02*
X169810000Y-98740000D01*
X169255000Y-98185000D02*
X169255000Y-92205000D01*
%TO.N,/BOOT*%
X187000000Y-94160000D02*
X187000000Y-96330000D01*
%TO.N,/C3_RXD*%
X180820000Y-83430000D02*
X181920000Y-84530000D01*
X164750000Y-84790000D02*
X166110000Y-83430000D01*
X166110000Y-83430000D02*
X180820000Y-83430000D01*
X164750000Y-90260000D02*
X164750000Y-84790000D01*
X165880000Y-95880000D02*
X165880000Y-91390000D01*
X183620000Y-86230000D02*
X186230000Y-86230000D01*
X181920000Y-84530000D02*
X183620000Y-86230000D01*
X165880000Y-91390000D02*
X164750000Y-90260000D01*
%TO.N,/C3_TXD*%
X166330000Y-91360000D02*
X165070000Y-90100000D01*
X165070000Y-90100000D02*
X165070000Y-84960000D01*
X180687452Y-83750000D02*
X183487452Y-86550000D01*
X166280000Y-83750000D02*
X180687452Y-83750000D01*
X183487452Y-86550000D02*
X185870000Y-86550000D01*
X185870000Y-86550000D02*
X186000000Y-86680000D01*
X165070000Y-84960000D02*
X166280000Y-83750000D01*
X166330000Y-95790000D02*
X166330000Y-91360000D01*
%TD*%
%TA.AperFunction,Conductor*%
%TO.N,GND*%
G36*
X178377223Y-95609024D02*
G01*
X178390742Y-95622543D01*
X178405447Y-95644552D01*
X178432012Y-95662301D01*
X178471769Y-95688867D01*
X178530252Y-95700500D01*
X178590500Y-95700500D01*
X178625148Y-95714852D01*
X178639500Y-95749500D01*
X178639500Y-96169017D01*
X178638559Y-96178575D01*
X178634397Y-96199500D01*
X178639500Y-96225154D01*
X178646318Y-96259433D01*
X178647483Y-96265289D01*
X178647821Y-96282510D01*
X178645131Y-96299498D01*
X178645131Y-96299500D01*
X178652782Y-96347807D01*
X178662501Y-96409165D01*
X178663692Y-96412830D01*
X178662431Y-96413239D01*
X178664980Y-96445643D01*
X178640623Y-96474160D01*
X178618379Y-96479500D01*
X177692252Y-96479500D01*
X177657604Y-96465148D01*
X177643252Y-96430500D01*
X177657604Y-96395852D01*
X177665031Y-96389757D01*
X177668694Y-96387309D01*
X177727810Y-96347810D01*
X177739667Y-96330063D01*
X177745751Y-96322649D01*
X177962650Y-96105751D01*
X177970069Y-96099663D01*
X177987810Y-96087810D01*
X178045385Y-96001642D01*
X178049363Y-95981642D01*
X178054091Y-95957876D01*
X178065604Y-95900002D01*
X178065604Y-95899998D01*
X178061442Y-95879076D01*
X178060500Y-95869516D01*
X178060500Y-95749500D01*
X178074852Y-95714852D01*
X178109500Y-95700500D01*
X178169745Y-95700500D01*
X178169748Y-95700500D01*
X178228231Y-95688867D01*
X178294552Y-95644552D01*
X178309258Y-95622542D01*
X178340440Y-95601708D01*
X178377223Y-95609024D01*
G37*
%TD.AperFunction*%
%TA.AperFunction,Conductor*%
G36*
X181840170Y-87834852D02*
G01*
X181854522Y-87869500D01*
X181840170Y-87904148D01*
X181802905Y-87941412D01*
X181802903Y-87941415D01*
X181752500Y-88040338D01*
X181735131Y-88150000D01*
X181752500Y-88259661D01*
X181802903Y-88358584D01*
X181802905Y-88358587D01*
X181850170Y-88405852D01*
X181864522Y-88440500D01*
X181850170Y-88475148D01*
X181815522Y-88489500D01*
X173580479Y-88489500D01*
X173570919Y-88488558D01*
X173550001Y-88484397D01*
X173549999Y-88484397D01*
X173524346Y-88489500D01*
X173448358Y-88504615D01*
X173362189Y-88562190D01*
X173362188Y-88562191D01*
X173350334Y-88579931D01*
X173344242Y-88587354D01*
X173076363Y-88855233D01*
X173041715Y-88869585D01*
X173007067Y-88855233D01*
X172992715Y-88820585D01*
X172993316Y-88812937D01*
X173004869Y-88740000D01*
X172987500Y-88630339D01*
X172937095Y-88531413D01*
X172858587Y-88452905D01*
X172858584Y-88452903D01*
X172819197Y-88432835D01*
X172777513Y-88411596D01*
X172753157Y-88383079D01*
X172756099Y-88345692D01*
X172765108Y-88333293D01*
X173263550Y-87834852D01*
X173298198Y-87820500D01*
X181805522Y-87820500D01*
X181840170Y-87834852D01*
G37*
%TD.AperFunction*%
%TA.AperFunction,Conductor*%
G36*
X209211595Y-76620532D02*
G01*
X209521487Y-76636971D01*
X209524196Y-76637268D01*
X209829574Y-76688249D01*
X209832243Y-76688850D01*
X210129978Y-76773773D01*
X210132562Y-76774670D01*
X210418877Y-76892455D01*
X210421334Y-76893630D01*
X210592803Y-76987906D01*
X210692636Y-77042797D01*
X210694972Y-77044258D01*
X210947804Y-77222905D01*
X210949960Y-77224617D01*
X211181163Y-77430511D01*
X211183094Y-77432435D01*
X211389744Y-77662973D01*
X211391463Y-77665123D01*
X211570941Y-77917387D01*
X211572399Y-77919702D01*
X211719103Y-78184481D01*
X211722439Y-78190501D01*
X211723636Y-78192983D01*
X211842346Y-78478902D01*
X211843258Y-78481502D01*
X211929138Y-78778927D01*
X211929752Y-78781613D01*
X211981723Y-79086801D01*
X211982032Y-79089539D01*
X211999461Y-79399060D01*
X211999499Y-79400449D01*
X211988106Y-103214170D01*
X211987922Y-103216558D01*
X211988081Y-103265925D01*
X211988047Y-103267302D01*
X211971612Y-103577164D01*
X211971312Y-103579903D01*
X211920334Y-103885256D01*
X211919729Y-103887944D01*
X211834814Y-104185659D01*
X211833914Y-104188253D01*
X211759253Y-104369744D01*
X211716135Y-104474556D01*
X211714946Y-104477041D01*
X211565787Y-104748326D01*
X211564326Y-104750662D01*
X211385679Y-105003494D01*
X211383965Y-105005652D01*
X211178081Y-105236844D01*
X211176138Y-105238793D01*
X211076967Y-105327688D01*
X210945610Y-105445433D01*
X210943459Y-105447153D01*
X210691207Y-105626623D01*
X210688875Y-105628091D01*
X210418086Y-105778125D01*
X210415605Y-105779322D01*
X210129680Y-105898032D01*
X210127081Y-105898944D01*
X209829656Y-105984824D01*
X209826970Y-105985438D01*
X209521780Y-106037407D01*
X209519043Y-106037716D01*
X209209364Y-106055151D01*
X209208001Y-106055189D01*
X209207528Y-106055190D01*
X209159114Y-106055190D01*
X209158980Y-106055200D01*
X185349511Y-106060624D01*
X185314860Y-106046280D01*
X185300500Y-106011635D01*
X185300500Y-104630255D01*
X185300500Y-104630252D01*
X185288867Y-104571769D01*
X185262301Y-104532012D01*
X185244552Y-104505447D01*
X185200234Y-104475835D01*
X185178231Y-104461133D01*
X185119748Y-104449500D01*
X184080252Y-104449500D01*
X184021769Y-104461133D01*
X183955447Y-104505447D01*
X183911133Y-104571769D01*
X183899500Y-104630252D01*
X183899500Y-104630255D01*
X183899500Y-106011966D01*
X183885148Y-106046614D01*
X183850511Y-106060966D01*
X152765666Y-106068048D01*
X152763717Y-106067898D01*
X152717696Y-106068048D01*
X152714090Y-106068059D01*
X152712735Y-106068026D01*
X152593888Y-106061728D01*
X152402860Y-106051604D01*
X152400121Y-106051304D01*
X152225986Y-106022240D01*
X152094755Y-106000338D01*
X152092076Y-105999734D01*
X151794364Y-105914828D01*
X151791761Y-105913925D01*
X151505444Y-105796150D01*
X151502959Y-105794960D01*
X151501812Y-105794329D01*
X151231679Y-105645812D01*
X151229349Y-105644355D01*
X150976496Y-105465699D01*
X150974343Y-105463988D01*
X150743139Y-105258096D01*
X150741208Y-105256172D01*
X150534551Y-105025625D01*
X150532840Y-105023485D01*
X150353359Y-104771214D01*
X150351906Y-104768908D01*
X150201862Y-104498090D01*
X150200666Y-104495612D01*
X150148412Y-104369748D01*
X172449500Y-104369748D01*
X172461133Y-104428231D01*
X172475345Y-104449500D01*
X172505447Y-104494552D01*
X172532012Y-104512301D01*
X172571769Y-104538867D01*
X172630252Y-104550500D01*
X172630255Y-104550500D01*
X174119745Y-104550500D01*
X174119748Y-104550500D01*
X174178231Y-104538867D01*
X174244552Y-104494552D01*
X174288867Y-104428231D01*
X174300500Y-104369748D01*
X174300500Y-103850000D01*
X177050000Y-103850000D01*
X177050000Y-105700000D01*
X179550000Y-105700000D01*
X179550000Y-103850000D01*
X177050000Y-103850000D01*
X174300500Y-103850000D01*
X174300500Y-103330252D01*
X174288867Y-103271769D01*
X174262301Y-103232012D01*
X174244552Y-103205447D01*
X174204795Y-103178882D01*
X174178231Y-103161133D01*
X174119748Y-103149500D01*
X172630252Y-103149500D01*
X172571769Y-103161133D01*
X172505447Y-103205447D01*
X172465038Y-103265925D01*
X172461133Y-103271769D01*
X172449500Y-103330252D01*
X172449500Y-104369748D01*
X150148412Y-104369748D01*
X150081958Y-104209680D01*
X150081053Y-104207102D01*
X149995175Y-103909652D01*
X149994563Y-103906979D01*
X149942600Y-103601776D01*
X149942292Y-103599040D01*
X149924895Y-103289835D01*
X149924856Y-103288458D01*
X149924856Y-103265653D01*
X149924857Y-103240970D01*
X149924856Y-103240967D01*
X149924856Y-103237074D01*
X149924849Y-103236986D01*
X149924774Y-102628406D01*
X160527885Y-102628406D01*
X160547818Y-102741453D01*
X160605210Y-102840858D01*
X160605212Y-102840861D01*
X160693145Y-102914646D01*
X160801012Y-102953906D01*
X160801013Y-102953906D01*
X160915799Y-102953906D01*
X160915800Y-102953906D01*
X161023667Y-102914646D01*
X161111600Y-102840861D01*
X161168994Y-102741451D01*
X161188927Y-102628406D01*
X161168994Y-102515361D01*
X161168993Y-102515359D01*
X161168993Y-102515358D01*
X161127065Y-102442736D01*
X161120500Y-102418236D01*
X161120500Y-101839234D01*
X161134852Y-101804586D01*
X161169500Y-101790234D01*
X161186257Y-101793189D01*
X161192606Y-101795500D01*
X161192607Y-101795500D01*
X161307393Y-101795500D01*
X161307394Y-101795500D01*
X161415261Y-101756240D01*
X161489367Y-101694056D01*
X161525131Y-101682780D01*
X161558397Y-101700097D01*
X161563296Y-101707094D01*
X161592576Y-101757808D01*
X161606806Y-101782455D01*
X161694739Y-101856240D01*
X161802606Y-101895500D01*
X161802607Y-101895500D01*
X161917393Y-101895500D01*
X161917394Y-101895500D01*
X162025261Y-101856240D01*
X162042275Y-101841963D01*
X162073771Y-101830500D01*
X162159521Y-101830500D01*
X162169081Y-101831442D01*
X162189999Y-101835603D01*
X162190000Y-101835603D01*
X162190003Y-101835603D01*
X162291639Y-101815386D01*
X162291639Y-101815385D01*
X162291642Y-101815385D01*
X162321402Y-101795500D01*
X162377810Y-101757810D01*
X162389665Y-101740066D01*
X162395753Y-101732647D01*
X162428400Y-101700000D01*
X163359479Y-101700000D01*
X163379412Y-101813047D01*
X163404350Y-101856240D01*
X163436806Y-101912455D01*
X163524739Y-101986240D01*
X163632606Y-102025500D01*
X163632607Y-102025500D01*
X163747393Y-102025500D01*
X163747394Y-102025500D01*
X163835438Y-101993454D01*
X163852197Y-101990500D01*
X164786229Y-101990500D01*
X164817724Y-102001963D01*
X164834739Y-102016240D01*
X164942606Y-102055500D01*
X164942607Y-102055500D01*
X165057393Y-102055500D01*
X165057394Y-102055500D01*
X165058737Y-102055011D01*
X165059885Y-102055061D01*
X165061616Y-102054756D01*
X165061683Y-102055139D01*
X165096203Y-102056643D01*
X165121543Y-102084290D01*
X165124500Y-102101054D01*
X165124500Y-102226800D01*
X165110148Y-102261448D01*
X164807355Y-102564240D01*
X164799933Y-102570332D01*
X164782193Y-102582187D01*
X164782189Y-102582190D01*
X164751310Y-102628406D01*
X164724613Y-102668360D01*
X164704397Y-102769997D01*
X164704397Y-102770001D01*
X164708558Y-102790918D01*
X164709500Y-102800478D01*
X164709500Y-102929517D01*
X164708559Y-102939076D01*
X164704397Y-102960001D01*
X164704397Y-102960002D01*
X164722268Y-103049846D01*
X164724614Y-103061641D01*
X164724615Y-103061643D01*
X164773045Y-103134124D01*
X164780558Y-103152838D01*
X164789411Y-103203044D01*
X164839127Y-103289155D01*
X164846806Y-103302455D01*
X164934739Y-103376240D01*
X165042606Y-103415500D01*
X165042607Y-103415500D01*
X165157393Y-103415500D01*
X165157394Y-103415500D01*
X165265261Y-103376240D01*
X165353194Y-103302455D01*
X165410588Y-103203045D01*
X165430521Y-103090000D01*
X165410588Y-102976955D01*
X165410587Y-102976953D01*
X165410587Y-102976952D01*
X165353195Y-102877546D01*
X165353193Y-102877543D01*
X165327637Y-102856099D01*
X165310320Y-102822833D01*
X165321598Y-102787066D01*
X165324475Y-102783926D01*
X165547650Y-102560751D01*
X165555069Y-102554663D01*
X165572810Y-102542810D01*
X165630385Y-102456642D01*
X165638479Y-102415951D01*
X165650604Y-102355000D01*
X165646442Y-102334076D01*
X165645500Y-102324516D01*
X165645500Y-101495478D01*
X165646442Y-101485918D01*
X165650603Y-101465001D01*
X165650603Y-101464997D01*
X165630386Y-101363360D01*
X165605089Y-101325500D01*
X165572810Y-101277190D01*
X165572807Y-101277187D01*
X165555068Y-101265335D01*
X165547643Y-101259241D01*
X165425758Y-101137356D01*
X165419664Y-101129930D01*
X165407811Y-101112190D01*
X165364726Y-101083402D01*
X165321642Y-101054615D01*
X165245654Y-101039500D01*
X165220001Y-101034397D01*
X165219999Y-101034397D01*
X165199081Y-101038558D01*
X165189521Y-101039500D01*
X164253771Y-101039500D01*
X164222275Y-101028036D01*
X164205261Y-101013760D01*
X164205259Y-101013759D01*
X164167455Y-101000000D01*
X169119479Y-101000000D01*
X169139412Y-101113047D01*
X169196804Y-101212452D01*
X169196806Y-101212455D01*
X169284739Y-101286240D01*
X169392606Y-101325500D01*
X169392607Y-101325500D01*
X169507393Y-101325500D01*
X169507394Y-101325500D01*
X169615261Y-101286240D01*
X169703194Y-101212455D01*
X169760588Y-101113045D01*
X169780521Y-101000000D01*
X169760588Y-100886955D01*
X169760587Y-100886953D01*
X169760587Y-100886952D01*
X169703195Y-100787547D01*
X169703194Y-100787545D01*
X169615261Y-100713760D01*
X169507394Y-100674500D01*
X169392606Y-100674500D01*
X169284737Y-100713760D01*
X169196808Y-100787541D01*
X169196804Y-100787546D01*
X169139412Y-100886952D01*
X169119479Y-101000000D01*
X164167455Y-101000000D01*
X164135996Y-100988550D01*
X164097394Y-100974500D01*
X163982606Y-100974500D01*
X163874737Y-101013760D01*
X163786808Y-101087541D01*
X163786804Y-101087546D01*
X163729412Y-101186952D01*
X163709479Y-101300000D01*
X163712475Y-101316992D01*
X163704357Y-101353606D01*
X163672727Y-101373756D01*
X163664219Y-101374500D01*
X163632606Y-101374500D01*
X163524737Y-101413760D01*
X163436808Y-101487541D01*
X163436804Y-101487546D01*
X163379412Y-101586952D01*
X163359479Y-101700000D01*
X162428400Y-101700000D01*
X163628400Y-100500000D01*
X164935131Y-100500000D01*
X164952500Y-100609661D01*
X165002192Y-100707189D01*
X165002905Y-100708587D01*
X165081413Y-100787095D01*
X165180339Y-100837500D01*
X165290000Y-100854869D01*
X165399661Y-100837500D01*
X165498587Y-100787095D01*
X165577095Y-100708587D01*
X165627500Y-100609661D01*
X165644869Y-100500000D01*
X167649479Y-100500000D01*
X167669412Y-100613047D01*
X167723766Y-100707190D01*
X167726806Y-100712455D01*
X167814739Y-100786240D01*
X167922606Y-100825500D01*
X167922607Y-100825500D01*
X168037393Y-100825500D01*
X168037394Y-100825500D01*
X168145261Y-100786240D01*
X168233194Y-100712455D01*
X168290588Y-100613045D01*
X168310521Y-100500000D01*
X168290588Y-100386955D01*
X168290587Y-100386953D01*
X168290587Y-100386952D01*
X168235427Y-100291413D01*
X168233194Y-100287545D01*
X168145261Y-100213760D01*
X168037394Y-100174500D01*
X167922606Y-100174500D01*
X167814737Y-100213760D01*
X167726808Y-100287541D01*
X167726804Y-100287546D01*
X167669412Y-100386952D01*
X167649479Y-100500000D01*
X165644869Y-100500000D01*
X165627500Y-100390339D01*
X165577095Y-100291413D01*
X165498587Y-100212905D01*
X165498584Y-100212903D01*
X165399661Y-100162500D01*
X165290000Y-100145131D01*
X165180338Y-100162500D01*
X165081415Y-100212903D01*
X165081412Y-100212905D01*
X165002905Y-100291412D01*
X165002903Y-100291415D01*
X164952500Y-100390338D01*
X164935131Y-100500000D01*
X163628400Y-100500000D01*
X164898876Y-99229525D01*
X164925014Y-99215919D01*
X164927389Y-99215500D01*
X164927394Y-99215500D01*
X165035261Y-99176240D01*
X165123194Y-99102455D01*
X165180588Y-99003045D01*
X165200521Y-98890000D01*
X165180588Y-98776955D01*
X165180587Y-98776953D01*
X165180587Y-98776952D01*
X165123195Y-98677547D01*
X165123194Y-98677545D01*
X165069994Y-98632905D01*
X165035261Y-98603760D01*
X164976849Y-98582500D01*
X164927394Y-98564500D01*
X164812606Y-98564500D01*
X164704737Y-98603760D01*
X164616808Y-98677541D01*
X164616804Y-98677546D01*
X164559411Y-98776955D01*
X164550269Y-98828796D01*
X164536662Y-98854934D01*
X162101910Y-101289687D01*
X162067262Y-101304039D01*
X162035766Y-101292574D01*
X162025261Y-101283760D01*
X162025259Y-101283759D01*
X161957895Y-101259241D01*
X161935787Y-101251194D01*
X161908138Y-101225859D01*
X161906502Y-101188391D01*
X161917897Y-101170504D01*
X162757647Y-100330753D01*
X162765066Y-100324665D01*
X162782810Y-100312810D01*
X162840385Y-100226642D01*
X162855500Y-100150654D01*
X162860603Y-100125000D01*
X162856440Y-100104075D01*
X162855500Y-100094517D01*
X162855500Y-98026948D01*
X162862065Y-98002448D01*
X162890587Y-97953047D01*
X162890587Y-97953046D01*
X162890588Y-97953045D01*
X162910521Y-97840000D01*
X162890588Y-97726955D01*
X162890587Y-97726953D01*
X162890587Y-97726952D01*
X162833195Y-97627547D01*
X162833194Y-97627545D01*
X162745261Y-97553760D01*
X162637394Y-97514500D01*
X162522606Y-97514500D01*
X162414737Y-97553760D01*
X162326808Y-97627541D01*
X162326804Y-97627546D01*
X162269412Y-97726952D01*
X162249479Y-97840000D01*
X162269412Y-97953047D01*
X162297098Y-98001000D01*
X162301993Y-98038182D01*
X162279163Y-98067935D01*
X162254663Y-98074500D01*
X162152606Y-98074500D01*
X162044737Y-98113760D01*
X161956808Y-98187541D01*
X161956804Y-98187546D01*
X161899412Y-98286952D01*
X161879479Y-98400000D01*
X161899412Y-98513047D01*
X161942935Y-98588429D01*
X161949500Y-98612929D01*
X161949500Y-99421801D01*
X161935148Y-99456449D01*
X160702354Y-100689242D01*
X160694931Y-100695334D01*
X160677191Y-100707188D01*
X160677190Y-100707189D01*
X160642228Y-100759515D01*
X160619613Y-100793360D01*
X160599397Y-100894997D01*
X160599397Y-100895001D01*
X160603558Y-100915918D01*
X160604500Y-100925478D01*
X160604500Y-101578858D01*
X160603558Y-101588418D01*
X160594397Y-101634471D01*
X160594397Y-101634474D01*
X160598558Y-101655391D01*
X160599500Y-101664951D01*
X160599500Y-102412714D01*
X160592935Y-102437214D01*
X160547818Y-102515358D01*
X160527885Y-102628406D01*
X149924774Y-102628406D01*
X149923746Y-94230000D01*
X155284534Y-94230000D01*
X155304312Y-94380235D01*
X155362299Y-94520228D01*
X155362302Y-94520233D01*
X155454549Y-94640451D01*
X155574767Y-94732698D01*
X155574769Y-94732698D01*
X155574771Y-94732700D01*
X155714764Y-94790687D01*
X155827280Y-94805500D01*
X155827284Y-94805500D01*
X155902716Y-94805500D01*
X155902720Y-94805500D01*
X156015236Y-94790687D01*
X156155233Y-94732698D01*
X156275451Y-94640451D01*
X156367698Y-94520233D01*
X156425687Y-94380236D01*
X156445466Y-94230000D01*
X156425687Y-94079764D01*
X156370921Y-93947547D01*
X156367700Y-93939771D01*
X156367697Y-93939766D01*
X156281860Y-93827902D01*
X156275451Y-93819549D01*
X156253296Y-93802549D01*
X156155233Y-93727302D01*
X156155228Y-93727299D01*
X156015235Y-93669312D01*
X155937894Y-93659130D01*
X155902720Y-93654500D01*
X155827280Y-93654500D01*
X155795425Y-93658693D01*
X155714764Y-93669312D01*
X155574771Y-93727299D01*
X155574766Y-93727302D01*
X155454549Y-93819548D01*
X155454548Y-93819549D01*
X155362302Y-93939766D01*
X155362299Y-93939771D01*
X155304312Y-94079764D01*
X155284534Y-94230000D01*
X149923746Y-94230000D01*
X149923591Y-92970000D01*
X160795131Y-92970000D01*
X160812500Y-93079661D01*
X160853261Y-93159661D01*
X160862905Y-93178587D01*
X160941413Y-93257095D01*
X161040339Y-93307500D01*
X161150000Y-93324869D01*
X161259661Y-93307500D01*
X161358587Y-93257095D01*
X161437095Y-93178587D01*
X161487500Y-93079661D01*
X161504869Y-92970000D01*
X161487500Y-92860339D01*
X161437095Y-92761413D01*
X161385182Y-92709500D01*
X163635131Y-92709500D01*
X163652500Y-92819161D01*
X163673480Y-92860338D01*
X163702905Y-92918087D01*
X163781413Y-92996595D01*
X163880339Y-93047000D01*
X163990000Y-93064369D01*
X164099661Y-93047000D01*
X164198587Y-92996595D01*
X164277095Y-92918087D01*
X164327500Y-92819161D01*
X164344869Y-92709500D01*
X164327500Y-92599839D01*
X164277095Y-92500913D01*
X164198587Y-92422405D01*
X164198584Y-92422403D01*
X164099661Y-92372000D01*
X163990000Y-92354631D01*
X163880338Y-92372000D01*
X163781415Y-92422403D01*
X163781412Y-92422405D01*
X163702905Y-92500912D01*
X163702903Y-92500915D01*
X163652500Y-92599838D01*
X163635131Y-92709500D01*
X161385182Y-92709500D01*
X161358587Y-92682905D01*
X161358584Y-92682903D01*
X161259661Y-92632500D01*
X161150000Y-92615131D01*
X161040338Y-92632500D01*
X160941415Y-92682903D01*
X160941412Y-92682905D01*
X160862905Y-92761412D01*
X160862903Y-92761415D01*
X160812500Y-92860338D01*
X160795131Y-92970000D01*
X149923591Y-92970000D01*
X149923421Y-91580000D01*
X155689479Y-91580000D01*
X155709412Y-91693047D01*
X155763040Y-91785932D01*
X155766806Y-91792455D01*
X155854739Y-91866240D01*
X155962606Y-91905500D01*
X155962607Y-91905500D01*
X156077393Y-91905500D01*
X156077394Y-91905500D01*
X156185261Y-91866240D01*
X156273194Y-91792455D01*
X156329118Y-91695591D01*
X156330587Y-91693047D01*
X156330587Y-91693046D01*
X156330588Y-91693045D01*
X156350521Y-91580000D01*
X156330588Y-91466955D01*
X156330587Y-91466953D01*
X156330587Y-91466952D01*
X156277065Y-91374250D01*
X156270500Y-91349750D01*
X156270500Y-91090817D01*
X163581244Y-91090817D01*
X163598613Y-91200478D01*
X163644620Y-91290774D01*
X163649018Y-91299404D01*
X163727526Y-91377912D01*
X163826452Y-91428317D01*
X163936113Y-91445686D01*
X164045774Y-91428317D01*
X164144700Y-91377912D01*
X164223208Y-91299404D01*
X164273613Y-91200478D01*
X164290982Y-91090817D01*
X164273613Y-90981156D01*
X164223208Y-90882230D01*
X164144700Y-90803722D01*
X164144697Y-90803720D01*
X164045774Y-90753317D01*
X163936113Y-90735948D01*
X163826451Y-90753317D01*
X163727528Y-90803720D01*
X163727525Y-90803722D01*
X163649018Y-90882229D01*
X163649016Y-90882232D01*
X163598613Y-90981155D01*
X163581244Y-91090817D01*
X156270500Y-91090817D01*
X156270500Y-90851127D01*
X156284852Y-90816479D01*
X156287994Y-90813599D01*
X156313194Y-90792455D01*
X156368332Y-90696952D01*
X156370587Y-90693047D01*
X156370587Y-90693046D01*
X156370588Y-90693045D01*
X156390521Y-90580000D01*
X156370588Y-90466955D01*
X156370587Y-90466953D01*
X156370587Y-90466952D01*
X156316192Y-90372738D01*
X156313194Y-90367545D01*
X156268708Y-90330217D01*
X156225261Y-90293760D01*
X156215867Y-90290341D01*
X156132505Y-90260000D01*
X164484397Y-90260000D01*
X164489500Y-90285654D01*
X164504615Y-90361642D01*
X164527607Y-90396052D01*
X164562190Y-90447811D01*
X164579930Y-90459664D01*
X164587356Y-90465758D01*
X165605148Y-91483550D01*
X165619500Y-91518198D01*
X165619500Y-95667069D01*
X165612935Y-95691569D01*
X165569412Y-95766952D01*
X165549479Y-95880000D01*
X165569412Y-95993047D01*
X165625917Y-96090915D01*
X165626806Y-96092455D01*
X165714739Y-96166240D01*
X165822606Y-96205500D01*
X165822607Y-96205500D01*
X165937393Y-96205500D01*
X165937394Y-96205500D01*
X166045261Y-96166240D01*
X166133194Y-96092455D01*
X166133195Y-96092452D01*
X166134543Y-96091322D01*
X166170310Y-96080044D01*
X166182797Y-96082812D01*
X166272606Y-96115500D01*
X166272607Y-96115500D01*
X166387393Y-96115500D01*
X166387394Y-96115500D01*
X166495261Y-96076240D01*
X166583194Y-96002455D01*
X166640588Y-95903045D01*
X166660521Y-95790000D01*
X166640588Y-95676955D01*
X166640587Y-95676953D01*
X166640587Y-95676952D01*
X166597065Y-95601569D01*
X166590500Y-95577069D01*
X166590500Y-91390478D01*
X166591442Y-91380918D01*
X166595603Y-91360001D01*
X166595603Y-91359997D01*
X166575386Y-91258360D01*
X166571440Y-91252455D01*
X166550089Y-91220500D01*
X166517810Y-91172190D01*
X166517807Y-91172187D01*
X166500068Y-91160335D01*
X166492643Y-91154241D01*
X165344852Y-90006450D01*
X165330500Y-89971802D01*
X165330500Y-89264478D01*
X165344852Y-89229830D01*
X165379500Y-89215478D01*
X165414148Y-89229830D01*
X165441413Y-89257095D01*
X165540339Y-89307500D01*
X165650000Y-89324869D01*
X165759661Y-89307500D01*
X165858587Y-89257095D01*
X165937095Y-89178587D01*
X165987500Y-89079661D01*
X166004869Y-88970000D01*
X165987500Y-88860339D01*
X165937095Y-88761413D01*
X165858587Y-88682905D01*
X165858584Y-88682903D01*
X165759661Y-88632500D01*
X165650000Y-88615131D01*
X165540338Y-88632500D01*
X165441415Y-88682903D01*
X165441412Y-88682905D01*
X165414148Y-88710170D01*
X165379500Y-88724522D01*
X165344852Y-88710170D01*
X165330500Y-88675522D01*
X165330500Y-88500000D01*
X167615131Y-88500000D01*
X167632500Y-88609661D01*
X167666057Y-88675522D01*
X167682905Y-88708587D01*
X167761413Y-88787095D01*
X167860339Y-88837500D01*
X167970000Y-88854869D01*
X168079661Y-88837500D01*
X168178587Y-88787095D01*
X168257095Y-88708587D01*
X168307500Y-88609661D01*
X168324869Y-88500000D01*
X168307500Y-88390339D01*
X168257095Y-88291413D01*
X168178587Y-88212905D01*
X168178584Y-88212903D01*
X168079661Y-88162500D01*
X167970000Y-88145131D01*
X167860338Y-88162500D01*
X167761415Y-88212903D01*
X167761412Y-88212905D01*
X167682905Y-88291412D01*
X167682903Y-88291415D01*
X167632500Y-88390338D01*
X167615131Y-88500000D01*
X165330500Y-88500000D01*
X165330500Y-86460000D01*
X167165131Y-86460000D01*
X167182500Y-86569661D01*
X167232350Y-86667499D01*
X167232905Y-86668587D01*
X167311413Y-86747095D01*
X167410339Y-86797500D01*
X167520000Y-86814869D01*
X167629661Y-86797500D01*
X167728587Y-86747095D01*
X167807095Y-86668587D01*
X167857500Y-86569661D01*
X167874869Y-86460000D01*
X167857500Y-86350339D01*
X167807095Y-86251413D01*
X167728587Y-86172905D01*
X167728584Y-86172903D01*
X167629661Y-86122500D01*
X167520000Y-86105131D01*
X167410338Y-86122500D01*
X167311415Y-86172903D01*
X167311412Y-86172905D01*
X167232905Y-86251412D01*
X167232903Y-86251415D01*
X167182500Y-86350338D01*
X167165131Y-86460000D01*
X165330500Y-86460000D01*
X165330500Y-85088198D01*
X165344852Y-85053550D01*
X166373550Y-84024852D01*
X166408198Y-84010500D01*
X180559254Y-84010500D01*
X180593902Y-84024852D01*
X183281693Y-86712643D01*
X183287787Y-86720068D01*
X183299639Y-86737807D01*
X183299642Y-86737810D01*
X183365242Y-86781642D01*
X183385810Y-86795385D01*
X183487449Y-86815603D01*
X183487452Y-86815603D01*
X183487453Y-86815603D01*
X183508371Y-86811442D01*
X183517931Y-86810500D01*
X185671200Y-86810500D01*
X185705848Y-86824852D01*
X185713635Y-86835000D01*
X185746804Y-86892452D01*
X185746806Y-86892455D01*
X185747413Y-86892964D01*
X185747706Y-86893527D01*
X185749562Y-86895739D01*
X185749071Y-86896150D01*
X185764730Y-86926230D01*
X185753452Y-86961997D01*
X185720186Y-86979314D01*
X185715916Y-86979500D01*
X172880483Y-86979500D01*
X172870923Y-86978558D01*
X172850001Y-86974396D01*
X172849998Y-86974396D01*
X172764090Y-86991485D01*
X172748357Y-86994615D01*
X172662189Y-87052190D01*
X172662188Y-87052191D01*
X172650336Y-87069928D01*
X172644244Y-87077351D01*
X171751125Y-87970472D01*
X171724992Y-87984078D01*
X171722611Y-87984498D01*
X171614737Y-88023760D01*
X171526808Y-88097541D01*
X171526804Y-88097546D01*
X171475721Y-88186025D01*
X171445968Y-88208855D01*
X171423727Y-88209584D01*
X171414112Y-88207671D01*
X171395000Y-88203870D01*
X171394999Y-88203870D01*
X171394998Y-88203870D01*
X171374081Y-88208031D01*
X171364521Y-88208973D01*
X171149006Y-88208973D01*
X171139446Y-88208031D01*
X171118528Y-88203870D01*
X171118525Y-88203870D01*
X171068807Y-88213760D01*
X171016885Y-88224088D01*
X170930716Y-88281663D01*
X170930715Y-88281664D01*
X170918863Y-88299401D01*
X170912771Y-88306824D01*
X170692355Y-88527241D01*
X170684933Y-88533333D01*
X170667190Y-88545190D01*
X170612557Y-88626954D01*
X170609614Y-88631359D01*
X170589397Y-88732997D01*
X170589397Y-88733001D01*
X170593558Y-88753918D01*
X170594500Y-88763478D01*
X170594500Y-90476224D01*
X170580148Y-90510872D01*
X170545500Y-90525224D01*
X170528743Y-90522270D01*
X170522291Y-90519922D01*
X170507394Y-90514500D01*
X170392606Y-90514500D01*
X170392605Y-90514500D01*
X170313648Y-90543237D01*
X170276181Y-90541601D01*
X170254456Y-90521692D01*
X170223194Y-90467545D01*
X170221064Y-90465758D01*
X170135261Y-90393760D01*
X170098892Y-90380523D01*
X170027394Y-90354500D01*
X169912606Y-90354500D01*
X169804739Y-90393760D01*
X169716807Y-90467543D01*
X169716806Y-90467545D01*
X169716350Y-90468334D01*
X169715771Y-90468778D01*
X169714052Y-90470828D01*
X169713597Y-90470446D01*
X169686595Y-90491161D01*
X169657160Y-90489874D01*
X169642394Y-90484500D01*
X169527606Y-90484500D01*
X169419737Y-90523760D01*
X169331808Y-90597541D01*
X169331804Y-90597546D01*
X169274412Y-90696952D01*
X169254479Y-90810000D01*
X169274412Y-90923047D01*
X169331804Y-91022452D01*
X169331806Y-91022455D01*
X169419739Y-91096240D01*
X169527606Y-91135500D01*
X169527607Y-91135500D01*
X169642393Y-91135500D01*
X169642394Y-91135500D01*
X169750261Y-91096240D01*
X169838194Y-91022455D01*
X169838642Y-91021678D01*
X169839212Y-91021240D01*
X169840949Y-91019171D01*
X169841407Y-91019555D01*
X169868388Y-90998842D01*
X169897838Y-91000124D01*
X169912606Y-91005500D01*
X169912608Y-91005500D01*
X170027393Y-91005500D01*
X170027394Y-91005500D01*
X170106351Y-90976762D01*
X170143817Y-90978398D01*
X170165543Y-90998306D01*
X170196806Y-91052455D01*
X170284739Y-91126240D01*
X170392606Y-91165500D01*
X170392607Y-91165500D01*
X170507393Y-91165500D01*
X170507394Y-91165500D01*
X170594907Y-91133648D01*
X170632373Y-91135284D01*
X170643162Y-91142157D01*
X170681736Y-91174525D01*
X170699053Y-91207791D01*
X170687775Y-91243558D01*
X170684887Y-91246709D01*
X170273942Y-91657655D01*
X170273939Y-91657658D01*
X170137356Y-91794240D01*
X170129934Y-91800332D01*
X170112190Y-91812189D01*
X170073229Y-91870500D01*
X170054614Y-91898358D01*
X170054614Y-91898359D01*
X170034397Y-91999997D01*
X170034397Y-92000001D01*
X170038558Y-92020918D01*
X170039500Y-92030478D01*
X170039500Y-94177069D01*
X170032935Y-94201569D01*
X169989412Y-94276952D01*
X169969479Y-94390000D01*
X169989412Y-94503047D01*
X170046804Y-94602452D01*
X170046806Y-94602455D01*
X170134739Y-94676240D01*
X170242606Y-94715500D01*
X170242607Y-94715500D01*
X170357393Y-94715500D01*
X170357394Y-94715500D01*
X170393742Y-94702270D01*
X170431208Y-94703906D01*
X170456545Y-94731555D01*
X170459500Y-94748315D01*
X170459500Y-94907069D01*
X170452935Y-94931569D01*
X170409412Y-95006952D01*
X170389479Y-95120000D01*
X170409412Y-95233047D01*
X170466804Y-95332452D01*
X170466806Y-95332455D01*
X170554739Y-95406240D01*
X170662606Y-95445500D01*
X170662607Y-95445500D01*
X170777393Y-95445500D01*
X170777394Y-95445500D01*
X170885261Y-95406240D01*
X170973194Y-95332455D01*
X171030588Y-95233045D01*
X171050521Y-95120000D01*
X171030588Y-95006955D01*
X171030587Y-95006953D01*
X171030587Y-95006952D01*
X170987065Y-94931569D01*
X170980500Y-94907069D01*
X170980500Y-93050000D01*
X172035131Y-93050000D01*
X172052500Y-93159661D01*
X172102144Y-93257095D01*
X172102905Y-93258587D01*
X172181413Y-93337095D01*
X172280339Y-93387500D01*
X172390000Y-93404869D01*
X172499661Y-93387500D01*
X172598587Y-93337095D01*
X172677095Y-93258587D01*
X172727500Y-93159661D01*
X172744869Y-93050000D01*
X172727500Y-92940339D01*
X172677095Y-92841413D01*
X172598587Y-92762905D01*
X172598584Y-92762903D01*
X172499661Y-92712500D01*
X172390000Y-92695131D01*
X172280338Y-92712500D01*
X172181415Y-92762903D01*
X172181412Y-92762905D01*
X172102905Y-92841412D01*
X172102903Y-92841415D01*
X172052500Y-92940338D01*
X172035131Y-93050000D01*
X170980500Y-93050000D01*
X170980500Y-92160746D01*
X170994852Y-92126098D01*
X171030950Y-92090000D01*
X172239479Y-92090000D01*
X172259412Y-92203047D01*
X172304250Y-92280708D01*
X172316806Y-92302455D01*
X172404739Y-92376240D01*
X172512606Y-92415500D01*
X172512609Y-92415500D01*
X172514986Y-92415920D01*
X172541125Y-92429527D01*
X173044241Y-92932643D01*
X173050335Y-92940068D01*
X173062187Y-92957807D01*
X173062190Y-92957810D01*
X173124607Y-92999515D01*
X173148358Y-93015385D01*
X173148360Y-93015386D01*
X173249997Y-93035603D01*
X173250000Y-93035603D01*
X173250001Y-93035603D01*
X173270919Y-93031442D01*
X173280479Y-93030500D01*
X173622122Y-93030500D01*
X173656770Y-93044852D01*
X173666530Y-93058791D01*
X173669659Y-93065500D01*
X173685935Y-93100404D01*
X173685936Y-93100406D01*
X173769593Y-93184063D01*
X173769595Y-93184064D01*
X173769596Y-93184065D01*
X173876827Y-93234068D01*
X173925684Y-93240500D01*
X174190500Y-93240500D01*
X174225148Y-93254852D01*
X174239500Y-93289500D01*
X174239500Y-93500500D01*
X174225148Y-93535148D01*
X174190500Y-93549500D01*
X174130252Y-93549500D01*
X174071779Y-93561131D01*
X174071769Y-93561133D01*
X174005447Y-93605447D01*
X173972672Y-93654500D01*
X173961133Y-93671769D01*
X173949500Y-93730252D01*
X173949500Y-95519748D01*
X173961133Y-95578231D01*
X173969130Y-95590199D01*
X174005447Y-95644552D01*
X174032012Y-95662301D01*
X174071769Y-95688867D01*
X174130252Y-95700500D01*
X174130255Y-95700500D01*
X174869745Y-95700500D01*
X174869748Y-95700500D01*
X174928231Y-95688867D01*
X174994552Y-95644552D01*
X175009258Y-95622542D01*
X175040440Y-95601708D01*
X175077223Y-95609024D01*
X175090742Y-95622543D01*
X175105447Y-95644552D01*
X175132012Y-95662301D01*
X175171769Y-95688867D01*
X175230252Y-95700500D01*
X175230255Y-95700500D01*
X175969745Y-95700500D01*
X175969748Y-95700500D01*
X176028231Y-95688867D01*
X176094552Y-95644552D01*
X176138867Y-95578231D01*
X176150500Y-95519748D01*
X176150500Y-93730252D01*
X176138867Y-93671769D01*
X176109258Y-93627456D01*
X176094552Y-93605447D01*
X176054795Y-93578882D01*
X176028231Y-93561133D01*
X175969748Y-93549500D01*
X175969745Y-93549500D01*
X175911684Y-93549500D01*
X175877036Y-93535148D01*
X175863626Y-93510059D01*
X175845386Y-93418360D01*
X175836372Y-93404869D01*
X175787810Y-93332190D01*
X175787807Y-93332187D01*
X175770068Y-93320335D01*
X175762643Y-93314241D01*
X175573097Y-93124695D01*
X175573088Y-93124685D01*
X175464852Y-93016449D01*
X175450500Y-92981801D01*
X175450500Y-90312929D01*
X175457065Y-90288429D01*
X175500587Y-90213047D01*
X175500587Y-90213046D01*
X175500588Y-90213045D01*
X175520521Y-90100000D01*
X175500588Y-89986955D01*
X175500587Y-89986953D01*
X175500587Y-89986952D01*
X175443195Y-89887547D01*
X175443194Y-89887545D01*
X175355261Y-89813760D01*
X175247394Y-89774500D01*
X175132606Y-89774500D01*
X175024737Y-89813760D01*
X174936808Y-89887541D01*
X174936804Y-89887546D01*
X174879412Y-89986952D01*
X174859479Y-90100000D01*
X174879412Y-90213047D01*
X174922935Y-90288429D01*
X174929500Y-90312929D01*
X174929500Y-93079517D01*
X174928559Y-93089076D01*
X174924397Y-93110001D01*
X174924397Y-93110002D01*
X174940690Y-93191912D01*
X174944614Y-93211638D01*
X174944615Y-93211642D01*
X175002187Y-93297807D01*
X175002188Y-93297807D01*
X175002190Y-93297810D01*
X175019933Y-93309665D01*
X175027353Y-93315755D01*
X175191304Y-93479707D01*
X175205656Y-93514355D01*
X175191304Y-93549003D01*
X175175413Y-93559623D01*
X175171770Y-93561132D01*
X175105447Y-93605447D01*
X175090742Y-93627456D01*
X175059559Y-93648292D01*
X175022777Y-93640975D01*
X175009258Y-93627456D01*
X174994552Y-93605447D01*
X174954795Y-93578882D01*
X174928231Y-93561133D01*
X174869748Y-93549500D01*
X174869745Y-93549500D01*
X174809500Y-93549500D01*
X174774852Y-93535148D01*
X174760500Y-93500500D01*
X174760500Y-93150482D01*
X174761442Y-93140921D01*
X174765604Y-93120000D01*
X174765604Y-93119998D01*
X174746327Y-93023094D01*
X174746089Y-93020679D01*
X174745385Y-93018358D01*
X174687810Y-92932190D01*
X174684849Y-92929229D01*
X174670500Y-92894583D01*
X174670500Y-92595687D01*
X174670500Y-92595684D01*
X174664068Y-92546827D01*
X174614065Y-92439596D01*
X174614064Y-92439595D01*
X174614063Y-92439593D01*
X174530406Y-92355936D01*
X174530404Y-92355935D01*
X174527608Y-92354631D01*
X174423173Y-92305932D01*
X174423171Y-92305931D01*
X174419906Y-92304409D01*
X174394569Y-92276759D01*
X174396205Y-92239292D01*
X174419906Y-92215591D01*
X174423171Y-92214068D01*
X174423173Y-92214068D01*
X174530404Y-92164065D01*
X174614065Y-92080404D01*
X174664068Y-91973173D01*
X174670500Y-91924316D01*
X174670500Y-91575684D01*
X174664068Y-91526827D01*
X174614065Y-91419596D01*
X174614064Y-91419595D01*
X174614063Y-91419593D01*
X174530404Y-91335935D01*
X174530402Y-91335933D01*
X174528790Y-91335182D01*
X174527825Y-91334129D01*
X174526891Y-91333475D01*
X174527036Y-91333267D01*
X174503454Y-91307531D01*
X174500500Y-91290774D01*
X174500500Y-91211207D01*
X174514852Y-91176559D01*
X174515658Y-91175882D01*
X174603222Y-91088318D01*
X174603224Y-91088316D01*
X174653972Y-90979487D01*
X174660500Y-90929901D01*
X174660499Y-90570100D01*
X174653972Y-90520513D01*
X174651979Y-90516240D01*
X174629640Y-90468334D01*
X174603224Y-90411684D01*
X174603223Y-90411683D01*
X174603222Y-90411681D01*
X174518318Y-90326777D01*
X174518316Y-90326776D01*
X174409489Y-90276029D01*
X174409488Y-90276028D01*
X174399569Y-90274722D01*
X174359901Y-90269500D01*
X174359897Y-90269500D01*
X173940103Y-90269500D01*
X173940098Y-90269501D01*
X173890512Y-90276027D01*
X173781684Y-90326775D01*
X173736718Y-90371741D01*
X173702069Y-90386092D01*
X173667422Y-90371740D01*
X173528585Y-90232903D01*
X173508211Y-90222523D01*
X173505652Y-90221219D01*
X173499429Y-90217440D01*
X173476069Y-90200761D01*
X173476064Y-90200758D01*
X173454923Y-90194464D01*
X173446661Y-90191161D01*
X173429664Y-90182500D01*
X173429660Y-90182499D01*
X173399362Y-90177700D01*
X173396201Y-90176983D01*
X173363952Y-90167382D01*
X173345248Y-90168156D01*
X173335560Y-90167595D01*
X173320000Y-90165131D01*
X173286621Y-90170417D01*
X173283799Y-90170697D01*
X173248749Y-90172147D01*
X173247077Y-90172217D01*
X173237853Y-90175815D01*
X173232736Y-90177812D01*
X173222595Y-90180558D01*
X173210343Y-90182498D01*
X173210334Y-90182502D01*
X173177462Y-90199250D01*
X173175246Y-90200244D01*
X173154327Y-90208406D01*
X173138103Y-90214738D01*
X173138102Y-90214738D01*
X173138101Y-90214739D01*
X173128909Y-90222523D01*
X173119495Y-90228786D01*
X173111410Y-90232906D01*
X173083117Y-90261198D01*
X173081628Y-90262569D01*
X173048842Y-90290339D01*
X173048840Y-90290341D01*
X173044391Y-90297807D01*
X173036953Y-90307363D01*
X173032909Y-90311407D01*
X173032904Y-90311415D01*
X173013329Y-90349830D01*
X173012547Y-90351247D01*
X173000337Y-90371741D01*
X172988963Y-90390829D01*
X172988962Y-90390831D01*
X172988962Y-90390832D01*
X172987867Y-90396052D01*
X172983574Y-90408228D01*
X172982501Y-90410333D01*
X172982500Y-90410337D01*
X172975267Y-90455992D01*
X172975048Y-90457183D01*
X172973334Y-90465363D01*
X172964957Y-90505314D01*
X172964956Y-90505320D01*
X172965200Y-90507273D01*
X172965054Y-90516144D01*
X172965131Y-90516144D01*
X172965131Y-90519998D01*
X172965131Y-90520000D01*
X172972909Y-90569112D01*
X172979427Y-90621393D01*
X172979823Y-90622204D01*
X172981109Y-90625383D01*
X172982499Y-90629660D01*
X172982500Y-90629661D01*
X173006395Y-90676558D01*
X173007387Y-90678587D01*
X173030799Y-90726480D01*
X173030803Y-90726485D01*
X173272861Y-90968543D01*
X173279233Y-90976389D01*
X173288563Y-90990669D01*
X173316344Y-91012291D01*
X173318612Y-91014294D01*
X173322693Y-91018375D01*
X173340438Y-91031044D01*
X173380874Y-91062517D01*
X173381141Y-91062608D01*
X173393705Y-91069076D01*
X173393934Y-91069240D01*
X173443045Y-91083861D01*
X173491512Y-91100500D01*
X173491795Y-91100500D01*
X173505779Y-91102538D01*
X173505923Y-91102580D01*
X173506046Y-91102617D01*
X173557231Y-91100500D01*
X173688664Y-91100500D01*
X173723312Y-91114852D01*
X173761505Y-91153045D01*
X173784716Y-91176256D01*
X173782999Y-91177972D01*
X173798753Y-91202684D01*
X173799500Y-91211207D01*
X173799500Y-91290774D01*
X173785148Y-91325422D01*
X173771210Y-91335182D01*
X173769597Y-91335933D01*
X173769595Y-91335935D01*
X173685936Y-91419593D01*
X173685935Y-91419595D01*
X173635933Y-91526824D01*
X173635932Y-91526825D01*
X173635932Y-91526827D01*
X173631512Y-91560406D01*
X173629500Y-91575687D01*
X173629500Y-91924312D01*
X173629499Y-91924312D01*
X173634156Y-91959686D01*
X173635932Y-91973173D01*
X173660950Y-92026824D01*
X173685935Y-92080404D01*
X173685936Y-92080406D01*
X173769593Y-92164063D01*
X173769595Y-92164064D01*
X173769596Y-92164065D01*
X173857381Y-92205000D01*
X173880093Y-92215591D01*
X173905430Y-92243241D01*
X173903794Y-92280708D01*
X173880093Y-92304409D01*
X173769595Y-92355935D01*
X173769593Y-92355936D01*
X173685936Y-92439593D01*
X173685935Y-92439595D01*
X173666531Y-92481208D01*
X173638881Y-92506545D01*
X173622122Y-92509500D01*
X173378198Y-92509500D01*
X173343550Y-92495148D01*
X172903336Y-92054934D01*
X172889728Y-92028795D01*
X172889381Y-92026825D01*
X172880588Y-91976955D01*
X172823194Y-91877545D01*
X172773605Y-91835935D01*
X172735261Y-91803760D01*
X172627394Y-91764500D01*
X172512606Y-91764500D01*
X172404737Y-91803760D01*
X172316808Y-91877541D01*
X172316804Y-91877546D01*
X172259412Y-91976952D01*
X172239479Y-92090000D01*
X171030950Y-92090000D01*
X173666098Y-89454852D01*
X173700746Y-89440500D01*
X179789338Y-89440500D01*
X179823986Y-89454852D01*
X179838338Y-89489500D01*
X179823986Y-89524148D01*
X179820835Y-89527036D01*
X179736806Y-89597543D01*
X179736804Y-89597546D01*
X179679412Y-89696952D01*
X179659479Y-89810000D01*
X179679412Y-89923047D01*
X179732935Y-90015750D01*
X179739500Y-90040250D01*
X179739500Y-93500500D01*
X179725148Y-93535148D01*
X179690500Y-93549500D01*
X179630252Y-93549500D01*
X179571779Y-93561131D01*
X179571769Y-93561133D01*
X179505447Y-93605447D01*
X179490742Y-93627456D01*
X179459559Y-93648292D01*
X179422777Y-93640975D01*
X179409258Y-93627456D01*
X179394552Y-93605447D01*
X179354795Y-93578882D01*
X179328231Y-93561133D01*
X179269748Y-93549500D01*
X178530252Y-93549500D01*
X178471779Y-93561131D01*
X178471769Y-93561133D01*
X178405447Y-93605447D01*
X178390742Y-93627456D01*
X178359559Y-93648292D01*
X178322777Y-93640975D01*
X178309258Y-93627456D01*
X178294552Y-93605447D01*
X178254795Y-93578882D01*
X178228231Y-93561133D01*
X178169748Y-93549500D01*
X178169745Y-93549500D01*
X177959500Y-93549500D01*
X177924852Y-93535148D01*
X177910500Y-93500500D01*
X177910500Y-92771194D01*
X177924852Y-92736546D01*
X177938791Y-92726785D01*
X177952269Y-92720500D01*
X178030404Y-92684065D01*
X178114065Y-92600404D01*
X178164068Y-92493173D01*
X178170500Y-92444316D01*
X178170500Y-92095684D01*
X178164068Y-92046827D01*
X178114065Y-91939596D01*
X178114064Y-91939595D01*
X178114063Y-91939593D01*
X178030406Y-91855936D01*
X178030404Y-91855935D01*
X177923175Y-91805933D01*
X177923174Y-91805932D01*
X177913401Y-91804645D01*
X177874316Y-91799500D01*
X177425684Y-91799500D01*
X177393325Y-91803760D01*
X177376825Y-91805932D01*
X177376824Y-91805933D01*
X177269595Y-91855935D01*
X177269593Y-91855936D01*
X177185936Y-91939593D01*
X177185935Y-91939595D01*
X177135933Y-92046824D01*
X177135932Y-92046825D01*
X177134865Y-92054934D01*
X177130249Y-92090000D01*
X177129500Y-92095687D01*
X177129500Y-92444312D01*
X177129499Y-92444312D01*
X177133460Y-92474397D01*
X177135932Y-92493173D01*
X177151960Y-92527544D01*
X177185935Y-92600404D01*
X177185936Y-92600406D01*
X177269593Y-92684063D01*
X177269594Y-92684063D01*
X177269596Y-92684065D01*
X177347731Y-92720500D01*
X177361209Y-92726785D01*
X177386545Y-92754435D01*
X177389500Y-92771194D01*
X177389500Y-93523094D01*
X177375148Y-93557742D01*
X177367723Y-93563836D01*
X177305447Y-93605447D01*
X177272672Y-93654500D01*
X177261133Y-93671769D01*
X177249500Y-93730252D01*
X177249500Y-95519748D01*
X177261133Y-95578231D01*
X177269130Y-95590199D01*
X177305447Y-95644552D01*
X177332012Y-95662301D01*
X177371769Y-95688867D01*
X177430252Y-95700500D01*
X177490500Y-95700500D01*
X177525148Y-95714852D01*
X177539500Y-95749500D01*
X177539500Y-95771801D01*
X177525148Y-95806449D01*
X177446450Y-95885148D01*
X177411802Y-95899500D01*
X170468198Y-95899500D01*
X170433550Y-95885148D01*
X170353336Y-95804934D01*
X170339728Y-95778795D01*
X170338495Y-95771801D01*
X170330588Y-95726955D01*
X170273194Y-95627545D01*
X170185261Y-95553760D01*
X170077394Y-95514500D01*
X169962606Y-95514500D01*
X169854737Y-95553760D01*
X169766808Y-95627541D01*
X169766804Y-95627546D01*
X169709412Y-95726952D01*
X169689479Y-95840000D01*
X169709412Y-95953047D01*
X169761580Y-96043403D01*
X169766806Y-96052455D01*
X169854739Y-96126240D01*
X169962606Y-96165500D01*
X169962609Y-96165500D01*
X169964986Y-96165920D01*
X169991125Y-96179527D01*
X170134241Y-96322643D01*
X170140335Y-96330068D01*
X170152187Y-96347807D01*
X170152190Y-96347810D01*
X170211307Y-96387310D01*
X170238358Y-96405385D01*
X170238360Y-96405386D01*
X170339997Y-96425603D01*
X170340000Y-96425603D01*
X170340001Y-96425603D01*
X170360919Y-96421442D01*
X170370479Y-96420500D01*
X170969750Y-96420500D01*
X171004398Y-96434852D01*
X171018750Y-96469500D01*
X171004398Y-96504148D01*
X171001247Y-96507036D01*
X170976806Y-96527543D01*
X170976804Y-96527546D01*
X170919412Y-96626952D01*
X170899479Y-96740000D01*
X170919412Y-96853047D01*
X170976804Y-96952452D01*
X170976806Y-96952455D01*
X171064739Y-97026240D01*
X171172606Y-97065500D01*
X171172607Y-97065500D01*
X171247802Y-97065500D01*
X171282450Y-97079852D01*
X171296802Y-97114500D01*
X171282450Y-97149148D01*
X170966450Y-97465148D01*
X170931802Y-97479500D01*
X170850347Y-97479500D01*
X170815699Y-97465148D01*
X170807912Y-97455000D01*
X170763195Y-97377547D01*
X170763193Y-97377544D01*
X170675261Y-97303760D01*
X170633592Y-97288594D01*
X170567394Y-97264500D01*
X170452606Y-97264500D01*
X170381913Y-97290230D01*
X170344446Y-97288594D01*
X170322720Y-97268687D01*
X170293194Y-97217545D01*
X170205261Y-97143760D01*
X170097394Y-97104500D01*
X169982606Y-97104500D01*
X169935983Y-97121468D01*
X169898516Y-97119832D01*
X169887730Y-97112960D01*
X169805261Y-97043760D01*
X169697394Y-97004500D01*
X169582606Y-97004500D01*
X169581254Y-97004992D01*
X169580101Y-97004941D01*
X169578386Y-97005244D01*
X169578318Y-97004863D01*
X169543787Y-97003352D01*
X169518453Y-96975699D01*
X169515500Y-96958945D01*
X169515500Y-92235482D01*
X169516442Y-92225921D01*
X169517521Y-92220500D01*
X169520604Y-92205000D01*
X169500385Y-92103358D01*
X169463269Y-92047810D01*
X169442810Y-92017190D01*
X169442807Y-92017187D01*
X169425071Y-92005337D01*
X169417646Y-91999243D01*
X168423336Y-91004934D01*
X168409728Y-90978795D01*
X168409304Y-90976390D01*
X168400588Y-90926955D01*
X168343194Y-90827545D01*
X168319305Y-90807500D01*
X168274615Y-90770000D01*
X168469479Y-90770000D01*
X168489412Y-90883047D01*
X168546804Y-90982452D01*
X168546806Y-90982455D01*
X168634739Y-91056240D01*
X168742606Y-91095500D01*
X168742607Y-91095500D01*
X168857393Y-91095500D01*
X168857394Y-91095500D01*
X168965261Y-91056240D01*
X169053194Y-90982455D01*
X169104402Y-90893759D01*
X169110587Y-90883047D01*
X169110587Y-90883046D01*
X169110588Y-90883045D01*
X169130521Y-90770000D01*
X169110588Y-90656955D01*
X169110587Y-90656953D01*
X169110587Y-90656952D01*
X169053195Y-90557547D01*
X169053194Y-90557545D01*
X169036142Y-90543237D01*
X168965261Y-90483760D01*
X168944556Y-90476224D01*
X168857394Y-90444500D01*
X168742606Y-90444500D01*
X168634737Y-90483760D01*
X168546808Y-90557541D01*
X168546804Y-90557546D01*
X168489412Y-90656952D01*
X168469479Y-90770000D01*
X168274615Y-90770000D01*
X168255261Y-90753760D01*
X168206322Y-90735948D01*
X168147394Y-90714500D01*
X168032606Y-90714500D01*
X167924737Y-90753760D01*
X167836808Y-90827541D01*
X167836804Y-90827546D01*
X167779412Y-90926952D01*
X167759479Y-91040000D01*
X167779412Y-91153047D01*
X167836804Y-91252452D01*
X167836806Y-91252455D01*
X167924739Y-91326240D01*
X168032606Y-91365500D01*
X168032609Y-91365500D01*
X168034986Y-91365920D01*
X168061125Y-91379527D01*
X168980148Y-92298550D01*
X168994500Y-92333198D01*
X168994500Y-98154517D01*
X168993559Y-98164075D01*
X168989397Y-98185000D01*
X168995923Y-98217810D01*
X169009615Y-98286642D01*
X169038402Y-98329726D01*
X169067190Y-98372811D01*
X169084930Y-98384664D01*
X169092356Y-98390758D01*
X169604241Y-98902643D01*
X169610335Y-98910068D01*
X169622187Y-98927807D01*
X169622190Y-98927810D01*
X169698114Y-98978540D01*
X169708356Y-98985384D01*
X169708357Y-98985384D01*
X169708358Y-98985385D01*
X169708361Y-98985386D01*
X169809997Y-99005603D01*
X169810000Y-99005603D01*
X169810001Y-99005603D01*
X169830919Y-99001442D01*
X169840479Y-99000500D01*
X172670500Y-99000500D01*
X172705148Y-99014852D01*
X172719500Y-99049500D01*
X172719500Y-99157069D01*
X172712935Y-99181569D01*
X172669412Y-99256952D01*
X172649479Y-99370000D01*
X172669412Y-99483047D01*
X172726804Y-99582452D01*
X172726806Y-99582455D01*
X172814739Y-99656240D01*
X172922606Y-99695500D01*
X172922607Y-99695500D01*
X173037393Y-99695500D01*
X173037394Y-99695500D01*
X173145261Y-99656240D01*
X173233194Y-99582455D01*
X173282908Y-99496347D01*
X173290587Y-99483047D01*
X173290587Y-99483046D01*
X173290588Y-99483045D01*
X173310521Y-99370000D01*
X173290588Y-99256955D01*
X173290587Y-99256953D01*
X173290587Y-99256952D01*
X173247065Y-99181569D01*
X173240500Y-99157069D01*
X173240500Y-98976780D01*
X173254852Y-98942132D01*
X173289500Y-98927780D01*
X173311745Y-98933121D01*
X173320339Y-98937500D01*
X173385602Y-98947836D01*
X173417578Y-98967432D01*
X173426333Y-99003895D01*
X173426063Y-99005603D01*
X173425446Y-99009500D01*
X173440169Y-99102455D01*
X173442815Y-99119161D01*
X173491901Y-99215500D01*
X173493220Y-99218087D01*
X173571728Y-99296595D01*
X173670654Y-99347000D01*
X173780315Y-99364369D01*
X173889976Y-99347000D01*
X173910337Y-99336624D01*
X173947724Y-99333681D01*
X173967232Y-99345635D01*
X174035205Y-99413608D01*
X174041299Y-99421033D01*
X174053149Y-99438769D01*
X174053151Y-99438770D01*
X174053152Y-99438772D01*
X174053155Y-99438774D01*
X174078222Y-99455523D01*
X174099058Y-99486705D01*
X174100000Y-99496265D01*
X174100000Y-99500000D01*
X174100000Y-101500000D01*
X182600000Y-101500000D01*
X182600000Y-99560462D01*
X182614352Y-99525814D01*
X182649000Y-99511462D01*
X184278387Y-99511462D01*
X184287947Y-99512404D01*
X184308865Y-99516565D01*
X184308866Y-99516565D01*
X184308869Y-99516565D01*
X184410505Y-99496348D01*
X184410505Y-99496347D01*
X184410508Y-99496347D01*
X184434973Y-99480000D01*
X184496676Y-99438772D01*
X184508531Y-99421028D01*
X184514621Y-99413608D01*
X184638229Y-99290000D01*
X196115131Y-99290000D01*
X196132500Y-99399661D01*
X196181763Y-99496347D01*
X196182905Y-99498587D01*
X196261413Y-99577095D01*
X196360339Y-99627500D01*
X196470000Y-99644869D01*
X196579661Y-99627500D01*
X196678587Y-99577095D01*
X196757095Y-99498587D01*
X196807500Y-99399661D01*
X196824869Y-99290000D01*
X196807500Y-99180339D01*
X196757095Y-99081413D01*
X196678587Y-99002905D01*
X196678584Y-99002903D01*
X196579661Y-98952500D01*
X196470000Y-98935131D01*
X196360338Y-98952500D01*
X196261415Y-99002903D01*
X196261412Y-99002905D01*
X196182905Y-99081412D01*
X196182903Y-99081415D01*
X196132500Y-99180338D01*
X196115131Y-99290000D01*
X184638229Y-99290000D01*
X185353378Y-98574852D01*
X185388026Y-98560500D01*
X187265522Y-98560500D01*
X187300170Y-98574852D01*
X187314522Y-98609500D01*
X187300170Y-98644148D01*
X187232905Y-98711412D01*
X187232903Y-98711415D01*
X187182500Y-98810338D01*
X187165131Y-98920000D01*
X187182500Y-99029661D01*
X187228611Y-99120161D01*
X187232905Y-99128587D01*
X187311413Y-99207095D01*
X187410339Y-99257500D01*
X187520000Y-99274869D01*
X187629661Y-99257500D01*
X187728587Y-99207095D01*
X187807095Y-99128587D01*
X187857500Y-99029661D01*
X187874869Y-98920000D01*
X187857500Y-98810339D01*
X187807095Y-98711413D01*
X187739830Y-98644148D01*
X187725478Y-98609500D01*
X187739830Y-98574852D01*
X187774478Y-98560500D01*
X198241130Y-98560500D01*
X198275778Y-98574852D01*
X198331776Y-98630851D01*
X198346127Y-98665498D01*
X198331775Y-98700147D01*
X198319374Y-98709157D01*
X198291415Y-98723403D01*
X198291412Y-98723405D01*
X198212905Y-98801912D01*
X198212903Y-98801915D01*
X198162500Y-98900838D01*
X198154048Y-98954203D01*
X198145131Y-99010500D01*
X198162500Y-99120161D01*
X198162500Y-99120162D01*
X198162501Y-99120164D01*
X198193234Y-99180481D01*
X198196177Y-99217868D01*
X198184223Y-99237374D01*
X197593939Y-99827659D01*
X197576450Y-99845148D01*
X197541802Y-99859500D01*
X184535478Y-99859500D01*
X184500830Y-99845148D01*
X184488587Y-99832905D01*
X184488584Y-99832903D01*
X184389661Y-99782500D01*
X184280000Y-99765131D01*
X184170338Y-99782500D01*
X184071415Y-99832903D01*
X184071412Y-99832905D01*
X183992905Y-99911412D01*
X183992903Y-99911415D01*
X183942500Y-100010338D01*
X183925131Y-100120000D01*
X183942500Y-100229661D01*
X183992271Y-100327344D01*
X183992905Y-100328587D01*
X184071413Y-100407095D01*
X184170339Y-100457500D01*
X184280000Y-100474869D01*
X184389661Y-100457500D01*
X184488587Y-100407095D01*
X184500830Y-100394852D01*
X184535478Y-100380500D01*
X197639521Y-100380500D01*
X197649081Y-100381442D01*
X197669999Y-100385603D01*
X197670000Y-100385603D01*
X197670003Y-100385603D01*
X197771639Y-100365386D01*
X197771639Y-100365385D01*
X197771642Y-100365385D01*
X197857810Y-100307810D01*
X197869665Y-100290066D01*
X197875748Y-100282652D01*
X197962341Y-100196061D01*
X198587207Y-99571193D01*
X198621854Y-99556842D01*
X198656502Y-99571194D01*
X198662596Y-99578620D01*
X198722188Y-99667809D01*
X198763631Y-99695500D01*
X198808358Y-99725385D01*
X198808360Y-99725386D01*
X198909997Y-99745603D01*
X198910000Y-99745603D01*
X198910003Y-99745603D01*
X199011639Y-99725386D01*
X199011639Y-99725385D01*
X199011642Y-99725385D01*
X199097810Y-99667810D01*
X199109667Y-99650063D01*
X199115751Y-99642649D01*
X199321511Y-99436890D01*
X199328930Y-99430802D01*
X199346671Y-99418949D01*
X199404246Y-99332781D01*
X199412756Y-99290000D01*
X199424465Y-99231139D01*
X199424465Y-99228914D01*
X199425317Y-99226856D01*
X199425407Y-99226405D01*
X199425496Y-99226422D01*
X199438817Y-99194266D01*
X199438819Y-99194264D01*
X199440392Y-99192690D01*
X199445956Y-99187127D01*
X199496361Y-99088201D01*
X199513730Y-98978540D01*
X199496361Y-98868879D01*
X199445956Y-98769953D01*
X199367448Y-98691445D01*
X199367445Y-98691443D01*
X199268522Y-98641040D01*
X199242990Y-98636996D01*
X199158861Y-98623671D01*
X199158860Y-98623671D01*
X199099384Y-98633090D01*
X199062918Y-98624334D01*
X199057072Y-98619341D01*
X198575086Y-98137356D01*
X198568992Y-98129930D01*
X198557139Y-98112190D01*
X198470970Y-98054615D01*
X198457824Y-98052000D01*
X198386932Y-98037898D01*
X198369329Y-98034397D01*
X198369327Y-98034397D01*
X198348409Y-98038558D01*
X198338849Y-98039500D01*
X194827198Y-98039500D01*
X194792550Y-98025148D01*
X194778198Y-97990500D01*
X194792550Y-97955852D01*
X194908402Y-97840000D01*
X195108876Y-97639525D01*
X195135014Y-97625919D01*
X195137389Y-97625500D01*
X195137394Y-97625500D01*
X195245261Y-97586240D01*
X195333194Y-97512455D01*
X195390588Y-97413045D01*
X195410521Y-97300000D01*
X195390588Y-97186955D01*
X195390587Y-97186953D01*
X195390587Y-97186952D01*
X195333195Y-97087547D01*
X195333194Y-97087545D01*
X195322183Y-97078306D01*
X195245261Y-97013760D01*
X195179980Y-96990000D01*
X198889479Y-96990000D01*
X198909412Y-97103047D01*
X198952576Y-97177808D01*
X198966806Y-97202455D01*
X199054739Y-97276240D01*
X199162606Y-97315500D01*
X199162607Y-97315500D01*
X199277393Y-97315500D01*
X199277394Y-97315500D01*
X199385261Y-97276240D01*
X199402275Y-97261963D01*
X199433771Y-97250500D01*
X203619521Y-97250500D01*
X203629081Y-97251442D01*
X203649999Y-97255603D01*
X203650000Y-97255603D01*
X203650003Y-97255603D01*
X203751639Y-97235386D01*
X203751639Y-97235385D01*
X203751642Y-97235385D01*
X203762159Y-97228358D01*
X203837810Y-97177810D01*
X203849665Y-97160066D01*
X203855753Y-97152647D01*
X204192647Y-96815753D01*
X204200066Y-96809665D01*
X204217810Y-96797810D01*
X204275385Y-96711642D01*
X204290500Y-96635654D01*
X204295603Y-96610000D01*
X204291440Y-96589075D01*
X204290500Y-96579517D01*
X204290500Y-93282929D01*
X204297065Y-93258429D01*
X204340587Y-93183047D01*
X204340587Y-93183046D01*
X204340588Y-93183045D01*
X204360521Y-93070000D01*
X204340588Y-92956955D01*
X204340587Y-92956953D01*
X204340587Y-92956952D01*
X204284807Y-92860339D01*
X204283194Y-92857545D01*
X204195261Y-92783760D01*
X204087394Y-92744500D01*
X203972606Y-92744500D01*
X203864737Y-92783760D01*
X203776808Y-92857541D01*
X203776804Y-92857546D01*
X203719412Y-92956952D01*
X203699479Y-93070000D01*
X203719412Y-93183047D01*
X203762935Y-93258429D01*
X203769500Y-93282929D01*
X203769500Y-96481802D01*
X203755148Y-96516450D01*
X203556450Y-96715148D01*
X203521802Y-96729500D01*
X199433771Y-96729500D01*
X199402275Y-96718036D01*
X199385261Y-96703760D01*
X199385259Y-96703759D01*
X199339118Y-96686965D01*
X199277394Y-96664500D01*
X199162606Y-96664500D01*
X199054737Y-96703760D01*
X198966808Y-96777541D01*
X198966804Y-96777546D01*
X198909412Y-96876952D01*
X198889479Y-96990000D01*
X195179980Y-96990000D01*
X195137394Y-96974500D01*
X195022606Y-96974500D01*
X194914737Y-97013760D01*
X194826808Y-97087541D01*
X194826804Y-97087546D01*
X194769411Y-97186955D01*
X194760269Y-97238796D01*
X194746662Y-97264934D01*
X194306450Y-97705148D01*
X194271802Y-97719500D01*
X189577198Y-97719500D01*
X189542550Y-97705148D01*
X189528198Y-97670500D01*
X189542550Y-97635852D01*
X189665950Y-97512452D01*
X189822650Y-97355751D01*
X189830069Y-97349663D01*
X189847810Y-97337810D01*
X189905385Y-97251642D01*
X189909416Y-97231376D01*
X189918253Y-97186952D01*
X189925604Y-97150002D01*
X189925604Y-97149998D01*
X189921442Y-97129076D01*
X189920500Y-97119516D01*
X189920500Y-95960000D01*
X192405131Y-95960000D01*
X192422500Y-96069661D01*
X192471708Y-96166239D01*
X192472905Y-96168587D01*
X192551413Y-96247095D01*
X192650339Y-96297500D01*
X192760000Y-96314869D01*
X192869661Y-96297500D01*
X192968587Y-96247095D01*
X193047095Y-96168587D01*
X193097500Y-96069661D01*
X193114869Y-95960000D01*
X193097500Y-95850339D01*
X193047095Y-95751413D01*
X192968587Y-95672905D01*
X192968584Y-95672903D01*
X192869661Y-95622500D01*
X192760000Y-95605131D01*
X192650338Y-95622500D01*
X192551415Y-95672903D01*
X192551412Y-95672905D01*
X192472905Y-95751412D01*
X192472903Y-95751415D01*
X192422500Y-95850338D01*
X192405131Y-95960000D01*
X189920500Y-95960000D01*
X189920500Y-93918198D01*
X189934852Y-93883550D01*
X190803550Y-93014852D01*
X190838198Y-93000500D01*
X192466229Y-93000500D01*
X192497724Y-93011963D01*
X192514739Y-93026240D01*
X192622606Y-93065500D01*
X192622607Y-93065500D01*
X192737393Y-93065500D01*
X192737394Y-93065500D01*
X192845261Y-93026240D01*
X192933194Y-92952455D01*
X192986377Y-92860339D01*
X192990587Y-92853047D01*
X192990587Y-92853046D01*
X192990588Y-92853045D01*
X193010521Y-92740000D01*
X192990588Y-92626955D01*
X192990587Y-92626953D01*
X192990587Y-92626952D01*
X192933195Y-92527547D01*
X192933193Y-92527544D01*
X192845261Y-92453760D01*
X192845258Y-92453759D01*
X192737394Y-92414500D01*
X192622606Y-92414500D01*
X192514742Y-92453759D01*
X192514740Y-92453760D01*
X192497725Y-92468036D01*
X192466230Y-92479500D01*
X190757198Y-92479500D01*
X190722550Y-92465148D01*
X190708198Y-92430500D01*
X190722548Y-92395853D01*
X190748876Y-92369524D01*
X190775014Y-92355919D01*
X190777389Y-92355500D01*
X190777394Y-92355500D01*
X190885261Y-92316240D01*
X190973194Y-92242455D01*
X191030588Y-92143045D01*
X191050521Y-92030000D01*
X191030588Y-91916955D01*
X191030587Y-91916953D01*
X191030587Y-91916952D01*
X190973195Y-91817547D01*
X190973193Y-91817544D01*
X190961605Y-91807820D01*
X190932497Y-91783396D01*
X190915181Y-91750131D01*
X190920209Y-91727473D01*
X190919121Y-91727077D01*
X190920586Y-91723049D01*
X190920586Y-91723048D01*
X190920588Y-91723045D01*
X190940521Y-91610000D01*
X190920588Y-91496955D01*
X190920587Y-91496953D01*
X190920587Y-91496952D01*
X190863195Y-91397547D01*
X190863194Y-91397545D01*
X190857124Y-91392452D01*
X190775261Y-91323760D01*
X190770398Y-91321990D01*
X190667394Y-91284500D01*
X190552606Y-91284500D01*
X190444737Y-91323760D01*
X190356808Y-91397541D01*
X190356804Y-91397546D01*
X190299412Y-91496952D01*
X190299411Y-91496955D01*
X190293368Y-91531223D01*
X190279761Y-91557361D01*
X188547354Y-93289769D01*
X188539931Y-93295861D01*
X188522191Y-93307715D01*
X188522190Y-93307716D01*
X188476831Y-93375603D01*
X188464615Y-93393883D01*
X188464613Y-93393888D01*
X188444397Y-93495524D01*
X188444397Y-93495528D01*
X188448558Y-93516445D01*
X188449500Y-93526005D01*
X188449500Y-96430500D01*
X188435148Y-96465148D01*
X188400500Y-96479500D01*
X187362556Y-96479500D01*
X187327908Y-96465148D01*
X187313556Y-96430500D01*
X187314300Y-96421991D01*
X187314563Y-96420500D01*
X187330521Y-96330000D01*
X187310588Y-96216955D01*
X187310587Y-96216953D01*
X187310587Y-96216952D01*
X187267065Y-96141569D01*
X187260500Y-96117069D01*
X187260500Y-94372929D01*
X187267065Y-94348429D01*
X187310587Y-94273047D01*
X187310587Y-94273046D01*
X187310588Y-94273045D01*
X187330521Y-94160000D01*
X187310588Y-94046955D01*
X187310587Y-94046953D01*
X187310587Y-94046952D01*
X187253195Y-93947547D01*
X187253194Y-93947545D01*
X187243929Y-93939771D01*
X187165261Y-93873760D01*
X187057394Y-93834500D01*
X186942606Y-93834500D01*
X186834737Y-93873760D01*
X186746808Y-93947541D01*
X186746804Y-93947546D01*
X186689412Y-94046952D01*
X186669479Y-94160000D01*
X186689412Y-94273047D01*
X186732935Y-94348429D01*
X186739500Y-94372929D01*
X186739500Y-96117069D01*
X186732935Y-96141569D01*
X186689412Y-96216952D01*
X186684097Y-96247095D01*
X186669479Y-96330000D01*
X186684156Y-96413239D01*
X186685700Y-96421991D01*
X186677582Y-96458605D01*
X186645953Y-96478756D01*
X186637444Y-96479500D01*
X180768641Y-96479500D01*
X180733993Y-96465148D01*
X180719641Y-96430500D01*
X180720244Y-96422835D01*
X180725483Y-96389757D01*
X180734869Y-96330500D01*
X180717500Y-96220839D01*
X180667095Y-96121913D01*
X180588587Y-96043405D01*
X180588584Y-96043403D01*
X180489661Y-95993000D01*
X180380000Y-95975631D01*
X180270338Y-95993000D01*
X180171415Y-96043403D01*
X180171412Y-96043405D01*
X180092905Y-96121912D01*
X180092903Y-96121915D01*
X180042500Y-96220838D01*
X180025131Y-96330500D01*
X180039756Y-96422835D01*
X180031001Y-96459301D01*
X179999024Y-96478897D01*
X179991359Y-96479500D01*
X179381621Y-96479500D01*
X179346973Y-96465148D01*
X179332621Y-96430500D01*
X179336822Y-96412997D01*
X179336308Y-96412830D01*
X179337498Y-96409165D01*
X179337498Y-96409164D01*
X179337500Y-96409161D01*
X179354869Y-96299500D01*
X179337500Y-96189839D01*
X179287095Y-96090913D01*
X179208587Y-96012405D01*
X179202430Y-96009268D01*
X179187254Y-96001535D01*
X179162898Y-95973017D01*
X179160500Y-95957876D01*
X179160500Y-95749500D01*
X179174852Y-95714852D01*
X179209500Y-95700500D01*
X179269745Y-95700500D01*
X179269748Y-95700500D01*
X179328231Y-95688867D01*
X179394552Y-95644552D01*
X179409258Y-95622542D01*
X179440440Y-95601708D01*
X179477223Y-95609024D01*
X179490742Y-95622543D01*
X179505447Y-95644552D01*
X179532012Y-95662301D01*
X179571769Y-95688867D01*
X179630252Y-95700500D01*
X179630255Y-95700500D01*
X180369745Y-95700500D01*
X180369748Y-95700500D01*
X180428231Y-95688867D01*
X180494552Y-95644552D01*
X180509258Y-95622542D01*
X180540440Y-95601708D01*
X180577223Y-95609024D01*
X180590742Y-95622543D01*
X180605447Y-95644552D01*
X180632012Y-95662301D01*
X180671769Y-95688867D01*
X180730252Y-95700500D01*
X180749207Y-95700500D01*
X180783855Y-95714852D01*
X180798207Y-95749500D01*
X180797463Y-95758007D01*
X180795031Y-95771801D01*
X180779479Y-95859999D01*
X180799412Y-95973047D01*
X180840034Y-96043405D01*
X180856806Y-96072455D01*
X180944739Y-96146240D01*
X181052606Y-96185500D01*
X181052607Y-96185500D01*
X181167393Y-96185500D01*
X181167394Y-96185500D01*
X181275261Y-96146240D01*
X181363194Y-96072455D01*
X181420588Y-95973045D01*
X181440521Y-95860000D01*
X181422537Y-95758008D01*
X181430655Y-95721395D01*
X181462284Y-95701244D01*
X181467357Y-95700800D01*
X181467351Y-95700736D01*
X181469743Y-95700500D01*
X181469748Y-95700500D01*
X181528231Y-95688867D01*
X181594552Y-95644552D01*
X181609258Y-95622542D01*
X181640440Y-95601708D01*
X181677223Y-95609024D01*
X181690742Y-95622543D01*
X181705447Y-95644552D01*
X181732012Y-95662301D01*
X181771769Y-95688867D01*
X181830252Y-95700500D01*
X181830255Y-95700500D01*
X182569745Y-95700500D01*
X182569748Y-95700500D01*
X182628231Y-95688867D01*
X182694552Y-95644552D01*
X182738867Y-95578231D01*
X182750500Y-95519748D01*
X182750500Y-93730252D01*
X182738867Y-93671769D01*
X182709258Y-93627456D01*
X182694552Y-93605447D01*
X182654795Y-93578882D01*
X182628231Y-93561133D01*
X182569748Y-93549500D01*
X182569745Y-93549500D01*
X182509500Y-93549500D01*
X182474852Y-93535148D01*
X182460500Y-93500500D01*
X182460500Y-93480478D01*
X182461442Y-93470918D01*
X182465603Y-93450001D01*
X182465603Y-93449997D01*
X182445385Y-93348359D01*
X182445385Y-93348358D01*
X182434582Y-93332189D01*
X182387810Y-93262189D01*
X182370068Y-93250335D01*
X182362643Y-93244241D01*
X181534852Y-92416450D01*
X181520500Y-92381802D01*
X181520500Y-92075687D01*
X181520500Y-92075684D01*
X181514068Y-92026827D01*
X181464065Y-91919596D01*
X181464064Y-91919595D01*
X181464063Y-91919593D01*
X181380406Y-91835936D01*
X181380404Y-91835935D01*
X181340971Y-91817547D01*
X181273173Y-91785932D01*
X181273171Y-91785931D01*
X181269906Y-91784409D01*
X181256702Y-91770000D01*
X189025131Y-91770000D01*
X189042500Y-91879661D01*
X189092071Y-91976952D01*
X189092905Y-91978587D01*
X189171413Y-92057095D01*
X189270339Y-92107500D01*
X189380000Y-92124869D01*
X189489661Y-92107500D01*
X189588587Y-92057095D01*
X189667095Y-91978587D01*
X189717500Y-91879661D01*
X189734869Y-91770000D01*
X189717500Y-91660339D01*
X189667095Y-91561413D01*
X189588587Y-91482905D01*
X189588584Y-91482903D01*
X189489661Y-91432500D01*
X189380000Y-91415131D01*
X189270338Y-91432500D01*
X189171415Y-91482903D01*
X189171412Y-91482905D01*
X189092905Y-91561412D01*
X189092903Y-91561415D01*
X189042500Y-91660338D01*
X189025131Y-91770000D01*
X181256702Y-91770000D01*
X181244569Y-91756759D01*
X181246205Y-91719292D01*
X181269906Y-91695591D01*
X181273171Y-91694068D01*
X181273173Y-91694068D01*
X181380404Y-91644065D01*
X181464065Y-91560404D01*
X181514068Y-91453173D01*
X181520500Y-91404316D01*
X181520500Y-91055684D01*
X181514068Y-91006827D01*
X181464065Y-90899596D01*
X181464064Y-90899595D01*
X181464063Y-90899593D01*
X181380404Y-90815935D01*
X181380403Y-90815934D01*
X181374231Y-90813056D01*
X181348896Y-90785404D01*
X181346319Y-90774715D01*
X181340573Y-90728607D01*
X181340447Y-90728350D01*
X181336138Y-90714893D01*
X181336092Y-90714620D01*
X181336092Y-90714619D01*
X181311704Y-90669555D01*
X181289198Y-90623516D01*
X181288998Y-90623316D01*
X181280551Y-90611988D01*
X181280418Y-90611742D01*
X181242724Y-90577042D01*
X181075307Y-90409625D01*
X181056587Y-90390905D01*
X181056585Y-90390903D01*
X181036211Y-90380523D01*
X181033652Y-90379219D01*
X181027429Y-90375440D01*
X181004069Y-90358761D01*
X181004064Y-90358758D01*
X180982923Y-90352464D01*
X180974661Y-90349161D01*
X180957664Y-90340500D01*
X180957660Y-90340499D01*
X180927362Y-90335700D01*
X180924201Y-90334983D01*
X180891952Y-90325382D01*
X180873248Y-90326156D01*
X180863560Y-90325595D01*
X180848000Y-90323131D01*
X180814621Y-90328417D01*
X180811799Y-90328697D01*
X180776749Y-90330147D01*
X180775077Y-90330217D01*
X180765853Y-90333815D01*
X180760736Y-90335812D01*
X180750595Y-90338558D01*
X180738343Y-90340498D01*
X180738334Y-90340502D01*
X180705462Y-90357250D01*
X180703246Y-90358244D01*
X180682327Y-90366406D01*
X180666103Y-90372738D01*
X180666102Y-90372738D01*
X180666101Y-90372739D01*
X180656909Y-90380523D01*
X180647495Y-90386786D01*
X180639410Y-90390906D01*
X180611117Y-90419198D01*
X180609628Y-90420569D01*
X180576842Y-90448339D01*
X180576840Y-90448341D01*
X180572391Y-90455807D01*
X180564953Y-90465363D01*
X180560909Y-90469407D01*
X180560906Y-90469412D01*
X180541329Y-90507830D01*
X180540547Y-90509247D01*
X180531028Y-90525224D01*
X180516963Y-90548829D01*
X180516962Y-90548831D01*
X180516962Y-90548832D01*
X180515867Y-90554052D01*
X180511574Y-90566228D01*
X180510501Y-90568333D01*
X180510500Y-90568337D01*
X180503267Y-90613992D01*
X180503048Y-90615186D01*
X180492957Y-90663314D01*
X180492956Y-90663320D01*
X180493200Y-90665273D01*
X180493054Y-90674144D01*
X180493131Y-90674144D01*
X180493131Y-90677998D01*
X180493131Y-90678000D01*
X180500909Y-90727112D01*
X180507427Y-90779393D01*
X180507823Y-90780204D01*
X180509109Y-90783383D01*
X180510499Y-90787660D01*
X180524906Y-90815935D01*
X180534395Y-90834558D01*
X180541062Y-90848196D01*
X180543385Y-90885625D01*
X180537183Y-90897812D01*
X180535938Y-90899589D01*
X180485933Y-91006825D01*
X180485932Y-91006827D01*
X180479926Y-91052452D01*
X180479500Y-91055687D01*
X180479500Y-91404312D01*
X180479499Y-91404312D01*
X180485932Y-91453174D01*
X180485933Y-91453175D01*
X180535935Y-91560404D01*
X180535936Y-91560406D01*
X180619593Y-91644063D01*
X180619595Y-91644064D01*
X180619596Y-91644065D01*
X180724562Y-91693012D01*
X180730093Y-91695591D01*
X180755430Y-91723241D01*
X180753794Y-91760708D01*
X180730093Y-91784409D01*
X180619595Y-91835935D01*
X180619593Y-91835936D01*
X180535936Y-91919593D01*
X180517240Y-91959686D01*
X180489589Y-91985022D01*
X180463272Y-91987035D01*
X180450004Y-91984396D01*
X180445729Y-91984395D01*
X180444663Y-91984500D01*
X180332606Y-91984500D01*
X180326256Y-91986810D01*
X180288790Y-91985173D01*
X180263454Y-91957522D01*
X180260500Y-91940765D01*
X180260500Y-90005608D01*
X180267064Y-89981109D01*
X180300588Y-89923045D01*
X180320521Y-89810000D01*
X180300588Y-89696955D01*
X180300587Y-89696953D01*
X180300587Y-89696952D01*
X180243195Y-89597547D01*
X180243194Y-89597545D01*
X180243192Y-89597543D01*
X180159166Y-89527036D01*
X180141849Y-89493770D01*
X180153127Y-89458003D01*
X180186393Y-89440686D01*
X180190663Y-89440500D01*
X189141802Y-89440500D01*
X189176450Y-89454852D01*
X190114241Y-90392643D01*
X190120335Y-90400068D01*
X190132189Y-90417810D01*
X190177090Y-90447811D01*
X190209420Y-90469413D01*
X190218358Y-90475385D01*
X190294766Y-90490583D01*
X190316701Y-90501104D01*
X190334739Y-90516240D01*
X190442606Y-90555500D01*
X190442607Y-90555500D01*
X190557393Y-90555500D01*
X190557394Y-90555500D01*
X190558737Y-90555011D01*
X190559885Y-90555061D01*
X190561616Y-90554756D01*
X190561683Y-90555139D01*
X190596203Y-90556643D01*
X190621543Y-90584290D01*
X190624500Y-90601054D01*
X190624500Y-90874517D01*
X190623559Y-90884075D01*
X190620473Y-90899593D01*
X190619397Y-90905001D01*
X190634589Y-90981377D01*
X190635521Y-90986063D01*
X190639615Y-91006642D01*
X190655920Y-91031044D01*
X190697187Y-91092807D01*
X190697188Y-91092807D01*
X190697190Y-91092810D01*
X190714933Y-91104665D01*
X190722353Y-91110755D01*
X190954243Y-91342646D01*
X190960337Y-91350071D01*
X190972189Y-91367810D01*
X191006115Y-91390478D01*
X191058358Y-91425385D01*
X191073098Y-91428317D01*
X191139078Y-91441442D01*
X191159999Y-91445604D01*
X191160000Y-91445604D01*
X191160001Y-91445604D01*
X191180923Y-91441442D01*
X191190483Y-91440500D01*
X193096229Y-91440500D01*
X193127724Y-91451963D01*
X193144739Y-91466240D01*
X193252606Y-91505500D01*
X193252607Y-91505500D01*
X193367393Y-91505500D01*
X193367394Y-91505500D01*
X193475261Y-91466240D01*
X193563194Y-91392455D01*
X193620588Y-91293045D01*
X193640521Y-91180000D01*
X193620588Y-91066955D01*
X193620587Y-91066953D01*
X193620587Y-91066952D01*
X193571802Y-90982455D01*
X193563194Y-90967545D01*
X193514817Y-90926952D01*
X193475261Y-90893760D01*
X193445821Y-90883045D01*
X193367394Y-90854500D01*
X193252606Y-90854500D01*
X193144742Y-90893759D01*
X193144740Y-90893760D01*
X193127725Y-90908036D01*
X193096230Y-90919500D01*
X191288199Y-90919500D01*
X191253551Y-90905148D01*
X191159852Y-90811449D01*
X191145500Y-90776801D01*
X191145500Y-88085478D01*
X191146442Y-88075918D01*
X191150603Y-88055001D01*
X191150603Y-88054997D01*
X191133789Y-87970472D01*
X191130385Y-87953358D01*
X191127222Y-87948624D01*
X191105428Y-87916006D01*
X191072811Y-87867190D01*
X191055068Y-87855335D01*
X191047643Y-87849241D01*
X190275758Y-87077356D01*
X190269664Y-87069930D01*
X190257811Y-87052190D01*
X190214726Y-87023402D01*
X190171642Y-86994615D01*
X190095654Y-86979500D01*
X190094719Y-86979314D01*
X190070001Y-86974397D01*
X190069999Y-86974397D01*
X190049081Y-86978558D01*
X190039521Y-86979500D01*
X186284084Y-86979500D01*
X186249436Y-86965148D01*
X186235084Y-86930500D01*
X186249436Y-86895852D01*
X186252587Y-86892964D01*
X186253194Y-86892455D01*
X186308016Y-86797500D01*
X186310587Y-86793047D01*
X186310587Y-86793046D01*
X186310588Y-86793045D01*
X186330521Y-86680000D01*
X186314430Y-86588746D01*
X186322547Y-86552135D01*
X186345926Y-86534195D01*
X186395261Y-86516240D01*
X186483194Y-86442455D01*
X186536377Y-86350339D01*
X186540587Y-86343047D01*
X186540587Y-86343046D01*
X186540588Y-86343045D01*
X186560521Y-86230000D01*
X186540588Y-86116955D01*
X186540587Y-86116953D01*
X186540587Y-86116952D01*
X186483195Y-86017547D01*
X186483193Y-86017544D01*
X186395261Y-85943760D01*
X186395258Y-85943759D01*
X186287394Y-85904500D01*
X186172606Y-85904500D01*
X186064742Y-85943759D01*
X186064740Y-85943760D01*
X186047725Y-85958036D01*
X186016230Y-85969500D01*
X183748198Y-85969500D01*
X183713550Y-85955148D01*
X181025758Y-83267356D01*
X181019664Y-83259930D01*
X181007811Y-83242190D01*
X180964726Y-83213402D01*
X180921642Y-83184615D01*
X180845654Y-83169500D01*
X180820001Y-83164397D01*
X180819999Y-83164397D01*
X180799081Y-83168558D01*
X180789521Y-83169500D01*
X166140479Y-83169500D01*
X166130919Y-83168558D01*
X166110001Y-83164397D01*
X166109999Y-83164397D01*
X166084346Y-83169500D01*
X166008358Y-83184615D01*
X165922189Y-83242190D01*
X165922188Y-83242191D01*
X165910336Y-83259928D01*
X165904244Y-83267351D01*
X164587354Y-84584242D01*
X164579931Y-84590334D01*
X164562191Y-84602188D01*
X164562190Y-84602189D01*
X164504613Y-84688360D01*
X164484397Y-84789997D01*
X164484397Y-84790001D01*
X164488558Y-84810918D01*
X164489500Y-84820478D01*
X164489500Y-90229517D01*
X164488559Y-90239075D01*
X164484397Y-90260000D01*
X156132505Y-90260000D01*
X156117394Y-90254500D01*
X156002606Y-90254500D01*
X155894737Y-90293760D01*
X155806808Y-90367541D01*
X155806804Y-90367546D01*
X155749412Y-90466952D01*
X155731535Y-90568339D01*
X155729479Y-90580000D01*
X155747476Y-90682068D01*
X155748756Y-90689324D01*
X155749500Y-90697833D01*
X155749500Y-91384390D01*
X155742935Y-91408890D01*
X155709412Y-91466952D01*
X155689479Y-91580000D01*
X149923421Y-91580000D01*
X149923285Y-90470000D01*
X153835131Y-90470000D01*
X153852500Y-90579661D01*
X153902605Y-90678000D01*
X153902905Y-90678587D01*
X153981413Y-90757095D01*
X154080339Y-90807500D01*
X154190000Y-90824869D01*
X154299661Y-90807500D01*
X154398587Y-90757095D01*
X154477095Y-90678587D01*
X154527500Y-90579661D01*
X154544869Y-90470000D01*
X154527500Y-90360339D01*
X154477095Y-90261413D01*
X154398587Y-90182905D01*
X154398584Y-90182903D01*
X154299661Y-90132500D01*
X154190000Y-90115131D01*
X154080338Y-90132500D01*
X153981415Y-90182903D01*
X153981412Y-90182905D01*
X153902905Y-90261412D01*
X153902903Y-90261415D01*
X153852500Y-90360338D01*
X153835131Y-90470000D01*
X149923285Y-90470000D01*
X149923038Y-88450000D01*
X155284534Y-88450000D01*
X155304312Y-88600235D01*
X155362299Y-88740228D01*
X155362302Y-88740233D01*
X155452393Y-88857642D01*
X155454549Y-88860451D01*
X155574767Y-88952698D01*
X155574769Y-88952698D01*
X155574771Y-88952700D01*
X155593851Y-88960603D01*
X155714764Y-89010687D01*
X155827280Y-89025500D01*
X155827284Y-89025500D01*
X155902716Y-89025500D01*
X155902720Y-89025500D01*
X156015236Y-89010687D01*
X156155233Y-88952698D01*
X156275451Y-88860451D01*
X156367698Y-88740233D01*
X156425687Y-88600236D01*
X156445466Y-88450000D01*
X156425687Y-88299764D01*
X156383102Y-88196955D01*
X156367700Y-88159771D01*
X156367697Y-88159766D01*
X156275451Y-88039549D01*
X156275450Y-88039548D01*
X156155233Y-87947302D01*
X156155228Y-87947299D01*
X156015235Y-87889312D01*
X155937894Y-87879130D01*
X155902720Y-87874500D01*
X155827280Y-87874500D01*
X155795425Y-87878693D01*
X155714764Y-87889312D01*
X155574771Y-87947299D01*
X155574766Y-87947302D01*
X155454549Y-88039548D01*
X155454548Y-88039549D01*
X155362302Y-88159766D01*
X155362299Y-88159771D01*
X155304312Y-88299764D01*
X155284534Y-88450000D01*
X149923038Y-88450000D01*
X149922779Y-86330000D01*
X160825131Y-86330000D01*
X160842500Y-86439661D01*
X160881518Y-86516240D01*
X160892905Y-86538587D01*
X160971413Y-86617095D01*
X161070339Y-86667500D01*
X161180000Y-86684869D01*
X161289661Y-86667500D01*
X161388587Y-86617095D01*
X161467095Y-86538587D01*
X161517500Y-86439661D01*
X161534869Y-86330000D01*
X161517500Y-86220339D01*
X161467095Y-86121413D01*
X161388587Y-86042905D01*
X161388584Y-86042903D01*
X161289661Y-85992500D01*
X161180000Y-85975131D01*
X161070338Y-85992500D01*
X160971415Y-86042903D01*
X160971412Y-86042905D01*
X160892905Y-86121412D01*
X160892903Y-86121415D01*
X160842500Y-86220338D01*
X160825131Y-86330000D01*
X149922779Y-86330000D01*
X149922529Y-84290000D01*
X155665131Y-84290000D01*
X155682500Y-84399661D01*
X155732905Y-84498587D01*
X155811413Y-84577095D01*
X155910339Y-84627500D01*
X156020000Y-84644869D01*
X156129661Y-84627500D01*
X156228587Y-84577095D01*
X156307095Y-84498587D01*
X156357500Y-84399661D01*
X156374869Y-84290000D01*
X156357500Y-84180339D01*
X156307095Y-84081413D01*
X156228587Y-84002905D01*
X156228584Y-84002903D01*
X156129661Y-83952500D01*
X156020000Y-83935131D01*
X155910338Y-83952500D01*
X155811415Y-84002903D01*
X155811412Y-84002905D01*
X155732905Y-84081412D01*
X155732903Y-84081415D01*
X155682500Y-84180338D01*
X155682500Y-84180339D01*
X155665131Y-84290000D01*
X149922529Y-84290000D01*
X149922256Y-82060000D01*
X163355131Y-82060000D01*
X163372500Y-82169661D01*
X163422905Y-82268587D01*
X163501413Y-82347095D01*
X163600339Y-82397500D01*
X163710000Y-82414869D01*
X163819661Y-82397500D01*
X163918587Y-82347095D01*
X163997095Y-82268587D01*
X164047500Y-82169661D01*
X164064869Y-82060000D01*
X164047500Y-81950339D01*
X163997095Y-81851413D01*
X163918587Y-81772905D01*
X163918584Y-81772903D01*
X163819661Y-81722500D01*
X163710000Y-81705131D01*
X163600338Y-81722500D01*
X163501415Y-81772903D01*
X163501412Y-81772905D01*
X163422905Y-81851412D01*
X163422903Y-81851415D01*
X163372500Y-81950338D01*
X163372500Y-81950339D01*
X163355131Y-82060000D01*
X149922256Y-82060000D01*
X149921951Y-79570000D01*
X155695131Y-79570000D01*
X155712500Y-79679661D01*
X155762905Y-79778587D01*
X155841413Y-79857095D01*
X155940339Y-79907500D01*
X156050000Y-79924869D01*
X156159661Y-79907500D01*
X156258587Y-79857095D01*
X156337095Y-79778587D01*
X156387500Y-79679661D01*
X156404869Y-79570000D01*
X156387500Y-79460339D01*
X156337095Y-79361413D01*
X156258587Y-79282905D01*
X156258584Y-79282903D01*
X156159661Y-79232500D01*
X156050000Y-79215131D01*
X155940338Y-79232500D01*
X155841415Y-79282903D01*
X155841412Y-79282905D01*
X155762905Y-79361412D01*
X155762903Y-79361415D01*
X155712500Y-79460338D01*
X155710064Y-79475716D01*
X155695131Y-79570000D01*
X149921951Y-79570000D01*
X149921939Y-79475709D01*
X149922094Y-79473714D01*
X149922085Y-79470986D01*
X149922086Y-79470984D01*
X149921933Y-79424122D01*
X149921933Y-79424053D01*
X149921964Y-79422765D01*
X149938399Y-79112850D01*
X149938695Y-79110152D01*
X149989673Y-78804780D01*
X149990278Y-78802095D01*
X149996886Y-78778927D01*
X150075197Y-78504365D01*
X150076084Y-78501808D01*
X150193878Y-78215468D01*
X150195048Y-78213024D01*
X150344223Y-77941707D01*
X150345665Y-77939401D01*
X150524334Y-77686542D01*
X150526030Y-77684409D01*
X150731931Y-77453202D01*
X150733868Y-77451260D01*
X150964405Y-77244617D01*
X150966536Y-77242913D01*
X151218811Y-77063435D01*
X151221118Y-77061982D01*
X151405134Y-76960032D01*
X151491928Y-76911947D01*
X151494405Y-76910750D01*
X151780333Y-76792046D01*
X151782911Y-76791141D01*
X152080358Y-76705266D01*
X152083024Y-76704656D01*
X152388225Y-76652694D01*
X152390960Y-76652386D01*
X152575995Y-76641974D01*
X152701430Y-76634917D01*
X152701430Y-76634916D01*
X152701995Y-76634885D01*
X152703370Y-76634846D01*
X152749024Y-76634847D01*
X152749027Y-76634846D01*
X152752959Y-76634846D01*
X152753129Y-76634831D01*
X209158677Y-76620513D01*
X209160595Y-76620660D01*
X209163354Y-76620651D01*
X209163357Y-76620652D01*
X209210253Y-76620499D01*
X209211595Y-76620532D01*
G37*
%TD.AperFunction*%
%TD*%
D30*
X180848000Y-90678000D03*
X184310000Y-98670000D03*
X189380000Y-91770000D03*
X173320000Y-90520000D03*
X178800000Y-98610000D03*
X165650000Y-88970000D03*
D31*
X169450000Y-101000000D03*
D30*
X163710000Y-82060000D03*
X173430000Y-98600000D03*
X181102000Y-93400500D03*
X192760000Y-95960000D03*
X179000000Y-96299500D03*
X163936113Y-91090817D03*
X163990000Y-92709500D03*
X156050000Y-79570000D03*
X175150000Y-98389500D03*
X161150000Y-92970000D03*
X182090000Y-88150000D03*
X187520000Y-98920000D03*
X172650000Y-88740000D03*
D31*
X167980000Y-100500000D03*
D30*
X167520000Y-86460000D03*
X165290000Y-100500000D03*
X172390000Y-93050000D03*
X177243650Y-98840962D03*
X167970000Y-88500000D03*
X180380000Y-96330500D03*
X170710000Y-100000000D03*
X204680000Y-92360000D03*
X173660000Y-99660000D03*
X154120000Y-88410000D03*
X183140000Y-94780000D03*
X184912000Y-91948000D03*
X185420000Y-91186000D03*
X187500000Y-84680000D03*
X190180000Y-94710000D03*
X186180000Y-94810000D03*
X163500000Y-89670000D03*
X168540000Y-99280000D03*
X176120000Y-101920000D03*
X174780000Y-91270000D03*
X183388000Y-102870000D03*
X184912000Y-90424000D03*
X163530000Y-90800000D03*
D31*
X163570000Y-79770000D03*
D30*
X152510000Y-88770000D03*
X186690000Y-91186000D03*
X163370000Y-93650000D03*
X158800000Y-95580000D03*
X154020000Y-100940000D03*
X203930000Y-87980000D03*
X177948018Y-96330500D03*
X191980000Y-94030000D03*
X185674000Y-90424000D03*
X186690000Y-90170000D03*
X163390000Y-92940000D03*
X171110000Y-101600000D03*
X181120000Y-90020000D03*
X186690000Y-90678000D03*
X171760000Y-102970000D03*
X188280000Y-85190000D03*
X168570000Y-86740000D03*
X169810000Y-86830000D03*
X185928000Y-91186000D03*
X177030000Y-102520000D03*
X175599500Y-92920000D03*
D31*
X160010000Y-80160000D03*
D30*
X157870000Y-104240000D03*
X163610000Y-88450000D03*
X176080000Y-92250000D03*
X171720000Y-99970000D03*
X158160000Y-87660000D03*
X204770000Y-95400000D03*
X179650000Y-79460000D03*
X181710000Y-85800000D03*
X175370000Y-85360000D03*
X167460000Y-95340000D03*
X158580000Y-88160000D03*
X153340000Y-85280000D03*
X185420000Y-91694000D03*
X178990000Y-85390000D03*
X203730000Y-90950000D03*
D31*
X160270000Y-84160000D03*
D30*
X178770000Y-88340500D03*
X184912000Y-91186000D03*
X203910000Y-89490000D03*
X183990000Y-81510000D03*
X156020000Y-84290000D03*
X154190000Y-90470000D03*
X161180000Y-86330000D03*
X196470000Y-99290000D03*
D31*
X199220000Y-96990000D03*
X204030000Y-93070000D03*
D30*
X198500000Y-99010500D03*
X184280000Y-100120000D03*
X199158861Y-98978540D03*
X173780315Y-99009500D03*
D31*
X156060000Y-90580000D03*
X156020000Y-91580000D03*
X180390000Y-92310000D03*
X169585000Y-90810000D03*
X168800000Y-90770000D03*
X181110000Y-95860000D03*
X170450000Y-90840000D03*
X179990000Y-89810000D03*
X170020000Y-95840000D03*
X175190000Y-90100000D03*
X172570000Y-92090000D03*
X169970000Y-90680000D03*
X161860000Y-101570000D03*
X164870000Y-98890000D03*
X170300000Y-94390000D03*
X190460000Y-89750000D03*
X190500000Y-90230000D03*
X170720000Y-95120000D03*
X170855000Y-90895000D03*
X186910000Y-87750000D03*
X193310000Y-91180000D03*
X171780000Y-88310000D03*
X190610000Y-91610000D03*
X171230000Y-96740000D03*
X190720000Y-92030000D03*
X170510000Y-97590000D03*
X170040000Y-97430000D03*
X192680000Y-92740000D03*
X195080000Y-97300000D03*
X169640000Y-97330000D03*
X161250000Y-101470000D03*
X162580000Y-97840000D03*
X162210000Y-98400000D03*
X160858406Y-102628406D03*
X164040000Y-101300000D03*
X165100000Y-103090000D03*
X165000000Y-101730000D03*
X163690000Y-101700000D03*
X168090000Y-91040000D03*
X172980000Y-99370000D03*
X187000000Y-96330000D03*
X187000000Y-94160000D03*
X165880000Y-95880000D03*
X186230000Y-86230000D03*
X166330000Y-95790000D03*
X186000000Y-86680000D03*
D32*
X207380000Y-103490000D03*
X207863274Y-102323274D03*
X207863274Y-104656726D03*
X209030000Y-101840000D03*
X209030000Y-103490000D03*
X209030000Y-105140000D03*
X210196726Y-102323274D03*
X210196726Y-104656726D03*
X210680000Y-103490000D03*
D33*
X202760000Y-84750000D03*
X202760000Y-99250000D03*
D34*
X208720000Y-84750000D03*
X208720000Y-99250000D03*
D32*
X207270000Y-79600000D03*
X207753274Y-78433274D03*
X207753274Y-80766726D03*
X208920000Y-77950000D03*
X208920000Y-79600000D03*
X208920000Y-81250000D03*
X210086726Y-78433274D03*
X210086726Y-80766726D03*
X210570000Y-79600000D03*
X155865000Y-88450000D03*
X155865000Y-94230000D03*
D35*
X156365000Y-87020000D03*
D36*
X152185000Y-87020000D03*
D35*
X156365000Y-95660000D03*
D36*
X152185000Y-95660000D03*
M02*
