%TF.GenerationSoftware,KiCad,Pcbnew,7.0.8*%
%TF.CreationDate,2024-04-11T13:26:54+03:00*%
%TF.ProjectId,rp2040DVI,72703230-3430-4445-9649-2e6b69636164,rev?*%
%TF.SameCoordinates,Original*%
%TF.FileFunction,Soldermask,Top*%
%TF.FilePolarity,Negative*%
%FSLAX46Y46*%
G04 Gerber Fmt 4.6, Leading zero omitted, Abs format (unit mm)*
G04 Created by KiCad (PCBNEW 7.0.8) date 2024-04-11 13:26:54*
%MOMM*%
%LPD*%
G01*
G04 APERTURE LIST*
G04 Aperture macros list*
%AMRoundRect*
0 Rectangle with rounded corners*
0 $1 Rounding radius*
0 $2 $3 $4 $5 $6 $7 $8 $9 X,Y pos of 4 corners*
0 Add a 4 corners polygon primitive as box body*
4,1,4,$2,$3,$4,$5,$6,$7,$8,$9,$2,$3,0*
0 Add four circle primitives for the rounded corners*
1,1,$1+$1,$2,$3*
1,1,$1+$1,$4,$5*
1,1,$1+$1,$6,$7*
1,1,$1+$1,$8,$9*
0 Add four rect primitives between the rounded corners*
20,1,$1+$1,$2,$3,$4,$5,0*
20,1,$1+$1,$4,$5,$6,$7,0*
20,1,$1+$1,$6,$7,$8,$9,0*
20,1,$1+$1,$8,$9,$2,$3,0*%
%AMFreePoly0*
4,1,6,1.000000,0.000000,0.500000,-0.750000,-0.500000,-0.750000,-0.500000,0.750000,0.500000,0.750000,1.000000,0.000000,1.000000,0.000000,$1*%
%AMFreePoly1*
4,1,6,0.500000,-0.750000,-0.650000,-0.750000,-0.150000,0.000000,-0.650000,0.750000,0.500000,0.750000,0.500000,-0.750000,0.500000,-0.750000,$1*%
G04 Aperture macros list end*
%ADD10C,0.010000*%
%ADD11RoundRect,0.140000X0.170000X-0.140000X0.170000X0.140000X-0.170000X0.140000X-0.170000X-0.140000X0*%
%ADD12RoundRect,0.135000X0.135000X0.185000X-0.135000X0.185000X-0.135000X-0.185000X0.135000X-0.185000X0*%
%ADD13RoundRect,0.135000X0.185000X-0.135000X0.185000X0.135000X-0.185000X0.135000X-0.185000X-0.135000X0*%
%ADD14RoundRect,0.140000X-0.140000X-0.170000X0.140000X-0.170000X0.140000X0.170000X-0.140000X0.170000X0*%
%ADD15RoundRect,0.150000X-0.650000X-0.150000X0.650000X-0.150000X0.650000X0.150000X-0.650000X0.150000X0*%
%ADD16RoundRect,0.135000X-0.135000X-0.185000X0.135000X-0.185000X0.135000X0.185000X-0.135000X0.185000X0*%
%ADD17R,1.200000X1.400000*%
%ADD18RoundRect,0.108000X0.094000X-0.414000X0.094000X0.414000X-0.094000X0.414000X-0.094000X-0.414000X0*%
%ADD19RoundRect,0.122000X0.400000X-0.080000X0.400000X0.080000X-0.400000X0.080000X-0.400000X-0.080000X0*%
%ADD20RoundRect,0.102000X1.550000X-1.550000X1.550000X1.550000X-1.550000X1.550000X-1.550000X-1.550000X0*%
%ADD21R,1.700000X0.900000*%
%ADD22R,2.000000X1.500000*%
%ADD23R,2.000000X3.800000*%
%ADD24RoundRect,0.250000X-0.250000X-0.475000X0.250000X-0.475000X0.250000X0.475000X-0.250000X0.475000X0*%
%ADD25RoundRect,0.135000X-0.185000X0.135000X-0.185000X-0.135000X0.185000X-0.135000X0.185000X0.135000X0*%
%ADD26C,0.700000*%
%ADD27C,4.400000*%
%ADD28R,2.600000X0.300000*%
%ADD29O,3.300000X1.500000*%
%ADD30O,2.300000X1.500000*%
%ADD31RoundRect,0.147500X-0.147500X-0.172500X0.147500X-0.172500X0.147500X0.172500X-0.147500X0.172500X0*%
%ADD32RoundRect,0.140000X-0.170000X0.140000X-0.170000X-0.140000X0.170000X-0.140000X0.170000X0.140000X0*%
%ADD33RoundRect,0.140000X0.140000X0.170000X-0.140000X0.170000X-0.140000X-0.170000X0.140000X-0.170000X0*%
%ADD34RoundRect,0.110100X-0.396900X-0.126900X0.396900X-0.126900X0.396900X0.126900X-0.396900X0.126900X0*%
%ADD35RoundRect,0.129000X-0.108000X-0.378000X0.108000X-0.378000X0.108000X0.378000X-0.108000X0.378000X0*%
%ADD36RoundRect,0.102000X-1.850000X-1.850000X1.850000X-1.850000X1.850000X1.850000X-1.850000X1.850000X0*%
%ADD37R,1.400000X1.200000*%
%ADD38FreePoly0,0.000000*%
%ADD39FreePoly1,0.000000*%
%ADD40RoundRect,0.102000X-0.400000X-0.800000X0.400000X-0.800000X0.400000X0.800000X-0.400000X0.800000X0*%
%ADD41C,0.650000*%
%ADD42RoundRect,0.150000X-0.425000X0.150000X-0.425000X-0.150000X0.425000X-0.150000X0.425000X0.150000X0*%
%ADD43RoundRect,0.075000X-0.500000X0.075000X-0.500000X-0.075000X0.500000X-0.075000X0.500000X0.075000X0*%
%ADD44O,2.100000X1.000000*%
%ADD45O,1.800000X1.000000*%
G04 APERTURE END LIST*
%TO.C,U2*%
D10*
X174770000Y-99525000D02*
X174060000Y-99525000D01*
X174060000Y-99075000D01*
X174770000Y-99075000D01*
X174770000Y-99525000D01*
G36*
X174770000Y-99525000D02*
G01*
X174060000Y-99525000D01*
X174060000Y-99075000D01*
X174770000Y-99075000D01*
X174770000Y-99525000D01*
G37*
X174770000Y-100025000D02*
X174060000Y-100025000D01*
X174060000Y-99575000D01*
X174770000Y-99575000D01*
X174770000Y-100025000D01*
G36*
X174770000Y-100025000D02*
G01*
X174060000Y-100025000D01*
X174060000Y-99575000D01*
X174770000Y-99575000D01*
X174770000Y-100025000D01*
G37*
X174770000Y-100525000D02*
X174060000Y-100525000D01*
X174060000Y-100075000D01*
X174770000Y-100075000D01*
X174770000Y-100525000D01*
G36*
X174770000Y-100525000D02*
G01*
X174060000Y-100525000D01*
X174060000Y-100075000D01*
X174770000Y-100075000D01*
X174770000Y-100525000D01*
G37*
X174770000Y-101025000D02*
X174060000Y-101025000D01*
X174060000Y-100575000D01*
X174770000Y-100575000D01*
X174770000Y-101025000D01*
G36*
X174770000Y-101025000D02*
G01*
X174060000Y-101025000D01*
X174060000Y-100575000D01*
X174770000Y-100575000D01*
X174770000Y-101025000D01*
G37*
X175430000Y-99360000D02*
X174720000Y-99360000D01*
X174720000Y-98910000D01*
X175430000Y-98910000D01*
X175430000Y-99360000D01*
G36*
X175430000Y-99360000D02*
G01*
X174720000Y-99360000D01*
X174720000Y-98910000D01*
X175430000Y-98910000D01*
X175430000Y-99360000D01*
G37*
X175430000Y-101190000D02*
X174720000Y-101190000D01*
X174720000Y-100740000D01*
X175430000Y-100740000D01*
X175430000Y-101190000D01*
G36*
X175430000Y-101190000D02*
G01*
X174720000Y-101190000D01*
X174720000Y-100740000D01*
X175430000Y-100740000D01*
X175430000Y-101190000D01*
G37*
X175930000Y-99360000D02*
X175220000Y-99360000D01*
X175220000Y-98910000D01*
X175930000Y-98910000D01*
X175930000Y-99360000D01*
G36*
X175930000Y-99360000D02*
G01*
X175220000Y-99360000D01*
X175220000Y-98910000D01*
X175930000Y-98910000D01*
X175930000Y-99360000D01*
G37*
X175930000Y-101190000D02*
X175220000Y-101190000D01*
X175220000Y-100740000D01*
X175930000Y-100740000D01*
X175930000Y-101190000D01*
G36*
X175930000Y-101190000D02*
G01*
X175220000Y-101190000D01*
X175220000Y-100740000D01*
X175930000Y-100740000D01*
X175930000Y-101190000D01*
G37*
X176430000Y-99360000D02*
X175720000Y-99360000D01*
X175720000Y-98910000D01*
X176430000Y-98910000D01*
X176430000Y-99360000D01*
G36*
X176430000Y-99360000D02*
G01*
X175720000Y-99360000D01*
X175720000Y-98910000D01*
X176430000Y-98910000D01*
X176430000Y-99360000D01*
G37*
X176430000Y-101190000D02*
X175720000Y-101190000D01*
X175720000Y-100740000D01*
X176430000Y-100740000D01*
X176430000Y-101190000D01*
G36*
X176430000Y-101190000D02*
G01*
X175720000Y-101190000D01*
X175720000Y-100740000D01*
X176430000Y-100740000D01*
X176430000Y-101190000D01*
G37*
X177090000Y-99525000D02*
X176380000Y-99525000D01*
X176380000Y-99075000D01*
X177090000Y-99075000D01*
X177090000Y-99525000D01*
G36*
X177090000Y-99525000D02*
G01*
X176380000Y-99525000D01*
X176380000Y-99075000D01*
X177090000Y-99075000D01*
X177090000Y-99525000D01*
G37*
X177090000Y-100025000D02*
X176380000Y-100025000D01*
X176380000Y-99575000D01*
X177090000Y-99575000D01*
X177090000Y-100025000D01*
G36*
X177090000Y-100025000D02*
G01*
X176380000Y-100025000D01*
X176380000Y-99575000D01*
X177090000Y-99575000D01*
X177090000Y-100025000D01*
G37*
X177090000Y-100525000D02*
X176380000Y-100525000D01*
X176380000Y-100075000D01*
X177090000Y-100075000D01*
X177090000Y-100525000D01*
G36*
X177090000Y-100525000D02*
G01*
X176380000Y-100525000D01*
X176380000Y-100075000D01*
X177090000Y-100075000D01*
X177090000Y-100525000D01*
G37*
X177090000Y-101025000D02*
X176380000Y-101025000D01*
X176380000Y-100575000D01*
X177090000Y-100575000D01*
X177090000Y-101025000D01*
G36*
X177090000Y-101025000D02*
G01*
X176380000Y-101025000D01*
X176380000Y-100575000D01*
X177090000Y-100575000D01*
X177090000Y-101025000D01*
G37*
%TD*%
D11*
%TO.C,C28*%
X179000000Y-86960000D03*
X179000000Y-86000000D03*
%TD*%
D12*
%TO.C,R19*%
X198530000Y-92342000D03*
X197510000Y-92342000D03*
%TD*%
D13*
%TO.C,R27*%
X181920000Y-94110000D03*
X181920000Y-93090000D03*
%TD*%
D14*
%TO.C,C12*%
X161780000Y-92950000D03*
X162740000Y-92950000D03*
%TD*%
D15*
%TO.C,U3*%
X159350000Y-100495000D03*
X159350000Y-101765000D03*
X159350000Y-103035000D03*
X159350000Y-104305000D03*
X166550000Y-104305000D03*
X166550000Y-103035000D03*
X166550000Y-101765000D03*
X166550000Y-100495000D03*
%TD*%
D12*
%TO.C,R8*%
X175140000Y-97790000D03*
X174120000Y-97790000D03*
%TD*%
%TO.C,R20*%
X198530000Y-93532000D03*
X197510000Y-93532000D03*
%TD*%
%TO.C,R4*%
X166910000Y-98800000D03*
X165890000Y-98800000D03*
%TD*%
D16*
%TO.C,R6*%
X158690000Y-92180000D03*
X159710000Y-92180000D03*
%TD*%
D11*
%TO.C,C1*%
X182300000Y-87330000D03*
X182300000Y-86370000D03*
%TD*%
D12*
%TO.C,R14*%
X194670000Y-95970000D03*
X193650000Y-95970000D03*
%TD*%
D11*
%TO.C,C11*%
X168600000Y-88500000D03*
X168600000Y-87540000D03*
%TD*%
D12*
%TO.C,R17*%
X198426666Y-89526666D03*
X197406666Y-89526666D03*
%TD*%
D17*
%TO.C,Y1*%
X178738000Y-92116000D03*
X178738000Y-89916000D03*
X177038000Y-89916000D03*
X177038000Y-92116000D03*
%TD*%
D12*
%TO.C,R15*%
X198542000Y-98496000D03*
X197522000Y-98496000D03*
%TD*%
D18*
%TO.C,U4*%
X165635000Y-96735000D03*
X166035000Y-96735000D03*
X166435000Y-96735000D03*
X166835000Y-96735000D03*
X167235000Y-96735000D03*
X167635000Y-96735000D03*
X168035000Y-96735000D03*
X168435000Y-96735000D03*
X168835000Y-96735000D03*
X169235000Y-96735000D03*
X169635000Y-96735000D03*
X170035000Y-96735000D03*
X170435000Y-96735000D03*
X170835000Y-96735000D03*
D19*
X171670000Y-95900000D03*
X171670000Y-95500000D03*
X171670000Y-95100000D03*
X171670000Y-94700000D03*
X171670000Y-94300000D03*
X171670000Y-93900000D03*
X171670000Y-93500000D03*
X171670000Y-93100000D03*
X171670000Y-92700000D03*
X171670000Y-92300000D03*
X171670000Y-91900000D03*
X171670000Y-91500000D03*
X171670000Y-91100000D03*
X171670000Y-90700000D03*
D18*
X170835000Y-89865000D03*
X170435000Y-89865000D03*
X170035000Y-89865000D03*
X169635000Y-89865000D03*
X169235000Y-89865000D03*
X168835000Y-89865000D03*
X168435000Y-89865000D03*
X168035000Y-89865000D03*
X167635000Y-89865000D03*
X167235000Y-89865000D03*
X166835000Y-89865000D03*
X166435000Y-89865000D03*
X166035000Y-89865000D03*
X165635000Y-89865000D03*
D19*
X164800000Y-90700000D03*
X164800000Y-91100000D03*
X164800000Y-91500000D03*
X164800000Y-91900000D03*
X164800000Y-92300000D03*
X164800000Y-92700000D03*
X164800000Y-93100000D03*
X164800000Y-93500000D03*
X164800000Y-93900000D03*
X164800000Y-94300000D03*
X164800000Y-94700000D03*
X164800000Y-95100000D03*
X164800000Y-95500000D03*
X164800000Y-95900000D03*
D20*
X168235000Y-93300000D03*
%TD*%
D21*
%TO.C,RESET*%
X153390000Y-80810000D03*
X153390000Y-84210000D03*
%TD*%
D22*
%TO.C,U1*%
X162170000Y-79780000D03*
X162170000Y-82080000D03*
D23*
X168470000Y-82080000D03*
D22*
X162170000Y-84380000D03*
%TD*%
D13*
%TO.C,R28*%
X181910000Y-96500000D03*
X181910000Y-95480000D03*
%TD*%
D24*
%TO.C,C6*%
X157120000Y-80150000D03*
X159020000Y-80150000D03*
%TD*%
D25*
%TO.C,R24*%
X199820000Y-98170000D03*
X199820000Y-99190000D03*
%TD*%
D12*
%TO.C,R21*%
X198530000Y-94720000D03*
X197510000Y-94720000D03*
%TD*%
D14*
%TO.C,C16*%
X161810000Y-94170000D03*
X162770000Y-94170000D03*
%TD*%
D26*
%TO.C,H2*%
X207380000Y-103490000D03*
X207863274Y-102323274D03*
X207863274Y-104656726D03*
X209030000Y-101840000D03*
D27*
X209030000Y-103490000D03*
D26*
X209030000Y-105140000D03*
X210196726Y-102323274D03*
X210196726Y-104656726D03*
X210680000Y-103490000D03*
%TD*%
D14*
%TO.C,C4*%
X174570000Y-96050000D03*
X175530000Y-96050000D03*
%TD*%
D28*
%TO.C,J1*%
X202000000Y-87500000D03*
X202000000Y-88000000D03*
X202000000Y-88500000D03*
X202000000Y-89000000D03*
X202000000Y-89500000D03*
X202000000Y-90000000D03*
X202000000Y-90500000D03*
X202000000Y-91000000D03*
X202000000Y-91500000D03*
X202000000Y-92000000D03*
X202000000Y-92500000D03*
X202000000Y-93000000D03*
X202000000Y-93500000D03*
X202000000Y-94000000D03*
X202000000Y-94500000D03*
X202000000Y-95000000D03*
X202000000Y-95500000D03*
X202000000Y-96000000D03*
X202000000Y-96500000D03*
D29*
X202760000Y-84750000D03*
X202760000Y-99250000D03*
D30*
X208720000Y-84750000D03*
X208720000Y-99250000D03*
%TD*%
D31*
%TO.C,L1*%
X176735000Y-87060000D03*
X177705000Y-87060000D03*
%TD*%
D12*
%TO.C,R25*%
X158710000Y-82310000D03*
X157690000Y-82310000D03*
%TD*%
D32*
%TO.C,C17*%
X171800000Y-98320000D03*
X171800000Y-99280000D03*
%TD*%
D13*
%TO.C,R1*%
X158710000Y-89980000D03*
X158710000Y-88960000D03*
%TD*%
D14*
%TO.C,C2*%
X176090000Y-103180000D03*
X177050000Y-103180000D03*
%TD*%
D16*
%TO.C,R5*%
X173090000Y-92950000D03*
X174110000Y-92950000D03*
%TD*%
D14*
%TO.C,C9*%
X161850000Y-89680000D03*
X162810000Y-89680000D03*
%TD*%
D32*
%TO.C,C24*%
X191150000Y-93080000D03*
X191150000Y-94040000D03*
%TD*%
%TO.C,C14*%
X170500000Y-98320000D03*
X170500000Y-99280000D03*
%TD*%
D16*
%TO.C,R7*%
X158690000Y-91080000D03*
X159710000Y-91080000D03*
%TD*%
D32*
%TO.C,C15*%
X169230000Y-98320000D03*
X169230000Y-99280000D03*
%TD*%
D14*
%TO.C,C25*%
X185400000Y-95400000D03*
X186360000Y-95400000D03*
%TD*%
D33*
%TO.C,C26*%
X184270000Y-95440000D03*
X183310000Y-95440000D03*
%TD*%
D34*
%TO.C,U5*%
X183300000Y-89370000D03*
X183300000Y-89870000D03*
X183300000Y-90370000D03*
X183300000Y-90870000D03*
X183300000Y-91370000D03*
X183300000Y-91870000D03*
X183300000Y-92370000D03*
X183300000Y-92870000D03*
D35*
X184000000Y-93570000D03*
X184500000Y-93570000D03*
X185000000Y-93570000D03*
X185500000Y-93570000D03*
X186000000Y-93570000D03*
X186500000Y-93570000D03*
X187000000Y-93570000D03*
X187500000Y-93570000D03*
D34*
X188200000Y-92870000D03*
X188200000Y-92370000D03*
X188200000Y-91870000D03*
X188200000Y-91370000D03*
X188200000Y-90870000D03*
X188200000Y-90370000D03*
X188200000Y-89870000D03*
X188200000Y-89370000D03*
D35*
X187500000Y-88670000D03*
X187000000Y-88670000D03*
X186500000Y-88670000D03*
X186000000Y-88670000D03*
X185500000Y-88670000D03*
X185000000Y-88670000D03*
X184500000Y-88670000D03*
X184000000Y-88670000D03*
D36*
X185750000Y-91120000D03*
%TD*%
D12*
%TO.C,R13*%
X198443332Y-87120000D03*
X197423332Y-87120000D03*
%TD*%
D14*
%TO.C,C18*%
X173100000Y-91250000D03*
X174060000Y-91250000D03*
%TD*%
D37*
%TO.C,Y2*%
X184040000Y-84670000D03*
X186240000Y-84670000D03*
X186240000Y-82970000D03*
X184040000Y-82970000D03*
%TD*%
D38*
%TO.C,BOOT JUMPER*%
X185203000Y-102870000D03*
D39*
X186653000Y-102870000D03*
%TD*%
D12*
%TO.C,R18*%
X198500000Y-91162000D03*
X197480000Y-91162000D03*
%TD*%
D16*
%TO.C,R26*%
X187510000Y-95410000D03*
X188530000Y-95410000D03*
%TD*%
D40*
%TO.C,J3*%
X175151500Y-79470000D03*
X178551500Y-79470000D03*
%TD*%
D24*
%TO.C,C5*%
X157220000Y-84150000D03*
X159120000Y-84150000D03*
%TD*%
D11*
%TO.C,C27*%
X175360000Y-86960000D03*
X175360000Y-86000000D03*
%TD*%
D12*
%TO.C,R22*%
X198540000Y-97310000D03*
X197520000Y-97310000D03*
%TD*%
D25*
%TO.C,R2*%
X158810000Y-93770000D03*
X158810000Y-94790000D03*
%TD*%
D12*
%TO.C,R16*%
X198450000Y-88323333D03*
X197430000Y-88323333D03*
%TD*%
D25*
%TO.C,R3*%
X157600000Y-100550000D03*
X157600000Y-101570000D03*
%TD*%
D11*
%TO.C,C21*%
X188300000Y-86850000D03*
X188300000Y-85890000D03*
%TD*%
D26*
%TO.C,H1*%
X207270000Y-79600000D03*
X207753274Y-78433274D03*
X207753274Y-80766726D03*
X208920000Y-77950000D03*
D27*
X208920000Y-79600000D03*
D26*
X208920000Y-81250000D03*
X210086726Y-78433274D03*
X210086726Y-80766726D03*
X210570000Y-79600000D03*
%TD*%
D12*
%TO.C,R23*%
X198560000Y-95970000D03*
X197540000Y-95970000D03*
%TD*%
D11*
%TO.C,C13*%
X169800000Y-88500000D03*
X169800000Y-87540000D03*
%TD*%
D32*
%TO.C,C23*%
X189680000Y-93050000D03*
X189680000Y-94010000D03*
%TD*%
D14*
%TO.C,C3*%
X173100000Y-94100000D03*
X174060000Y-94100000D03*
%TD*%
%TO.C,C10*%
X161830000Y-90810000D03*
X162790000Y-90810000D03*
%TD*%
D11*
%TO.C,C22*%
X181900000Y-91130000D03*
X181900000Y-90170000D03*
%TD*%
D21*
%TO.C,BOOT*%
X153880000Y-103240000D03*
X153880000Y-99840000D03*
%TD*%
D33*
%TO.C,C19*%
X174470000Y-103124000D03*
X173510000Y-103124000D03*
%TD*%
D14*
%TO.C,C8*%
X161850000Y-88510000D03*
X162810000Y-88510000D03*
%TD*%
D12*
%TO.C,R9*%
X177210000Y-97780000D03*
X176190000Y-97780000D03*
%TD*%
D14*
%TO.C,C7*%
X169446000Y-101600000D03*
X170406000Y-101600000D03*
%TD*%
D41*
%TO.C,J2*%
X155865000Y-88450000D03*
X155865000Y-94230000D03*
D42*
X156940000Y-88140000D03*
X156940000Y-88940000D03*
D43*
X156940000Y-90090000D03*
X156940000Y-91090000D03*
X156940000Y-91590000D03*
X156940000Y-92590000D03*
D42*
X156940000Y-93740000D03*
X156940000Y-94540000D03*
X156940000Y-94540000D03*
X156940000Y-93740000D03*
D43*
X156940000Y-93090000D03*
X156940000Y-92090000D03*
X156940000Y-90590000D03*
X156940000Y-89590000D03*
D42*
X156940000Y-88940000D03*
X156940000Y-88140000D03*
D44*
X156365000Y-87020000D03*
D45*
X152185000Y-87020000D03*
D44*
X156365000Y-95660000D03*
D45*
X152185000Y-95660000D03*
%TD*%
M02*
