%TF.GenerationSoftware,KiCad,Pcbnew,7.0.8*%
%TF.CreationDate,2024-04-11T13:26:54+03:00*%
%TF.ProjectId,rp2040DVI,72703230-3430-4445-9649-2e6b69636164,rev?*%
%TF.SameCoordinates,Original*%
%TF.FileFunction,Copper,L2,Inr*%
%TF.FilePolarity,Positive*%
%FSLAX46Y46*%
G04 Gerber Fmt 4.6, Leading zero omitted, Abs format (unit mm)*
G04 Created by KiCad (PCBNEW 7.0.8) date 2024-04-11 13:26:54*
%MOMM*%
%LPD*%
G01*
G04 APERTURE LIST*
%TA.AperFunction,ComponentPad*%
%ADD10C,0.700000*%
%TD*%
%TA.AperFunction,ComponentPad*%
%ADD11C,4.400000*%
%TD*%
%TA.AperFunction,ComponentPad*%
%ADD12O,3.300000X1.500000*%
%TD*%
%TA.AperFunction,ComponentPad*%
%ADD13O,2.300000X1.500000*%
%TD*%
%TA.AperFunction,ComponentPad*%
%ADD14O,2.100000X1.000000*%
%TD*%
%TA.AperFunction,ComponentPad*%
%ADD15O,1.800000X1.000000*%
%TD*%
%TA.AperFunction,ViaPad*%
%ADD16C,0.300000*%
%TD*%
%TA.AperFunction,ViaPad*%
%ADD17C,0.150000*%
%TD*%
%TA.AperFunction,Conductor*%
%ADD18C,0.300000*%
%TD*%
%ADD19C,0.150000*%
%ADD20C,0.149999*%
%ADD21C,0.350000*%
%ADD22O,2.700000X0.900000*%
%ADD23O,1.700000X0.900000*%
%ADD24O,1.700000X0.600000*%
%ADD25O,1.400000X0.600000*%
G04 APERTURE END LIST*
D10*
%TO.N,GND*%
%TO.C,H2*%
X207380000Y-103490000D03*
X207863274Y-102323274D03*
X207863274Y-104656726D03*
X209030000Y-101840000D03*
D11*
X209030000Y-103490000D03*
D10*
X209030000Y-105140000D03*
X210196726Y-102323274D03*
X210196726Y-104656726D03*
X210680000Y-103490000D03*
%TD*%
D12*
%TO.N,GND*%
%TO.C,J1*%
X202760000Y-84750000D03*
X202760000Y-99250000D03*
D13*
X208720000Y-84750000D03*
X208720000Y-99250000D03*
%TD*%
D10*
%TO.N,GND*%
%TO.C,H1*%
X207270000Y-79600000D03*
X207753274Y-78433274D03*
X207753274Y-80766726D03*
X208920000Y-77950000D03*
D11*
X208920000Y-79600000D03*
D10*
X208920000Y-81250000D03*
X210086726Y-78433274D03*
X210086726Y-80766726D03*
X210570000Y-79600000D03*
%TD*%
D14*
%TO.N,GND*%
%TO.C,J2*%
X156365000Y-87020000D03*
D15*
X152185000Y-87020000D03*
D14*
X156365000Y-95660000D03*
D15*
X152185000Y-95660000D03*
%TD*%
D16*
%TO.N,+3V3*%
X180848000Y-90678000D03*
X184310000Y-98670000D03*
X189380000Y-91770000D03*
X173320000Y-90520000D03*
X178800000Y-98610000D03*
X165650000Y-88970000D03*
D17*
X169450000Y-101000000D03*
D16*
X163710000Y-82060000D03*
X173430000Y-98600000D03*
X181102000Y-93400500D03*
X192760000Y-95960000D03*
X179000000Y-96299500D03*
X163936113Y-91090817D03*
X163990000Y-92709500D03*
X156050000Y-79570000D03*
X175150000Y-98389500D03*
X161150000Y-92970000D03*
X182090000Y-88150000D03*
X187520000Y-98920000D03*
X172650000Y-88740000D03*
D17*
X167980000Y-100500000D03*
D16*
X167520000Y-86460000D03*
X165290000Y-100500000D03*
X172390000Y-93050000D03*
X177243650Y-98840962D03*
X167970000Y-88500000D03*
X180380000Y-96330500D03*
%TO.N,GND*%
X170710000Y-100000000D03*
X204680000Y-92360000D03*
X173660000Y-99660000D03*
X154120000Y-88410000D03*
X183140000Y-94780000D03*
X184912000Y-91948000D03*
X185420000Y-91186000D03*
X187500000Y-84680000D03*
X190180000Y-94710000D03*
X186180000Y-94810000D03*
X163500000Y-89670000D03*
X168540000Y-99280000D03*
X176120000Y-101920000D03*
X174780000Y-91270000D03*
X183388000Y-102870000D03*
X184912000Y-90424000D03*
X163530000Y-90800000D03*
D17*
X163570000Y-79770000D03*
D16*
X152510000Y-88770000D03*
X186690000Y-91186000D03*
X163370000Y-93650000D03*
X158800000Y-95580000D03*
X154020000Y-100940000D03*
X203930000Y-87980000D03*
X177948018Y-96330500D03*
X191980000Y-94030000D03*
X185674000Y-90424000D03*
X186690000Y-90170000D03*
X163390000Y-92940000D03*
X171110000Y-101600000D03*
X181120000Y-90020000D03*
X186690000Y-90678000D03*
X171760000Y-102970000D03*
X188280000Y-85190000D03*
X168570000Y-86740000D03*
X169810000Y-86830000D03*
X185928000Y-91186000D03*
X177030000Y-102520000D03*
X175599500Y-92920000D03*
D17*
X160010000Y-80160000D03*
D16*
X157870000Y-104240000D03*
X163610000Y-88450000D03*
X176080000Y-92250000D03*
X171720000Y-99970000D03*
X158160000Y-87660000D03*
X204770000Y-95400000D03*
X179650000Y-79460000D03*
X181710000Y-85800000D03*
X175370000Y-85360000D03*
X167460000Y-95340000D03*
X158580000Y-88160000D03*
X153340000Y-85280000D03*
X185420000Y-91694000D03*
X178990000Y-85390000D03*
X203730000Y-90950000D03*
D17*
X160270000Y-84160000D03*
D16*
X178770000Y-88340500D03*
X184912000Y-91186000D03*
X203910000Y-89490000D03*
X183990000Y-81510000D03*
%TO.N,+5V*%
X156020000Y-84290000D03*
X154190000Y-90470000D03*
X161180000Y-86330000D03*
X196470000Y-99290000D03*
D17*
%TO.N,Net-(J1-CK-)*%
X199220000Y-96990000D03*
X204030000Y-93070000D03*
D16*
%TO.N,/SCL*%
X198500000Y-99010500D03*
X184280000Y-100120000D03*
%TO.N,/SDA*%
X199158861Y-98978540D03*
X173780315Y-99009500D03*
D17*
%TO.N,/USB_D-*%
X156060000Y-90580000D03*
X156020000Y-91580000D03*
%TO.N,/SD_DAT2*%
X180390000Y-92310000D03*
X169585000Y-90810000D03*
%TO.N,/GPIO22*%
X168800000Y-90770000D03*
X181110000Y-95860000D03*
%TO.N,/GPIO18*%
X170450000Y-90840000D03*
X179990000Y-89810000D03*
%TO.N,/GPIO5*%
X170020000Y-95840000D03*
%TO.N,/GPIO19*%
X175190000Y-90100000D03*
%TO.N,/SD_DAT1*%
X172570000Y-92090000D03*
X169970000Y-90680000D03*
%TO.N,/QSPI_SS*%
X161860000Y-101570000D03*
X164870000Y-98890000D03*
%TO.N,/DVI_D2+*%
X170300000Y-94390000D03*
X190460000Y-89750000D03*
%TO.N,/DVI_D2-*%
X190500000Y-90230000D03*
X170720000Y-95120000D03*
%TO.N,/DVI_D1+*%
X170855000Y-90895000D03*
X186910000Y-87750000D03*
%TO.N,/DVI_D1-*%
X193310000Y-91180000D03*
X171780000Y-88310000D03*
%TO.N,/DVI_D0+*%
X190610000Y-91610000D03*
X171230000Y-96740000D03*
%TO.N,/DVI_D0-*%
X190720000Y-92030000D03*
X170510000Y-97590000D03*
%TO.N,/DVI_CK+*%
X170040000Y-97430000D03*
X192680000Y-92740000D03*
%TO.N,/DVI_CK-*%
X195080000Y-97300000D03*
X169640000Y-97330000D03*
%TO.N,/QSPI_SD1*%
X161250000Y-101470000D03*
X162580000Y-97840000D03*
%TO.N,/QSPI_SD2*%
X162210000Y-98400000D03*
X160858406Y-102628406D03*
%TO.N,/QSPI_SCLK*%
X164040000Y-101300000D03*
X165100000Y-103090000D03*
%TO.N,/QSPI_SD3*%
X165000000Y-101730000D03*
X163690000Y-101700000D03*
%TO.N,/INT1*%
X168090000Y-91040000D03*
X172980000Y-99370000D03*
%TO.N,/BOOT*%
X187000000Y-96330000D03*
X187000000Y-94160000D03*
%TO.N,/C3_RXD*%
X165880000Y-95880000D03*
X186230000Y-86230000D03*
%TO.N,/C3_TXD*%
X166330000Y-95790000D03*
X186000000Y-86680000D03*
%TD*%
D18*
%TO.N,GND*%
X190400000Y-94930000D02*
X191810000Y-94930000D01*
X171720000Y-100990000D02*
X171110000Y-101600000D01*
X180040000Y-79460000D02*
X182090000Y-81510000D01*
X203930000Y-87980000D02*
X203930000Y-89470000D01*
X175599500Y-92730500D02*
X176080000Y-92250000D01*
X160270000Y-84160000D02*
X160270000Y-80420000D01*
X203930000Y-89470000D02*
X203910000Y-89490000D01*
X168570000Y-86740000D02*
X169720000Y-86740000D01*
X163500000Y-89670000D02*
X163500000Y-90770000D01*
X171690000Y-100000000D02*
X171720000Y-99970000D01*
X204680000Y-92360000D02*
X204680000Y-95310000D01*
X169720000Y-86740000D02*
X169810000Y-86830000D01*
X178990000Y-85390000D02*
X180330000Y-85390000D01*
X175599500Y-92920000D02*
X175599500Y-93981982D01*
X175599500Y-93981982D02*
X177948018Y-96330500D01*
X187500000Y-84680000D02*
X188280000Y-84680000D01*
X163570000Y-79810000D02*
X163570000Y-79770000D01*
X204680000Y-92360000D02*
X204680000Y-90380000D01*
X163610000Y-89560000D02*
X163500000Y-89670000D01*
X188280000Y-82110000D02*
X188280000Y-84680000D01*
X163610000Y-88450000D02*
X163610000Y-89560000D01*
X160010000Y-80160000D02*
X163220000Y-80160000D01*
X168540000Y-99280000D02*
X169990000Y-99280000D01*
X176120000Y-101920000D02*
X176430000Y-101920000D01*
X171720000Y-99970000D02*
X171720000Y-100990000D01*
X163570000Y-79770000D02*
X168570000Y-84770000D01*
X175370000Y-85360000D02*
X175370000Y-85200000D01*
X203730000Y-90950000D02*
X204110000Y-90950000D01*
X183990000Y-81510000D02*
X187680000Y-81510000D01*
X163390000Y-93630000D02*
X163370000Y-93650000D01*
X163390000Y-92940000D02*
X163390000Y-93630000D01*
X174780000Y-91270000D02*
X174780000Y-92100500D01*
X153340000Y-85865000D02*
X152185000Y-87020000D01*
X191810000Y-94930000D02*
X191810000Y-94200000D01*
X183388000Y-102870000D02*
X183038000Y-102520000D01*
X174780000Y-92100500D02*
X175599500Y-92920000D01*
X185420000Y-91694000D02*
X185420000Y-94050000D01*
X204680000Y-95310000D02*
X204770000Y-95400000D01*
X171760000Y-102250000D02*
X171110000Y-101600000D01*
X204680000Y-90380000D02*
X204680000Y-90260000D01*
X168570000Y-84770000D02*
X168570000Y-86740000D01*
X178530000Y-84930000D02*
X178990000Y-85390000D01*
X182090000Y-81510000D02*
X183990000Y-81510000D01*
X204110000Y-90950000D02*
X204680000Y-90380000D01*
X160270000Y-80420000D02*
X160010000Y-80160000D01*
X157320000Y-104240000D02*
X157870000Y-104240000D01*
X180330000Y-87780000D02*
X180330000Y-85390000D01*
X169990000Y-99280000D02*
X170710000Y-100000000D01*
X175640000Y-84930000D02*
X178530000Y-84930000D01*
X181120000Y-90020000D02*
X181120000Y-88750000D01*
X167460000Y-98200000D02*
X167460000Y-95340000D01*
X154020000Y-100940000D02*
X157320000Y-104240000D01*
X179769500Y-88340500D02*
X180240000Y-87870000D01*
X186150000Y-94780000D02*
X186180000Y-94810000D01*
X181120000Y-88750000D02*
X180240000Y-87870000D01*
X171720000Y-99970000D02*
X173350000Y-99970000D01*
X153340000Y-85280000D02*
X153340000Y-85865000D01*
X185420000Y-94050000D02*
X186180000Y-94810000D01*
X173350000Y-99970000D02*
X173660000Y-99660000D01*
X180330000Y-85390000D02*
X181300000Y-85390000D01*
X158160000Y-87660000D02*
X158160000Y-87740000D01*
X179650000Y-79460000D02*
X180040000Y-79460000D01*
X178770000Y-88340500D02*
X179769500Y-88340500D01*
X176430000Y-101920000D02*
X177030000Y-102520000D01*
X171760000Y-102970000D02*
X171760000Y-102250000D01*
X170710000Y-100000000D02*
X171690000Y-100000000D01*
X191810000Y-94200000D02*
X191980000Y-94030000D01*
X183140000Y-94780000D02*
X186150000Y-94780000D01*
X188280000Y-84680000D02*
X188280000Y-85190000D01*
X158160000Y-87740000D02*
X158580000Y-88160000D01*
X183038000Y-102520000D02*
X177030000Y-102520000D01*
X153760000Y-88770000D02*
X154120000Y-88410000D01*
X181300000Y-85390000D02*
X181710000Y-85800000D01*
X163500000Y-90770000D02*
X163530000Y-90800000D01*
X190180000Y-94710000D02*
X190400000Y-94930000D01*
X175599500Y-92920000D02*
X175599500Y-92730500D01*
X204680000Y-90260000D02*
X203910000Y-89490000D01*
X168540000Y-99280000D02*
X167460000Y-98200000D01*
X152510000Y-88770000D02*
X153760000Y-88770000D01*
X187680000Y-81510000D02*
X188280000Y-82110000D01*
X163220000Y-80160000D02*
X163570000Y-79810000D01*
X175370000Y-85200000D02*
X175640000Y-84930000D01*
X180240000Y-87870000D02*
X180330000Y-87780000D01*
%TD*%
%TA.AperFunction,Conductor*%
%TO.N,GND*%
G36*
X209211595Y-76620532D02*
G01*
X209521487Y-76636971D01*
X209524196Y-76637268D01*
X209829574Y-76688249D01*
X209832243Y-76688850D01*
X210129978Y-76773773D01*
X210132562Y-76774670D01*
X210418877Y-76892455D01*
X210421334Y-76893630D01*
X210592803Y-76987906D01*
X210692636Y-77042797D01*
X210694972Y-77044258D01*
X210947804Y-77222905D01*
X210949960Y-77224617D01*
X211181163Y-77430511D01*
X211183094Y-77432435D01*
X211389744Y-77662973D01*
X211391463Y-77665123D01*
X211570941Y-77917387D01*
X211572399Y-77919702D01*
X211719103Y-78184481D01*
X211722439Y-78190501D01*
X211723636Y-78192983D01*
X211842346Y-78478902D01*
X211843258Y-78481502D01*
X211929138Y-78778927D01*
X211929752Y-78781613D01*
X211981723Y-79086801D01*
X211982032Y-79089539D01*
X211999461Y-79399060D01*
X211999499Y-79400449D01*
X211988106Y-103214170D01*
X211987922Y-103216558D01*
X211988081Y-103265925D01*
X211988047Y-103267302D01*
X211971612Y-103577164D01*
X211971312Y-103579903D01*
X211920334Y-103885256D01*
X211919729Y-103887944D01*
X211834814Y-104185659D01*
X211833914Y-104188253D01*
X211741299Y-104413385D01*
X211716135Y-104474556D01*
X211714946Y-104477041D01*
X211565787Y-104748326D01*
X211564326Y-104750662D01*
X211385679Y-105003494D01*
X211383965Y-105005652D01*
X211178081Y-105236844D01*
X211176138Y-105238793D01*
X211076967Y-105327688D01*
X210945610Y-105445433D01*
X210943459Y-105447153D01*
X210691207Y-105626623D01*
X210688875Y-105628091D01*
X210418086Y-105778125D01*
X210415605Y-105779322D01*
X210129680Y-105898032D01*
X210127081Y-105898944D01*
X209829656Y-105984824D01*
X209826970Y-105985438D01*
X209521780Y-106037407D01*
X209519043Y-106037716D01*
X209209364Y-106055151D01*
X209208001Y-106055189D01*
X209207528Y-106055190D01*
X209159114Y-106055190D01*
X209158980Y-106055200D01*
X152765666Y-106068048D01*
X152763717Y-106067898D01*
X152717696Y-106068048D01*
X152714090Y-106068059D01*
X152712735Y-106068026D01*
X152593888Y-106061728D01*
X152402860Y-106051604D01*
X152400121Y-106051304D01*
X152225986Y-106022240D01*
X152094755Y-106000338D01*
X152092076Y-105999734D01*
X151794364Y-105914828D01*
X151791761Y-105913925D01*
X151505444Y-105796150D01*
X151502959Y-105794960D01*
X151501812Y-105794329D01*
X151231679Y-105645812D01*
X151229349Y-105644355D01*
X150976496Y-105465699D01*
X150974343Y-105463988D01*
X150743139Y-105258096D01*
X150741208Y-105256172D01*
X150534551Y-105025625D01*
X150532840Y-105023485D01*
X150353359Y-104771214D01*
X150351906Y-104768908D01*
X150201862Y-104498090D01*
X150200666Y-104495612D01*
X150191924Y-104474556D01*
X150081958Y-104209680D01*
X150081053Y-104207102D01*
X149995175Y-103909652D01*
X149994563Y-103906979D01*
X149942600Y-103601776D01*
X149942292Y-103599040D01*
X149924895Y-103289835D01*
X149924856Y-103288458D01*
X149924856Y-103265653D01*
X149924857Y-103240970D01*
X149924856Y-103240967D01*
X149924856Y-103237074D01*
X149924849Y-103236986D01*
X149924831Y-103090000D01*
X164769479Y-103090000D01*
X164789412Y-103203047D01*
X164839127Y-103289155D01*
X164846806Y-103302455D01*
X164934739Y-103376240D01*
X165042606Y-103415500D01*
X165042607Y-103415500D01*
X165157393Y-103415500D01*
X165157394Y-103415500D01*
X165265261Y-103376240D01*
X165353194Y-103302455D01*
X165410588Y-103203045D01*
X165430521Y-103090000D01*
X165410588Y-102976955D01*
X165410587Y-102976953D01*
X165410587Y-102976952D01*
X165353195Y-102877547D01*
X165353194Y-102877545D01*
X165309472Y-102840858D01*
X165265261Y-102803760D01*
X165157394Y-102764500D01*
X165042606Y-102764500D01*
X164934737Y-102803760D01*
X164846808Y-102877541D01*
X164846804Y-102877546D01*
X164789412Y-102976952D01*
X164769479Y-103090000D01*
X149924831Y-103090000D01*
X149924774Y-102628406D01*
X160527885Y-102628406D01*
X160547818Y-102741453D01*
X160605210Y-102840858D01*
X160605212Y-102840861D01*
X160693145Y-102914646D01*
X160801012Y-102953906D01*
X160801013Y-102953906D01*
X160915799Y-102953906D01*
X160915800Y-102953906D01*
X161023667Y-102914646D01*
X161111600Y-102840861D01*
X161168994Y-102741451D01*
X161188927Y-102628406D01*
X161168994Y-102515361D01*
X161168993Y-102515359D01*
X161168993Y-102515358D01*
X161111601Y-102415953D01*
X161111600Y-102415951D01*
X161023667Y-102342166D01*
X160915800Y-102302906D01*
X160801012Y-102302906D01*
X160693143Y-102342166D01*
X160605214Y-102415947D01*
X160605210Y-102415952D01*
X160547818Y-102515358D01*
X160527885Y-102628406D01*
X149924774Y-102628406D01*
X149924632Y-101470000D01*
X160919479Y-101470000D01*
X160939412Y-101583047D01*
X160975986Y-101646394D01*
X160996806Y-101682455D01*
X161084739Y-101756240D01*
X161192606Y-101795500D01*
X161192607Y-101795500D01*
X161307393Y-101795500D01*
X161307394Y-101795500D01*
X161415261Y-101756240D01*
X161489367Y-101694056D01*
X161525131Y-101682780D01*
X161558397Y-101700097D01*
X161563296Y-101707094D01*
X161606804Y-101782452D01*
X161606806Y-101782455D01*
X161694739Y-101856240D01*
X161802606Y-101895500D01*
X161802607Y-101895500D01*
X161917393Y-101895500D01*
X161917394Y-101895500D01*
X162025261Y-101856240D01*
X162113194Y-101782455D01*
X162160799Y-101700000D01*
X163359479Y-101700000D01*
X163379412Y-101813047D01*
X163404350Y-101856240D01*
X163436806Y-101912455D01*
X163524739Y-101986240D01*
X163632606Y-102025500D01*
X163632607Y-102025500D01*
X163747393Y-102025500D01*
X163747394Y-102025500D01*
X163855261Y-101986240D01*
X163943194Y-101912455D01*
X164000588Y-101813045D01*
X164015231Y-101730000D01*
X164669479Y-101730000D01*
X164689412Y-101843047D01*
X164746804Y-101942452D01*
X164746806Y-101942455D01*
X164834739Y-102016240D01*
X164942606Y-102055500D01*
X164942607Y-102055500D01*
X165057393Y-102055500D01*
X165057394Y-102055500D01*
X165165261Y-102016240D01*
X165253194Y-101942455D01*
X165302970Y-101856240D01*
X165310587Y-101843047D01*
X165310587Y-101843046D01*
X165310588Y-101843045D01*
X165330521Y-101730000D01*
X165310588Y-101616955D01*
X165310587Y-101616953D01*
X165310587Y-101616952D01*
X165253195Y-101517547D01*
X165253194Y-101517545D01*
X165247124Y-101512452D01*
X165165261Y-101443760D01*
X165057394Y-101404500D01*
X164942606Y-101404500D01*
X164834737Y-101443760D01*
X164746808Y-101517541D01*
X164746804Y-101517546D01*
X164689412Y-101616952D01*
X164669479Y-101730000D01*
X164015231Y-101730000D01*
X164020521Y-101700000D01*
X164017532Y-101683047D01*
X164017525Y-101683008D01*
X164025643Y-101646394D01*
X164057273Y-101626244D01*
X164065781Y-101625500D01*
X164097393Y-101625500D01*
X164097394Y-101625500D01*
X164205261Y-101586240D01*
X164293194Y-101512455D01*
X164350588Y-101413045D01*
X164370521Y-101300000D01*
X164350588Y-101186955D01*
X164350587Y-101186953D01*
X164350587Y-101186952D01*
X164293195Y-101087547D01*
X164293194Y-101087545D01*
X164205261Y-101013760D01*
X164167455Y-101000000D01*
X169119479Y-101000000D01*
X169139412Y-101113047D01*
X169196804Y-101212452D01*
X169196806Y-101212455D01*
X169284739Y-101286240D01*
X169392606Y-101325500D01*
X169392607Y-101325500D01*
X169507393Y-101325500D01*
X169507394Y-101325500D01*
X169615261Y-101286240D01*
X169703194Y-101212455D01*
X169760588Y-101113045D01*
X169780521Y-101000000D01*
X169760588Y-100886955D01*
X169760587Y-100886953D01*
X169760587Y-100886952D01*
X169703195Y-100787547D01*
X169703194Y-100787545D01*
X169615261Y-100713760D01*
X169507394Y-100674500D01*
X169392606Y-100674500D01*
X169284737Y-100713760D01*
X169196808Y-100787541D01*
X169196804Y-100787546D01*
X169139412Y-100886952D01*
X169119479Y-101000000D01*
X164167455Y-101000000D01*
X164097394Y-100974500D01*
X163982606Y-100974500D01*
X163874737Y-101013760D01*
X163786808Y-101087541D01*
X163786804Y-101087546D01*
X163729412Y-101186952D01*
X163709479Y-101300000D01*
X163712475Y-101316992D01*
X163704357Y-101353606D01*
X163672727Y-101373756D01*
X163664219Y-101374500D01*
X163632606Y-101374500D01*
X163524737Y-101413760D01*
X163436808Y-101487541D01*
X163436804Y-101487546D01*
X163379412Y-101586952D01*
X163359479Y-101700000D01*
X162160799Y-101700000D01*
X162170588Y-101683045D01*
X162190521Y-101570000D01*
X162170588Y-101456955D01*
X162170587Y-101456953D01*
X162170587Y-101456952D01*
X162113195Y-101357547D01*
X162113193Y-101357544D01*
X162025261Y-101283760D01*
X161917394Y-101244500D01*
X161802606Y-101244500D01*
X161694739Y-101283760D01*
X161620635Y-101345941D01*
X161584867Y-101357219D01*
X161551602Y-101339902D01*
X161546703Y-101332905D01*
X161503195Y-101257547D01*
X161503194Y-101257545D01*
X161415261Y-101183760D01*
X161307394Y-101144500D01*
X161192606Y-101144500D01*
X161084737Y-101183760D01*
X160996808Y-101257541D01*
X160996804Y-101257546D01*
X160939412Y-101356952D01*
X160919479Y-101470000D01*
X149924632Y-101470000D01*
X149924513Y-100500000D01*
X164935131Y-100500000D01*
X164952500Y-100609661D01*
X165002905Y-100708587D01*
X165081413Y-100787095D01*
X165180339Y-100837500D01*
X165290000Y-100854869D01*
X165399661Y-100837500D01*
X165498587Y-100787095D01*
X165577095Y-100708587D01*
X165627500Y-100609661D01*
X165644869Y-100500000D01*
X167649479Y-100500000D01*
X167669412Y-100613047D01*
X167724571Y-100708584D01*
X167726806Y-100712455D01*
X167814739Y-100786240D01*
X167922606Y-100825500D01*
X167922607Y-100825500D01*
X168037393Y-100825500D01*
X168037394Y-100825500D01*
X168145261Y-100786240D01*
X168233194Y-100712455D01*
X168290588Y-100613045D01*
X168310521Y-100500000D01*
X168290588Y-100386955D01*
X168290587Y-100386953D01*
X168290587Y-100386952D01*
X168235427Y-100291413D01*
X168233194Y-100287545D01*
X168145261Y-100213760D01*
X168037394Y-100174500D01*
X167922606Y-100174500D01*
X167814737Y-100213760D01*
X167726808Y-100287541D01*
X167726804Y-100287546D01*
X167669412Y-100386952D01*
X167649479Y-100500000D01*
X165644869Y-100500000D01*
X165627500Y-100390339D01*
X165577095Y-100291413D01*
X165498587Y-100212905D01*
X165498584Y-100212903D01*
X165399661Y-100162500D01*
X165290000Y-100145131D01*
X165180338Y-100162500D01*
X165081415Y-100212903D01*
X165081412Y-100212905D01*
X165002905Y-100291412D01*
X165002903Y-100291415D01*
X164952500Y-100390338D01*
X164952500Y-100390339D01*
X164935131Y-100500000D01*
X149924513Y-100500000D01*
X149924467Y-100120000D01*
X183925131Y-100120000D01*
X183942500Y-100229661D01*
X183973963Y-100291412D01*
X183992905Y-100328587D01*
X184071413Y-100407095D01*
X184170339Y-100457500D01*
X184280000Y-100474869D01*
X184389661Y-100457500D01*
X184488587Y-100407095D01*
X184567095Y-100328587D01*
X184617500Y-100229661D01*
X184634869Y-100120000D01*
X184617500Y-100010339D01*
X184567095Y-99911413D01*
X184488587Y-99832905D01*
X184488584Y-99832903D01*
X184389661Y-99782500D01*
X184280000Y-99765131D01*
X184170338Y-99782500D01*
X184071415Y-99832903D01*
X184071412Y-99832905D01*
X183992905Y-99911412D01*
X183992903Y-99911415D01*
X183942500Y-100010338D01*
X183925131Y-100120000D01*
X149924467Y-100120000D01*
X149924375Y-99370000D01*
X172649479Y-99370000D01*
X172669412Y-99483047D01*
X172723711Y-99577094D01*
X172726806Y-99582455D01*
X172814739Y-99656240D01*
X172922606Y-99695500D01*
X172922607Y-99695500D01*
X173037393Y-99695500D01*
X173037394Y-99695500D01*
X173145261Y-99656240D01*
X173233194Y-99582455D01*
X173290588Y-99483045D01*
X173310521Y-99370000D01*
X173290588Y-99256955D01*
X173290587Y-99256953D01*
X173290587Y-99256952D01*
X173233195Y-99157547D01*
X173233194Y-99157545D01*
X173198683Y-99128587D01*
X173145261Y-99083760D01*
X173138810Y-99081412D01*
X173037394Y-99044500D01*
X172922606Y-99044500D01*
X172814737Y-99083760D01*
X172726808Y-99157541D01*
X172726804Y-99157546D01*
X172669412Y-99256952D01*
X172649479Y-99370000D01*
X149924375Y-99370000D01*
X149924316Y-98890000D01*
X164539479Y-98890000D01*
X164559412Y-99003047D01*
X164616804Y-99102452D01*
X164616806Y-99102455D01*
X164704739Y-99176240D01*
X164812606Y-99215500D01*
X164812607Y-99215500D01*
X164927393Y-99215500D01*
X164927394Y-99215500D01*
X165035261Y-99176240D01*
X165123194Y-99102455D01*
X165178016Y-99007500D01*
X165180587Y-99003047D01*
X165180587Y-99003046D01*
X165180588Y-99003045D01*
X165200521Y-98890000D01*
X165180588Y-98776955D01*
X165180587Y-98776953D01*
X165180587Y-98776952D01*
X165123195Y-98677547D01*
X165123194Y-98677545D01*
X165069994Y-98632905D01*
X165035261Y-98603760D01*
X165024930Y-98600000D01*
X173075131Y-98600000D01*
X173092500Y-98709661D01*
X173139503Y-98801912D01*
X173142905Y-98808587D01*
X173221413Y-98887095D01*
X173320339Y-98937500D01*
X173385602Y-98947836D01*
X173417578Y-98967432D01*
X173426333Y-99003895D01*
X173425446Y-99009497D01*
X173425446Y-99009500D01*
X173440169Y-99102455D01*
X173442815Y-99119161D01*
X173491901Y-99215500D01*
X173493220Y-99218087D01*
X173571728Y-99296595D01*
X173670654Y-99347000D01*
X173780315Y-99364369D01*
X173889976Y-99347000D01*
X173988902Y-99296595D01*
X173995497Y-99290000D01*
X196115131Y-99290000D01*
X196132500Y-99399661D01*
X196182905Y-99498587D01*
X196261413Y-99577095D01*
X196360339Y-99627500D01*
X196470000Y-99644869D01*
X196579661Y-99627500D01*
X196678587Y-99577095D01*
X196757095Y-99498587D01*
X196807500Y-99399661D01*
X196824869Y-99290000D01*
X196807500Y-99180339D01*
X196757095Y-99081413D01*
X196686182Y-99010500D01*
X198145131Y-99010500D01*
X198162500Y-99120161D01*
X198212393Y-99218084D01*
X198212905Y-99219087D01*
X198291413Y-99297595D01*
X198390339Y-99348000D01*
X198500000Y-99365369D01*
X198609661Y-99348000D01*
X198708587Y-99297595D01*
X198787095Y-99219087D01*
X198795844Y-99201915D01*
X198824362Y-99177559D01*
X198861749Y-99180501D01*
X198874152Y-99189513D01*
X198950274Y-99265635D01*
X199049200Y-99316040D01*
X199158861Y-99333409D01*
X199268522Y-99316040D01*
X199367448Y-99265635D01*
X199445956Y-99187127D01*
X199496361Y-99088201D01*
X199513730Y-98978540D01*
X199496361Y-98868879D01*
X199445956Y-98769953D01*
X199367448Y-98691445D01*
X199367445Y-98691443D01*
X199268522Y-98641040D01*
X199158861Y-98623671D01*
X199049199Y-98641040D01*
X198950276Y-98691443D01*
X198950273Y-98691445D01*
X198871766Y-98769952D01*
X198871762Y-98769958D01*
X198863014Y-98787126D01*
X198834496Y-98811480D01*
X198797108Y-98808536D01*
X198784708Y-98799526D01*
X198708587Y-98723405D01*
X198708584Y-98723403D01*
X198609661Y-98673000D01*
X198500000Y-98655631D01*
X198390338Y-98673000D01*
X198291415Y-98723403D01*
X198291412Y-98723405D01*
X198212905Y-98801912D01*
X198212903Y-98801915D01*
X198162500Y-98900838D01*
X198145131Y-99010500D01*
X196686182Y-99010500D01*
X196678587Y-99002905D01*
X196678584Y-99002903D01*
X196579661Y-98952500D01*
X196470000Y-98935131D01*
X196360338Y-98952500D01*
X196261415Y-99002903D01*
X196261412Y-99002905D01*
X196182905Y-99081412D01*
X196182903Y-99081415D01*
X196132500Y-99180338D01*
X196132500Y-99180339D01*
X196115131Y-99290000D01*
X173995497Y-99290000D01*
X174067410Y-99218087D01*
X174117815Y-99119161D01*
X174135184Y-99009500D01*
X174117815Y-98899839D01*
X174087816Y-98840962D01*
X176888781Y-98840962D01*
X176906150Y-98950623D01*
X176946421Y-99029661D01*
X176956555Y-99049549D01*
X177035063Y-99128057D01*
X177133989Y-99178462D01*
X177243650Y-99195831D01*
X177353311Y-99178462D01*
X177452237Y-99128057D01*
X177530745Y-99049549D01*
X177581150Y-98950623D01*
X177598519Y-98840962D01*
X177581150Y-98731301D01*
X177530745Y-98632375D01*
X177508370Y-98610000D01*
X178445131Y-98610000D01*
X178462500Y-98719661D01*
X178509283Y-98811480D01*
X178512905Y-98818587D01*
X178591413Y-98897095D01*
X178690339Y-98947500D01*
X178800000Y-98964869D01*
X178909661Y-98947500D01*
X179008587Y-98897095D01*
X179087095Y-98818587D01*
X179137500Y-98719661D01*
X179145366Y-98670000D01*
X183955131Y-98670000D01*
X183972500Y-98779661D01*
X184017958Y-98868879D01*
X184022905Y-98878587D01*
X184101413Y-98957095D01*
X184200339Y-99007500D01*
X184310000Y-99024869D01*
X184419661Y-99007500D01*
X184518587Y-98957095D01*
X184555682Y-98920000D01*
X187165131Y-98920000D01*
X187182500Y-99029661D01*
X187232634Y-99128057D01*
X187232905Y-99128587D01*
X187311413Y-99207095D01*
X187410339Y-99257500D01*
X187520000Y-99274869D01*
X187629661Y-99257500D01*
X187728587Y-99207095D01*
X187807095Y-99128587D01*
X187857500Y-99029661D01*
X187874869Y-98920000D01*
X187857500Y-98810339D01*
X187807095Y-98711413D01*
X187728587Y-98632905D01*
X187728584Y-98632903D01*
X187629661Y-98582500D01*
X187520000Y-98565131D01*
X187410338Y-98582500D01*
X187311415Y-98632903D01*
X187311412Y-98632905D01*
X187232905Y-98711412D01*
X187232903Y-98711415D01*
X187182500Y-98810338D01*
X187165131Y-98920000D01*
X184555682Y-98920000D01*
X184597095Y-98878587D01*
X184647500Y-98779661D01*
X184664869Y-98670000D01*
X184647500Y-98560339D01*
X184597095Y-98461413D01*
X184518587Y-98382905D01*
X184518584Y-98382903D01*
X184419661Y-98332500D01*
X184310000Y-98315131D01*
X184200338Y-98332500D01*
X184101415Y-98382903D01*
X184101412Y-98382905D01*
X184022905Y-98461412D01*
X184022903Y-98461415D01*
X183972500Y-98560338D01*
X183955131Y-98670000D01*
X179145366Y-98670000D01*
X179154869Y-98610000D01*
X179137500Y-98500339D01*
X179087095Y-98401413D01*
X179008587Y-98322905D01*
X179008584Y-98322903D01*
X178909661Y-98272500D01*
X178800000Y-98255131D01*
X178690338Y-98272500D01*
X178591415Y-98322903D01*
X178591412Y-98322905D01*
X178512905Y-98401412D01*
X178512903Y-98401415D01*
X178462500Y-98500338D01*
X178445131Y-98610000D01*
X177508370Y-98610000D01*
X177452237Y-98553867D01*
X177452234Y-98553865D01*
X177353311Y-98503462D01*
X177243650Y-98486093D01*
X177133988Y-98503462D01*
X177035065Y-98553865D01*
X177035062Y-98553867D01*
X176956555Y-98632374D01*
X176956553Y-98632377D01*
X176906150Y-98731300D01*
X176888781Y-98840962D01*
X174087816Y-98840962D01*
X174067410Y-98800913D01*
X173988902Y-98722405D01*
X173988899Y-98722403D01*
X173889976Y-98672000D01*
X173824712Y-98661663D01*
X173792736Y-98642067D01*
X173783981Y-98605602D01*
X173784869Y-98600000D01*
X173767500Y-98490339D01*
X173717095Y-98391413D01*
X173715182Y-98389500D01*
X174795131Y-98389500D01*
X174812500Y-98499161D01*
X174845791Y-98564500D01*
X174862905Y-98598087D01*
X174941413Y-98676595D01*
X175040339Y-98727000D01*
X175150000Y-98744369D01*
X175259661Y-98727000D01*
X175358587Y-98676595D01*
X175437095Y-98598087D01*
X175487500Y-98499161D01*
X175504869Y-98389500D01*
X175487500Y-98279839D01*
X175437095Y-98180913D01*
X175358587Y-98102405D01*
X175358584Y-98102403D01*
X175259661Y-98052000D01*
X175150000Y-98034631D01*
X175040338Y-98052000D01*
X174941415Y-98102403D01*
X174941412Y-98102405D01*
X174862905Y-98180912D01*
X174862903Y-98180915D01*
X174812500Y-98279838D01*
X174795131Y-98389500D01*
X173715182Y-98389500D01*
X173638587Y-98312905D01*
X173638584Y-98312903D01*
X173539661Y-98262500D01*
X173430000Y-98245131D01*
X173320338Y-98262500D01*
X173221415Y-98312903D01*
X173221412Y-98312905D01*
X173142905Y-98391412D01*
X173142903Y-98391415D01*
X173092500Y-98490338D01*
X173075131Y-98600000D01*
X165024930Y-98600000D01*
X164976849Y-98582500D01*
X164927394Y-98564500D01*
X164812606Y-98564500D01*
X164704737Y-98603760D01*
X164616808Y-98677541D01*
X164616804Y-98677546D01*
X164559412Y-98776952D01*
X164539479Y-98890000D01*
X149924316Y-98890000D01*
X149924256Y-98400000D01*
X161879479Y-98400000D01*
X161899412Y-98513047D01*
X161956804Y-98612452D01*
X161956806Y-98612455D01*
X162044739Y-98686240D01*
X162152606Y-98725500D01*
X162152607Y-98725500D01*
X162267393Y-98725500D01*
X162267394Y-98725500D01*
X162375261Y-98686240D01*
X162463194Y-98612455D01*
X162520588Y-98513045D01*
X162540521Y-98400000D01*
X162520588Y-98286955D01*
X162520587Y-98286953D01*
X162520587Y-98286952D01*
X162492902Y-98239000D01*
X162488007Y-98201818D01*
X162510837Y-98172065D01*
X162535337Y-98165500D01*
X162637393Y-98165500D01*
X162637394Y-98165500D01*
X162745261Y-98126240D01*
X162833194Y-98052455D01*
X162890588Y-97953045D01*
X162910521Y-97840000D01*
X162890588Y-97726955D01*
X162890587Y-97726953D01*
X162890587Y-97726952D01*
X162833195Y-97627547D01*
X162833194Y-97627545D01*
X162831760Y-97626342D01*
X162745261Y-97553760D01*
X162714192Y-97542452D01*
X162637394Y-97514500D01*
X162522606Y-97514500D01*
X162414737Y-97553760D01*
X162326808Y-97627541D01*
X162326804Y-97627546D01*
X162269412Y-97726952D01*
X162249479Y-97840000D01*
X162269412Y-97953047D01*
X162297098Y-98001000D01*
X162301993Y-98038182D01*
X162279163Y-98067935D01*
X162254663Y-98074500D01*
X162152606Y-98074500D01*
X162044737Y-98113760D01*
X161956808Y-98187541D01*
X161956804Y-98187546D01*
X161899412Y-98286952D01*
X161879479Y-98400000D01*
X149924256Y-98400000D01*
X149924125Y-97330000D01*
X169309479Y-97330000D01*
X169329412Y-97443047D01*
X169370666Y-97514500D01*
X169386806Y-97542455D01*
X169474739Y-97616240D01*
X169582606Y-97655500D01*
X169582607Y-97655500D01*
X169697393Y-97655500D01*
X169697394Y-97655500D01*
X169744014Y-97638531D01*
X169781480Y-97640167D01*
X169792269Y-97647040D01*
X169859014Y-97703045D01*
X169874739Y-97716240D01*
X169982606Y-97755500D01*
X169982607Y-97755500D01*
X170097393Y-97755500D01*
X170097394Y-97755500D01*
X170168087Y-97729770D01*
X170205552Y-97731406D01*
X170227279Y-97751315D01*
X170256804Y-97802453D01*
X170256806Y-97802456D01*
X170301550Y-97840000D01*
X170344739Y-97876240D01*
X170452606Y-97915500D01*
X170452607Y-97915500D01*
X170567393Y-97915500D01*
X170567394Y-97915500D01*
X170675261Y-97876240D01*
X170763194Y-97802455D01*
X170812970Y-97716240D01*
X170820587Y-97703047D01*
X170820587Y-97703046D01*
X170820588Y-97703045D01*
X170840521Y-97590000D01*
X170820588Y-97476955D01*
X170820587Y-97476953D01*
X170820587Y-97476952D01*
X170763195Y-97377547D01*
X170763193Y-97377544D01*
X170675261Y-97303760D01*
X170664930Y-97300000D01*
X194749479Y-97300000D01*
X194769412Y-97413047D01*
X194806308Y-97476952D01*
X194826806Y-97512455D01*
X194914739Y-97586240D01*
X195022606Y-97625500D01*
X195022607Y-97625500D01*
X195137393Y-97625500D01*
X195137394Y-97625500D01*
X195245261Y-97586240D01*
X195333194Y-97512455D01*
X195390588Y-97413045D01*
X195410521Y-97300000D01*
X195390588Y-97186955D01*
X195390587Y-97186953D01*
X195390587Y-97186952D01*
X195333195Y-97087547D01*
X195333194Y-97087545D01*
X195245261Y-97013760D01*
X195179980Y-96990000D01*
X198889479Y-96990000D01*
X198909412Y-97103047D01*
X198957855Y-97186952D01*
X198966806Y-97202455D01*
X199054739Y-97276240D01*
X199162606Y-97315500D01*
X199162607Y-97315500D01*
X199277393Y-97315500D01*
X199277394Y-97315500D01*
X199385261Y-97276240D01*
X199473194Y-97202455D01*
X199522216Y-97117546D01*
X199530587Y-97103047D01*
X199530587Y-97103046D01*
X199530588Y-97103045D01*
X199550521Y-96990000D01*
X199530588Y-96876955D01*
X199530587Y-96876953D01*
X199530587Y-96876952D01*
X199473195Y-96777547D01*
X199473194Y-96777545D01*
X199385261Y-96703760D01*
X199277394Y-96664500D01*
X199162606Y-96664500D01*
X199054737Y-96703760D01*
X198966808Y-96777541D01*
X198966804Y-96777546D01*
X198909412Y-96876952D01*
X198889479Y-96990000D01*
X195179980Y-96990000D01*
X195137394Y-96974500D01*
X195022606Y-96974500D01*
X194914737Y-97013760D01*
X194826808Y-97087541D01*
X194826804Y-97087546D01*
X194769412Y-97186952D01*
X194749479Y-97300000D01*
X170664930Y-97300000D01*
X170633592Y-97288594D01*
X170567394Y-97264500D01*
X170452606Y-97264500D01*
X170381913Y-97290230D01*
X170344446Y-97288594D01*
X170322720Y-97268687D01*
X170293194Y-97217545D01*
X170205261Y-97143760D01*
X170097394Y-97104500D01*
X169982606Y-97104500D01*
X169935983Y-97121468D01*
X169898516Y-97119832D01*
X169887730Y-97112960D01*
X169805261Y-97043760D01*
X169697394Y-97004500D01*
X169582606Y-97004500D01*
X169474737Y-97043760D01*
X169386808Y-97117541D01*
X169386804Y-97117546D01*
X169329412Y-97216952D01*
X169309479Y-97330000D01*
X149924125Y-97330000D01*
X149924053Y-96740000D01*
X170899479Y-96740000D01*
X170919412Y-96853047D01*
X170976804Y-96952452D01*
X170976806Y-96952455D01*
X171064739Y-97026240D01*
X171172606Y-97065500D01*
X171172607Y-97065500D01*
X171287393Y-97065500D01*
X171287394Y-97065500D01*
X171395261Y-97026240D01*
X171483194Y-96952455D01*
X171540588Y-96853045D01*
X171560521Y-96740000D01*
X171540588Y-96626955D01*
X171540587Y-96626953D01*
X171540587Y-96626952D01*
X171491802Y-96542455D01*
X171483194Y-96527545D01*
X171460001Y-96508084D01*
X171395261Y-96453760D01*
X171365821Y-96443045D01*
X171287394Y-96414500D01*
X171172606Y-96414500D01*
X171064737Y-96453760D01*
X170976808Y-96527541D01*
X170976804Y-96527546D01*
X170919412Y-96626952D01*
X170899479Y-96740000D01*
X149924053Y-96740000D01*
X149923999Y-96299500D01*
X178645131Y-96299500D01*
X178662500Y-96409161D01*
X178679764Y-96443045D01*
X178712905Y-96508087D01*
X178791413Y-96586595D01*
X178890339Y-96637000D01*
X179000000Y-96654369D01*
X179109661Y-96637000D01*
X179208587Y-96586595D01*
X179287095Y-96508087D01*
X179337500Y-96409161D01*
X179349959Y-96330500D01*
X180025131Y-96330500D01*
X180042500Y-96440161D01*
X180087024Y-96527546D01*
X180092905Y-96539087D01*
X180171413Y-96617595D01*
X180270339Y-96668000D01*
X180380000Y-96685369D01*
X180489661Y-96668000D01*
X180588587Y-96617595D01*
X180667095Y-96539087D01*
X180717500Y-96440161D01*
X180734869Y-96330500D01*
X180734790Y-96330000D01*
X186669479Y-96330000D01*
X186689412Y-96443047D01*
X186744861Y-96539087D01*
X186746806Y-96542455D01*
X186834739Y-96616240D01*
X186942606Y-96655500D01*
X186942607Y-96655500D01*
X187057393Y-96655500D01*
X187057394Y-96655500D01*
X187165261Y-96616240D01*
X187253194Y-96542455D01*
X187310588Y-96443045D01*
X187330521Y-96330000D01*
X187310588Y-96216955D01*
X187310587Y-96216953D01*
X187310587Y-96216952D01*
X187253195Y-96117547D01*
X187253194Y-96117545D01*
X187221455Y-96090913D01*
X187165261Y-96043760D01*
X187164280Y-96043403D01*
X187057394Y-96004500D01*
X186942606Y-96004500D01*
X186834737Y-96043760D01*
X186746808Y-96117541D01*
X186746804Y-96117546D01*
X186689412Y-96216952D01*
X186669479Y-96330000D01*
X180734790Y-96330000D01*
X180717500Y-96220839D01*
X180667095Y-96121913D01*
X180588587Y-96043405D01*
X180588584Y-96043403D01*
X180489661Y-95993000D01*
X180380000Y-95975631D01*
X180270338Y-95993000D01*
X180171415Y-96043403D01*
X180171412Y-96043405D01*
X180092905Y-96121912D01*
X180092903Y-96121915D01*
X180042500Y-96220838D01*
X180025131Y-96330500D01*
X179349959Y-96330500D01*
X179354869Y-96299500D01*
X179337500Y-96189839D01*
X179287095Y-96090913D01*
X179208587Y-96012405D01*
X179208584Y-96012403D01*
X179109661Y-95962000D01*
X179000000Y-95944631D01*
X178890338Y-95962000D01*
X178791415Y-96012403D01*
X178791412Y-96012405D01*
X178712905Y-96090912D01*
X178712903Y-96090915D01*
X178662500Y-96189838D01*
X178645131Y-96299500D01*
X149923999Y-96299500D01*
X149923948Y-95880000D01*
X165549479Y-95880000D01*
X165569412Y-95993047D01*
X165625917Y-96090915D01*
X165626806Y-96092455D01*
X165714739Y-96166240D01*
X165822606Y-96205500D01*
X165822607Y-96205500D01*
X165937393Y-96205500D01*
X165937394Y-96205500D01*
X166045261Y-96166240D01*
X166133194Y-96092455D01*
X166133195Y-96092452D01*
X166134543Y-96091322D01*
X166170310Y-96080044D01*
X166182797Y-96082812D01*
X166272606Y-96115500D01*
X166272607Y-96115500D01*
X166387393Y-96115500D01*
X166387394Y-96115500D01*
X166495261Y-96076240D01*
X166583194Y-96002455D01*
X166640588Y-95903045D01*
X166651705Y-95840000D01*
X169689479Y-95840000D01*
X169709412Y-95953047D01*
X169743683Y-96012405D01*
X169766806Y-96052455D01*
X169854739Y-96126240D01*
X169962606Y-96165500D01*
X169962607Y-96165500D01*
X170077393Y-96165500D01*
X170077394Y-96165500D01*
X170185261Y-96126240D01*
X170273194Y-96052455D01*
X170330588Y-95953045D01*
X170346994Y-95860000D01*
X180779479Y-95860000D01*
X180799412Y-95973047D01*
X180840034Y-96043405D01*
X180856806Y-96072455D01*
X180944739Y-96146240D01*
X181052606Y-96185500D01*
X181052607Y-96185500D01*
X181167393Y-96185500D01*
X181167394Y-96185500D01*
X181275261Y-96146240D01*
X181363194Y-96072455D01*
X181420588Y-95973045D01*
X181422888Y-95960000D01*
X192405131Y-95960000D01*
X192422500Y-96069661D01*
X192471708Y-96166239D01*
X192472905Y-96168587D01*
X192551413Y-96247095D01*
X192650339Y-96297500D01*
X192760000Y-96314869D01*
X192869661Y-96297500D01*
X192968587Y-96247095D01*
X193047095Y-96168587D01*
X193097500Y-96069661D01*
X193114869Y-95960000D01*
X193097500Y-95850339D01*
X193047095Y-95751413D01*
X192968587Y-95672905D01*
X192968584Y-95672903D01*
X192869661Y-95622500D01*
X192760000Y-95605131D01*
X192650338Y-95622500D01*
X192551415Y-95672903D01*
X192551412Y-95672905D01*
X192472905Y-95751412D01*
X192472903Y-95751415D01*
X192422500Y-95850338D01*
X192405131Y-95960000D01*
X181422888Y-95960000D01*
X181440521Y-95860000D01*
X181420588Y-95746955D01*
X181420587Y-95746953D01*
X181420587Y-95746952D01*
X181363195Y-95647547D01*
X181363194Y-95647545D01*
X181339361Y-95627547D01*
X181275261Y-95573760D01*
X181222344Y-95554500D01*
X181167394Y-95534500D01*
X181052606Y-95534500D01*
X180944737Y-95573760D01*
X180856808Y-95647541D01*
X180856804Y-95647546D01*
X180799412Y-95746952D01*
X180779479Y-95860000D01*
X170346994Y-95860000D01*
X170350521Y-95840000D01*
X170330588Y-95726955D01*
X170330587Y-95726953D01*
X170330587Y-95726952D01*
X170273195Y-95627547D01*
X170273194Y-95627545D01*
X170213605Y-95577544D01*
X170185261Y-95553760D01*
X170132344Y-95534500D01*
X170077394Y-95514500D01*
X169962606Y-95514500D01*
X169854737Y-95553760D01*
X169766808Y-95627541D01*
X169766804Y-95627546D01*
X169709412Y-95726952D01*
X169689479Y-95840000D01*
X166651705Y-95840000D01*
X166660521Y-95790000D01*
X166640588Y-95676955D01*
X166640587Y-95676953D01*
X166640587Y-95676952D01*
X166588760Y-95587186D01*
X166583194Y-95577545D01*
X166495261Y-95503760D01*
X166387394Y-95464500D01*
X166272606Y-95464500D01*
X166164737Y-95503760D01*
X166075455Y-95578677D01*
X166039688Y-95589955D01*
X166027201Y-95587186D01*
X165937394Y-95554500D01*
X165822606Y-95554500D01*
X165714737Y-95593760D01*
X165626808Y-95667541D01*
X165626804Y-95667546D01*
X165569412Y-95766952D01*
X165549479Y-95880000D01*
X149923948Y-95880000D01*
X149923855Y-95120000D01*
X170389479Y-95120000D01*
X170409412Y-95233047D01*
X170466804Y-95332452D01*
X170466806Y-95332455D01*
X170554739Y-95406240D01*
X170662606Y-95445500D01*
X170662607Y-95445500D01*
X170777393Y-95445500D01*
X170777394Y-95445500D01*
X170885261Y-95406240D01*
X170973194Y-95332455D01*
X171030588Y-95233045D01*
X171050521Y-95120000D01*
X171030588Y-95006955D01*
X171030587Y-95006953D01*
X171030587Y-95006952D01*
X170973195Y-94907547D01*
X170973194Y-94907545D01*
X170885261Y-94833760D01*
X170777394Y-94794500D01*
X170662606Y-94794500D01*
X170554737Y-94833760D01*
X170466808Y-94907541D01*
X170466804Y-94907546D01*
X170409412Y-95006952D01*
X170389479Y-95120000D01*
X149923855Y-95120000D01*
X149923746Y-94230000D01*
X155284534Y-94230000D01*
X155304312Y-94380235D01*
X155362299Y-94520228D01*
X155362302Y-94520233D01*
X155454549Y-94640451D01*
X155574767Y-94732698D01*
X155574769Y-94732698D01*
X155574771Y-94732700D01*
X155714764Y-94790687D01*
X155827280Y-94805500D01*
X155827284Y-94805500D01*
X155902716Y-94805500D01*
X155902720Y-94805500D01*
X156015236Y-94790687D01*
X156155233Y-94732698D01*
X156275451Y-94640451D01*
X156367698Y-94520233D01*
X156421643Y-94390000D01*
X169969479Y-94390000D01*
X169989412Y-94503047D01*
X170046804Y-94602452D01*
X170046806Y-94602455D01*
X170134739Y-94676240D01*
X170242606Y-94715500D01*
X170242607Y-94715500D01*
X170357393Y-94715500D01*
X170357394Y-94715500D01*
X170465261Y-94676240D01*
X170553194Y-94602455D01*
X170610588Y-94503045D01*
X170630521Y-94390000D01*
X170610588Y-94276955D01*
X170610587Y-94276953D01*
X170610587Y-94276952D01*
X170553195Y-94177547D01*
X170553194Y-94177545D01*
X170532285Y-94160000D01*
X186669479Y-94160000D01*
X186689412Y-94273047D01*
X186746804Y-94372452D01*
X186746806Y-94372455D01*
X186834739Y-94446240D01*
X186942606Y-94485500D01*
X186942607Y-94485500D01*
X187057393Y-94485500D01*
X187057394Y-94485500D01*
X187165261Y-94446240D01*
X187253194Y-94372455D01*
X187310588Y-94273045D01*
X187330521Y-94160000D01*
X187310588Y-94046955D01*
X187310587Y-94046953D01*
X187310587Y-94046952D01*
X187253195Y-93947547D01*
X187253194Y-93947545D01*
X187243929Y-93939771D01*
X187165261Y-93873760D01*
X187057394Y-93834500D01*
X186942606Y-93834500D01*
X186834737Y-93873760D01*
X186746808Y-93947541D01*
X186746804Y-93947546D01*
X186689412Y-94046952D01*
X186669479Y-94160000D01*
X170532285Y-94160000D01*
X170465261Y-94103760D01*
X170357394Y-94064500D01*
X170242606Y-94064500D01*
X170134737Y-94103760D01*
X170046808Y-94177541D01*
X170046804Y-94177546D01*
X169989412Y-94276952D01*
X169969479Y-94390000D01*
X156421643Y-94390000D01*
X156425687Y-94380236D01*
X156445466Y-94230000D01*
X156425687Y-94079764D01*
X156370921Y-93947547D01*
X156367700Y-93939771D01*
X156367697Y-93939766D01*
X156275451Y-93819549D01*
X156275450Y-93819548D01*
X156155233Y-93727302D01*
X156155228Y-93727299D01*
X156015235Y-93669312D01*
X155937894Y-93659130D01*
X155902720Y-93654500D01*
X155827280Y-93654500D01*
X155795425Y-93658693D01*
X155714764Y-93669312D01*
X155574771Y-93727299D01*
X155574766Y-93727302D01*
X155454549Y-93819548D01*
X155454548Y-93819549D01*
X155362302Y-93939766D01*
X155362299Y-93939771D01*
X155304312Y-94079764D01*
X155284534Y-94230000D01*
X149923746Y-94230000D01*
X149923591Y-92970000D01*
X160795131Y-92970000D01*
X160812500Y-93079661D01*
X160853261Y-93159661D01*
X160862905Y-93178587D01*
X160941413Y-93257095D01*
X161040339Y-93307500D01*
X161150000Y-93324869D01*
X161259661Y-93307500D01*
X161358587Y-93257095D01*
X161437095Y-93178587D01*
X161487500Y-93079661D01*
X161504869Y-92970000D01*
X161487500Y-92860339D01*
X161437095Y-92761413D01*
X161385182Y-92709500D01*
X163635131Y-92709500D01*
X163652500Y-92819161D01*
X163673480Y-92860338D01*
X163702905Y-92918087D01*
X163781413Y-92996595D01*
X163880339Y-93047000D01*
X163990000Y-93064369D01*
X164080720Y-93050000D01*
X172035131Y-93050000D01*
X172052500Y-93159661D01*
X172102144Y-93257095D01*
X172102905Y-93258587D01*
X172181413Y-93337095D01*
X172280339Y-93387500D01*
X172390000Y-93404869D01*
X172417584Y-93400500D01*
X180747131Y-93400500D01*
X180764500Y-93510161D01*
X180814905Y-93609087D01*
X180893413Y-93687595D01*
X180992339Y-93738000D01*
X181102000Y-93755369D01*
X181211661Y-93738000D01*
X181310587Y-93687595D01*
X181389095Y-93609087D01*
X181439500Y-93510161D01*
X181456869Y-93400500D01*
X181439500Y-93290839D01*
X181389095Y-93191913D01*
X181310587Y-93113405D01*
X181310584Y-93113403D01*
X181225399Y-93070000D01*
X203699479Y-93070000D01*
X203719412Y-93183047D01*
X203776804Y-93282452D01*
X203776806Y-93282455D01*
X203864739Y-93356240D01*
X203972606Y-93395500D01*
X203972607Y-93395500D01*
X204087393Y-93395500D01*
X204087394Y-93395500D01*
X204195261Y-93356240D01*
X204283194Y-93282455D01*
X204340588Y-93183045D01*
X204360521Y-93070000D01*
X204340588Y-92956955D01*
X204340587Y-92956953D01*
X204340587Y-92956952D01*
X204284807Y-92860339D01*
X204283194Y-92857545D01*
X204195261Y-92783760D01*
X204087394Y-92744500D01*
X203972606Y-92744500D01*
X203864737Y-92783760D01*
X203776808Y-92857541D01*
X203776804Y-92857546D01*
X203719412Y-92956952D01*
X203699479Y-93070000D01*
X181225399Y-93070000D01*
X181211661Y-93063000D01*
X181102000Y-93045631D01*
X180992338Y-93063000D01*
X180893415Y-93113403D01*
X180893412Y-93113405D01*
X180814905Y-93191912D01*
X180814903Y-93191915D01*
X180764500Y-93290838D01*
X180764500Y-93290839D01*
X180747131Y-93400500D01*
X172417584Y-93400500D01*
X172499661Y-93387500D01*
X172598587Y-93337095D01*
X172677095Y-93258587D01*
X172727500Y-93159661D01*
X172744869Y-93050000D01*
X172727500Y-92940339D01*
X172677095Y-92841413D01*
X172598587Y-92762905D01*
X172598584Y-92762903D01*
X172553634Y-92740000D01*
X192349479Y-92740000D01*
X192369412Y-92853047D01*
X192426804Y-92952452D01*
X192426806Y-92952455D01*
X192514739Y-93026240D01*
X192622606Y-93065500D01*
X192622607Y-93065500D01*
X192737393Y-93065500D01*
X192737394Y-93065500D01*
X192845261Y-93026240D01*
X192933194Y-92952455D01*
X192986377Y-92860339D01*
X192990587Y-92853047D01*
X192990587Y-92853046D01*
X192990588Y-92853045D01*
X193010521Y-92740000D01*
X192990588Y-92626955D01*
X192990587Y-92626953D01*
X192990587Y-92626952D01*
X192933195Y-92527547D01*
X192933194Y-92527545D01*
X192927124Y-92522452D01*
X192845261Y-92453760D01*
X192737394Y-92414500D01*
X192622606Y-92414500D01*
X192514737Y-92453760D01*
X192426808Y-92527541D01*
X192426804Y-92527546D01*
X192369412Y-92626952D01*
X192349479Y-92740000D01*
X172553634Y-92740000D01*
X172499661Y-92712500D01*
X172390000Y-92695131D01*
X172280338Y-92712500D01*
X172181415Y-92762903D01*
X172181412Y-92762905D01*
X172102905Y-92841412D01*
X172102903Y-92841415D01*
X172052500Y-92940338D01*
X172035131Y-93050000D01*
X164080720Y-93050000D01*
X164099661Y-93047000D01*
X164198587Y-92996595D01*
X164277095Y-92918087D01*
X164327500Y-92819161D01*
X164344869Y-92709500D01*
X164327500Y-92599839D01*
X164277095Y-92500913D01*
X164198587Y-92422405D01*
X164198584Y-92422403D01*
X164099661Y-92372000D01*
X163990000Y-92354631D01*
X163880338Y-92372000D01*
X163781415Y-92422403D01*
X163781412Y-92422405D01*
X163702905Y-92500912D01*
X163702903Y-92500915D01*
X163652500Y-92599838D01*
X163635131Y-92709500D01*
X161385182Y-92709500D01*
X161358587Y-92682905D01*
X161358584Y-92682903D01*
X161259661Y-92632500D01*
X161150000Y-92615131D01*
X161040338Y-92632500D01*
X160941415Y-92682903D01*
X160941412Y-92682905D01*
X160862905Y-92761412D01*
X160862903Y-92761415D01*
X160812500Y-92860338D01*
X160795131Y-92970000D01*
X149923591Y-92970000D01*
X149923483Y-92090000D01*
X172239479Y-92090000D01*
X172259412Y-92203047D01*
X172316804Y-92302452D01*
X172316806Y-92302455D01*
X172404739Y-92376240D01*
X172512606Y-92415500D01*
X172512607Y-92415500D01*
X172627393Y-92415500D01*
X172627394Y-92415500D01*
X172735261Y-92376240D01*
X172814202Y-92310000D01*
X180059479Y-92310000D01*
X180079412Y-92423047D01*
X180136804Y-92522452D01*
X180136806Y-92522455D01*
X180224739Y-92596240D01*
X180332606Y-92635500D01*
X180332607Y-92635500D01*
X180447393Y-92635500D01*
X180447394Y-92635500D01*
X180555261Y-92596240D01*
X180643194Y-92522455D01*
X180700588Y-92423045D01*
X180720521Y-92310000D01*
X180700588Y-92196955D01*
X180700587Y-92196953D01*
X180700587Y-92196952D01*
X180643195Y-92097547D01*
X180643194Y-92097545D01*
X180562697Y-92030000D01*
X180555261Y-92023760D01*
X180447394Y-91984500D01*
X180332606Y-91984500D01*
X180224737Y-92023760D01*
X180136808Y-92097541D01*
X180136804Y-92097546D01*
X180079412Y-92196952D01*
X180059479Y-92310000D01*
X172814202Y-92310000D01*
X172823194Y-92302455D01*
X172880588Y-92203045D01*
X172900521Y-92090000D01*
X172880588Y-91976955D01*
X172880587Y-91976953D01*
X172880587Y-91976952D01*
X172823195Y-91877547D01*
X172823194Y-91877545D01*
X172735261Y-91803760D01*
X172642505Y-91770000D01*
X189025131Y-91770000D01*
X189042500Y-91879661D01*
X189092071Y-91976952D01*
X189092905Y-91978587D01*
X189171413Y-92057095D01*
X189270339Y-92107500D01*
X189380000Y-92124869D01*
X189489661Y-92107500D01*
X189588587Y-92057095D01*
X189667095Y-91978587D01*
X189717500Y-91879661D01*
X189734869Y-91770000D01*
X189717500Y-91660339D01*
X189691851Y-91610000D01*
X190279479Y-91610000D01*
X190299412Y-91723047D01*
X190353971Y-91817545D01*
X190356806Y-91822455D01*
X190397501Y-91856602D01*
X190414818Y-91889868D01*
X190409797Y-91912530D01*
X190410879Y-91912924D01*
X190409413Y-91916951D01*
X190389479Y-92030000D01*
X190409412Y-92143047D01*
X190466804Y-92242452D01*
X190466806Y-92242455D01*
X190554739Y-92316240D01*
X190662606Y-92355500D01*
X190662607Y-92355500D01*
X190777393Y-92355500D01*
X190777394Y-92355500D01*
X190885261Y-92316240D01*
X190973194Y-92242455D01*
X191030588Y-92143045D01*
X191050521Y-92030000D01*
X191030588Y-91916955D01*
X191030587Y-91916953D01*
X191030587Y-91916952D01*
X190973195Y-91817547D01*
X190973193Y-91817544D01*
X190943293Y-91792455D01*
X190932497Y-91783396D01*
X190915181Y-91750131D01*
X190920209Y-91727473D01*
X190919121Y-91727077D01*
X190920586Y-91723049D01*
X190920586Y-91723048D01*
X190920588Y-91723045D01*
X190940521Y-91610000D01*
X190920588Y-91496955D01*
X190920587Y-91496953D01*
X190920587Y-91496952D01*
X190863195Y-91397547D01*
X190863194Y-91397545D01*
X190857124Y-91392452D01*
X190775261Y-91323760D01*
X190667394Y-91284500D01*
X190552606Y-91284500D01*
X190444737Y-91323760D01*
X190356808Y-91397541D01*
X190356804Y-91397546D01*
X190299412Y-91496952D01*
X190279479Y-91610000D01*
X189691851Y-91610000D01*
X189667095Y-91561413D01*
X189588587Y-91482905D01*
X189588584Y-91482903D01*
X189489661Y-91432500D01*
X189380000Y-91415131D01*
X189270338Y-91432500D01*
X189171415Y-91482903D01*
X189171412Y-91482905D01*
X189092905Y-91561412D01*
X189092903Y-91561415D01*
X189042500Y-91660338D01*
X189025131Y-91770000D01*
X172642505Y-91770000D01*
X172627394Y-91764500D01*
X172512606Y-91764500D01*
X172404737Y-91803760D01*
X172316808Y-91877541D01*
X172316804Y-91877546D01*
X172259412Y-91976952D01*
X172239479Y-92090000D01*
X149923483Y-92090000D01*
X149923421Y-91580000D01*
X155689479Y-91580000D01*
X155709412Y-91693047D01*
X155761576Y-91783397D01*
X155766806Y-91792455D01*
X155854739Y-91866240D01*
X155962606Y-91905500D01*
X155962607Y-91905500D01*
X156077393Y-91905500D01*
X156077394Y-91905500D01*
X156185261Y-91866240D01*
X156273194Y-91792455D01*
X156330588Y-91693045D01*
X156350521Y-91580000D01*
X156330588Y-91466955D01*
X156330587Y-91466953D01*
X156330587Y-91466952D01*
X156273195Y-91367547D01*
X156273194Y-91367545D01*
X156185261Y-91293760D01*
X156077394Y-91254500D01*
X155962606Y-91254500D01*
X155854737Y-91293760D01*
X155766808Y-91367541D01*
X155766804Y-91367546D01*
X155709412Y-91466952D01*
X155689479Y-91580000D01*
X149923421Y-91580000D01*
X149923361Y-91090817D01*
X163581244Y-91090817D01*
X163598613Y-91200478D01*
X163649018Y-91299404D01*
X163727526Y-91377912D01*
X163826452Y-91428317D01*
X163936113Y-91445686D01*
X164045774Y-91428317D01*
X164144700Y-91377912D01*
X164223208Y-91299404D01*
X164273613Y-91200478D01*
X164290982Y-91090817D01*
X164282933Y-91040000D01*
X167759479Y-91040000D01*
X167779412Y-91153047D01*
X167836804Y-91252452D01*
X167836806Y-91252455D01*
X167924739Y-91326240D01*
X168032606Y-91365500D01*
X168032607Y-91365500D01*
X168147393Y-91365500D01*
X168147394Y-91365500D01*
X168255261Y-91326240D01*
X168343194Y-91252455D01*
X168400588Y-91153045D01*
X168420521Y-91040000D01*
X168400588Y-90926955D01*
X168400587Y-90926953D01*
X168400587Y-90926952D01*
X168343195Y-90827547D01*
X168343194Y-90827545D01*
X168319305Y-90807500D01*
X168274615Y-90770000D01*
X168469479Y-90770000D01*
X168489412Y-90883047D01*
X168546055Y-90981155D01*
X168546806Y-90982455D01*
X168634739Y-91056240D01*
X168742606Y-91095500D01*
X168742607Y-91095500D01*
X168857393Y-91095500D01*
X168857394Y-91095500D01*
X168965261Y-91056240D01*
X169053194Y-90982455D01*
X169110588Y-90883045D01*
X169123468Y-90810000D01*
X169254479Y-90810000D01*
X169274412Y-90923047D01*
X169331804Y-91022452D01*
X169331806Y-91022455D01*
X169419739Y-91096240D01*
X169527606Y-91135500D01*
X169527607Y-91135500D01*
X169642393Y-91135500D01*
X169642394Y-91135500D01*
X169750261Y-91096240D01*
X169838194Y-91022455D01*
X169838642Y-91021678D01*
X169839212Y-91021240D01*
X169840949Y-91019171D01*
X169841407Y-91019555D01*
X169868388Y-90998842D01*
X169897838Y-91000124D01*
X169912606Y-91005500D01*
X169912608Y-91005500D01*
X170027393Y-91005500D01*
X170027394Y-91005500D01*
X170106351Y-90976762D01*
X170143817Y-90978398D01*
X170165543Y-90998306D01*
X170169697Y-91005500D01*
X170185497Y-91032868D01*
X170196806Y-91052455D01*
X170284739Y-91126240D01*
X170392606Y-91165500D01*
X170392607Y-91165500D01*
X170507393Y-91165500D01*
X170507394Y-91165500D01*
X170594907Y-91133648D01*
X170632372Y-91135284D01*
X170643161Y-91142157D01*
X170670981Y-91165500D01*
X170689739Y-91181240D01*
X170797606Y-91220500D01*
X170797607Y-91220500D01*
X170912393Y-91220500D01*
X170912394Y-91220500D01*
X171020261Y-91181240D01*
X171021739Y-91180000D01*
X192979479Y-91180000D01*
X192999412Y-91293047D01*
X193048410Y-91377913D01*
X193056806Y-91392455D01*
X193144739Y-91466240D01*
X193252606Y-91505500D01*
X193252607Y-91505500D01*
X193367393Y-91505500D01*
X193367394Y-91505500D01*
X193475261Y-91466240D01*
X193563194Y-91392455D01*
X193620588Y-91293045D01*
X193640521Y-91180000D01*
X193620588Y-91066955D01*
X193620587Y-91066953D01*
X193620587Y-91066952D01*
X193571802Y-90982455D01*
X193563194Y-90967545D01*
X193560275Y-90965096D01*
X193475261Y-90893760D01*
X193445821Y-90883045D01*
X193367394Y-90854500D01*
X193252606Y-90854500D01*
X193144737Y-90893760D01*
X193056808Y-90967541D01*
X193056804Y-90967546D01*
X192999412Y-91066952D01*
X192979479Y-91180000D01*
X171021739Y-91180000D01*
X171108194Y-91107455D01*
X171158943Y-91019555D01*
X171165587Y-91008047D01*
X171165587Y-91008046D01*
X171165588Y-91008045D01*
X171185521Y-90895000D01*
X171165588Y-90781955D01*
X171165587Y-90781953D01*
X171165587Y-90781952D01*
X171108195Y-90682547D01*
X171108193Y-90682544D01*
X171020261Y-90608760D01*
X170999907Y-90601352D01*
X170912394Y-90569500D01*
X170797606Y-90569500D01*
X170710093Y-90601351D01*
X170672627Y-90599716D01*
X170661838Y-90592843D01*
X170646532Y-90580000D01*
X170615261Y-90553760D01*
X170522505Y-90520000D01*
X172965131Y-90520000D01*
X172982500Y-90629661D01*
X173016787Y-90696955D01*
X173032905Y-90728587D01*
X173111413Y-90807095D01*
X173210339Y-90857500D01*
X173320000Y-90874869D01*
X173429661Y-90857500D01*
X173528587Y-90807095D01*
X173607095Y-90728587D01*
X173632870Y-90678000D01*
X180493131Y-90678000D01*
X180510500Y-90787661D01*
X180558684Y-90882229D01*
X180560905Y-90886587D01*
X180639413Y-90965095D01*
X180738339Y-91015500D01*
X180848000Y-91032869D01*
X180957661Y-91015500D01*
X181056587Y-90965095D01*
X181135095Y-90886587D01*
X181185500Y-90787661D01*
X181202869Y-90678000D01*
X181185500Y-90568339D01*
X181135095Y-90469413D01*
X181056587Y-90390905D01*
X181056584Y-90390903D01*
X180957661Y-90340500D01*
X180848000Y-90323131D01*
X180738338Y-90340500D01*
X180639415Y-90390903D01*
X180639412Y-90390905D01*
X180560905Y-90469412D01*
X180560903Y-90469415D01*
X180510500Y-90568338D01*
X180493131Y-90678000D01*
X173632870Y-90678000D01*
X173657500Y-90629661D01*
X173674869Y-90520000D01*
X173657500Y-90410339D01*
X173607095Y-90311413D01*
X173528587Y-90232905D01*
X173528584Y-90232903D01*
X173429661Y-90182500D01*
X173320000Y-90165131D01*
X173210338Y-90182500D01*
X173111415Y-90232903D01*
X173111412Y-90232905D01*
X173032905Y-90311412D01*
X173032903Y-90311415D01*
X172982500Y-90410338D01*
X172965131Y-90520000D01*
X170522505Y-90520000D01*
X170507394Y-90514500D01*
X170392606Y-90514500D01*
X170392605Y-90514500D01*
X170313648Y-90543237D01*
X170276181Y-90541601D01*
X170254456Y-90521692D01*
X170223194Y-90467545D01*
X170135261Y-90393760D01*
X170027394Y-90354500D01*
X169912606Y-90354500D01*
X169804739Y-90393760D01*
X169716807Y-90467543D01*
X169716806Y-90467545D01*
X169716350Y-90468334D01*
X169715771Y-90468778D01*
X169714052Y-90470828D01*
X169713597Y-90470446D01*
X169686595Y-90491161D01*
X169657160Y-90489874D01*
X169642394Y-90484500D01*
X169527606Y-90484500D01*
X169419737Y-90523760D01*
X169331808Y-90597541D01*
X169331804Y-90597546D01*
X169274412Y-90696952D01*
X169254479Y-90810000D01*
X169123468Y-90810000D01*
X169130521Y-90770000D01*
X169110588Y-90656955D01*
X169110587Y-90656953D01*
X169110587Y-90656952D01*
X169053195Y-90557547D01*
X169053194Y-90557545D01*
X169036142Y-90543237D01*
X168965261Y-90483760D01*
X168929730Y-90470828D01*
X168857394Y-90444500D01*
X168742606Y-90444500D01*
X168634737Y-90483760D01*
X168546808Y-90557541D01*
X168546804Y-90557546D01*
X168489412Y-90656952D01*
X168469479Y-90770000D01*
X168274615Y-90770000D01*
X168255261Y-90753760D01*
X168206322Y-90735948D01*
X168147394Y-90714500D01*
X168032606Y-90714500D01*
X167924737Y-90753760D01*
X167836808Y-90827541D01*
X167836804Y-90827546D01*
X167779412Y-90926952D01*
X167759479Y-91040000D01*
X164282933Y-91040000D01*
X164273613Y-90981156D01*
X164223208Y-90882230D01*
X164144700Y-90803722D01*
X164144697Y-90803720D01*
X164045774Y-90753317D01*
X163936113Y-90735948D01*
X163826451Y-90753317D01*
X163727528Y-90803720D01*
X163727525Y-90803722D01*
X163649018Y-90882229D01*
X163649016Y-90882232D01*
X163598613Y-90981155D01*
X163590422Y-91032868D01*
X163581244Y-91090817D01*
X149923361Y-91090817D01*
X149923285Y-90470000D01*
X153835131Y-90470000D01*
X153852500Y-90579661D01*
X153902605Y-90678000D01*
X153902905Y-90678587D01*
X153981413Y-90757095D01*
X154080339Y-90807500D01*
X154190000Y-90824869D01*
X154299661Y-90807500D01*
X154398587Y-90757095D01*
X154477095Y-90678587D01*
X154527327Y-90580000D01*
X155729479Y-90580000D01*
X155749412Y-90693047D01*
X155800742Y-90781952D01*
X155806806Y-90792455D01*
X155894739Y-90866240D01*
X156002606Y-90905500D01*
X156002607Y-90905500D01*
X156117393Y-90905500D01*
X156117394Y-90905500D01*
X156225261Y-90866240D01*
X156313194Y-90792455D01*
X156370588Y-90693045D01*
X156390521Y-90580000D01*
X156370588Y-90466955D01*
X156370587Y-90466953D01*
X156370587Y-90466952D01*
X156313195Y-90367547D01*
X156313194Y-90367545D01*
X156225261Y-90293760D01*
X156117394Y-90254500D01*
X156002606Y-90254500D01*
X155894737Y-90293760D01*
X155806808Y-90367541D01*
X155806804Y-90367546D01*
X155749412Y-90466952D01*
X155729479Y-90580000D01*
X154527327Y-90580000D01*
X154527500Y-90579661D01*
X154544869Y-90470000D01*
X154527500Y-90360339D01*
X154477095Y-90261413D01*
X154398587Y-90182905D01*
X154398584Y-90182903D01*
X154299661Y-90132500D01*
X154190000Y-90115131D01*
X154080338Y-90132500D01*
X153981415Y-90182903D01*
X153981412Y-90182905D01*
X153902905Y-90261412D01*
X153902903Y-90261415D01*
X153852500Y-90360338D01*
X153835131Y-90470000D01*
X149923285Y-90470000D01*
X149923240Y-90100000D01*
X174859479Y-90100000D01*
X174879412Y-90213047D01*
X174936804Y-90312452D01*
X174936806Y-90312455D01*
X175024739Y-90386240D01*
X175132606Y-90425500D01*
X175132607Y-90425500D01*
X175247393Y-90425500D01*
X175247394Y-90425500D01*
X175355261Y-90386240D01*
X175443194Y-90312455D01*
X175500588Y-90213045D01*
X175520521Y-90100000D01*
X175500588Y-89986955D01*
X175500587Y-89986953D01*
X175500587Y-89986952D01*
X175443195Y-89887547D01*
X175443194Y-89887545D01*
X175355261Y-89813760D01*
X175344930Y-89810000D01*
X179659479Y-89810000D01*
X179679412Y-89923047D01*
X179727757Y-90006782D01*
X179736806Y-90022455D01*
X179824739Y-90096240D01*
X179932606Y-90135500D01*
X179932607Y-90135500D01*
X180047393Y-90135500D01*
X180047394Y-90135500D01*
X180155261Y-90096240D01*
X180243194Y-90022455D01*
X180300588Y-89923045D01*
X180320521Y-89810000D01*
X180309941Y-89750000D01*
X190129479Y-89750000D01*
X190149412Y-89863047D01*
X190206804Y-89962452D01*
X190206806Y-89962455D01*
X190223681Y-89976615D01*
X190240998Y-90009881D01*
X190234620Y-90038650D01*
X190189412Y-90116953D01*
X190169479Y-90230000D01*
X190189412Y-90343047D01*
X190237017Y-90425500D01*
X190246806Y-90442455D01*
X190334739Y-90516240D01*
X190442606Y-90555500D01*
X190442607Y-90555500D01*
X190557393Y-90555500D01*
X190557394Y-90555500D01*
X190665261Y-90516240D01*
X190753194Y-90442455D01*
X190800604Y-90360338D01*
X190810587Y-90343047D01*
X190810587Y-90343046D01*
X190810588Y-90343045D01*
X190830521Y-90230000D01*
X190810588Y-90116955D01*
X190810587Y-90116953D01*
X190810587Y-90116952D01*
X190753195Y-90017547D01*
X190753194Y-90017545D01*
X190753191Y-90017543D01*
X190753190Y-90017541D01*
X190736318Y-90003383D01*
X190719001Y-89970118D01*
X190725380Y-89941348D01*
X190770587Y-89863047D01*
X190770587Y-89863046D01*
X190770588Y-89863045D01*
X190790521Y-89750000D01*
X190770588Y-89636955D01*
X190770587Y-89636953D01*
X190770587Y-89636952D01*
X190713195Y-89537547D01*
X190713194Y-89537545D01*
X190625261Y-89463760D01*
X190517394Y-89424500D01*
X190402606Y-89424500D01*
X190294737Y-89463760D01*
X190206808Y-89537541D01*
X190206804Y-89537546D01*
X190149412Y-89636952D01*
X190129479Y-89750000D01*
X180309941Y-89750000D01*
X180300588Y-89696955D01*
X180300587Y-89696953D01*
X180300587Y-89696952D01*
X180243195Y-89597547D01*
X180243194Y-89597545D01*
X180155261Y-89523760D01*
X180047394Y-89484500D01*
X179932606Y-89484500D01*
X179824737Y-89523760D01*
X179736808Y-89597541D01*
X179736804Y-89597546D01*
X179679412Y-89696952D01*
X179659479Y-89810000D01*
X175344930Y-89810000D01*
X175247394Y-89774500D01*
X175132606Y-89774500D01*
X175024737Y-89813760D01*
X174936808Y-89887541D01*
X174936804Y-89887546D01*
X174879412Y-89986952D01*
X174859479Y-90100000D01*
X149923240Y-90100000D01*
X149923038Y-88450000D01*
X155284534Y-88450000D01*
X155304312Y-88600235D01*
X155362299Y-88740228D01*
X155362302Y-88740233D01*
X155454549Y-88860451D01*
X155574767Y-88952698D01*
X155574769Y-88952698D01*
X155574771Y-88952700D01*
X155616537Y-88970000D01*
X155714764Y-89010687D01*
X155827280Y-89025500D01*
X155827284Y-89025500D01*
X155902716Y-89025500D01*
X155902720Y-89025500D01*
X156015236Y-89010687D01*
X156113463Y-88970000D01*
X165295131Y-88970000D01*
X165312500Y-89079661D01*
X165362905Y-89178587D01*
X165441413Y-89257095D01*
X165540339Y-89307500D01*
X165650000Y-89324869D01*
X165759661Y-89307500D01*
X165858587Y-89257095D01*
X165937095Y-89178587D01*
X165987500Y-89079661D01*
X166004869Y-88970000D01*
X165987500Y-88860339D01*
X165937095Y-88761413D01*
X165858587Y-88682905D01*
X165858584Y-88682903D01*
X165759661Y-88632500D01*
X165650000Y-88615131D01*
X165540338Y-88632500D01*
X165441415Y-88682903D01*
X165441412Y-88682905D01*
X165362905Y-88761412D01*
X165362903Y-88761415D01*
X165312500Y-88860338D01*
X165312500Y-88860339D01*
X165295131Y-88970000D01*
X156113463Y-88970000D01*
X156155233Y-88952698D01*
X156275451Y-88860451D01*
X156367698Y-88740233D01*
X156425687Y-88600236D01*
X156438883Y-88500000D01*
X167615131Y-88500000D01*
X167632500Y-88609661D01*
X167645665Y-88635500D01*
X167682905Y-88708587D01*
X167761413Y-88787095D01*
X167860339Y-88837500D01*
X167970000Y-88854869D01*
X168079661Y-88837500D01*
X168178587Y-88787095D01*
X168225682Y-88740000D01*
X172295131Y-88740000D01*
X172312500Y-88849661D01*
X172362905Y-88948587D01*
X172441413Y-89027095D01*
X172540339Y-89077500D01*
X172650000Y-89094869D01*
X172759661Y-89077500D01*
X172858587Y-89027095D01*
X172937095Y-88948587D01*
X172987500Y-88849661D01*
X173004869Y-88740000D01*
X172987500Y-88630339D01*
X172937095Y-88531413D01*
X172858587Y-88452905D01*
X172858584Y-88452903D01*
X172759661Y-88402500D01*
X172650000Y-88385131D01*
X172540338Y-88402500D01*
X172441415Y-88452903D01*
X172441412Y-88452905D01*
X172362905Y-88531412D01*
X172362903Y-88531415D01*
X172312500Y-88630338D01*
X172304174Y-88682903D01*
X172295131Y-88740000D01*
X168225682Y-88740000D01*
X168257095Y-88708587D01*
X168307500Y-88609661D01*
X168324869Y-88500000D01*
X168307500Y-88390339D01*
X168266565Y-88310000D01*
X171449479Y-88310000D01*
X171469412Y-88423047D01*
X171526804Y-88522452D01*
X171526806Y-88522455D01*
X171614739Y-88596240D01*
X171722606Y-88635500D01*
X171722607Y-88635500D01*
X171837393Y-88635500D01*
X171837394Y-88635500D01*
X171945261Y-88596240D01*
X172033194Y-88522455D01*
X172090588Y-88423045D01*
X172110521Y-88310000D01*
X172090588Y-88196955D01*
X172090587Y-88196953D01*
X172090587Y-88196952D01*
X172063479Y-88150000D01*
X181735131Y-88150000D01*
X181752500Y-88259661D01*
X181802905Y-88358587D01*
X181881413Y-88437095D01*
X181980339Y-88487500D01*
X182090000Y-88504869D01*
X182199661Y-88487500D01*
X182298587Y-88437095D01*
X182377095Y-88358587D01*
X182427500Y-88259661D01*
X182444869Y-88150000D01*
X182427500Y-88040339D01*
X182377095Y-87941413D01*
X182298587Y-87862905D01*
X182298584Y-87862903D01*
X182199661Y-87812500D01*
X182090000Y-87795131D01*
X181980338Y-87812500D01*
X181881415Y-87862903D01*
X181881412Y-87862905D01*
X181802905Y-87941412D01*
X181802903Y-87941415D01*
X181752500Y-88040338D01*
X181752500Y-88040339D01*
X181735131Y-88150000D01*
X172063479Y-88150000D01*
X172033195Y-88097547D01*
X172033194Y-88097545D01*
X171964077Y-88039549D01*
X171945261Y-88023760D01*
X171837394Y-87984500D01*
X171722606Y-87984500D01*
X171614737Y-88023760D01*
X171526808Y-88097541D01*
X171526804Y-88097546D01*
X171469412Y-88196952D01*
X171449479Y-88310000D01*
X168266565Y-88310000D01*
X168257095Y-88291413D01*
X168178587Y-88212905D01*
X168178584Y-88212903D01*
X168079661Y-88162500D01*
X167970000Y-88145131D01*
X167860338Y-88162500D01*
X167761415Y-88212903D01*
X167761412Y-88212905D01*
X167682905Y-88291412D01*
X167682903Y-88291415D01*
X167632500Y-88390338D01*
X167615131Y-88500000D01*
X156438883Y-88500000D01*
X156445466Y-88450000D01*
X156425687Y-88299764D01*
X156367698Y-88159767D01*
X156275451Y-88039549D01*
X156271137Y-88036239D01*
X156155233Y-87947302D01*
X156155228Y-87947299D01*
X156015235Y-87889312D01*
X155937894Y-87879130D01*
X155902720Y-87874500D01*
X155827280Y-87874500D01*
X155795425Y-87878693D01*
X155714764Y-87889312D01*
X155574771Y-87947299D01*
X155574766Y-87947302D01*
X155454549Y-88039548D01*
X155454548Y-88039549D01*
X155362302Y-88159766D01*
X155362299Y-88159771D01*
X155304312Y-88299764D01*
X155284534Y-88450000D01*
X149923038Y-88450000D01*
X149922952Y-87750000D01*
X186579479Y-87750000D01*
X186599412Y-87863047D01*
X186648057Y-87947302D01*
X186656806Y-87962455D01*
X186744739Y-88036240D01*
X186852606Y-88075500D01*
X186852607Y-88075500D01*
X186967393Y-88075500D01*
X186967394Y-88075500D01*
X187075261Y-88036240D01*
X187163194Y-87962455D01*
X187210574Y-87880388D01*
X187220587Y-87863047D01*
X187220587Y-87863046D01*
X187220588Y-87863045D01*
X187240521Y-87750000D01*
X187220588Y-87636955D01*
X187220587Y-87636953D01*
X187220587Y-87636952D01*
X187163195Y-87537547D01*
X187163194Y-87537545D01*
X187075261Y-87463760D01*
X186967394Y-87424500D01*
X186852606Y-87424500D01*
X186744737Y-87463760D01*
X186656808Y-87537541D01*
X186656804Y-87537546D01*
X186599412Y-87636952D01*
X186579479Y-87750000D01*
X149922952Y-87750000D01*
X149922779Y-86330000D01*
X160825131Y-86330000D01*
X160842500Y-86439661D01*
X160881518Y-86516240D01*
X160892905Y-86538587D01*
X160971413Y-86617095D01*
X161070339Y-86667500D01*
X161180000Y-86684869D01*
X161289661Y-86667500D01*
X161388587Y-86617095D01*
X161467095Y-86538587D01*
X161507137Y-86460000D01*
X167165131Y-86460000D01*
X167182500Y-86569661D01*
X167232350Y-86667499D01*
X167232905Y-86668587D01*
X167311413Y-86747095D01*
X167410339Y-86797500D01*
X167520000Y-86814869D01*
X167629661Y-86797500D01*
X167728587Y-86747095D01*
X167795682Y-86680000D01*
X185669479Y-86680000D01*
X185689412Y-86793047D01*
X185746804Y-86892452D01*
X185746806Y-86892455D01*
X185834739Y-86966240D01*
X185942606Y-87005500D01*
X185942607Y-87005500D01*
X186057393Y-87005500D01*
X186057394Y-87005500D01*
X186165261Y-86966240D01*
X186253194Y-86892455D01*
X186308016Y-86797500D01*
X186310587Y-86793047D01*
X186310587Y-86793046D01*
X186310588Y-86793045D01*
X186330521Y-86680000D01*
X186314430Y-86588746D01*
X186322547Y-86552135D01*
X186345926Y-86534195D01*
X186395261Y-86516240D01*
X186483194Y-86442455D01*
X186536377Y-86350339D01*
X186540587Y-86343047D01*
X186540587Y-86343046D01*
X186540588Y-86343045D01*
X186560521Y-86230000D01*
X186540588Y-86116955D01*
X186540587Y-86116953D01*
X186540587Y-86116952D01*
X186483195Y-86017547D01*
X186483194Y-86017545D01*
X186395261Y-85943760D01*
X186287394Y-85904500D01*
X186172606Y-85904500D01*
X186064737Y-85943760D01*
X185976808Y-86017541D01*
X185976804Y-86017546D01*
X185919412Y-86116952D01*
X185899479Y-86230000D01*
X185915569Y-86321249D01*
X185907451Y-86357863D01*
X185884073Y-86375803D01*
X185834739Y-86393759D01*
X185834736Y-86393762D01*
X185746808Y-86467541D01*
X185746804Y-86467546D01*
X185689412Y-86566952D01*
X185669479Y-86680000D01*
X167795682Y-86680000D01*
X167807095Y-86668587D01*
X167857500Y-86569661D01*
X167874869Y-86460000D01*
X167857500Y-86350339D01*
X167807095Y-86251413D01*
X167728587Y-86172905D01*
X167728584Y-86172903D01*
X167629661Y-86122500D01*
X167520000Y-86105131D01*
X167410338Y-86122500D01*
X167311415Y-86172903D01*
X167311412Y-86172905D01*
X167232905Y-86251412D01*
X167232903Y-86251415D01*
X167182500Y-86350338D01*
X167165131Y-86460000D01*
X161507137Y-86460000D01*
X161517500Y-86439661D01*
X161534869Y-86330000D01*
X161517500Y-86220339D01*
X161467095Y-86121413D01*
X161388587Y-86042905D01*
X161388584Y-86042903D01*
X161289661Y-85992500D01*
X161180000Y-85975131D01*
X161070338Y-85992500D01*
X160971415Y-86042903D01*
X160971412Y-86042905D01*
X160892905Y-86121412D01*
X160892903Y-86121415D01*
X160842500Y-86220338D01*
X160825131Y-86330000D01*
X149922779Y-86330000D01*
X149922529Y-84290000D01*
X155665131Y-84290000D01*
X155682500Y-84399661D01*
X155732905Y-84498587D01*
X155811413Y-84577095D01*
X155910339Y-84627500D01*
X156020000Y-84644869D01*
X156129661Y-84627500D01*
X156228587Y-84577095D01*
X156307095Y-84498587D01*
X156357500Y-84399661D01*
X156374869Y-84290000D01*
X156357500Y-84180339D01*
X156307095Y-84081413D01*
X156228587Y-84002905D01*
X156228584Y-84002903D01*
X156129661Y-83952500D01*
X156020000Y-83935131D01*
X155910338Y-83952500D01*
X155811415Y-84002903D01*
X155811412Y-84002905D01*
X155732905Y-84081412D01*
X155732903Y-84081415D01*
X155682500Y-84180338D01*
X155682500Y-84180339D01*
X155665131Y-84290000D01*
X149922529Y-84290000D01*
X149922256Y-82060000D01*
X163355131Y-82060000D01*
X163372500Y-82169661D01*
X163422905Y-82268587D01*
X163501413Y-82347095D01*
X163600339Y-82397500D01*
X163710000Y-82414869D01*
X163819661Y-82397500D01*
X163918587Y-82347095D01*
X163997095Y-82268587D01*
X164047500Y-82169661D01*
X164064869Y-82060000D01*
X164047500Y-81950339D01*
X163997095Y-81851413D01*
X163918587Y-81772905D01*
X163918584Y-81772903D01*
X163819661Y-81722500D01*
X163710000Y-81705131D01*
X163600338Y-81722500D01*
X163501415Y-81772903D01*
X163501412Y-81772905D01*
X163422905Y-81851412D01*
X163422903Y-81851415D01*
X163372500Y-81950338D01*
X163372500Y-81950339D01*
X163355131Y-82060000D01*
X149922256Y-82060000D01*
X149921951Y-79570000D01*
X155695131Y-79570000D01*
X155712500Y-79679661D01*
X155762905Y-79778587D01*
X155841413Y-79857095D01*
X155940339Y-79907500D01*
X156050000Y-79924869D01*
X156159661Y-79907500D01*
X156258587Y-79857095D01*
X156337095Y-79778587D01*
X156387500Y-79679661D01*
X156404869Y-79570000D01*
X156387500Y-79460339D01*
X156337095Y-79361413D01*
X156258587Y-79282905D01*
X156258584Y-79282903D01*
X156159661Y-79232500D01*
X156050000Y-79215131D01*
X155940338Y-79232500D01*
X155841415Y-79282903D01*
X155841412Y-79282905D01*
X155762905Y-79361412D01*
X155762903Y-79361415D01*
X155712500Y-79460338D01*
X155710064Y-79475716D01*
X155695131Y-79570000D01*
X149921951Y-79570000D01*
X149921939Y-79475709D01*
X149922094Y-79473714D01*
X149922085Y-79470986D01*
X149922086Y-79470984D01*
X149921933Y-79424122D01*
X149921933Y-79424053D01*
X149921964Y-79422765D01*
X149938399Y-79112850D01*
X149938695Y-79110152D01*
X149989673Y-78804780D01*
X149990278Y-78802095D01*
X149996886Y-78778927D01*
X150075197Y-78504365D01*
X150076084Y-78501808D01*
X150193878Y-78215468D01*
X150195048Y-78213024D01*
X150344223Y-77941707D01*
X150345665Y-77939401D01*
X150524334Y-77686542D01*
X150526030Y-77684409D01*
X150731931Y-77453202D01*
X150733868Y-77451260D01*
X150964405Y-77244617D01*
X150966536Y-77242913D01*
X151218811Y-77063435D01*
X151221118Y-77061982D01*
X151405134Y-76960032D01*
X151491928Y-76911947D01*
X151494405Y-76910750D01*
X151780333Y-76792046D01*
X151782911Y-76791141D01*
X152080358Y-76705266D01*
X152083024Y-76704656D01*
X152388225Y-76652694D01*
X152390960Y-76652386D01*
X152575995Y-76641974D01*
X152701430Y-76634917D01*
X152701430Y-76634916D01*
X152701995Y-76634885D01*
X152703370Y-76634846D01*
X152749024Y-76634847D01*
X152749027Y-76634846D01*
X152752959Y-76634846D01*
X152753129Y-76634831D01*
X209158677Y-76620513D01*
X209160595Y-76620660D01*
X209163354Y-76620651D01*
X209163357Y-76620652D01*
X209210253Y-76620499D01*
X209211595Y-76620532D01*
G37*
%TD.AperFunction*%
%TD*%
D19*
X180848000Y-90678000D03*
X184310000Y-98670000D03*
X189380000Y-91770000D03*
X173320000Y-90520000D03*
X178800000Y-98610000D03*
X165650000Y-88970000D03*
D20*
X169450000Y-101000000D03*
D19*
X163710000Y-82060000D03*
X173430000Y-98600000D03*
X181102000Y-93400500D03*
X192760000Y-95960000D03*
X179000000Y-96299500D03*
X163936113Y-91090817D03*
X163990000Y-92709500D03*
X156050000Y-79570000D03*
X175150000Y-98389500D03*
X161150000Y-92970000D03*
X182090000Y-88150000D03*
X187520000Y-98920000D03*
X172650000Y-88740000D03*
D20*
X167980000Y-100500000D03*
D19*
X167520000Y-86460000D03*
X165290000Y-100500000D03*
X172390000Y-93050000D03*
X177243650Y-98840962D03*
X167970000Y-88500000D03*
X180380000Y-96330500D03*
X170710000Y-100000000D03*
X204680000Y-92360000D03*
X173660000Y-99660000D03*
X154120000Y-88410000D03*
X183140000Y-94780000D03*
X184912000Y-91948000D03*
X185420000Y-91186000D03*
X187500000Y-84680000D03*
X190180000Y-94710000D03*
X186180000Y-94810000D03*
X163500000Y-89670000D03*
X168540000Y-99280000D03*
X176120000Y-101920000D03*
X174780000Y-91270000D03*
X183388000Y-102870000D03*
X184912000Y-90424000D03*
X163530000Y-90800000D03*
D20*
X163570000Y-79770000D03*
D19*
X152510000Y-88770000D03*
X186690000Y-91186000D03*
X163370000Y-93650000D03*
X158800000Y-95580000D03*
X154020000Y-100940000D03*
X203930000Y-87980000D03*
X177948018Y-96330500D03*
X191980000Y-94030000D03*
X185674000Y-90424000D03*
X186690000Y-90170000D03*
X163390000Y-92940000D03*
X171110000Y-101600000D03*
X181120000Y-90020000D03*
X186690000Y-90678000D03*
X171760000Y-102970000D03*
X188280000Y-85190000D03*
X168570000Y-86740000D03*
X169810000Y-86830000D03*
X185928000Y-91186000D03*
X177030000Y-102520000D03*
X175599500Y-92920000D03*
D20*
X160010000Y-80160000D03*
D19*
X157870000Y-104240000D03*
X163610000Y-88450000D03*
X176080000Y-92250000D03*
X171720000Y-99970000D03*
X158160000Y-87660000D03*
X204770000Y-95400000D03*
X179650000Y-79460000D03*
X181710000Y-85800000D03*
X175370000Y-85360000D03*
X167460000Y-95340000D03*
X158580000Y-88160000D03*
X153340000Y-85280000D03*
X185420000Y-91694000D03*
X178990000Y-85390000D03*
X203730000Y-90950000D03*
D20*
X160270000Y-84160000D03*
D19*
X178770000Y-88340500D03*
X184912000Y-91186000D03*
X203910000Y-89490000D03*
X183990000Y-81510000D03*
X156020000Y-84290000D03*
X154190000Y-90470000D03*
X161180000Y-86330000D03*
X196470000Y-99290000D03*
D20*
X199220000Y-96990000D03*
X204030000Y-93070000D03*
D19*
X198500000Y-99010500D03*
X184280000Y-100120000D03*
X199158861Y-98978540D03*
X173780315Y-99009500D03*
D20*
X156060000Y-90580000D03*
X156020000Y-91580000D03*
X180390000Y-92310000D03*
X169585000Y-90810000D03*
X168800000Y-90770000D03*
X181110000Y-95860000D03*
X170450000Y-90840000D03*
X179990000Y-89810000D03*
X170020000Y-95840000D03*
X175190000Y-90100000D03*
X172570000Y-92090000D03*
X169970000Y-90680000D03*
X161860000Y-101570000D03*
X164870000Y-98890000D03*
X170300000Y-94390000D03*
X190460000Y-89750000D03*
X190500000Y-90230000D03*
X170720000Y-95120000D03*
X170855000Y-90895000D03*
X186910000Y-87750000D03*
X193310000Y-91180000D03*
X171780000Y-88310000D03*
X190610000Y-91610000D03*
X171230000Y-96740000D03*
X190720000Y-92030000D03*
X170510000Y-97590000D03*
X170040000Y-97430000D03*
X192680000Y-92740000D03*
X195080000Y-97300000D03*
X169640000Y-97330000D03*
X161250000Y-101470000D03*
X162580000Y-97840000D03*
X162210000Y-98400000D03*
X160858406Y-102628406D03*
X164040000Y-101300000D03*
X165100000Y-103090000D03*
X165000000Y-101730000D03*
X163690000Y-101700000D03*
X168090000Y-91040000D03*
X172980000Y-99370000D03*
X187000000Y-96330000D03*
X187000000Y-94160000D03*
X165880000Y-95880000D03*
X186230000Y-86230000D03*
X166330000Y-95790000D03*
X186000000Y-86680000D03*
D21*
X207380000Y-103490000D03*
X207863274Y-102323274D03*
X207863274Y-104656726D03*
X209030000Y-101840000D03*
X209030000Y-103490000D03*
X209030000Y-105140000D03*
X210196726Y-102323274D03*
X210196726Y-104656726D03*
X210680000Y-103490000D03*
D22*
X202760000Y-84750000D03*
X202760000Y-99250000D03*
D23*
X208720000Y-84750000D03*
X208720000Y-99250000D03*
D21*
X207270000Y-79600000D03*
X207753274Y-78433274D03*
X207753274Y-80766726D03*
X208920000Y-77950000D03*
X208920000Y-79600000D03*
X208920000Y-81250000D03*
X210086726Y-78433274D03*
X210086726Y-80766726D03*
X210570000Y-79600000D03*
X155865000Y-88450000D03*
X155865000Y-94230000D03*
D24*
X156365000Y-87020000D03*
D25*
X152185000Y-87020000D03*
D24*
X156365000Y-95660000D03*
D25*
X152185000Y-95660000D03*
M02*
