%TF.GenerationSoftware,KiCad,Pcbnew,7.0.8*%
%TF.CreationDate,2024-04-11T13:26:54+03:00*%
%TF.ProjectId,rp2040DVI,72703230-3430-4445-9649-2e6b69636164,rev?*%
%TF.SameCoordinates,Original*%
%TF.FileFunction,Soldermask,Bot*%
%TF.FilePolarity,Negative*%
%FSLAX46Y46*%
G04 Gerber Fmt 4.6, Leading zero omitted, Abs format (unit mm)*
G04 Created by KiCad (PCBNEW 7.0.8) date 2024-04-11 13:26:54*
%MOMM*%
%LPD*%
G01*
G04 APERTURE LIST*
G04 Aperture macros list*
%AMRoundRect*
0 Rectangle with rounded corners*
0 $1 Rounding radius*
0 $2 $3 $4 $5 $6 $7 $8 $9 X,Y pos of 4 corners*
0 Add a 4 corners polygon primitive as box body*
4,1,4,$2,$3,$4,$5,$6,$7,$8,$9,$2,$3,0*
0 Add four circle primitives for the rounded corners*
1,1,$1+$1,$2,$3*
1,1,$1+$1,$4,$5*
1,1,$1+$1,$6,$7*
1,1,$1+$1,$8,$9*
0 Add four rect primitives between the rounded corners*
20,1,$1+$1,$2,$3,$4,$5,0*
20,1,$1+$1,$4,$5,$6,$7,0*
20,1,$1+$1,$6,$7,$8,$9,0*
20,1,$1+$1,$8,$9,$2,$3,0*%
G04 Aperture macros list end*
%ADD10C,0.700000*%
%ADD11C,4.400000*%
%ADD12O,3.300000X1.500000*%
%ADD13O,2.300000X1.500000*%
%ADD14C,0.650000*%
%ADD15O,2.100000X1.000000*%
%ADD16O,1.800000X1.000000*%
%ADD17RoundRect,0.135000X-0.185000X0.135000X-0.185000X-0.135000X0.185000X-0.135000X0.185000X0.135000X0*%
%ADD18RoundRect,0.135000X0.185000X-0.135000X0.185000X0.135000X-0.185000X0.135000X-0.185000X-0.135000X0*%
%ADD19RoundRect,0.140000X0.170000X-0.140000X0.170000X0.140000X-0.170000X0.140000X-0.170000X-0.140000X0*%
%ADD20R,0.700000X1.750000*%
%ADD21R,1.450000X1.000000*%
%ADD22R,1.000000X1.550000*%
%ADD23R,0.800000X1.500000*%
%ADD24R,1.300000X1.500000*%
%ADD25R,1.500000X1.500000*%
%ADD26R,0.800000X1.400000*%
G04 APERTURE END LIST*
D10*
%TO.C,H2*%
X207380000Y-103490000D03*
X207863274Y-102323274D03*
X207863274Y-104656726D03*
X209030000Y-101840000D03*
D11*
X209030000Y-103490000D03*
D10*
X209030000Y-105140000D03*
X210196726Y-102323274D03*
X210196726Y-104656726D03*
X210680000Y-103490000D03*
%TD*%
D12*
%TO.C,J1*%
X202760000Y-84750000D03*
X202760000Y-99250000D03*
D13*
X208720000Y-84750000D03*
X208720000Y-99250000D03*
%TD*%
D10*
%TO.C,H1*%
X207270000Y-79600000D03*
X207753274Y-78433274D03*
X207753274Y-80766726D03*
X208920000Y-77950000D03*
D11*
X208920000Y-79600000D03*
D10*
X208920000Y-81250000D03*
X210086726Y-78433274D03*
X210086726Y-80766726D03*
X210570000Y-79600000D03*
%TD*%
D14*
%TO.C,J2*%
X155865000Y-88450000D03*
X155865000Y-94230000D03*
D15*
X156365000Y-87020000D03*
D16*
X152185000Y-87020000D03*
D15*
X156365000Y-95660000D03*
D16*
X152185000Y-95660000D03*
%TD*%
D17*
%TO.C,R10*%
X174150000Y-91750000D03*
X174150000Y-92770000D03*
%TD*%
D18*
%TO.C,R11*%
X181000000Y-92250000D03*
X181000000Y-91230000D03*
%TD*%
%TO.C,R12*%
X177650000Y-92270000D03*
X177650000Y-91250000D03*
%TD*%
D19*
%TO.C,C20*%
X174150000Y-90750000D03*
X174150000Y-89790000D03*
%TD*%
D20*
%TO.C,J5*%
X182200000Y-94625000D03*
X181100000Y-94625000D03*
X180000000Y-94625000D03*
X178900000Y-94625000D03*
X177800000Y-94625000D03*
X176700000Y-94625000D03*
X175600000Y-94625000D03*
X174500000Y-94625000D03*
D21*
X173375000Y-103850000D03*
D22*
X184600000Y-105425000D03*
D23*
X173050000Y-102350000D03*
D24*
X173300000Y-94750000D03*
D25*
X184650000Y-94750000D03*
D26*
X185000000Y-103000000D03*
%TD*%
M02*
