M48
METRIC,TZ
T1C0.200
T2C0.300
T3C0.400
T4C0.600
T5C0.889
T6C0.950
T7C1.000
T8C1.520
T9C2.200
%
G90
G05
T1
X102190Y-84940
X102190Y-86340
X102890Y-84240
X102890Y-85640
X102890Y-87040
X103615Y-84940
X103615Y-86340
X104290Y-84240
X104290Y-85640
X104290Y-87040
X104990Y-84940
X104990Y-86340
T2
X56358Y-87325
X56570Y-85540
X57730Y-79050
X58130Y-93410
X59330Y-89160
X59340Y-84450
X61330Y-85000
X62300Y-55440
X64920Y-81170
X65140Y-112138
X65740Y-116960
X66206Y-112138
X66560Y-83710
X66720Y-87100
X68210Y-77000
X72830Y-117020
X74860Y-82710
X75420Y-81240
X79700Y-72000
X80705Y-80830
X83650Y-77060
X84020Y-80370
X85620Y-77250
X88256Y-82160
X88861Y-89960
X89536Y-79610
X90230Y-91476
X91520Y-92150
X91904Y-85310
X92090Y-77030
X94930Y-79590
X96330Y-74190
X97660Y-73640
X106500Y-77140
X107790Y-79500
X108450Y-63935
X108990Y-90800
X109070Y-80000
X109390Y-92120
X112660Y-81960
X113630Y-85630
X114090Y-83050
X115390Y-79911
X119180Y-68506
X121551Y-77210
X121551Y-78709
X121740Y-72360
X122210Y-81780
X122290Y-85600
X124110Y-72180
X126280Y-71650
X126320Y-70640
X126890Y-95360
X127240Y-77620
X127290Y-75460
X127640Y-92280
X127930Y-86990
X129140Y-94641
X130760Y-71240
X131030Y-95960
X131120Y-108760
X131130Y-90430
X131150Y-104610
X131220Y-110950
X131270Y-105700
X131950Y-74300
X132040Y-97660
X133270Y-108700
X133280Y-88880
X133660Y-111190
X134130Y-101120
X135450Y-71220
X135610Y-64030
X136630Y-107180
X137928Y-70304
X138970Y-65450
X139130Y-72480
X140010Y-70520
X141260Y-105550
X143060Y-67630
X143940Y-71480
X143998Y-67488
X144170Y-110300
X144430Y-95750
X144590Y-77010
X144970Y-90620
X145100Y-64120
X145170Y-87940
X145590Y-73800
X146270Y-97300
X147580Y-74370
X148404Y-65626
X148690Y-105610
X148790Y-78160
X149010Y-66300
X149530Y-77490
X151130Y-96230
X152660Y-67340
X152670Y-93990
X152800Y-92800
X152801Y-96330
X154470Y-108970
X155140Y-92860
X161880Y-96550
T3
X51643Y-123047
X51710Y-46300
X52127Y-121880
X52127Y-124213
X52193Y-45133
X52193Y-47467
X53293Y-121397
X53293Y-124697
X53360Y-44650
X53360Y-47950
X54460Y-121880
X54460Y-124213
X54527Y-45133
X54527Y-47467
X54943Y-123047
X55010Y-46300
X160463Y-46203
X160497Y-122937
X160947Y-45037
X160947Y-47370
X160980Y-121770
X160980Y-124103
X162113Y-44553
X162113Y-47853
X162147Y-121287
X162147Y-124587
X163280Y-45037
X163280Y-47370
X163313Y-121770
X163313Y-124103
X163763Y-46203
X163797Y-122937
T5
X143000Y-48870
X145500Y-48870
X148000Y-48870
X159810Y-109500
X159810Y-112000
X159810Y-114500
T6
X55848Y-110312
X55848Y-112812
X55848Y-115312
T7
X64770Y-119126
X67310Y-119126
X67406Y-99974
X67406Y-107574
X69850Y-119126
X72390Y-119126
X74930Y-119126
X77470Y-119126
X83581Y-119126
X86121Y-119126
X88661Y-119126
X94996Y-119126
X97536Y-119126
X100076Y-119126
X150718Y-54498
X150718Y-57038
X150718Y-59578
X150718Y-62118
T8
X157140Y-82610
X157140Y-87690
T9
X53293Y-123047
X53360Y-46300
X162113Y-46203
X162147Y-122937
T4
G00X53523Y-82182
M15
G01X52723Y-82182
M16
G05
G00X53523Y-90822
M15
G01X52723Y-90822
M16
G05
G00X57853Y-82182
M15
G01X56753Y-82182
M16
G05
G00X57853Y-90822
M15
G01X56753Y-90822
M16
G05
T0
M30
