M48
METRIC,TZ
T1C0.150
T2C0.400
T3C0.600
T4C0.900
T5C2.200
%
G90
G05
T1
X152510Y-88770
X153340Y-85280
X154020Y-100940
X154120Y-88410
X154190Y-90470
X156020Y-84290
X156020Y-91580
X156050Y-79570
X156060Y-90580
X157870Y-104240
X158160Y-87660
X158580Y-88160
X158800Y-95580
X160010Y-80160
X160270Y-84160
X160858Y-102628
X161150Y-92970
X161180Y-86330
X161250Y-101470
X161860Y-101570
X162210Y-98400
X162580Y-97840
X163370Y-93650
X163390Y-92940
X163500Y-89670
X163530Y-90800
X163570Y-79770
X163610Y-88450
X163690Y-101700
X163710Y-82060
X163936Y-91091
X163990Y-92709
X164040Y-101300
X164870Y-98890
X165000Y-101730
X165100Y-103090
X165290Y-100500
X165650Y-88970
X165880Y-95880
X166330Y-95790
X167460Y-95340
X167520Y-86460
X167970Y-88500
X167980Y-100500
X168090Y-91040
X168540Y-99280
X168570Y-86740
X168800Y-90770
X169450Y-101000
X169585Y-90810
X169640Y-97330
X169810Y-86830
X169970Y-90680
X170020Y-95840
X170040Y-97430
X170300Y-94390
X170450Y-90840
X170510Y-97590
X170710Y-100000
X170720Y-95120
X170855Y-90895
X171110Y-101600
X171230Y-96740
X171720Y-99970
X171760Y-102970
X171780Y-88310
X172390Y-93050
X172570Y-92090
X172650Y-88740
X172980Y-99370
X173320Y-90520
X173430Y-98600
X173660Y-99660
X173780Y-99009
X174780Y-91270
X175150Y-98390
X175190Y-90100
X175370Y-85360
X175600Y-92920
X176080Y-92250
X176120Y-101920
X177030Y-102520
X177244Y-98841
X177948Y-96331
X178770Y-88341
X178800Y-98610
X178990Y-85390
X179000Y-96299
X179650Y-79460
X179990Y-89810
X180380Y-96331
X180390Y-92310
X180848Y-90678
X181102Y-93401
X181110Y-95860
X181120Y-90020
X181710Y-85800
X182090Y-88150
X183140Y-94780
X183388Y-102870
X183990Y-81510
X184280Y-100120
X184310Y-98670
X184912Y-90424
X184912Y-91186
X184912Y-91948
X185420Y-91186
X185420Y-91694
X185674Y-90424
X185928Y-91186
X186000Y-86680
X186180Y-94810
X186230Y-86230
X186690Y-90170
X186690Y-90678
X186690Y-91186
X186910Y-87750
X187000Y-94160
X187000Y-96330
X187500Y-84680
X187520Y-98920
X188280Y-85190
X189380Y-91770
X190180Y-94710
X190460Y-89750
X190500Y-90230
X190610Y-91610
X190720Y-92030
X191980Y-94030
X192680Y-92740
X192760Y-95960
X193310Y-91180
X195080Y-97300
X196470Y-99290
X198500Y-99011
X199159Y-98979
X199220Y-96990
X203730Y-90950
X203910Y-89490
X203930Y-87980
X204030Y-93070
X204680Y-92360
X204770Y-95400
T2
X207270Y-79600
X207380Y-103490
X207753Y-78433
X207753Y-80767
X207863Y-102323
X207863Y-104657
X208920Y-77950
X208920Y-81250
X209030Y-101840
X209030Y-105140
X210087Y-78433
X210087Y-80767
X210197Y-102323
X210197Y-104657
X210570Y-79600
X210680Y-103490
T5
X208920Y-79600
X209030Y-103490
T3
G00X152585Y-87020
M15
G01X151785Y-87020
M16
G05
G00X152585Y-95660
M15
G01X151785Y-95660
M16
G05
G00X156915Y-87020
M15
G01X155815Y-87020
M16
G05
G00X156915Y-95660
M15
G01X155815Y-95660
M16
G05
T4
G00X201860Y-84750
M15
G01X203660Y-84750
M16
G05
G00X201860Y-99250
M15
G01X203660Y-99250
M16
G05
G00X208320Y-84750
M15
G01X209120Y-84750
M16
G05
G00X208320Y-99250
M15
G01X209120Y-99250
M16
G05
T0
M30
