%TF.GenerationSoftware,KiCad,Pcbnew,7.0.8*%
%TF.CreationDate,2024-04-11T13:26:56+03:00*%
%TF.ProjectId,rp2040DVI,72703230-3430-4445-9649-2e6b69636164,rev?*%
%TF.SameCoordinates,Original*%
%TF.FileFunction,Legend,Bot*%
%TF.FilePolarity,Positive*%
%FSLAX46Y46*%
G04 Gerber Fmt 4.6, Leading zero omitted, Abs format (unit mm)*
G04 Created by KiCad (PCBNEW 7.0.8) date 2024-04-11 13:26:56*
%MOMM*%
%LPD*%
G01*
G04 APERTURE LIST*
%ADD10C,0.120000*%
%ADD11C,0.150000*%
%ADD12C,0.100000*%
%ADD13C,0.150000*%
%ADD14C,0.149999*%
%ADD15C,0.350000*%
%ADD16O,2.700000X0.900000*%
%ADD17O,1.700000X0.900000*%
%ADD18O,1.700000X0.600000*%
%ADD19O,1.400000X0.600000*%
G04 APERTURE END LIST*
D10*
G36*
X186874726Y-104016235D02*
G01*
X186936319Y-104047031D01*
X186995606Y-104106318D01*
X187026144Y-104197931D01*
X187026144Y-104318671D01*
X186346144Y-104318671D01*
X186346144Y-104197932D01*
X186376682Y-104106318D01*
X186435969Y-104047032D01*
X186497566Y-104016233D01*
X186636385Y-103981528D01*
X186735903Y-103981528D01*
X186874726Y-104016235D01*
G37*
G36*
X186896407Y-101635813D02*
G01*
X186574716Y-101743044D01*
X186574716Y-101528583D01*
X186896407Y-101635813D01*
G37*
G36*
X186974412Y-100732744D02*
G01*
X186998736Y-100757069D01*
X187026144Y-100811884D01*
X187026144Y-101042481D01*
X186727097Y-101042481D01*
X186727097Y-100811884D01*
X186754504Y-100757068D01*
X186778829Y-100732744D01*
X186833643Y-100705338D01*
X186919600Y-100705338D01*
X186974412Y-100732744D01*
G37*
G36*
X186874726Y-99940045D02*
G01*
X186936319Y-99970841D01*
X186995606Y-100030128D01*
X187026144Y-100121741D01*
X187026144Y-100242481D01*
X186346144Y-100242481D01*
X186346144Y-100121742D01*
X186376682Y-100030128D01*
X186435969Y-99970842D01*
X186497566Y-99940043D01*
X186636385Y-99905338D01*
X186735903Y-99905338D01*
X186874726Y-99940045D01*
G37*
G36*
X187260430Y-105352958D02*
G01*
X186111858Y-105352958D01*
X186111858Y-105064386D01*
X186226144Y-105064386D01*
X186229923Y-105073509D01*
X186229223Y-105083360D01*
X186267319Y-105197646D01*
X186297408Y-105232337D01*
X186343214Y-105235593D01*
X186377905Y-105205504D01*
X186381161Y-105159698D01*
X186346144Y-105054648D01*
X186346144Y-104888073D01*
X186373550Y-104833260D01*
X186397875Y-104808936D01*
X186452690Y-104781529D01*
X186500551Y-104781529D01*
X186555366Y-104808936D01*
X186579690Y-104833261D01*
X186610485Y-104894851D01*
X186646984Y-105040843D01*
X186651042Y-105046320D01*
X186651526Y-105053124D01*
X186689621Y-105129314D01*
X186697082Y-105135784D01*
X186700861Y-105144907D01*
X186738955Y-105183002D01*
X186748079Y-105186781D01*
X186754549Y-105194241D01*
X186830740Y-105232337D01*
X186844668Y-105233326D01*
X186857573Y-105238672D01*
X186933763Y-105238672D01*
X186946666Y-105233327D01*
X186960596Y-105232337D01*
X187036787Y-105194242D01*
X187043257Y-105186780D01*
X187052380Y-105183002D01*
X187090475Y-105144908D01*
X187094253Y-105135784D01*
X187101715Y-105129314D01*
X187139810Y-105053124D01*
X187140799Y-105039193D01*
X187146144Y-105026291D01*
X187146144Y-104835814D01*
X187142364Y-104826690D01*
X187143065Y-104816840D01*
X187104970Y-104702555D01*
X187074882Y-104667864D01*
X187029075Y-104664608D01*
X186994384Y-104694696D01*
X186991128Y-104740503D01*
X187026144Y-104845551D01*
X187026144Y-105012126D01*
X186998736Y-105066940D01*
X186974412Y-105091265D01*
X186919600Y-105118672D01*
X186871738Y-105118672D01*
X186816924Y-105091265D01*
X186792599Y-105066941D01*
X186761803Y-105005349D01*
X186725306Y-104859358D01*
X186721245Y-104853877D01*
X186720762Y-104847077D01*
X186682666Y-104770886D01*
X186675206Y-104764416D01*
X186671427Y-104755292D01*
X186633332Y-104717198D01*
X186624209Y-104713419D01*
X186617739Y-104705958D01*
X186541549Y-104667863D01*
X186527618Y-104666873D01*
X186514716Y-104661529D01*
X186438525Y-104661529D01*
X186425622Y-104666873D01*
X186411692Y-104667863D01*
X186335502Y-104705958D01*
X186329031Y-104713419D01*
X186319908Y-104717198D01*
X186281814Y-104755293D01*
X186278035Y-104764415D01*
X186270574Y-104770886D01*
X186232479Y-104847077D01*
X186231488Y-104861006D01*
X186226144Y-104873910D01*
X186226144Y-105064386D01*
X186111858Y-105064386D01*
X186111858Y-104378671D01*
X186226144Y-104378671D01*
X186243718Y-104421097D01*
X186286144Y-104438671D01*
X187086144Y-104438671D01*
X187128570Y-104421097D01*
X187146144Y-104378671D01*
X187146144Y-104188195D01*
X187142364Y-104179071D01*
X187143065Y-104169222D01*
X187104970Y-104054935D01*
X187095818Y-104044383D01*
X187090475Y-104031483D01*
X187014285Y-103955293D01*
X187005163Y-103951514D01*
X186998692Y-103944053D01*
X186922501Y-103905958D01*
X186915697Y-103905474D01*
X186910220Y-103901416D01*
X186757839Y-103863320D01*
X186750315Y-103864439D01*
X186743287Y-103861528D01*
X186629001Y-103861528D01*
X186621973Y-103864438D01*
X186614449Y-103863319D01*
X186462068Y-103901416D01*
X186456590Y-103905474D01*
X186449787Y-103905958D01*
X186373597Y-103944053D01*
X186367126Y-103951514D01*
X186358004Y-103955293D01*
X186281814Y-104031483D01*
X186276470Y-104044383D01*
X186267319Y-104054935D01*
X186229223Y-104169221D01*
X186229923Y-104179071D01*
X186226144Y-104188195D01*
X186226144Y-104378671D01*
X186111858Y-104378671D01*
X186111858Y-103578671D01*
X186530906Y-103578671D01*
X186548480Y-103621097D01*
X186590906Y-103638671D01*
X186633332Y-103621097D01*
X186650906Y-103578671D01*
X186650906Y-102969148D01*
X186633332Y-102926722D01*
X186590906Y-102909148D01*
X186548480Y-102926722D01*
X186530906Y-102969148D01*
X186530906Y-103578671D01*
X186111858Y-103578671D01*
X186111858Y-102359624D01*
X186226144Y-102359624D01*
X186229923Y-102368747D01*
X186229223Y-102378598D01*
X186267319Y-102492884D01*
X186276470Y-102503435D01*
X186281814Y-102516336D01*
X186358004Y-102592526D01*
X186367126Y-102596304D01*
X186373597Y-102603766D01*
X186449787Y-102641861D01*
X186456590Y-102642344D01*
X186462068Y-102646403D01*
X186614449Y-102684500D01*
X186621973Y-102683380D01*
X186629001Y-102686291D01*
X186743287Y-102686291D01*
X186750315Y-102683379D01*
X186757839Y-102684499D01*
X186910220Y-102646403D01*
X186915697Y-102642344D01*
X186922501Y-102641861D01*
X186998692Y-102603766D01*
X187005163Y-102596304D01*
X187014285Y-102592526D01*
X187090475Y-102516336D01*
X187095818Y-102503435D01*
X187104970Y-102492884D01*
X187143065Y-102378597D01*
X187142364Y-102368747D01*
X187146144Y-102359624D01*
X187146144Y-102283433D01*
X187142364Y-102274309D01*
X187143065Y-102264459D01*
X187104970Y-102150174D01*
X187095819Y-102139623D01*
X187090476Y-102126722D01*
X187052381Y-102088626D01*
X187009955Y-102071053D01*
X186967528Y-102088625D01*
X186949955Y-102131051D01*
X186967527Y-102173478D01*
X186995606Y-102201558D01*
X187026144Y-102293170D01*
X187026144Y-102349887D01*
X186995606Y-102441500D01*
X186936319Y-102500787D01*
X186874726Y-102531583D01*
X186735903Y-102566291D01*
X186636385Y-102566291D01*
X186497566Y-102531585D01*
X186435969Y-102500787D01*
X186376682Y-102441500D01*
X186346144Y-102349886D01*
X186346144Y-102293170D01*
X186376681Y-102201558D01*
X186404762Y-102173478D01*
X186422334Y-102131051D01*
X186404761Y-102088625D01*
X186362334Y-102071053D01*
X186319908Y-102088626D01*
X186281813Y-102126722D01*
X186276469Y-102139624D01*
X186267319Y-102150174D01*
X186229223Y-102264459D01*
X186229923Y-102274309D01*
X186226144Y-102283433D01*
X186226144Y-102359624D01*
X186111858Y-102359624D01*
X186111858Y-101921455D01*
X186229223Y-101921455D01*
X186259311Y-101956146D01*
X186305118Y-101959402D01*
X187105118Y-101692735D01*
X187108505Y-101689796D01*
X187112977Y-101689479D01*
X187125439Y-101675109D01*
X187139809Y-101662647D01*
X187140126Y-101658175D01*
X187143065Y-101654788D01*
X187141716Y-101635814D01*
X187143065Y-101616840D01*
X187140126Y-101613452D01*
X187139809Y-101608981D01*
X187125437Y-101596516D01*
X187112976Y-101582149D01*
X187108505Y-101581831D01*
X187105118Y-101578893D01*
X186305118Y-101312227D01*
X186259311Y-101315483D01*
X186229223Y-101350174D01*
X186232479Y-101395981D01*
X186267170Y-101426069D01*
X186454716Y-101488584D01*
X186454716Y-101783044D01*
X186267170Y-101845560D01*
X186232479Y-101875648D01*
X186229223Y-101921455D01*
X186111858Y-101921455D01*
X186111858Y-101102481D01*
X186226144Y-101102481D01*
X186243718Y-101144907D01*
X186286144Y-101162481D01*
X186667097Y-101162481D01*
X187086144Y-101162481D01*
X187128570Y-101144907D01*
X187146144Y-101102481D01*
X187146144Y-100797719D01*
X187140799Y-100784816D01*
X187139810Y-100770886D01*
X187101715Y-100694696D01*
X187094253Y-100688225D01*
X187090475Y-100679102D01*
X187052380Y-100641008D01*
X187043257Y-100637229D01*
X187036787Y-100629768D01*
X186960596Y-100591673D01*
X186946666Y-100590682D01*
X186933763Y-100585338D01*
X186819478Y-100585338D01*
X186806573Y-100590683D01*
X186792645Y-100591673D01*
X186716454Y-100629769D01*
X186709984Y-100637228D01*
X186700860Y-100641008D01*
X186662766Y-100679103D01*
X186658987Y-100688225D01*
X186651526Y-100694696D01*
X186613431Y-100770886D01*
X186612441Y-100784816D01*
X186607403Y-100796980D01*
X186320552Y-100596184D01*
X186275717Y-100586252D01*
X186236990Y-100610930D01*
X186227058Y-100655765D01*
X186251736Y-100694492D01*
X186607097Y-100943244D01*
X186607097Y-101042481D01*
X186286144Y-101042481D01*
X186243718Y-101060055D01*
X186226144Y-101102481D01*
X186111858Y-101102481D01*
X186111858Y-100302481D01*
X186226144Y-100302481D01*
X186243718Y-100344907D01*
X186286144Y-100362481D01*
X187086144Y-100362481D01*
X187128570Y-100344907D01*
X187146144Y-100302481D01*
X187146144Y-100112005D01*
X187142364Y-100102881D01*
X187143065Y-100093032D01*
X187104970Y-99978745D01*
X187095818Y-99968193D01*
X187090475Y-99955293D01*
X187014285Y-99879103D01*
X187005163Y-99875324D01*
X186998692Y-99867863D01*
X186922501Y-99829768D01*
X186915697Y-99829284D01*
X186910220Y-99825226D01*
X186757839Y-99787130D01*
X186750315Y-99788249D01*
X186743287Y-99785338D01*
X186629001Y-99785338D01*
X186621973Y-99788248D01*
X186614449Y-99787129D01*
X186462068Y-99825226D01*
X186456590Y-99829284D01*
X186449787Y-99829768D01*
X186373597Y-99867863D01*
X186367126Y-99875324D01*
X186358004Y-99879103D01*
X186281814Y-99955293D01*
X186276470Y-99968193D01*
X186267319Y-99978745D01*
X186229223Y-100093031D01*
X186229923Y-100102881D01*
X186226144Y-100112005D01*
X186226144Y-100302481D01*
X186111858Y-100302481D01*
X186111858Y-99671052D01*
X187260430Y-99671052D01*
X187260430Y-105352958D01*
G37*
D11*
G36*
X208574661Y-94523027D02*
G01*
X208608733Y-94523989D01*
X208640149Y-94526023D01*
X208669458Y-94530631D01*
X208676053Y-94533035D01*
X208696494Y-94555452D01*
X208706907Y-94586158D01*
X208711080Y-94617734D01*
X208711956Y-94644410D01*
X208711885Y-94675109D01*
X208711571Y-94712816D01*
X208711004Y-94746837D01*
X208710185Y-94777170D01*
X208708808Y-94809903D01*
X208706635Y-94841580D01*
X208703896Y-94864961D01*
X208695138Y-94898277D01*
X208683884Y-94927151D01*
X208666306Y-94956997D01*
X208644829Y-94979902D01*
X208619451Y-94995866D01*
X208590174Y-95004889D01*
X208563945Y-95007110D01*
X208530292Y-95003813D01*
X208499949Y-94993921D01*
X208472916Y-94977435D01*
X208449193Y-94954354D01*
X208428780Y-94924678D01*
X208411678Y-94888408D01*
X208402115Y-94860565D01*
X208394024Y-94829790D01*
X208387403Y-94796085D01*
X208382254Y-94759448D01*
X208378576Y-94719881D01*
X208376369Y-94677383D01*
X208375634Y-94631953D01*
X208376845Y-94601977D01*
X208382226Y-94569623D01*
X208395005Y-94541416D01*
X208410072Y-94528639D01*
X208442029Y-94524632D01*
X208472838Y-94523470D01*
X208507116Y-94522920D01*
X208541230Y-94522777D01*
X208574661Y-94523027D01*
G37*
G36*
X207512557Y-94523060D02*
G01*
X207542495Y-94524107D01*
X207573951Y-94526941D01*
X207590882Y-94530837D01*
X207611867Y-94553368D01*
X207621957Y-94584738D01*
X207625185Y-94618077D01*
X207625320Y-94627557D01*
X207625263Y-94631953D01*
X207624836Y-94665001D01*
X207623385Y-94700029D01*
X207620966Y-94732641D01*
X207617580Y-94762837D01*
X207610687Y-94803602D01*
X207601618Y-94838932D01*
X207590371Y-94868827D01*
X207571990Y-94900231D01*
X207549739Y-94921972D01*
X207516484Y-94935561D01*
X207501489Y-94936769D01*
X207464566Y-94931742D01*
X207432566Y-94916664D01*
X207405490Y-94891534D01*
X207388413Y-94866090D01*
X207374106Y-94834991D01*
X207362567Y-94798238D01*
X207353798Y-94755830D01*
X207349490Y-94724417D01*
X207346414Y-94690492D01*
X207344567Y-94654053D01*
X207343952Y-94615101D01*
X207345967Y-94582769D01*
X207354153Y-94552401D01*
X207374209Y-94529610D01*
X207376192Y-94528639D01*
X207406675Y-94524431D01*
X207436625Y-94523241D01*
X207470645Y-94522800D01*
X207481705Y-94522777D01*
X207512557Y-94523060D01*
G37*
G36*
X210023465Y-96554558D02*
G01*
X206165067Y-96554558D01*
X206165067Y-94932372D01*
X206640533Y-94932372D01*
X206640729Y-94964626D01*
X206641317Y-94996449D01*
X206642297Y-95027841D01*
X206643670Y-95058802D01*
X206645434Y-95089333D01*
X206647591Y-95119433D01*
X206650140Y-95149102D01*
X206653081Y-95178340D01*
X206660139Y-95235524D01*
X206668766Y-95290986D01*
X206678961Y-95344724D01*
X206690725Y-95396739D01*
X206704057Y-95447031D01*
X206718957Y-95495600D01*
X206735427Y-95542446D01*
X206753464Y-95587569D01*
X206773071Y-95630969D01*
X206794245Y-95672646D01*
X206816989Y-95712599D01*
X206841300Y-95750830D01*
X206860058Y-95776974D01*
X206880335Y-95802101D01*
X206902132Y-95826210D01*
X206925450Y-95849302D01*
X206950286Y-95871376D01*
X206976643Y-95892433D01*
X207004520Y-95912472D01*
X207033916Y-95931493D01*
X207064833Y-95949497D01*
X207097269Y-95966484D01*
X207119737Y-95977243D01*
X207151963Y-95991647D01*
X207184343Y-96004634D01*
X207216878Y-96016205D01*
X207249567Y-96026359D01*
X207282411Y-96035096D01*
X207315410Y-96042416D01*
X207348563Y-96048319D01*
X207381871Y-96052806D01*
X207415333Y-96055875D01*
X207448950Y-96057528D01*
X207471447Y-96057843D01*
X207508118Y-96055954D01*
X207546323Y-96050287D01*
X207575983Y-96043557D01*
X207606506Y-96034702D01*
X207637893Y-96023722D01*
X207670142Y-96010617D01*
X207703255Y-95995386D01*
X207737230Y-95978030D01*
X207772068Y-95958549D01*
X207807769Y-95936943D01*
X207841878Y-95915468D01*
X207872212Y-95896105D01*
X207898773Y-95878854D01*
X207928317Y-95859139D01*
X207955812Y-95839776D01*
X207978886Y-95819709D01*
X207977030Y-95816775D01*
X208003176Y-95833004D01*
X208023913Y-95856045D01*
X208033450Y-95868066D01*
X208058929Y-95899299D01*
X208086092Y-95928517D01*
X208114937Y-95955719D01*
X208145465Y-95980907D01*
X208177677Y-96004079D01*
X208211571Y-96025237D01*
X208247149Y-96044379D01*
X208284409Y-96061507D01*
X208323353Y-96076619D01*
X208363979Y-96089717D01*
X208406288Y-96100799D01*
X208450281Y-96109867D01*
X208495956Y-96116919D01*
X208543314Y-96121957D01*
X208592355Y-96124979D01*
X208643080Y-96125987D01*
X208687258Y-96125054D01*
X208730767Y-96122255D01*
X208773606Y-96117589D01*
X208815775Y-96111058D01*
X208857274Y-96102660D01*
X208898104Y-96092396D01*
X208938263Y-96080266D01*
X208977754Y-96066270D01*
X209016574Y-96050407D01*
X209054724Y-96032679D01*
X209092205Y-96013084D01*
X209129016Y-95991623D01*
X209165157Y-95968296D01*
X209200629Y-95943102D01*
X209235431Y-95916043D01*
X209269563Y-95887117D01*
X209303280Y-95855785D01*
X209334821Y-95823702D01*
X209364188Y-95790870D01*
X209391379Y-95757287D01*
X209416395Y-95722955D01*
X209439235Y-95687873D01*
X209459900Y-95652040D01*
X209478390Y-95615458D01*
X209494705Y-95578126D01*
X209508844Y-95540045D01*
X209520808Y-95501213D01*
X209530597Y-95461631D01*
X209538211Y-95421300D01*
X209543649Y-95380218D01*
X209546912Y-95338387D01*
X209548000Y-95295806D01*
X209548000Y-95259005D01*
X209548000Y-95218946D01*
X209548000Y-95175629D01*
X209548000Y-95144940D01*
X209548000Y-95112803D01*
X209548000Y-95079218D01*
X209548000Y-95044184D01*
X209548000Y-95007702D01*
X209548000Y-94969772D01*
X209548000Y-94930394D01*
X209548000Y-94889567D01*
X209548000Y-94847292D01*
X209548000Y-94803569D01*
X209548000Y-94758397D01*
X209548000Y-94735268D01*
X209548000Y-94689378D01*
X209548000Y-94644948D01*
X209548000Y-94601977D01*
X209548000Y-94560467D01*
X209548000Y-94520416D01*
X209548000Y-94481824D01*
X209548000Y-94444693D01*
X209548000Y-94409021D01*
X209548000Y-94374809D01*
X209548000Y-94342056D01*
X209548000Y-94310764D01*
X209548000Y-94280931D01*
X209548000Y-94238918D01*
X209548000Y-94200190D01*
X209548000Y-94176196D01*
X209548000Y-94140136D01*
X209548000Y-94107501D01*
X209548000Y-94071500D01*
X209548000Y-94032133D01*
X209548000Y-94000399D01*
X209548000Y-93966771D01*
X209548000Y-93931250D01*
X209548000Y-93893836D01*
X209548000Y-93854528D01*
X209548000Y-93815371D01*
X209548000Y-93778133D01*
X209548000Y-93742814D01*
X209548000Y-93709414D01*
X209548000Y-93677933D01*
X209548000Y-93648371D01*
X209548000Y-93611941D01*
X209548000Y-93578922D01*
X209548000Y-93549316D01*
X209548000Y-93535792D01*
X209544244Y-93505979D01*
X209528989Y-93480691D01*
X209501998Y-93468713D01*
X209487916Y-93467648D01*
X209443604Y-93467860D01*
X209411845Y-93468238D01*
X209378311Y-93468805D01*
X209343003Y-93469560D01*
X209305920Y-93470505D01*
X209267063Y-93471638D01*
X209226430Y-93472961D01*
X209184024Y-93474472D01*
X209139843Y-93476172D01*
X209093887Y-93478061D01*
X209046156Y-93480139D01*
X208996651Y-93482406D01*
X208945372Y-93484862D01*
X208892318Y-93487507D01*
X208837489Y-93490340D01*
X208809409Y-93491828D01*
X208753690Y-93494845D01*
X208699740Y-93497667D01*
X208647559Y-93500294D01*
X208597147Y-93502727D01*
X208548503Y-93504965D01*
X208501629Y-93507009D01*
X208456523Y-93508858D01*
X208413186Y-93510512D01*
X208371618Y-93511972D01*
X208331819Y-93513237D01*
X208293789Y-93514308D01*
X208257527Y-93515184D01*
X208223035Y-93515865D01*
X208190311Y-93516351D01*
X208159356Y-93516643D01*
X208130170Y-93516741D01*
X208099000Y-93516652D01*
X208064476Y-93516386D01*
X208026597Y-93515942D01*
X207985364Y-93515321D01*
X207940777Y-93514522D01*
X207892834Y-93513546D01*
X207841538Y-93512393D01*
X207786886Y-93511062D01*
X207728881Y-93509554D01*
X207698620Y-93508733D01*
X207667520Y-93507868D01*
X207635582Y-93506958D01*
X207602806Y-93506004D01*
X207569190Y-93505006D01*
X207534736Y-93503964D01*
X207499444Y-93502877D01*
X207463312Y-93501745D01*
X207426343Y-93500570D01*
X207388534Y-93499350D01*
X207349887Y-93498085D01*
X207310401Y-93496777D01*
X207270077Y-93495423D01*
X207228914Y-93494026D01*
X207195159Y-93492830D01*
X207158469Y-93491441D01*
X207118841Y-93489859D01*
X207076277Y-93488084D01*
X207046270Y-93486793D01*
X207014957Y-93485416D01*
X206982339Y-93483954D01*
X206948416Y-93482405D01*
X206913188Y-93480771D01*
X206876654Y-93479051D01*
X206838816Y-93477245D01*
X206799672Y-93475353D01*
X206759223Y-93473375D01*
X206717469Y-93471311D01*
X206688160Y-93469113D01*
X206659137Y-93474712D01*
X206642812Y-93499614D01*
X206640533Y-93521137D01*
X206640533Y-94615101D01*
X206640533Y-94932372D01*
X206165067Y-94932372D01*
X206165067Y-92194898D01*
X206968795Y-92194898D01*
X206969410Y-92239389D01*
X206971257Y-92283284D01*
X206974333Y-92326583D01*
X206978641Y-92369288D01*
X206984179Y-92411397D01*
X206990949Y-92452910D01*
X206998949Y-92493829D01*
X207008179Y-92534152D01*
X207018641Y-92573879D01*
X207030333Y-92613012D01*
X207043256Y-92651548D01*
X207057409Y-92689490D01*
X207072794Y-92726836D01*
X207089409Y-92763587D01*
X207107255Y-92799743D01*
X207126332Y-92835303D01*
X207150334Y-92877006D01*
X207175447Y-92916018D01*
X207201671Y-92952339D01*
X207229005Y-92985970D01*
X207257450Y-93016911D01*
X207287005Y-93045161D01*
X207317671Y-93070721D01*
X207349448Y-93093590D01*
X207382334Y-93113769D01*
X207416332Y-93131257D01*
X207451440Y-93146054D01*
X207487658Y-93158162D01*
X207524988Y-93167578D01*
X207563427Y-93174304D01*
X207602977Y-93178340D01*
X207643638Y-93179685D01*
X207689133Y-93178317D01*
X207733294Y-93174213D01*
X207776122Y-93167372D01*
X207817615Y-93157795D01*
X207857775Y-93145482D01*
X207896601Y-93130432D01*
X207934093Y-93112647D01*
X207970252Y-93092124D01*
X208005076Y-93068866D01*
X208038567Y-93042871D01*
X208070724Y-93014140D01*
X208101548Y-92982673D01*
X208131037Y-92948470D01*
X208159193Y-92911530D01*
X208186015Y-92871854D01*
X208211503Y-92829441D01*
X208223709Y-92866291D01*
X208237795Y-92901827D01*
X208253762Y-92936049D01*
X208271609Y-92968957D01*
X208291337Y-93000552D01*
X208312945Y-93030833D01*
X208336434Y-93059800D01*
X208361804Y-93087453D01*
X208389053Y-93113793D01*
X208418184Y-93138819D01*
X208438648Y-93154773D01*
X208470209Y-93177296D01*
X208502516Y-93197603D01*
X208535570Y-93215695D01*
X208569372Y-93231572D01*
X208603920Y-93245233D01*
X208639216Y-93256679D01*
X208675258Y-93265910D01*
X208712048Y-93272925D01*
X208749584Y-93277725D01*
X208787868Y-93280310D01*
X208813806Y-93280802D01*
X208861834Y-93279474D01*
X208908465Y-93275490D01*
X208953699Y-93268849D01*
X208997537Y-93259553D01*
X209039978Y-93247600D01*
X209081022Y-93232991D01*
X209120670Y-93215727D01*
X209158921Y-93195806D01*
X209195775Y-93173228D01*
X209231232Y-93147995D01*
X209265292Y-93120105D01*
X209297956Y-93089560D01*
X209329223Y-93056358D01*
X209359093Y-93020500D01*
X209387566Y-92981986D01*
X209414643Y-92940816D01*
X209436470Y-92904257D01*
X209456889Y-92866753D01*
X209475900Y-92828305D01*
X209493503Y-92788912D01*
X209509697Y-92748575D01*
X209524483Y-92707293D01*
X209537862Y-92665067D01*
X209549831Y-92621896D01*
X209560393Y-92577780D01*
X209569546Y-92532721D01*
X209577291Y-92486716D01*
X209583628Y-92439767D01*
X209588557Y-92391873D01*
X209592078Y-92343035D01*
X209594190Y-92293253D01*
X209594894Y-92242526D01*
X209594456Y-92201544D01*
X209593142Y-92158282D01*
X209591780Y-92128174D01*
X209590028Y-92097053D01*
X209587887Y-92064919D01*
X209585357Y-92031772D01*
X209582438Y-91997611D01*
X209579129Y-91962437D01*
X209575431Y-91926250D01*
X209571344Y-91889050D01*
X209566867Y-91850836D01*
X209562001Y-91811610D01*
X209556746Y-91771370D01*
X209551102Y-91730117D01*
X209545069Y-91687850D01*
X209537177Y-91633726D01*
X209529074Y-91583093D01*
X209520760Y-91535952D01*
X209512233Y-91492303D01*
X209503495Y-91452146D01*
X209494545Y-91415481D01*
X209485383Y-91382308D01*
X209476009Y-91352627D01*
X209461551Y-91314652D01*
X209446617Y-91284535D01*
X209425963Y-91256599D01*
X209398954Y-91241322D01*
X209393394Y-91240886D01*
X209364491Y-91247812D01*
X209343568Y-91255540D01*
X209307401Y-91268043D01*
X209270891Y-91280453D01*
X209234037Y-91292772D01*
X209196839Y-91305000D01*
X209159298Y-91317135D01*
X209121414Y-91329180D01*
X209083186Y-91341132D01*
X209044615Y-91352993D01*
X209005700Y-91364763D01*
X208966442Y-91376441D01*
X208926840Y-91388027D01*
X208886895Y-91399521D01*
X208846607Y-91410925D01*
X208805974Y-91422236D01*
X208764999Y-91433456D01*
X208723680Y-91444584D01*
X208694508Y-91455026D01*
X208669764Y-91473745D01*
X208657588Y-91501608D01*
X208657002Y-91510530D01*
X208660711Y-91540302D01*
X208667306Y-91569874D01*
X208675320Y-91600461D01*
X208683380Y-91628820D01*
X208692905Y-91660636D01*
X208703896Y-91695910D01*
X208714887Y-91731791D01*
X208724413Y-91765428D01*
X208732473Y-91796821D01*
X208739067Y-91825969D01*
X208745250Y-91859250D01*
X208749142Y-91889024D01*
X208750791Y-91920125D01*
X208750250Y-91949849D01*
X208747410Y-91990840D01*
X208742135Y-92027516D01*
X208734427Y-92059877D01*
X208724284Y-92087923D01*
X208706973Y-92118606D01*
X208685335Y-92141618D01*
X208659369Y-92156960D01*
X208629075Y-92164630D01*
X208612305Y-92165589D01*
X208578817Y-92161594D01*
X208549794Y-92149607D01*
X208525236Y-92129628D01*
X208505144Y-92101659D01*
X208489516Y-92065698D01*
X208480725Y-92033483D01*
X208474446Y-91996773D01*
X208470679Y-91955567D01*
X208469563Y-91925600D01*
X208469423Y-91909867D01*
X208469852Y-91879985D01*
X208470973Y-91848198D01*
X208472553Y-91816049D01*
X208473819Y-91794096D01*
X208475422Y-91761398D01*
X208476782Y-91729541D01*
X208477483Y-91701772D01*
X208477394Y-91667390D01*
X208477125Y-91637515D01*
X208476567Y-91607616D01*
X208475422Y-91577849D01*
X208473819Y-91559623D01*
X208465997Y-91530239D01*
X208452378Y-91503642D01*
X208430888Y-91483377D01*
X208403079Y-91473921D01*
X208391021Y-91473161D01*
X208353177Y-91473298D01*
X208316947Y-91473710D01*
X208282331Y-91474397D01*
X208249330Y-91475359D01*
X208217943Y-91476595D01*
X208188170Y-91478107D01*
X208146537Y-91480889D01*
X208108537Y-91484289D01*
X208074169Y-91488308D01*
X208043433Y-91492944D01*
X208008102Y-91500088D01*
X207979228Y-91508332D01*
X207951659Y-91520605D01*
X207930059Y-91541857D01*
X207918428Y-91570991D01*
X207916213Y-91594794D01*
X207917720Y-91626356D01*
X207920976Y-91655793D01*
X207926055Y-91689508D01*
X207931859Y-91721811D01*
X207935264Y-91739141D01*
X207941489Y-91773162D01*
X207946427Y-91803782D01*
X207950559Y-91835207D01*
X207953135Y-91865455D01*
X207953582Y-91881290D01*
X207950863Y-91911054D01*
X207940422Y-91940111D01*
X207918343Y-91964830D01*
X207890934Y-91978148D01*
X207862111Y-91983697D01*
X207842207Y-91984605D01*
X207806745Y-91979382D01*
X207777292Y-91963711D01*
X207753851Y-91937593D01*
X207739425Y-91909177D01*
X207728846Y-91874075D01*
X207723437Y-91843360D01*
X207720191Y-91808885D01*
X207719109Y-91770648D01*
X207720575Y-91740744D01*
X207724261Y-91709393D01*
X207729207Y-91678670D01*
X207735802Y-91644392D01*
X207742556Y-91613112D01*
X207749311Y-91581921D01*
X207755906Y-91547986D01*
X207760852Y-91517864D01*
X207764538Y-91487540D01*
X207766004Y-91459239D01*
X207753241Y-91432772D01*
X207728497Y-91416786D01*
X207699325Y-91405750D01*
X207668008Y-91400347D01*
X207637436Y-91396593D01*
X207606203Y-91393205D01*
X207568948Y-91389472D01*
X207537055Y-91386448D01*
X207501775Y-91383230D01*
X207463107Y-91379819D01*
X207449465Y-91378639D01*
X207410647Y-91375365D01*
X207374701Y-91372413D01*
X207341627Y-91369784D01*
X207311426Y-91367476D01*
X207275625Y-91364900D01*
X207244931Y-91362897D01*
X207213743Y-91361197D01*
X207183484Y-91360321D01*
X207151473Y-91364579D01*
X207124317Y-91377356D01*
X207102014Y-91398651D01*
X207086482Y-91424272D01*
X207084566Y-91428464D01*
X207070547Y-91461855D01*
X207057432Y-91497180D01*
X207045222Y-91534441D01*
X207033916Y-91573636D01*
X207023515Y-91614766D01*
X207014018Y-91657831D01*
X207005426Y-91702831D01*
X206997738Y-91749766D01*
X206990954Y-91798635D01*
X206985075Y-91849440D01*
X206980101Y-91902179D01*
X206976031Y-91956853D01*
X206972865Y-92013462D01*
X206970604Y-92072006D01*
X206969813Y-92102004D01*
X206969247Y-92132485D01*
X206968908Y-92163450D01*
X206968795Y-92194898D01*
X206165067Y-92194898D01*
X206165067Y-88767927D01*
X206593638Y-88767927D01*
X206613602Y-88793311D01*
X206640576Y-88813564D01*
X206668259Y-88831820D01*
X206684496Y-88841933D01*
X206730549Y-88870171D01*
X206777484Y-88898650D01*
X206825300Y-88927370D01*
X206873998Y-88956330D01*
X206923578Y-88985530D01*
X206974039Y-89014971D01*
X206999600Y-89029781D01*
X207025381Y-89044652D01*
X207051383Y-89059583D01*
X207077605Y-89074574D01*
X207104048Y-89089625D01*
X207130711Y-89104736D01*
X207157594Y-89119907D01*
X207184698Y-89135138D01*
X207212022Y-89150430D01*
X207239567Y-89165781D01*
X207267332Y-89181193D01*
X207295317Y-89196665D01*
X207323523Y-89212197D01*
X207351949Y-89227789D01*
X207380596Y-89243441D01*
X207409463Y-89259153D01*
X207438550Y-89274925D01*
X207467858Y-89290757D01*
X207497386Y-89306650D01*
X207527134Y-89322602D01*
X207557514Y-89338838D01*
X207584905Y-89353746D01*
X207616779Y-89371561D01*
X207643340Y-89387017D01*
X207669072Y-89403020D01*
X207692977Y-89420961D01*
X207697127Y-89427383D01*
X207678858Y-89452956D01*
X207653493Y-89470627D01*
X207624052Y-89487360D01*
X207595063Y-89502061D01*
X207561243Y-89517929D01*
X207542521Y-89526301D01*
X207510633Y-89540422D01*
X207477340Y-89555856D01*
X207442644Y-89572605D01*
X207406543Y-89590667D01*
X207369039Y-89610042D01*
X207330130Y-89630732D01*
X207303412Y-89645255D01*
X207276069Y-89660362D01*
X207248102Y-89676052D01*
X207219511Y-89692327D01*
X207190297Y-89709185D01*
X207160458Y-89726628D01*
X207129995Y-89744654D01*
X207087723Y-89770239D01*
X207047735Y-89794422D01*
X207010031Y-89817203D01*
X206974611Y-89838581D01*
X206941475Y-89858556D01*
X206910623Y-89877129D01*
X206882055Y-89894300D01*
X206855772Y-89910068D01*
X206820629Y-89931090D01*
X206790625Y-89948957D01*
X206758614Y-89967870D01*
X206731448Y-89983623D01*
X206727727Y-89985722D01*
X206698095Y-90002972D01*
X206671272Y-90022252D01*
X206649048Y-90045700D01*
X206640533Y-90069986D01*
X206640533Y-90101396D01*
X206640533Y-90131900D01*
X206640533Y-90166339D01*
X206640533Y-90196725D01*
X206640533Y-90229629D01*
X206640533Y-90265052D01*
X206640533Y-90302993D01*
X206640533Y-90340958D01*
X206640533Y-90376449D01*
X206640533Y-90409468D01*
X206640533Y-90440013D01*
X206640533Y-90474718D01*
X206640533Y-90505558D01*
X206640533Y-90537466D01*
X206640533Y-90568842D01*
X206640533Y-90598845D01*
X206640533Y-90632355D01*
X206640533Y-90661687D01*
X206640533Y-90693263D01*
X206640533Y-90727083D01*
X206640533Y-90763147D01*
X206640533Y-90799371D01*
X206640533Y-90833306D01*
X206640533Y-90864950D01*
X206640533Y-90894305D01*
X206640533Y-90927779D01*
X206640533Y-90957675D01*
X206640533Y-90988827D01*
X206647127Y-91019190D01*
X206671490Y-91036901D01*
X206687427Y-91038653D01*
X206718694Y-91038573D01*
X206751862Y-91038332D01*
X206786930Y-91037931D01*
X206823898Y-91037370D01*
X206862767Y-91036649D01*
X206903536Y-91035768D01*
X206946206Y-91034726D01*
X206990777Y-91033524D01*
X207037248Y-91032161D01*
X207085619Y-91030638D01*
X207135891Y-91028955D01*
X207188064Y-91027112D01*
X207242137Y-91025109D01*
X207298111Y-91022945D01*
X207355985Y-91020621D01*
X207385635Y-91019399D01*
X207415759Y-91018136D01*
X207445886Y-91016874D01*
X207475540Y-91015652D01*
X207533431Y-91013328D01*
X207589433Y-91011164D01*
X207643546Y-91009160D01*
X207695771Y-91007317D01*
X207746106Y-91005634D01*
X207794551Y-91004111D01*
X207841108Y-91002749D01*
X207885776Y-91001547D01*
X207928555Y-91000505D01*
X207969445Y-90999623D01*
X208008445Y-90998902D01*
X208045557Y-90998341D01*
X208080779Y-90997940D01*
X208114113Y-90997700D01*
X208145557Y-90997620D01*
X208189437Y-90997807D01*
X208220887Y-90998139D01*
X208254095Y-90998637D01*
X208289060Y-90999301D01*
X208325782Y-91000131D01*
X208364262Y-91001127D01*
X208404499Y-91002289D01*
X208446493Y-91003617D01*
X208490245Y-91005111D01*
X208535754Y-91006771D01*
X208583021Y-91008597D01*
X208632045Y-91010589D01*
X208682827Y-91012747D01*
X208735366Y-91015072D01*
X208789662Y-91017562D01*
X208817469Y-91018869D01*
X208872555Y-91021531D01*
X208925890Y-91024021D01*
X208977473Y-91026339D01*
X209027304Y-91028486D01*
X209075384Y-91030461D01*
X209121712Y-91032264D01*
X209166288Y-91033896D01*
X209209113Y-91035355D01*
X209250185Y-91036643D01*
X209289507Y-91037760D01*
X209327076Y-91038704D01*
X209362894Y-91039477D01*
X209396960Y-91040078D01*
X209429275Y-91040507D01*
X209459837Y-91040765D01*
X209488648Y-91040851D01*
X209519947Y-91034196D01*
X209540986Y-91011504D01*
X209547768Y-90980959D01*
X209548000Y-90972707D01*
X209548000Y-90939623D01*
X209548000Y-90907684D01*
X209548000Y-90871774D01*
X209548000Y-90840186D01*
X209548000Y-90806057D01*
X209548000Y-90769386D01*
X209548000Y-90730174D01*
X209548000Y-90700638D01*
X209548000Y-90663400D01*
X209548000Y-90628613D01*
X209548000Y-90596276D01*
X209548000Y-90566388D01*
X209548000Y-90532475D01*
X209548000Y-90502389D01*
X209548000Y-90486175D01*
X209548000Y-90453014D01*
X209548000Y-90420892D01*
X209548000Y-90384692D01*
X209548000Y-90352796D01*
X209548000Y-90318289D01*
X209548000Y-90281172D01*
X209548000Y-90251621D01*
X209548000Y-90241444D01*
X209548000Y-90211535D01*
X209548000Y-90173919D01*
X209548000Y-90138891D01*
X209548000Y-90106451D01*
X209548000Y-90076598D01*
X209548000Y-90042920D01*
X209548000Y-90013286D01*
X209548000Y-89997445D01*
X209541914Y-89966630D01*
X209520876Y-89944219D01*
X209489095Y-89934694D01*
X209471063Y-89933698D01*
X209434220Y-89933893D01*
X209403673Y-89934294D01*
X209370628Y-89934914D01*
X209335083Y-89935754D01*
X209297040Y-89936812D01*
X209256498Y-89938089D01*
X209213457Y-89939586D01*
X209183375Y-89940705D01*
X209152183Y-89941921D01*
X209119880Y-89943235D01*
X209086466Y-89944646D01*
X209051942Y-89946154D01*
X209017329Y-89947663D01*
X208983833Y-89949074D01*
X208951453Y-89950388D01*
X208920189Y-89951604D01*
X208890041Y-89952723D01*
X208846912Y-89954219D01*
X208806295Y-89955497D01*
X208768190Y-89956555D01*
X208732596Y-89957394D01*
X208699513Y-89958015D01*
X208668943Y-89958416D01*
X208632089Y-89958611D01*
X208600404Y-89957394D01*
X208572240Y-89947663D01*
X208572005Y-89946154D01*
X208596479Y-89920294D01*
X208621951Y-89903779D01*
X208656413Y-89884006D01*
X208684383Y-89869014D01*
X208716348Y-89852573D01*
X208752309Y-89834685D01*
X208792266Y-89815347D01*
X208836218Y-89794562D01*
X208884166Y-89772328D01*
X208936110Y-89748646D01*
X208963580Y-89736262D01*
X208992049Y-89723516D01*
X209021517Y-89710408D01*
X209051984Y-89696937D01*
X209083450Y-89683105D01*
X209114915Y-89669315D01*
X209145382Y-89655882D01*
X209174850Y-89642806D01*
X209203319Y-89630085D01*
X209230790Y-89617721D01*
X209282733Y-89594062D01*
X209330681Y-89571828D01*
X209374633Y-89551020D01*
X209414590Y-89531637D01*
X209450551Y-89513679D01*
X209482516Y-89497147D01*
X209510486Y-89482040D01*
X209544948Y-89462053D01*
X209570421Y-89445272D01*
X209592896Y-89424432D01*
X209594894Y-89418590D01*
X209576914Y-89391370D01*
X209544948Y-89367099D01*
X209510486Y-89345679D01*
X209482516Y-89329868D01*
X209450551Y-89312832D01*
X209414590Y-89294571D01*
X209374633Y-89275085D01*
X209330681Y-89254374D01*
X209282733Y-89232438D01*
X209230790Y-89209277D01*
X209203319Y-89197237D01*
X209174850Y-89184891D01*
X209145382Y-89172239D01*
X209114915Y-89159280D01*
X209083450Y-89146015D01*
X209051984Y-89132811D01*
X209021517Y-89119946D01*
X208992049Y-89107418D01*
X208963580Y-89095228D01*
X208936110Y-89083375D01*
X208884166Y-89060683D01*
X208836218Y-89039343D01*
X208792266Y-89019353D01*
X208752309Y-89000714D01*
X208716348Y-88983426D01*
X208684383Y-88967490D01*
X208656413Y-88952904D01*
X208621951Y-88933558D01*
X208596479Y-88917252D01*
X208574003Y-88896830D01*
X208572005Y-88891025D01*
X208600404Y-88879785D01*
X208632089Y-88878569D01*
X208668943Y-88878764D01*
X208699513Y-88879165D01*
X208732596Y-88879785D01*
X208768190Y-88880625D01*
X208806295Y-88881683D01*
X208846912Y-88882960D01*
X208890041Y-88884457D01*
X208920189Y-88885576D01*
X208951453Y-88886792D01*
X208983833Y-88888106D01*
X209017329Y-88889517D01*
X209051942Y-88891025D01*
X209086466Y-88892534D01*
X209119880Y-88893945D01*
X209152183Y-88895259D01*
X209183375Y-88896475D01*
X209213457Y-88897594D01*
X209256498Y-88899090D01*
X209297040Y-88900368D01*
X209335083Y-88901426D01*
X209370628Y-88902265D01*
X209403673Y-88902886D01*
X209434220Y-88903287D01*
X209471063Y-88903482D01*
X209501041Y-88900536D01*
X209528765Y-88888094D01*
X209545295Y-88862850D01*
X209548000Y-88841933D01*
X209548000Y-88808075D01*
X209548000Y-88775571D01*
X209548000Y-88739167D01*
X209548000Y-88707236D01*
X209548000Y-88672810D01*
X209548000Y-88635887D01*
X209548000Y-88606557D01*
X209548000Y-88596468D01*
X209548000Y-88566677D01*
X209548000Y-88529159D01*
X209548000Y-88494160D01*
X209548000Y-88461679D01*
X209548000Y-88431718D01*
X209548000Y-88397807D01*
X209548000Y-88367833D01*
X209548000Y-88351737D01*
X209548000Y-88318653D01*
X209548000Y-88286714D01*
X209548000Y-88250804D01*
X209548000Y-88219216D01*
X209548000Y-88185087D01*
X209548000Y-88148416D01*
X209548000Y-88109204D01*
X209548000Y-88079563D01*
X209548000Y-88042285D01*
X209548000Y-88007572D01*
X209548000Y-87975424D01*
X209548000Y-87945840D01*
X209548000Y-87912466D01*
X209548000Y-87883100D01*
X209548000Y-87867404D01*
X209544244Y-87837591D01*
X209528989Y-87812303D01*
X209501998Y-87800325D01*
X209487916Y-87799260D01*
X209443604Y-87799440D01*
X209411845Y-87799761D01*
X209378311Y-87800242D01*
X209343003Y-87800883D01*
X209305920Y-87801684D01*
X209267063Y-87802646D01*
X209226430Y-87803768D01*
X209184024Y-87805050D01*
X209139843Y-87806493D01*
X209093887Y-87808095D01*
X209046156Y-87809859D01*
X208996651Y-87811782D01*
X208945372Y-87813866D01*
X208892318Y-87816110D01*
X208837489Y-87818514D01*
X208809409Y-87819776D01*
X208753690Y-87822261D01*
X208699740Y-87824585D01*
X208647559Y-87826749D01*
X208597147Y-87828752D01*
X208548503Y-87830595D01*
X208501629Y-87832278D01*
X208456523Y-87833801D01*
X208413186Y-87835163D01*
X208371618Y-87836366D01*
X208331819Y-87837407D01*
X208293789Y-87838289D01*
X208257527Y-87839010D01*
X208223035Y-87839571D01*
X208190311Y-87839972D01*
X208159356Y-87840212D01*
X208130170Y-87840293D01*
X208099186Y-87840215D01*
X208066319Y-87839983D01*
X208031569Y-87839597D01*
X207994936Y-87839056D01*
X207956419Y-87838361D01*
X207916018Y-87837511D01*
X207873735Y-87836506D01*
X207829568Y-87835347D01*
X207783518Y-87834033D01*
X207735584Y-87832565D01*
X207685767Y-87830942D01*
X207634067Y-87829164D01*
X207580483Y-87827232D01*
X207525016Y-87825146D01*
X207467666Y-87822905D01*
X207438284Y-87821726D01*
X207408432Y-87820509D01*
X207378535Y-87819292D01*
X207349110Y-87818113D01*
X207291676Y-87815872D01*
X207236132Y-87813786D01*
X207182477Y-87811854D01*
X207130711Y-87810076D01*
X207080834Y-87808453D01*
X207032846Y-87806985D01*
X206986747Y-87805671D01*
X206942537Y-87804512D01*
X206900216Y-87803507D01*
X206859784Y-87802657D01*
X206821242Y-87801962D01*
X206784588Y-87801421D01*
X206749824Y-87801034D01*
X206716948Y-87800803D01*
X206685962Y-87800725D01*
X206658278Y-87813811D01*
X206645901Y-87840801D01*
X206641242Y-87871972D01*
X206640533Y-87893782D01*
X206640252Y-87926820D01*
X206639565Y-87960274D01*
X206638678Y-87991773D01*
X206637504Y-88026563D01*
X206636360Y-88056765D01*
X206635031Y-88089074D01*
X206634671Y-88097480D01*
X206633125Y-88130487D01*
X206631786Y-88161365D01*
X206630401Y-88196968D01*
X206629339Y-88229243D01*
X206628488Y-88263581D01*
X206628102Y-88293127D01*
X206628076Y-88301912D01*
X206627484Y-88333322D01*
X206626085Y-88363826D01*
X206623863Y-88398265D01*
X206621493Y-88428651D01*
X206618597Y-88461555D01*
X206615173Y-88496978D01*
X206611224Y-88534919D01*
X206607102Y-88572861D01*
X206603530Y-88608284D01*
X206600507Y-88641188D01*
X206598034Y-88671573D01*
X206595716Y-88706013D01*
X206594256Y-88736517D01*
X206593638Y-88767927D01*
X206165067Y-88767927D01*
X206165067Y-87370689D01*
X210023465Y-87370689D01*
X210023465Y-96554558D01*
G37*
D12*
X173496109Y-91968571D02*
X173258014Y-91801905D01*
X173496109Y-91682857D02*
X172996109Y-91682857D01*
X172996109Y-91682857D02*
X172996109Y-91873333D01*
X172996109Y-91873333D02*
X173019919Y-91920952D01*
X173019919Y-91920952D02*
X173043728Y-91944762D01*
X173043728Y-91944762D02*
X173091347Y-91968571D01*
X173091347Y-91968571D02*
X173162776Y-91968571D01*
X173162776Y-91968571D02*
X173210395Y-91944762D01*
X173210395Y-91944762D02*
X173234204Y-91920952D01*
X173234204Y-91920952D02*
X173258014Y-91873333D01*
X173258014Y-91873333D02*
X173258014Y-91682857D01*
X173496109Y-92444762D02*
X173496109Y-92159048D01*
X173496109Y-92301905D02*
X172996109Y-92301905D01*
X172996109Y-92301905D02*
X173067538Y-92254286D01*
X173067538Y-92254286D02*
X173115157Y-92206667D01*
X173115157Y-92206667D02*
X173138966Y-92159048D01*
X172996109Y-92754285D02*
X172996109Y-92801904D01*
X172996109Y-92801904D02*
X173019919Y-92849523D01*
X173019919Y-92849523D02*
X173043728Y-92873333D01*
X173043728Y-92873333D02*
X173091347Y-92897142D01*
X173091347Y-92897142D02*
X173186585Y-92920952D01*
X173186585Y-92920952D02*
X173305633Y-92920952D01*
X173305633Y-92920952D02*
X173400871Y-92897142D01*
X173400871Y-92897142D02*
X173448490Y-92873333D01*
X173448490Y-92873333D02*
X173472300Y-92849523D01*
X173472300Y-92849523D02*
X173496109Y-92801904D01*
X173496109Y-92801904D02*
X173496109Y-92754285D01*
X173496109Y-92754285D02*
X173472300Y-92706666D01*
X173472300Y-92706666D02*
X173448490Y-92682857D01*
X173448490Y-92682857D02*
X173400871Y-92659047D01*
X173400871Y-92659047D02*
X173305633Y-92635238D01*
X173305633Y-92635238D02*
X173186585Y-92635238D01*
X173186585Y-92635238D02*
X173091347Y-92659047D01*
X173091347Y-92659047D02*
X173043728Y-92682857D01*
X173043728Y-92682857D02*
X173019919Y-92706666D01*
X173019919Y-92706666D02*
X172996109Y-92754285D01*
X182096109Y-91488571D02*
X181858014Y-91321905D01*
X182096109Y-91202857D02*
X181596109Y-91202857D01*
X181596109Y-91202857D02*
X181596109Y-91393333D01*
X181596109Y-91393333D02*
X181619919Y-91440952D01*
X181619919Y-91440952D02*
X181643728Y-91464762D01*
X181643728Y-91464762D02*
X181691347Y-91488571D01*
X181691347Y-91488571D02*
X181762776Y-91488571D01*
X181762776Y-91488571D02*
X181810395Y-91464762D01*
X181810395Y-91464762D02*
X181834204Y-91440952D01*
X181834204Y-91440952D02*
X181858014Y-91393333D01*
X181858014Y-91393333D02*
X181858014Y-91202857D01*
X182096109Y-91964762D02*
X182096109Y-91679048D01*
X182096109Y-91821905D02*
X181596109Y-91821905D01*
X181596109Y-91821905D02*
X181667538Y-91774286D01*
X181667538Y-91774286D02*
X181715157Y-91726667D01*
X181715157Y-91726667D02*
X181738966Y-91679048D01*
X182096109Y-92440952D02*
X182096109Y-92155238D01*
X182096109Y-92298095D02*
X181596109Y-92298095D01*
X181596109Y-92298095D02*
X181667538Y-92250476D01*
X181667538Y-92250476D02*
X181715157Y-92202857D01*
X181715157Y-92202857D02*
X181738966Y-92155238D01*
X176946109Y-91498571D02*
X176708014Y-91331905D01*
X176946109Y-91212857D02*
X176446109Y-91212857D01*
X176446109Y-91212857D02*
X176446109Y-91403333D01*
X176446109Y-91403333D02*
X176469919Y-91450952D01*
X176469919Y-91450952D02*
X176493728Y-91474762D01*
X176493728Y-91474762D02*
X176541347Y-91498571D01*
X176541347Y-91498571D02*
X176612776Y-91498571D01*
X176612776Y-91498571D02*
X176660395Y-91474762D01*
X176660395Y-91474762D02*
X176684204Y-91450952D01*
X176684204Y-91450952D02*
X176708014Y-91403333D01*
X176708014Y-91403333D02*
X176708014Y-91212857D01*
X176946109Y-91974762D02*
X176946109Y-91689048D01*
X176946109Y-91831905D02*
X176446109Y-91831905D01*
X176446109Y-91831905D02*
X176517538Y-91784286D01*
X176517538Y-91784286D02*
X176565157Y-91736667D01*
X176565157Y-91736667D02*
X176588966Y-91689048D01*
X176493728Y-92165238D02*
X176469919Y-92189047D01*
X176469919Y-92189047D02*
X176446109Y-92236666D01*
X176446109Y-92236666D02*
X176446109Y-92355714D01*
X176446109Y-92355714D02*
X176469919Y-92403333D01*
X176469919Y-92403333D02*
X176493728Y-92427142D01*
X176493728Y-92427142D02*
X176541347Y-92450952D01*
X176541347Y-92450952D02*
X176588966Y-92450952D01*
X176588966Y-92450952D02*
X176660395Y-92427142D01*
X176660395Y-92427142D02*
X176946109Y-92141428D01*
X176946109Y-92141428D02*
X176946109Y-92450952D01*
X175258490Y-90058571D02*
X175282300Y-90034762D01*
X175282300Y-90034762D02*
X175306109Y-89963333D01*
X175306109Y-89963333D02*
X175306109Y-89915714D01*
X175306109Y-89915714D02*
X175282300Y-89844286D01*
X175282300Y-89844286D02*
X175234680Y-89796667D01*
X175234680Y-89796667D02*
X175187061Y-89772857D01*
X175187061Y-89772857D02*
X175091823Y-89749048D01*
X175091823Y-89749048D02*
X175020395Y-89749048D01*
X175020395Y-89749048D02*
X174925157Y-89772857D01*
X174925157Y-89772857D02*
X174877538Y-89796667D01*
X174877538Y-89796667D02*
X174829919Y-89844286D01*
X174829919Y-89844286D02*
X174806109Y-89915714D01*
X174806109Y-89915714D02*
X174806109Y-89963333D01*
X174806109Y-89963333D02*
X174829919Y-90034762D01*
X174829919Y-90034762D02*
X174853728Y-90058571D01*
X174853728Y-90249048D02*
X174829919Y-90272857D01*
X174829919Y-90272857D02*
X174806109Y-90320476D01*
X174806109Y-90320476D02*
X174806109Y-90439524D01*
X174806109Y-90439524D02*
X174829919Y-90487143D01*
X174829919Y-90487143D02*
X174853728Y-90510952D01*
X174853728Y-90510952D02*
X174901347Y-90534762D01*
X174901347Y-90534762D02*
X174948966Y-90534762D01*
X174948966Y-90534762D02*
X175020395Y-90510952D01*
X175020395Y-90510952D02*
X175306109Y-90225238D01*
X175306109Y-90225238D02*
X175306109Y-90534762D01*
X174806109Y-90844285D02*
X174806109Y-90891904D01*
X174806109Y-90891904D02*
X174829919Y-90939523D01*
X174829919Y-90939523D02*
X174853728Y-90963333D01*
X174853728Y-90963333D02*
X174901347Y-90987142D01*
X174901347Y-90987142D02*
X174996585Y-91010952D01*
X174996585Y-91010952D02*
X175115633Y-91010952D01*
X175115633Y-91010952D02*
X175210871Y-90987142D01*
X175210871Y-90987142D02*
X175258490Y-90963333D01*
X175258490Y-90963333D02*
X175282300Y-90939523D01*
X175282300Y-90939523D02*
X175306109Y-90891904D01*
X175306109Y-90891904D02*
X175306109Y-90844285D01*
X175306109Y-90844285D02*
X175282300Y-90796666D01*
X175282300Y-90796666D02*
X175258490Y-90772857D01*
X175258490Y-90772857D02*
X175210871Y-90749047D01*
X175210871Y-90749047D02*
X175115633Y-90725238D01*
X175115633Y-90725238D02*
X174996585Y-90725238D01*
X174996585Y-90725238D02*
X174901347Y-90749047D01*
X174901347Y-90749047D02*
X174853728Y-90772857D01*
X174853728Y-90772857D02*
X174829919Y-90796666D01*
X174829919Y-90796666D02*
X174806109Y-90844285D01*
D11*
X179333333Y-107054819D02*
X179333333Y-107769104D01*
X179333333Y-107769104D02*
X179380952Y-107911961D01*
X179380952Y-107911961D02*
X179476190Y-108007200D01*
X179476190Y-108007200D02*
X179619047Y-108054819D01*
X179619047Y-108054819D02*
X179714285Y-108054819D01*
X178380952Y-107054819D02*
X178857142Y-107054819D01*
X178857142Y-107054819D02*
X178904761Y-107531009D01*
X178904761Y-107531009D02*
X178857142Y-107483390D01*
X178857142Y-107483390D02*
X178761904Y-107435771D01*
X178761904Y-107435771D02*
X178523809Y-107435771D01*
X178523809Y-107435771D02*
X178428571Y-107483390D01*
X178428571Y-107483390D02*
X178380952Y-107531009D01*
X178380952Y-107531009D02*
X178333333Y-107626247D01*
X178333333Y-107626247D02*
X178333333Y-107864342D01*
X178333333Y-107864342D02*
X178380952Y-107959580D01*
X178380952Y-107959580D02*
X178428571Y-108007200D01*
X178428571Y-108007200D02*
X178523809Y-108054819D01*
X178523809Y-108054819D02*
X178761904Y-108054819D01*
X178761904Y-108054819D02*
X178857142Y-108007200D01*
X178857142Y-108007200D02*
X178904761Y-107959580D01*
D10*
%TO.C,R10*%
X174530000Y-92106359D02*
X174530000Y-92413641D01*
X173770000Y-92106359D02*
X173770000Y-92413641D01*
%TO.C,R11*%
X180620000Y-91893641D02*
X180620000Y-91586359D01*
X181380000Y-91893641D02*
X181380000Y-91586359D01*
%TO.C,R12*%
X177270000Y-91913641D02*
X177270000Y-91606359D01*
X178030000Y-91913641D02*
X178030000Y-91606359D01*
%TO.C,C20*%
X173790000Y-90377836D02*
X173790000Y-90162164D01*
X174510000Y-90377836D02*
X174510000Y-90162164D01*
%TO.C,J5*%
X172590000Y-101350000D02*
X172590000Y-95750000D01*
X172590000Y-104600000D02*
X172590000Y-105760000D01*
X172590000Y-105760000D02*
X183850000Y-105760000D01*
X185350000Y-105760000D02*
X185460000Y-105760000D01*
X185460000Y-102050000D02*
X185460000Y-95750000D01*
X185460000Y-105760000D02*
X185460000Y-103950000D01*
%TD*%
D13*
X180848000Y-90678000D03*
X184310000Y-98670000D03*
X189380000Y-91770000D03*
X173320000Y-90520000D03*
X178800000Y-98610000D03*
X165650000Y-88970000D03*
D14*
X169450000Y-101000000D03*
D13*
X163710000Y-82060000D03*
X173430000Y-98600000D03*
X181102000Y-93400500D03*
X192760000Y-95960000D03*
X179000000Y-96299500D03*
X163936113Y-91090817D03*
X163990000Y-92709500D03*
X156050000Y-79570000D03*
X175150000Y-98389500D03*
X161150000Y-92970000D03*
X182090000Y-88150000D03*
X187520000Y-98920000D03*
X172650000Y-88740000D03*
D14*
X167980000Y-100500000D03*
D13*
X167520000Y-86460000D03*
X165290000Y-100500000D03*
X172390000Y-93050000D03*
X177243650Y-98840962D03*
X167970000Y-88500000D03*
X180380000Y-96330500D03*
X170710000Y-100000000D03*
X204680000Y-92360000D03*
X173660000Y-99660000D03*
X154120000Y-88410000D03*
X183140000Y-94780000D03*
X184912000Y-91948000D03*
X185420000Y-91186000D03*
X187500000Y-84680000D03*
X190180000Y-94710000D03*
X186180000Y-94810000D03*
X163500000Y-89670000D03*
X168540000Y-99280000D03*
X176120000Y-101920000D03*
X174780000Y-91270000D03*
X183388000Y-102870000D03*
X184912000Y-90424000D03*
X163530000Y-90800000D03*
D14*
X163570000Y-79770000D03*
D13*
X152510000Y-88770000D03*
X186690000Y-91186000D03*
X163370000Y-93650000D03*
X158800000Y-95580000D03*
X154020000Y-100940000D03*
X203930000Y-87980000D03*
X177948018Y-96330500D03*
X191980000Y-94030000D03*
X185674000Y-90424000D03*
X186690000Y-90170000D03*
X163390000Y-92940000D03*
X171110000Y-101600000D03*
X181120000Y-90020000D03*
X186690000Y-90678000D03*
X171760000Y-102970000D03*
X188280000Y-85190000D03*
X168570000Y-86740000D03*
X169810000Y-86830000D03*
X185928000Y-91186000D03*
X177030000Y-102520000D03*
X175599500Y-92920000D03*
D14*
X160010000Y-80160000D03*
D13*
X157870000Y-104240000D03*
X163610000Y-88450000D03*
X176080000Y-92250000D03*
X171720000Y-99970000D03*
X158160000Y-87660000D03*
X204770000Y-95400000D03*
X179650000Y-79460000D03*
X181710000Y-85800000D03*
X175370000Y-85360000D03*
X167460000Y-95340000D03*
X158580000Y-88160000D03*
X153340000Y-85280000D03*
X185420000Y-91694000D03*
X178990000Y-85390000D03*
X203730000Y-90950000D03*
D14*
X160270000Y-84160000D03*
D13*
X178770000Y-88340500D03*
X184912000Y-91186000D03*
X203910000Y-89490000D03*
X183990000Y-81510000D03*
X156020000Y-84290000D03*
X154190000Y-90470000D03*
X161180000Y-86330000D03*
X196470000Y-99290000D03*
D14*
X199220000Y-96990000D03*
X204030000Y-93070000D03*
D13*
X198500000Y-99010500D03*
X184280000Y-100120000D03*
X199158861Y-98978540D03*
X173780315Y-99009500D03*
D14*
X156060000Y-90580000D03*
X156020000Y-91580000D03*
X180390000Y-92310000D03*
X169585000Y-90810000D03*
X168800000Y-90770000D03*
X181110000Y-95860000D03*
X170450000Y-90840000D03*
X179990000Y-89810000D03*
X170020000Y-95840000D03*
X175190000Y-90100000D03*
X172570000Y-92090000D03*
X169970000Y-90680000D03*
X161860000Y-101570000D03*
X164870000Y-98890000D03*
X170300000Y-94390000D03*
X190460000Y-89750000D03*
X190500000Y-90230000D03*
X170720000Y-95120000D03*
X170855000Y-90895000D03*
X186910000Y-87750000D03*
X193310000Y-91180000D03*
X171780000Y-88310000D03*
X190610000Y-91610000D03*
X171230000Y-96740000D03*
X190720000Y-92030000D03*
X170510000Y-97590000D03*
X170040000Y-97430000D03*
X192680000Y-92740000D03*
X195080000Y-97300000D03*
X169640000Y-97330000D03*
X161250000Y-101470000D03*
X162580000Y-97840000D03*
X162210000Y-98400000D03*
X160858406Y-102628406D03*
X164040000Y-101300000D03*
X165100000Y-103090000D03*
X165000000Y-101730000D03*
X163690000Y-101700000D03*
X168090000Y-91040000D03*
X172980000Y-99370000D03*
X187000000Y-96330000D03*
X187000000Y-94160000D03*
X165880000Y-95880000D03*
X186230000Y-86230000D03*
X166330000Y-95790000D03*
X186000000Y-86680000D03*
D15*
X207380000Y-103490000D03*
X207863274Y-102323274D03*
X207863274Y-104656726D03*
X209030000Y-101840000D03*
X209030000Y-103490000D03*
X209030000Y-105140000D03*
X210196726Y-102323274D03*
X210196726Y-104656726D03*
X210680000Y-103490000D03*
D16*
X202760000Y-84750000D03*
X202760000Y-99250000D03*
D17*
X208720000Y-84750000D03*
X208720000Y-99250000D03*
D15*
X207270000Y-79600000D03*
X207753274Y-78433274D03*
X207753274Y-80766726D03*
X208920000Y-77950000D03*
X208920000Y-79600000D03*
X208920000Y-81250000D03*
X210086726Y-78433274D03*
X210086726Y-80766726D03*
X210570000Y-79600000D03*
X155865000Y-88450000D03*
X155865000Y-94230000D03*
D18*
X156365000Y-87020000D03*
D19*
X152185000Y-87020000D03*
D18*
X156365000Y-95660000D03*
D19*
X152185000Y-95660000D03*
M02*
